<svg xmlns="http://www.w3.org/2000/svg" xmlns:xlink="http://www.w3.org/1999/xlink" contentStyleType="text/css" data-diagram-type="CLASS" height="360px" preserveAspectRatio="none" style="width:457px;height:360px;background:#FFFFFF;" version="1.1" viewBox="0 0 457 360" width="457px" zoomAndPan="magnify"><defs/><g><!--class City--><g class="entity" data-entity="City" data-source-line="2" data-uid="ent0002" id="entity_City"><rect fill="#F1F1F1" height="80.9766" rx="2.5" ry="2.5" style="stroke:#181818;stroke-width:0.5;" width="180.8818" x="7" y="131.49"/><ellipse cx="80.0488" cy="147.49" fill="#ADD1B2" rx="11" ry="11" style="stroke:#181818;stroke-width:1;"/><path d="M82.522,153.6331 Q81.9409,153.9319 81.3018,154.0813 Q80.6626,154.2307 79.957,154.2307 Q77.4502,154.2307 76.1304,152.5789 Q74.8105,150.927 74.8105,147.8059 Q74.8105,144.6765 76.1304,143.0247 Q77.4502,141.3728 79.957,141.3728 Q80.6626,141.3728 81.3101,141.5222 Q81.9575,141.6716 82.522,141.9705 L82.522,144.6931 Q81.8911,144.1121 81.2976,143.8423 Q80.7041,143.5725 80.0732,143.5725 Q78.7285,143.5725 78.0437,144.6392 Q77.3589,145.7058 77.3589,147.8059 Q77.3589,149.8977 78.0437,150.9644 Q78.7285,152.031 80.0732,152.031 Q80.7041,152.031 81.2976,151.7612 Q81.8911,151.4915 82.522,150.9104 Z " fill="#000000"/><text fill="#000000" font-family="sans-serif" font-size="14" lengthAdjust="spacing" textLength="26.2842" x="100.5488" y="152.781">City</text><line style="stroke:#181818;stroke-width:0.5;" x1="8" x2="186.8818" y1="163.49" y2="163.49"/><text fill="#000000" font-family="sans-serif" font-size="14" lengthAdjust="spacing" textLength="83.3438" x="13" y="181.0252">String Name</text><text fill="#000000" font-family="sans-serif" font-size="14" lengthAdjust="spacing" textLength="168.8818" x="13" y="197.5134">Int NumberOfInhabitants</text><line style="stroke:#181818;stroke-width:0.5;" x1="8" x2="186.8818" y1="204.4666" y2="204.4666"/></g><!--class Attraction--><g class="entity" data-entity="Attraction" data-source-line="7" data-uid="ent0003" id="entity_Attraction"><rect fill="#F1F1F1" height="80.9766" rx="2.5" ry="2.5" style="stroke:#181818;stroke-width:0.5;" width="111.4834" x="41.7" y="272.46"/><ellipse cx="62.1672" cy="288.46" fill="#ADD1B2" rx="11" ry="11" style="stroke:#181818;stroke-width:1;"/><path d="M64.6404,294.6031 Q64.0593,294.9019 63.4202,295.0513 Q62.781,295.2007 62.0754,295.2007 Q59.5686,295.2007 58.2488,293.5489 Q56.929,291.897 56.929,288.7759 Q56.929,285.6465 58.2488,283.9947 Q59.5686,282.3428 62.0754,282.3428 Q62.781,282.3428 63.4285,282.4922 Q64.0759,282.6416 64.6404,282.9405 L64.6404,285.6631 Q64.0095,285.0821 63.416,284.8123 Q62.8225,284.5425 62.1917,284.5425 Q60.8469,284.5425 60.1621,285.6092 Q59.4773,286.6758 59.4773,288.7759 Q59.4773,290.8677 60.1621,291.9344 Q60.8469,293.001 62.1917,293.001 Q62.8225,293.001 63.416,292.7312 Q64.0095,292.4615 64.6404,291.8804 Z " fill="#000000"/><text fill="#000000" font-family="sans-serif" font-size="14" lengthAdjust="spacing" textLength="67.334" x="77.3822" y="293.751">Attraction</text><line style="stroke:#181818;stroke-width:0.5;" x1="42.7" x2="152.1834" y1="304.46" y2="304.46"/><text fill="#000000" font-family="sans-serif" font-size="14" lengthAdjust="spacing" textLength="83.3438" x="47.7" y="321.9952">String Name</text><text fill="#000000" font-family="sans-serif" font-size="14" lengthAdjust="spacing" textLength="99.4834" x="47.7" y="338.4834">String Address</text><line style="stroke:#181818;stroke-width:0.5;" x1="42.7" x2="152.1834" y1="345.4366" y2="345.4366"/></g><!--class Visitor--><g class="entity" data-entity="Visitor" data-source-line="12" data-uid="ent0004" id="entity_Visitor"><rect fill="#F1F1F1" height="48" rx="2.5" ry="2.5" style="stroke:#181818;stroke-width:0.5;" width="75.9482" x="227.47" y="15.24"/><ellipse cx="242.47" cy="31.24" fill="#ADD1B2" rx="11" ry="11" style="stroke:#181818;stroke-width:1;"/><path d="M244.9431,37.3831 Q244.3621,37.6819 243.7229,37.8313 Q243.0838,37.9807 242.3782,37.9807 Q239.8714,37.9807 238.5515,36.3289 Q237.2317,34.677 237.2317,31.5559 Q237.2317,28.4265 238.5515,26.7747 Q239.8714,25.1228 242.3782,25.1228 Q243.0838,25.1228 243.7312,25.2722 Q244.3787,25.4216 244.9431,25.7205 L244.9431,28.4431 Q244.3123,27.8621 243.7188,27.5923 Q243.1253,27.3225 242.4944,27.3225 Q241.1497,27.3225 240.4649,28.3892 Q239.7801,29.4558 239.7801,31.5559 Q239.7801,33.6477 240.4649,34.7144 Q241.1497,35.781 242.4944,35.781 Q243.1253,35.781 243.7188,35.5112 Q244.3123,35.2415 244.9431,34.6604 Z " fill="#000000"/><text fill="#000000" font-family="sans-serif" font-size="14" lengthAdjust="spacing" textLength="43.9482" x="256.47" y="36.531">Visitor</text><line style="stroke:#181818;stroke-width:0.5;" x1="228.47" x2="302.4182" y1="47.24" y2="47.24"/><line style="stroke:#181818;stroke-width:0.5;" x1="228.47" x2="302.4182" y1="55.24" y2="55.24"/></g><!--class GuidedTour--><g class="entity" data-entity="GuidedTour" data-source-line="14" data-uid="ent0005" id="entity_GuidedTour"><rect fill="#F1F1F1" height="80.9766" rx="2.5" ry="2.5" style="stroke:#181818;stroke-width:0.5;" width="112.1445" x="188.37" y="272.46"/><ellipse cx="203.37" cy="288.46" fill="#ADD1B2" rx="11" ry="11" style="stroke:#181818;stroke-width:1;"/><path d="M205.8431,294.6031 Q205.2621,294.9019 204.6229,295.0513 Q203.9838,295.2007 203.2782,295.2007 Q200.7714,295.2007 199.4515,293.5489 Q198.1317,291.897 198.1317,288.7759 Q198.1317,285.6465 199.4515,283.9947 Q200.7714,282.3428 203.2782,282.3428 Q203.9838,282.3428 204.6312,282.4922 Q205.2787,282.6416 205.8431,282.9405 L205.8431,285.6631 Q205.2123,285.0821 204.6188,284.8123 Q204.0253,284.5425 203.3944,284.5425 Q202.0497,284.5425 201.3649,285.6092 Q200.6801,286.6758 200.6801,288.7759 Q200.6801,290.8677 201.3649,291.9344 Q202.0497,293.001 203.3944,293.001 Q204.0253,293.001 204.6188,292.7312 Q205.2123,292.4615 205.8431,291.8804 Z " fill="#000000"/><text fill="#000000" font-family="sans-serif" font-size="14" lengthAdjust="spacing" textLength="80.1445" x="217.37" y="293.751">GuidedTour</text><line style="stroke:#181818;stroke-width:0.5;" x1="189.37" x2="299.5145" y1="304.46" y2="304.46"/><text fill="#000000" font-family="sans-serif" font-size="14" lengthAdjust="spacing" textLength="76.8291" x="194.37" y="321.9952">Int Number</text><text fill="#000000" font-family="sans-serif" font-size="14" lengthAdjust="spacing" textLength="81.5938" x="194.37" y="338.4834">Int Duration</text><line style="stroke:#181818;stroke-width:0.5;" x1="189.37" x2="299.5145" y1="345.4366" y2="345.4366"/></g><!--class Discount--><g class="entity" data-entity="Discount" data-source-line="19" data-uid="ent0006" id="entity_Discount"><rect fill="#F1F1F1" height="64.4883" rx="2.5" ry="2.5" style="stroke:#181818;stroke-width:0.5;" width="94.4414" x="271.22" y="139.73"/><ellipse cx="287.2945" cy="155.73" fill="#ADD1B2" rx="11" ry="11" style="stroke:#181818;stroke-width:1;"/><path d="M289.7676,161.8731 Q289.1866,162.1719 288.5474,162.3213 Q287.9082,162.4707 287.2027,162.4707 Q284.6958,162.4707 283.376,160.8189 Q282.0562,159.167 282.0562,156.0459 Q282.0562,152.9165 283.376,151.2647 Q284.6958,149.6128 287.2027,149.6128 Q287.9082,149.6128 288.5557,149.7622 Q289.2032,149.9116 289.7676,150.2105 L289.7676,152.9331 Q289.1367,152.3521 288.5432,152.0823 Q287.9497,151.8125 287.3189,151.8125 Q285.9742,151.8125 285.2893,152.8792 Q284.6045,153.9458 284.6045,156.0459 Q284.6045,158.1377 285.2893,159.2044 Q285.9742,160.271 287.3189,160.271 Q287.9497,160.271 288.5432,160.0012 Q289.1367,159.7315 289.7676,159.1504 Z " fill="#000000"/><text fill="#000000" font-family="sans-serif" font-size="14" lengthAdjust="spacing" textLength="60.0537" x="301.5332" y="161.021">Discount</text><line style="stroke:#181818;stroke-width:0.5;" x1="272.22" x2="364.6614" y1="171.73" y2="171.73"/><text fill="#000000" font-family="sans-serif" font-size="14" lengthAdjust="spacing" textLength="82.4414" x="277.22" y="189.2652">Int Discount</text><line style="stroke:#181818;stroke-width:0.5;" x1="272.22" x2="364.6614" y1="196.2183" y2="196.2183"/></g><!--class Person--><g class="entity" data-entity="Person" data-source-line="23" data-uid="ent0007" id="entity_Person"><rect fill="#F1F1F1" height="64.4883" rx="2.5" ry="2.5" style="stroke:#181818;stroke-width:0.5;" width="95.3438" x="354.77" y="7"/><ellipse cx="377.7136" cy="23" fill="#ADD1B2" rx="11" ry="11" style="stroke:#181818;stroke-width:1;"/><path d="M380.1867,29.1431 Q379.6056,29.4419 378.9665,29.5913 Q378.3273,29.7407 377.6218,29.7407 Q375.1149,29.7407 373.7951,28.0889 Q372.4753,26.437 372.4753,23.3159 Q372.4753,20.1865 373.7951,18.5347 Q375.1149,16.8828 377.6218,16.8828 Q378.3273,16.8828 378.9748,17.0322 Q379.6222,17.1816 380.1867,17.4805 L380.1867,20.2031 Q379.5558,19.6221 378.9623,19.3523 Q378.3688,19.0825 377.738,19.0825 Q376.3932,19.0825 375.7084,20.1492 Q375.0236,21.2158 375.0236,23.3159 Q375.0236,25.4077 375.7084,26.4744 Q376.3932,27.541 377.738,27.541 Q378.3688,27.541 378.9623,27.2712 Q379.5558,27.0015 380.1867,26.4204 Z " fill="#000000"/><text fill="#000000" font-family="sans-serif" font-size="14" lengthAdjust="spacing" textLength="45.6914" x="393.4788" y="28.291">Person</text><line style="stroke:#181818;stroke-width:0.5;" x1="355.77" x2="449.1138" y1="39" y2="39"/><text fill="#000000" font-family="sans-serif" font-size="14" lengthAdjust="spacing" textLength="83.3438" x="360.77" y="56.5352">String Name</text><line style="stroke:#181818;stroke-width:0.5;" x1="355.77" x2="449.1138" y1="63.4883" y2="63.4883"/></g><!--class Guide--><g class="entity" data-entity="Guide" data-source-line="27" data-uid="ent0008" id="entity_Guide"><rect fill="#F1F1F1" height="48" rx="2.5" ry="2.5" style="stroke:#181818;stroke-width:0.5;" width="71.4639" x="358.71" y="288.95"/><ellipse cx="373.71" cy="304.95" fill="#ADD1B2" rx="11" ry="11" style="stroke:#181818;stroke-width:1;"/><path d="M376.1831,311.0931 Q375.6021,311.3919 374.9629,311.5413 Q374.3238,311.6907 373.6182,311.6907 Q371.1114,311.6907 369.7915,310.0389 Q368.4717,308.387 368.4717,305.2659 Q368.4717,302.1365 369.7915,300.4847 Q371.1114,298.8328 373.6182,298.8328 Q374.3238,298.8328 374.9712,298.9822 Q375.6187,299.1316 376.1831,299.4305 L376.1831,302.1531 Q375.5523,301.5721 374.9588,301.3023 Q374.3653,301.0325 373.7344,301.0325 Q372.3897,301.0325 371.7049,302.0992 Q371.0201,303.1658 371.0201,305.2659 Q371.0201,307.3577 371.7049,308.4244 Q372.3897,309.491 373.7344,309.491 Q374.3653,309.491 374.9588,309.2212 Q375.5523,308.9515 376.1831,308.3704 Z " fill="#000000"/><text fill="#000000" font-family="sans-serif" font-size="14" lengthAdjust="spacing" textLength="39.4639" x="387.71" y="310.241">Guide</text><line style="stroke:#181818;stroke-width:0.5;" x1="359.71" x2="429.1739" y1="320.95" y2="320.95"/><line style="stroke:#181818;stroke-width:0.5;" x1="359.71" x2="429.1739" y1="328.95" y2="328.95"/></g><ellipse cx="234.44" cy="171.98" fill="#181818" rx="2" ry="2" style="stroke:#181818;stroke-width:1;"/><!--link City to Attraction--><g class="link" data-entity-1="City" data-entity-2="Attraction" data-source-line="30" data-uid="lnk9" id="link_City_Attraction"><path codeLine="30" d="M97.44,212.8 C97.44,231.41 97.44,253.51 97.44,272.12" fill="none" id="City-Attraction" style="stroke:#181818;stroke-width:1;"/><text fill="#000000" font-family="sans-serif" font-size="13" lengthAdjust="spacing" textLength="8.2202" x="88.8199" y="233.0944">1</text><text fill="#000000" font-family="sans-serif" font-size="13" lengthAdjust="spacing" textLength="6.2651" x="90.9648" y="261.7097">*</text></g><!--link Attraction to GuidedTour--><g class="link" data-entity-1="Attraction" data-entity-2="GuidedTour" data-source-line="32" data-uid="lnk11" id="link_Attraction_GuidedTour"><path codeLine="32" d="M153.43,312.95 C164.92,312.95 176.42,312.95 187.91,312.95" fill="none" id="Attraction-GuidedTour" style="stroke:#181818;stroke-width:1;"/><text fill="#000000" font-family="sans-serif" font-size="13" lengthAdjust="spacing" textLength="8.2202" x="161.1301" y="309.5775">1</text><text fill="#000000" font-family="sans-serif" font-size="13" lengthAdjust="spacing" textLength="6.2651" x="173.9282" y="309.5316">*</text></g><!--reverse link Person to Guide--><g class="link" data-entity-1="Person" data-entity-2="Guide" data-source-line="33" data-uid="lnk12" id="link_Person_Guide"><path codeLine="33" d="M400.9797,89.9322 C399.3497,145.2322 396.56,240.07 395.12,288.74" fill="none" id="Person-backto-Guide" style="stroke:#181818;stroke-width:1;"/><polygon fill="none" points="401.51,71.94,394.9823,89.7554,406.9771,90.109,401.51,71.94" style="stroke:#181818;stroke-width:1;"/></g><!--link Visitor to Person--><g class="link" data-entity-1="Visitor" data-entity-2="Person" data-source-line="34" data-uid="lnk13" id="link_Visitor_Person"><path codeLine="34" d="M303.7,39.24 C320.67,39.24 319.65,39.24 336.62,39.24" fill="none" id="Visitor-to-Person" style="stroke:#181818;stroke-width:1;"/><polygon fill="none" points="354.62,39.24,336.62,33.24,336.62,45.24,354.62,39.24" style="stroke:#181818;stroke-width:1;"/></g><!--link GuidedTour to Guide--><g class="link" data-entity-1="GuidedTour" data-entity-2="Guide" data-source-line="35" data-uid="lnk14" id="link_GuidedTour_Guide"><path codeLine="35" d="M300.98,312.95 C320.09,312.95 339.19,312.95 358.3,312.95" fill="none" id="GuidedTour-Guide" style="stroke:#181818;stroke-width:1;"/><text fill="#000000" font-family="sans-serif" font-size="13" lengthAdjust="spacing" textLength="6.2651" x="308.6253" y="309.5775">*</text><text fill="#000000" font-family="sans-serif" font-size="13" lengthAdjust="spacing" textLength="8.2202" x="342.4187" y="309.0724">1</text></g><!--link Visitor to apoint15--><g class="link" data-entity-1="Visitor" data-entity-2="apoint15" data-source-line="36" data-uid="lnk17" id="link_Visitor_apoint15"><path d="M259.9,63.62 C251.68,98.28 236.98,160.27 234.73,169.75" fill="none" id="Visitor-apoint15" style="stroke:#181818;stroke-width:1;"/><text fill="#000000" font-family="sans-serif" font-size="13" lengthAdjust="spacing" textLength="32.8872" x="222.7567" y="83.997">1..20</text></g><!--link apoint15 to GuidedTour--><g class="link" data-entity-1="apoint15" data-entity-2="GuidedTour" data-source-line="36" data-uid="lnk18" id="link_apoint15_GuidedTour"><path d="M234.5,173.86 C235.04,181.31 238.83,234 241.57,272.09" fill="none" id="apoint15-GuidedTour" style="stroke:#181818;stroke-width:1;"/><text fill="#000000" font-family="sans-serif" font-size="13" lengthAdjust="spacing" textLength="6.2651" x="234.6194" y="261.6747">*</text></g><!--link apoint15 to Discount--><g class="link" data-entity-1="apoint15" data-entity-2="Discount" data-source-line="36" data-uid="lnk19" id="link_apoint15_Discount"><path d="M236.74,171.98 C248.12,171.98 259.5,171.98 270.89,171.98" fill="none" id="apoint15-Discount" style="stroke:#181818;stroke-width:1;stroke-dasharray:7,7;"/></g><!--SRC=[TL2z2i8m4Dxp526JYWdMMGIn85sgeBYdQTI0JI6v3DBwxhOrRQheRNVt_Ts9ExSMRnKyS8LmKqSmIbznoWlPzOa6dBeYasP_IVIDPmgu1ekU28cEkm4mN80gzHy5ts_ot4Wx8fwLLL0QN0sJdLEvp4-bCrugc0zjx0nlpO9EhAmeNRCAd7uKG0TfxC-4d-PT6DIzWqI4KZ8ZemDH7vb4Z2qNVXzIez4lMlhNrcTOrPI-nuCUhTS-8HhzeA7JHiPZ9nuy3uWfPYpS-W80]--></g></svg>