<svg xmlns="http://www.w3.org/2000/svg" xmlns:xlink="http://www.w3.org/1999/xlink" contentStyleType="text/css" data-diagram-type="CLASS" height="1000px" preserveAspectRatio="none" style="width:692px;height:1000px;background:#FFFFFF;" version="1.1" viewBox="0 0 692 1000" width="692px" zoomAndPan="magnify"><defs/><g><!--class RepairShop--><g class="entity" data-entity="RepairShop" data-source-line="2" data-uid="ent0002" id="entity_RepairShop"><rect fill="#F1F1F1" height="80.9766" rx="2.5" ry="2.5" style="stroke:#181818;stroke-width:0.5;" width="111.4834" x="7" y="27.8"/><ellipse cx="23.2929" cy="43.8" fill="#ADD1B2" rx="11" ry="11" style="stroke:#181818;stroke-width:1;"/><path d="M25.766,49.9431 Q25.185,50.2419 24.5458,50.3913 Q23.9066,50.5407 23.2011,50.5407 Q20.6942,50.5407 19.3744,48.8889 Q18.0546,47.237 18.0546,44.1159 Q18.0546,40.9865 19.3744,39.3347 Q20.6942,37.6828 23.2011,37.6828 Q23.9066,37.6828 24.5541,37.8322 Q25.2016,37.9816 25.766,38.2805 L25.766,41.0031 Q25.1352,40.4221 24.5417,40.1523 Q23.9481,39.8825 23.3173,39.8825 Q21.9726,39.8825 21.2877,40.9492 Q20.6029,42.0158 20.6029,44.1159 Q20.6029,46.2077 21.2877,47.2744 Q21.9726,48.341 23.3173,48.341 Q23.9481,48.341 24.5417,48.0712 Q25.1352,47.8015 25.766,47.2204 Z " fill="#000000"/><text fill="#000000" font-family="sans-serif" font-size="14" lengthAdjust="spacing" textLength="76.6104" x="37.5802" y="49.091">RepairShop</text><line style="stroke:#181818;stroke-width:0.5;" x1="8" x2="117.4834" y1="59.8" y2="59.8"/><text fill="#000000" font-family="sans-serif" font-size="14" lengthAdjust="spacing" textLength="83.3438" x="13" y="77.3352">String Name</text><text fill="#000000" font-family="sans-serif" font-size="14" lengthAdjust="spacing" textLength="99.4834" x="13" y="93.8234">String Address</text><line style="stroke:#181818;stroke-width:0.5;" x1="8" x2="117.4834" y1="100.7766" y2="100.7766"/></g><!--class Repair--><g class="entity" data-entity="Repair" data-source-line="7" data-uid="ent0003" id="entity_Repair"><rect fill="#F1F1F1" height="80.9766" rx="2.5" ry="2.5" style="stroke:#181818;stroke-width:0.5;" width="95.5215" x="153.98" y="27.8"/><ellipse cx="178.2279" cy="43.8" fill="#ADD1B2" rx="11" ry="11" style="stroke:#181818;stroke-width:1;"/><path d="M180.701,49.9431 Q180.1199,50.2419 179.4808,50.3913 Q178.8416,50.5407 178.1361,50.5407 Q175.6292,50.5407 174.3094,48.8889 Q172.9896,47.237 172.9896,44.1159 Q172.9896,40.9865 174.3094,39.3347 Q175.6292,37.6828 178.1361,37.6828 Q178.8416,37.6828 179.4891,37.8322 Q180.1365,37.9816 180.701,38.2805 L180.701,41.0031 Q180.0701,40.4221 179.4766,40.1523 Q178.8831,39.8825 178.2523,39.8825 Q176.9075,39.8825 176.2227,40.9492 Q175.5379,42.0158 175.5379,44.1159 Q175.5379,46.2077 176.2227,47.2744 Q176.9075,48.341 178.2523,48.341 Q178.8831,48.341 179.4766,48.0712 Q180.0701,47.8015 180.701,47.2204 Z " fill="#000000"/><text fill="#000000" font-family="sans-serif" font-size="14" lengthAdjust="spacing" textLength="42.9707" x="194.2829" y="49.091">Repair</text><line style="stroke:#181818;stroke-width:0.5;" x1="154.98" x2="248.5015" y1="59.8" y2="59.8"/><text fill="#000000" font-family="sans-serif" font-size="14" lengthAdjust="spacing" textLength="81.5938" x="159.98" y="77.3352">Int Duration</text><text fill="#000000" font-family="sans-serif" font-size="14" lengthAdjust="spacing" textLength="83.5215" x="159.98" y="93.8234">Double Cost</text><line style="stroke:#181818;stroke-width:0.5;" x1="154.98" x2="248.5015" y1="100.7766" y2="100.7766"/></g><!--class Vehicle--><g class="entity" data-entity="Vehicle" data-source-line="12" data-uid="ent0004" id="entity_Vehicle"><rect fill="#F1F1F1" height="97.4648" rx="2.5" ry="2.5" style="stroke:#181818;stroke-width:0.5;" width="193.501" x="104.99" y="301.55"/><ellipse cx="173.1375" cy="317.55" fill="#ADD1B2" rx="11" ry="11" style="stroke:#181818;stroke-width:1;"/><path d="M175.6106,323.6931 Q175.0296,323.9919 174.3904,324.1413 Q173.7512,324.2907 173.0457,324.2907 Q170.5388,324.2907 169.219,322.6389 Q167.8992,320.987 167.8992,317.8659 Q167.8992,314.7365 169.219,313.0847 Q170.5388,311.4328 173.0457,311.4328 Q173.7512,311.4328 174.3987,311.5822 Q175.0462,311.7316 175.6106,312.0305 L175.6106,314.7531 Q174.9797,314.1721 174.3862,313.9023 Q173.7927,313.6325 173.1619,313.6325 Q171.8171,313.6325 171.1323,314.6992 Q170.4475,315.7658 170.4475,317.8659 Q170.4475,319.9577 171.1323,321.0244 Q171.8171,322.091 173.1619,322.091 Q173.7927,322.091 174.3862,321.8212 Q174.9797,321.5515 175.6106,320.9704 Z " fill="#000000"/><text fill="#000000" font-family="sans-serif" font-size="14" lengthAdjust="spacing" textLength="48.7061" x="193.6375" y="322.841">Vehicle</text><line style="stroke:#181818;stroke-width:0.5;" x1="105.99" x2="297.491" y1="333.55" y2="333.55"/><text fill="#000000" font-family="sans-serif" font-size="14" lengthAdjust="spacing" textLength="181.501" x="110.99" y="351.0852">String LicensePlateNumber</text><text fill="#000000" font-family="sans-serif" font-size="14" lengthAdjust="spacing" textLength="66.8008" x="110.99" y="367.5734">Int Milage</text><text fill="#000000" font-family="sans-serif" font-size="14" lengthAdjust="spacing" textLength="118.6924" x="110.99" y="384.0617">VehicleType Type</text><line style="stroke:#181818;stroke-width:0.5;" x1="105.99" x2="297.491" y1="391.0148" y2="391.0148"/></g><!--class Order--><g class="entity" data-entity="Order" data-source-line="18" data-uid="ent0005" id="entity_Order"><rect fill="#F1F1F1" height="163.418" rx="2.5" ry="2.5" style="stroke:#181818;stroke-width:0.5;" width="165.9521" x="322.77" y="687.82"/><ellipse cx="382.0239" cy="703.82" fill="#ADD1B2" rx="11" ry="11" style="stroke:#181818;stroke-width:1;"/><path d="M384.4971,709.9631 Q383.916,710.2619 383.2768,710.4113 Q382.6377,710.5607 381.9321,710.5607 Q379.4253,710.5607 378.1054,708.9089 Q376.7856,707.257 376.7856,704.1359 Q376.7856,701.0065 378.1054,699.3547 Q379.4253,697.7028 381.9321,697.7028 Q382.6377,697.7028 383.2851,697.8522 Q383.9326,698.0016 384.4971,698.3005 L384.4971,701.0231 Q383.8662,700.4421 383.2727,700.1723 Q382.6792,699.9025 382.0483,699.9025 Q380.7036,699.9025 380.0188,700.9692 Q379.334,702.0358 379.334,704.1359 Q379.334,706.2277 380.0188,707.2944 Q380.7036,708.361 382.0483,708.361 Q382.6792,708.361 383.2727,708.0912 Q383.8662,707.8215 384.4971,707.2404 Z " fill="#000000"/><text fill="#000000" font-family="sans-serif" font-size="14" lengthAdjust="spacing" textLength="38.9443" x="402.5239" y="709.111">Order</text><line style="stroke:#181818;stroke-width:0.5;" x1="323.77" x2="487.7221" y1="719.82" y2="719.82"/><text fill="#000000" font-family="sans-serif" font-size="14" lengthAdjust="spacing" textLength="93.6592" x="328.77" y="737.3552">Int PacketSize</text><text fill="#000000" font-family="sans-serif" font-size="14" lengthAdjust="spacing" textLength="66.9375" x="328.77" y="753.8434">Date Date</text><text fill="#000000" font-family="sans-serif" font-size="14" lengthAdjust="spacing" textLength="104.8223" x="328.77" y="770.3317">Sting Comment</text><text fill="#000000" font-family="sans-serif" font-size="14" lengthAdjust="spacing" textLength="103.4414" x="328.77" y="786.82">Time StartTime</text><text fill="#000000" font-family="sans-serif" font-size="14" lengthAdjust="spacing" textLength="97.0566" x="328.77" y="803.3083">Time EndTime</text><text fill="#000000" font-family="sans-serif" font-size="14" lengthAdjust="spacing" textLength="145.1338" x="328.77" y="819.7966">String PickUpAddress</text><text fill="#000000" font-family="sans-serif" font-size="14" lengthAdjust="spacing" textLength="153.9521" x="328.77" y="836.2848">String DeliveryAddress</text><line style="stroke:#181818;stroke-width:0.5;" x1="323.77" x2="487.7221" y1="843.238" y2="843.238"/></g><!--class Employee--><g class="entity" data-entity="Employee" data-source-line="28" data-uid="ent0006" id="entity_Employee"><rect fill="#F1F1F1" height="97.4648" rx="2.5" ry="2.5" style="stroke:#181818;stroke-width:0.5;" width="124.998" x="284.24" y="19.56"/><ellipse cx="311.8255" cy="35.56" fill="#A9DCDF" rx="11" ry="11" style="stroke:#181818;stroke-width:1;"/><path d="M311.6888,30.9081 L310.535,35.9799 L312.8509,35.9799 Z M310.1946,28.6669 L313.1912,28.6669 L316.5364,41.06 L314.0877,41.06 L313.324,37.997 L310.0452,37.997 L309.2982,41.06 L306.8494,41.06 Z " fill="#000000"/><text fill="#000000" font-family="sans-serif" font-size="14" font-style="italic" lengthAdjust="spacing" textLength="65.0303" x="328.6223" y="40.851">Employee</text><line style="stroke:#181818;stroke-width:0.5;" x1="285.24" x2="408.238" y1="51.56" y2="51.56"/><text fill="#000000" font-family="sans-serif" font-size="14" lengthAdjust="spacing" textLength="45.7529" x="290.24" y="69.0952">Int Ssn</text><text fill="#000000" font-family="sans-serif" font-size="14" lengthAdjust="spacing" textLength="112.998" x="290.24" y="85.5834">String FirstName</text><text fill="#000000" font-family="sans-serif" font-size="14" lengthAdjust="spacing" textLength="110.9131" x="290.24" y="102.0717">String LastName</text><line style="stroke:#181818;stroke-width:0.5;" x1="285.24" x2="408.238" y1="109.0248" y2="109.0248"/></g><!--class Driver--><g class="entity" data-entity="Driver" data-source-line="34" data-uid="ent0007" id="entity_Driver"><rect fill="#F1F1F1" height="48" rx="2.5" ry="2.5" style="stroke:#181818;stroke-width:0.5;" width="73.0361" x="282.22" y="523.5"/><ellipse cx="297.22" cy="539.5" fill="#ADD1B2" rx="11" ry="11" style="stroke:#181818;stroke-width:1;"/><path d="M299.6931,545.6431 Q299.1121,545.9419 298.4729,546.0913 Q297.8338,546.2407 297.1282,546.2407 Q294.6214,546.2407 293.3015,544.5889 Q291.9817,542.937 291.9817,539.8159 Q291.9817,536.6865 293.3015,535.0347 Q294.6214,533.3828 297.1282,533.3828 Q297.8338,533.3828 298.4812,533.5322 Q299.1287,533.6816 299.6931,533.9805 L299.6931,536.7031 Q299.0623,536.1221 298.4688,535.8523 Q297.8753,535.5825 297.2444,535.5825 Q295.8997,535.5825 295.2149,536.6492 Q294.5301,537.7158 294.5301,539.8159 Q294.5301,541.9077 295.2149,542.9744 Q295.8997,544.041 297.2444,544.041 Q297.8753,544.041 298.4688,543.7712 Q299.0623,543.5015 299.6931,542.9204 Z " fill="#000000"/><text fill="#000000" font-family="sans-serif" font-size="14" lengthAdjust="spacing" textLength="41.0361" x="311.22" y="544.791">Driver</text><line style="stroke:#181818;stroke-width:0.5;" x1="283.22" x2="354.2561" y1="555.5" y2="555.5"/><line style="stroke:#181818;stroke-width:0.5;" x1="283.22" x2="354.2561" y1="563.5" y2="563.5"/></g><!--class OtherEmployee--><g class="entity" data-entity="OtherEmployee" data-source-line="36" data-uid="ent0008" id="entity_OtherEmployee"><rect fill="#F1F1F1" height="80.9766" rx="2.5" ry="2.5" style="stroke:#181818;stroke-width:0.5;" width="135.3594" x="375.06" y="190.58"/><ellipse cx="390.06" cy="206.58" fill="#A9DCDF" rx="11" ry="11" style="stroke:#181818;stroke-width:1;"/><path d="M389.9233,201.9281 L388.7695,206.9999 L391.0854,206.9999 Z M388.4291,199.6869 L391.4257,199.6869 L394.7709,212.08 L392.3222,212.08 L391.5585,209.017 L388.2797,209.017 L387.5327,212.08 L385.0839,212.08 Z " fill="#000000"/><text fill="#000000" font-family="sans-serif" font-size="14" font-style="italic" lengthAdjust="spacing" textLength="103.3594" x="404.06" y="211.871">OtherEmployee</text><line style="stroke:#181818;stroke-width:0.5;" x1="376.06" x2="509.4194" y1="222.58" y2="222.58"/><text fill="#000000" font-family="sans-serif" font-size="14" lengthAdjust="spacing" textLength="113.709" x="381.06" y="240.1152">String UserName</text><text fill="#000000" font-family="sans-serif" font-size="14" lengthAdjust="spacing" textLength="108.0693" x="381.06" y="256.6034">String Password</text><line style="stroke:#181818;stroke-width:0.5;" x1="376.06" x2="509.4194" y1="263.5566" y2="263.5566"/></g><!--class Planner--><g class="entity" data-entity="Planner" data-source-line="41" data-uid="ent0009" id="entity_Planner"><rect fill="#F1F1F1" height="48" rx="2.5" ry="2.5" style="stroke:#181818;stroke-width:0.5;" width="82.4219" x="362.53" y="523.5"/><ellipse cx="377.53" cy="539.5" fill="#ADD1B2" rx="11" ry="11" style="stroke:#181818;stroke-width:1;"/><path d="M380.0031,545.6431 Q379.4221,545.9419 378.7829,546.0913 Q378.1438,546.2407 377.4382,546.2407 Q374.9314,546.2407 373.6115,544.5889 Q372.2917,542.937 372.2917,539.8159 Q372.2917,536.6865 373.6115,535.0347 Q374.9314,533.3828 377.4382,533.3828 Q378.1438,533.3828 378.7912,533.5322 Q379.4387,533.6816 380.0031,533.9805 L380.0031,536.7031 Q379.3723,536.1221 378.7788,535.8523 Q378.1853,535.5825 377.5544,535.5825 Q376.2097,535.5825 375.5249,536.6492 Q374.8401,537.7158 374.8401,539.8159 Q374.8401,541.9077 375.5249,542.9744 Q376.2097,544.041 377.5544,544.041 Q378.1853,544.041 378.7788,543.7712 Q379.3723,543.5015 380.0031,542.9204 Z " fill="#000000"/><text fill="#000000" font-family="sans-serif" font-size="14" lengthAdjust="spacing" textLength="50.4219" x="391.53" y="544.791">Planner</text><line style="stroke:#181818;stroke-width:0.5;" x1="363.53" x2="443.9519" y1="555.5" y2="555.5"/><line style="stroke:#181818;stroke-width:0.5;" x1="363.53" x2="443.9519" y1="563.5" y2="563.5"/></g><!--class AdministrationEmployee--><g class="entity" data-entity="AdministrationEmployee" data-source-line="43" data-uid="ent0010" id="entity_AdministrationEmployee"><rect fill="#F1F1F1" height="64.4883" rx="2.5" ry="2.5" style="stroke:#181818;stroke-width:0.5;" width="197.7578" x="449.86" y="429.02"/><ellipse cx="464.86" cy="445.02" fill="#ADD1B2" rx="11" ry="11" style="stroke:#181818;stroke-width:1;"/><path d="M467.3331,451.1631 Q466.7521,451.4619 466.1129,451.6113 Q465.4738,451.7607 464.7682,451.7607 Q462.2614,451.7607 460.9415,450.1089 Q459.6217,448.457 459.6217,445.3359 Q459.6217,442.2065 460.9415,440.5547 Q462.2614,438.9028 464.7682,438.9028 Q465.4738,438.9028 466.1212,439.0522 Q466.7687,439.2016 467.3331,439.5005 L467.3331,442.2231 Q466.7023,441.6421 466.1088,441.3723 Q465.5153,441.1025 464.8844,441.1025 Q463.5397,441.1025 462.8549,442.1692 Q462.1701,443.2358 462.1701,445.3359 Q462.1701,447.4277 462.8549,448.4944 Q463.5397,449.561 464.8844,449.561 Q465.5153,449.561 466.1088,449.2912 Q466.7023,449.0215 467.3331,448.4404 Z " fill="#000000"/><text fill="#000000" font-family="sans-serif" font-size="14" lengthAdjust="spacing" textLength="165.7578" x="478.86" y="450.311">AdministrationEmployee</text><line style="stroke:#181818;stroke-width:0.5;" x1="450.86" x2="646.6178" y1="461.02" y2="461.02"/><text fill="#000000" font-family="sans-serif" font-size="14" lengthAdjust="spacing" textLength="142.5908" x="455.86" y="478.5552">String FieldOfActivity</text><line style="stroke:#181818;stroke-width:0.5;" x1="450.86" x2="646.6178" y1="485.5083" y2="485.5083"/></g><!--class PartnerFirm--><g class="entity" data-entity="PartnerFirm" data-source-line="47" data-uid="ent0011" id="entity_PartnerFirm"><rect fill="#F1F1F1" height="80.9766" rx="2.5" ry="2.5" style="stroke:#181818;stroke-width:0.5;" width="111.4834" x="574" y="729.04"/><ellipse cx="589.2162" cy="745.04" fill="#ADD1B2" rx="11" ry="11" style="stroke:#181818;stroke-width:1;"/><path d="M591.6894,751.1831 Q591.1083,751.4819 590.4691,751.6313 Q589.83,751.7807 589.1244,751.7807 Q586.6176,751.7807 585.2978,750.1289 Q583.9779,748.477 583.9779,745.3559 Q583.9779,742.2265 585.2978,740.5747 Q586.6176,738.9228 589.1244,738.9228 Q589.83,738.9228 590.4774,739.0722 Q591.1249,739.2216 591.6894,739.5205 L591.6894,742.2431 Q591.0585,741.6621 590.465,741.3923 Q589.8715,741.1225 589.2406,741.1225 Q587.8959,741.1225 587.2111,742.1892 Q586.5263,743.2558 586.5263,745.3559 Q586.5263,747.4477 587.2111,748.5144 Q587.8959,749.581 589.2406,749.581 Q589.8715,749.581 590.465,749.3112 Q591.0585,749.0415 591.6894,748.4604 Z " fill="#000000"/><text fill="#000000" font-family="sans-serif" font-size="14" lengthAdjust="spacing" textLength="79.0029" x="603.2643" y="750.331">PartnerFirm</text><line style="stroke:#181818;stroke-width:0.5;" x1="575" x2="684.4834" y1="761.04" y2="761.04"/><text fill="#000000" font-family="sans-serif" font-size="14" lengthAdjust="spacing" textLength="83.3438" x="580" y="778.5752">String Name</text><text fill="#000000" font-family="sans-serif" font-size="14" lengthAdjust="spacing" textLength="99.4834" x="580" y="795.0634">String Address</text><line style="stroke:#181818;stroke-width:0.5;" x1="575" x2="684.4834" y1="802.0166" y2="802.0166"/></g><!--class Customer--><g class="entity" data-entity="Customer" data-source-line="52" data-uid="ent0012" id="entity_Customer"><rect fill="#F1F1F1" height="80.9766" rx="2.5" ry="2.5" style="stroke:#181818;stroke-width:0.5;" width="111.4834" x="350" y="912.23"/><ellipse cx="371.0917" cy="928.23" fill="#ADD1B2" rx="11" ry="11" style="stroke:#181818;stroke-width:1;"/><path d="M373.5648,934.3731 Q372.9838,934.6719 372.3446,934.8213 Q371.7055,934.9707 370.9999,934.9707 Q368.4931,934.9707 367.1732,933.3189 Q365.8534,931.667 365.8534,928.5459 Q365.8534,925.4165 367.1732,923.7647 Q368.4931,922.1128 370.9999,922.1128 Q371.7055,922.1128 372.3529,922.2622 Q373.0004,922.4116 373.5648,922.7105 L373.5648,925.4331 Q372.934,924.8521 372.3405,924.5823 Q371.747,924.3125 371.1161,924.3125 Q369.7714,924.3125 369.0866,925.3792 Q368.4018,926.4458 368.4018,928.5459 Q368.4018,930.6377 369.0866,931.7044 Q369.7714,932.771 371.1161,932.771 Q371.747,932.771 372.3405,932.5012 Q372.934,932.2315 373.5648,931.6504 Z " fill="#000000"/><text fill="#000000" font-family="sans-serif" font-size="14" lengthAdjust="spacing" textLength="65.9463" x="386.4454" y="933.521">Customer</text><line style="stroke:#181818;stroke-width:0.5;" x1="351" x2="460.4834" y1="944.23" y2="944.23"/><text fill="#000000" font-family="sans-serif" font-size="14" lengthAdjust="spacing" textLength="83.3438" x="356" y="961.7652">String Name</text><text fill="#000000" font-family="sans-serif" font-size="14" lengthAdjust="spacing" textLength="99.4834" x="356" y="978.2534">String Address</text><line style="stroke:#181818;stroke-width:0.5;" x1="351" x2="460.4834" y1="985.2066" y2="985.2066"/></g><!--class VerhicleType--><g class="entity" data-entity="VerhicleType" data-source-line="57" data-uid="ent0013" id="entity_VerhicleType"><rect fill="#F1F1F1" height="122.5742" rx="2.5" ry="2.5" style="stroke:#181818;stroke-width:0.5;" width="130.2822" x="444.6" y="7"/><ellipse cx="464.5812" cy="27.3105" fill="#EB937F" rx="11" ry="11" style="stroke:#181818;stroke-width:1;"/><path d="M468.1955,33.8105 L460.4757,33.8105 L460.4757,21.4175 L468.1955,21.4175 L468.1955,23.5757 L462.9245,23.5757 L462.9245,26.2485 L467.6974,26.2485 L467.6974,28.4067 L462.9245,28.4067 L462.9245,31.6523 L468.1955,31.6523 Z " fill="#000000"/><text fill="#000000" font-family="sans-serif" font-size="12" font-style="italic" lengthAdjust="spacing" textLength="45.3574" x="500.6159" y="23.6016">&#171;enum&#187;</text><text fill="#000000" font-family="sans-serif" font-size="14" lengthAdjust="spacing" textLength="87.2129" x="479.6881" y="39.668">VerhicleType</text><line style="stroke:#181818;stroke-width:0.5;" x1="445.6" x2="573.8822" y1="47.6211" y2="47.6211"/><text fill="#000000" font-family="sans-serif" font-size="14" lengthAdjust="spacing" textLength="118.2822" x="450.6" y="65.1563">RefrigiratedTruck</text><text fill="#000000" font-family="sans-serif" font-size="14" lengthAdjust="spacing" textLength="62.0088" x="450.6" y="81.6445">SmallVan</text><text fill="#000000" font-family="sans-serif" font-size="14" lengthAdjust="spacing" textLength="111.3711" x="450.6" y="98.1328">LoadingPlatform</text><text fill="#000000" font-family="sans-serif" font-size="14" lengthAdjust="spacing" textLength="63.8613" x="450.6" y="114.6211">BoxTruck</text><line style="stroke:#181818;stroke-width:0.5;" x1="445.6" x2="573.8822" y1="121.5742" y2="121.5742"/></g><g class="entity" data-entity="N1" data-source-line="78" data-uid="ent0027" id="entity_N1"><path d="M526.79,601.5 L526.79,626.8105 L582.7021,626.8105 L582.7021,611.5 L572.7021,601.5 L526.79,601.5" fill="#FEFFDD" style="stroke:#181818;stroke-width:0.5;"/><path d="M572.7021,601.5 L572.7021,611.5 L582.7021,611.5 L572.7021,601.5" fill="#FEFFDD" style="stroke:#181818;stroke-width:1;"/><text fill="#000000" font-family="sans-serif" font-size="13" lengthAdjust="spacing" textLength="34.9121" x="532.79" y="619.0684">{XOR}</text></g><ellipse cx="489.74" cy="614.16" fill="#181818" rx="2" ry="2" style="stroke:#181818;stroke-width:1;"/><ellipse cx="536.74" cy="769.52" fill="#181818" rx="2" ry="2" style="stroke:#181818;stroke-width:1;"/><!--link RepairShop to Repair--><g class="link" data-entity-1="RepairShop" data-entity-2="Repair" data-source-line="64" data-uid="lnk14" id="link_RepairShop_Repair"><path codeLine="64" d="M118.94,68.29 C130.48,68.29 142.01,68.29 153.55,68.29" fill="none" id="RepairShop-Repair" style="stroke:#181818;stroke-width:1;"/><text fill="#000000" font-family="sans-serif" font-size="13" lengthAdjust="spacing" textLength="8.2202" x="126.667" y="64.9175">1</text><text fill="#000000" font-family="sans-serif" font-size="13" lengthAdjust="spacing" textLength="6.2651" x="139.7317" y="64.734">*</text></g><!--link Repair to Vehicle--><g class="link" data-entity-1="Repair" data-entity-2="Vehicle" data-source-line="65" data-uid="lnk15" id="link_Repair_Vehicle"><path codeLine="65" d="M201.74,109.11 C201.74,159.69 201.74,246.9 201.74,301.15" fill="none" id="Repair-Vehicle" style="stroke:#181818;stroke-width:1;"/><text fill="#000000" font-family="sans-serif" font-size="13" lengthAdjust="spacing" textLength="6.2651" x="195.2829" y="129.4044">*</text><text fill="#000000" font-family="sans-serif" font-size="13" lengthAdjust="spacing" textLength="8.2202" x="193.1929" y="290.7763">1</text></g><!--link Repair to Employee--><g class="link" data-entity-1="Repair" data-entity-2="Employee" data-source-line="66" data-uid="lnk16" id="link_Repair_Employee"><path codeLine="66" d="M249.89,68.29 C261.24,68.29 272.59,68.29 283.94,68.29" fill="none" id="Repair-Employee" style="stroke:#181818;stroke-width:1;"/><text fill="#000000" font-family="sans-serif" font-size="13" lengthAdjust="spacing" textLength="6.2651" x="257.422" y="64.7799">*</text><text fill="#000000" font-family="sans-serif" font-size="13" lengthAdjust="spacing" textLength="8.2202" x="267.8123" y="64.9629">1</text></g><!--link Vehicle to Order--><g class="link" data-entity-1="Vehicle" data-entity-2="Order" data-source-line="67" data-uid="lnk17" id="link_Vehicle_Order"><path codeLine="67" d="M210.54,399.39 C220.05,445.19 237.59,515.28 264.74,571.5 C284.41,612.22 312.42,653.48 338.3,687.65" fill="none" id="Vehicle-Order" style="stroke:#181818;stroke-width:1;"/><text fill="#000000" font-family="sans-serif" font-size="13" lengthAdjust="spacing" textLength="8.2202" x="203.1997" y="419.5859">1</text><text fill="#000000" font-family="sans-serif" font-size="13" lengthAdjust="spacing" textLength="6.2651" x="325.818" y="676.993">*</text></g><!--reverse link Employee to Driver--><g class="link" data-entity-1="Employee" data-entity-2="Driver" data-source-line="68" data-uid="lnk18" id="link_Employee_Driver"><path codeLine="68" d="M342.8748,135.199 C336.9548,236.009 324.48,448.77 320.12,523.02" fill="none" id="Employee-backto-Driver" style="stroke:#181818;stroke-width:1;"/><polygon fill="none" points="343.93,117.23,336.8851,134.8473,348.8645,135.5508,343.93,117.23" style="stroke:#181818;stroke-width:1;"/></g><!--link Driver to Order--><g class="link" data-entity-1="Driver" data-entity-2="Order" data-source-line="69" data-uid="lnk19" id="link_Driver_Order"><path codeLine="69" d="M327.89,571.64 C338.75,599.11 357.46,646.43 373.82,687.79" fill="none" id="Driver-Order" style="stroke:#181818;stroke-width:1;"/><text fill="#000000" font-family="sans-serif" font-size="13" lengthAdjust="spacing" textLength="8.2202" x="321.1726" y="591.9585">1</text><text fill="#000000" font-family="sans-serif" font-size="13" lengthAdjust="spacing" textLength="6.2651" x="364.6125" y="677.146">*</text></g><!--reverse link Employee to OtherEmployee--><g class="link" data-entity-1="Employee" data-entity-2="OtherEmployee" data-source-line="70" data-uid="lnk20" id="link_Employee_OtherEmployee"><path codeLine="70" d="M384.5078,132.5447 C398.4378,155.8747 405.77,168.15 419,190.3" fill="none" id="Employee-backto-OtherEmployee" style="stroke:#181818;stroke-width:1;"/><polygon fill="none" points="375.28,117.09,379.3562,135.6206,389.6594,129.4688,375.28,117.09" style="stroke:#181818;stroke-width:1;"/></g><!--reverse link OtherEmployee to Planner--><g class="link" data-entity-1="OtherEmployee" data-entity-2="Planner" data-source-line="71" data-uid="lnk21" id="link_OtherEmployee_Planner"><path codeLine="71" d="M435.5843,289.7531 C427.3443,356.1831 413.26,469.73 406.64,523.12" fill="none" id="OtherEmployee-backto-Planner" style="stroke:#181818;stroke-width:1;"/><polygon fill="none" points="437.8,271.89,429.6299,289.0145,441.5386,290.4917,437.8,271.89" style="stroke:#181818;stroke-width:1;"/></g><!--reverse link OtherEmployee to AdministrationEmployee--><g class="link" data-entity-1="OtherEmployee" data-entity-2="AdministrationEmployee" data-source-line="72" data-uid="lnk22" id="link_OtherEmployee_AdministrationEmployee"><path codeLine="72" d="M468.792,288.1352 C489.492,332.7052 515.06,387.75 534.07,428.67" fill="none" id="OtherEmployee-backto-AdministrationEmployee" style="stroke:#181818;stroke-width:1;"/><polygon fill="none" points="461.21,271.81,463.3503,290.6626,474.2338,285.6079,461.21,271.81" style="stroke:#181818;stroke-width:1;"/></g><!--link Planner to Order--><g class="link" data-entity-1="Planner" data-entity-2="Order" data-source-line="73" data-uid="lnk23" id="link_Planner_Order"><path codeLine="73" d="M403.95,571.64 C404.2,599.11 404.63,646.43 405.01,687.79" fill="none" id="Planner-Order" style="stroke:#181818;stroke-width:1;"/><text fill="#000000" font-family="sans-serif" font-size="13" lengthAdjust="spacing" textLength="45.1318" x="405.45" y="619.2284">creates</text><text fill="#000000" font-family="sans-serif" font-size="13" lengthAdjust="spacing" textLength="8.2202" x="395.0528" y="591.9585">1</text><text fill="#000000" font-family="sans-serif" font-size="13" lengthAdjust="spacing" textLength="6.2651" x="398.6778" y="677.146">*</text></g><!--link Order to Customer--><g class="link" data-entity-1="Order" data-entity-2="Customer" data-source-line="76" data-uid="lnk26" id="link_Order_Customer"><path codeLine="76" d="M405.74,851.58 C405.74,872.5 405.74,894.11 405.74,911.87" fill="none" id="Order-Customer" style="stroke:#181818;stroke-width:1;"/><text fill="#000000" font-family="sans-serif" font-size="13" lengthAdjust="spacing" textLength="6.2651" x="399.4931" y="871.8575">*</text><text fill="#000000" font-family="sans-serif" font-size="13" lengthAdjust="spacing" textLength="8.2202" x="397.0955" y="901.4564">1</text></g><!--link AdministrationEmployee to apoint28--><g class="link" data-entity-1="AdministrationEmployee" data-entity-2="apoint28" data-source-line="79" data-uid="lnk30" id="link_AdministrationEmployee_apoint28"><path d="M536.37,493.89 C520.42,534.69 494.25,601.63 490.26,611.84" fill="none" id="AdministrationEmployee-apoint28" style="stroke:#181818;stroke-width:1;"/><text fill="#000000" font-family="sans-serif" font-size="13" lengthAdjust="spacing" textLength="24.667" x="507.7882" y="514.137">0..1</text></g><!--link apoint28 to Order--><g class="link" data-entity-1="apoint28" data-entity-2="Order" data-source-line="79" data-uid="lnk31" id="link_apoint28_Order"><path d="M489.02,616.49 C485.31,623.25 468,654.86 450.11,687.52" fill="none" id="apoint28-Order" style="stroke:#181818;stroke-width:1;"/><text fill="#000000" font-family="sans-serif" font-size="13" lengthAdjust="spacing" textLength="6.2651" x="447.8058" y="677.1303">*</text></g><!--link apoint28 to N1--><g class="link" data-entity-1="apoint28" data-entity-2="N1" data-source-line="79" data-uid="lnk32" id="link_apoint28_N1"><path d="M492.03,614.16 C503.46,614.16 514.89,614.16 526.32,614.16" fill="none" id="apoint28-N1" style="stroke:#181818;stroke-width:1;stroke-dasharray:7,7;"/></g><!--link Order to apoint33--><g class="link" data-entity-1="Order" data-entity-2="apoint33" data-source-line="80" data-uid="lnk35" id="link_Order_apoint33"><path d="M489.15,769.52 C504.27,769.52 519.39,769.52 534.51,769.52" fill="none" id="Order-apoint33" style="stroke:#181818;stroke-width:1;"/><text fill="#000000" font-family="sans-serif" font-size="13" lengthAdjust="spacing" textLength="6.2651" x="496.8572" y="766.4334">*</text></g><!--link apoint33 to PartnerFirm--><g class="link" data-entity-1="apoint33" data-entity-2="PartnerFirm" data-source-line="80" data-uid="lnk36" id="link_apoint33_PartnerFirm"><path d="M538.92,769.52 C550.51,769.52 562.1,769.52 573.69,769.52" fill="none" id="apoint33-PartnerFirm" style="stroke:#181818;stroke-width:1;"/><text fill="#000000" font-family="sans-serif" font-size="13" lengthAdjust="spacing" textLength="24.667" x="546.6524" y="763.6684">0..1</text></g><!--link N1 to apoint33--><g class="link" data-entity-1="N1" data-entity-2="apoint33" data-source-line="80" data-uid="lnk37" id="link_N1_apoint33"><path d="M553.33,627.19 C549.35,661.09 538.25,755.65 536.88,767.33" fill="none" id="N1-apoint33" style="stroke:#181818;stroke-width:1;stroke-dasharray:7,7;"/></g><!--SRC=[bLF1Zjem4BtxAwoSkbKJbMk5Lg9aLwf40G6xsgkn1x28xSXsjgLq_xssuoI6qbRD8KhUpBmtddcc5J46hw0cNAyFgiPdXDspjfhBFPuJ0Ud_X34Dng0tX6XI68k-I8lBHXFBbGn0gPfj1NYgZ1rAdk70gKClX6QSWZImh8Y5UIEse7l6hxmY-xQBMBevrO3zQo1TQ0Pf6qj2Zs3N_4TRM3hQy8gQNdAgX01f0xBX0XnCjFLV0_GWMG_4JfUS7f_gRX19e8IAlu8-9JCYMsCreHQtJJw8kb8dWAJFjP4fnoFNnbuFVKOYrf-sr5u9dt-NMDW3w2kTIFDaG5zJBrtDDwNPGEqs86NaRf494rnoh-BtUflxaKF55hi9jVoLsrD2vqRgwDovn7ywQzeOgqI_r7-NWMo4SuWUB38UU-p-FbAiOAVvdhjp0DleXXvR8a6gwfcqQvWfmXojj-5EQH6mp-fxc-qqadkIZR8yUv_56n0Zs25vxaATLLFSmztuK7SBF4tW2Gv6_NZ7F_CyxXd5TVyrzMBnwD868I4kzbRezePHPmNVToACFs6gmGtHe3zO8_jO59UzjeLX226M-Y89XX5rYqT8AdThi_FBOlMMOMBmV8JUXUGFjuNlYiAbp4T54TCIbJlq2m00]--></g></svg>