<svg xmlns="http://www.w3.org/2000/svg" xmlns:xlink="http://www.w3.org/1999/xlink" contentStyleType="text/css" data-diagram-type="CLASS" height="915px" preserveAspectRatio="none" style="width:481px;height:915px;background:#FFFFFF;" version="1.1" viewBox="0 0 481 915" width="481px" zoomAndPan="magnify"><defs/><g><!--class Cinema--><g class="entity" data-entity="Cinema" data-source-line="2" data-uid="ent0002" id="entity_Cinema"><rect fill="#F1F1F1" height="80.9766" rx="2.5" ry="2.5" style="stroke:#181818;stroke-width:0.5;" width="95.3438" x="197.37" y="147.98"/><ellipse cx="217.9141" cy="163.98" fill="#ADD1B2" rx="11" ry="11" style="stroke:#181818;stroke-width:1;"/><path d="M220.3873,170.1231 Q219.8062,170.4219 219.1671,170.5713 Q218.5279,170.7207 217.8223,170.7207 Q215.3155,170.7207 213.9957,169.0689 Q212.6759,167.417 212.6759,164.2959 Q212.6759,161.1665 213.9957,159.5147 Q215.3155,157.8628 217.8223,157.8628 Q218.5279,157.8628 219.1754,158.0122 Q219.8228,158.1616 220.3873,158.4605 L220.3873,161.1831 Q219.7564,160.6021 219.1629,160.3323 Q218.5694,160.0625 217.9386,160.0625 Q216.5938,160.0625 215.909,161.1292 Q215.2242,162.1958 215.2242,164.2959 Q215.2242,166.3877 215.909,167.4544 Q216.5938,168.521 217.9386,168.521 Q218.5694,168.521 219.1629,168.2512 Q219.7564,167.9815 220.3873,167.4004 Z " fill="#000000"/><text fill="#000000" font-family="sans-serif" font-size="14" lengthAdjust="spacing" textLength="51.0234" x="233.1462" y="169.271">Cinema</text><line style="stroke:#181818;stroke-width:0.5;" x1="198.37" x2="291.7138" y1="179.98" y2="179.98"/><text fill="#000000" font-family="sans-serif" font-size="14" lengthAdjust="spacing" textLength="83.3438" x="203.37" y="197.5152">String Name</text><text fill="#000000" font-family="sans-serif" font-size="14" lengthAdjust="spacing" textLength="70.6836" x="203.37" y="214.0034">String City</text><line style="stroke:#181818;stroke-width:0.5;" x1="198.37" x2="291.7138" y1="220.9566" y2="220.9566"/></g><!--class Theatre--><g class="entity" data-entity="Theatre" data-source-line="6" data-uid="ent0003" id="entity_Theatre"><rect fill="#F1F1F1" height="64.4883" rx="2.5" ry="2.5" style="stroke:#181818;stroke-width:0.5;" width="88.8291" x="208.63" y="297.2"/><ellipse cx="225.8765" cy="313.2" fill="#ADD1B2" rx="11" ry="11" style="stroke:#181818;stroke-width:1;"/><path d="M228.3496,319.3431 Q227.7686,319.6419 227.1294,319.7913 Q226.4903,319.9407 225.7847,319.9407 Q223.2779,319.9407 221.958,318.2889 Q220.6382,316.637 220.6382,313.5159 Q220.6382,310.3865 221.958,308.7347 Q223.2779,307.0828 225.7847,307.0828 Q226.4903,307.0828 227.1377,307.2322 Q227.7852,307.3816 228.3496,307.6805 L228.3496,310.4031 Q227.7188,309.8221 227.1253,309.5523 Q226.5318,309.2825 225.9009,309.2825 Q224.5562,309.2825 223.8714,310.3492 Q223.1865,311.4158 223.1865,313.5159 Q223.1865,315.6077 223.8714,316.6744 Q224.5562,317.741 225.9009,317.741 Q226.5318,317.741 227.1253,317.4712 Q227.7188,317.2015 228.3496,316.6204 Z " fill="#000000"/><text fill="#000000" font-family="sans-serif" font-size="14" lengthAdjust="spacing" textLength="51.8369" x="240.3757" y="318.491">Theatre</text><line style="stroke:#181818;stroke-width:0.5;" x1="209.63" x2="296.4591" y1="329.2" y2="329.2"/><text fill="#000000" font-family="sans-serif" font-size="14" lengthAdjust="spacing" textLength="76.8291" x="214.63" y="346.7352">Int Number</text><line style="stroke:#181818;stroke-width:0.5;" x1="209.63" x2="296.4591" y1="353.6883" y2="353.6883"/></g><!--class Movie--><g class="entity" data-entity="Movie" data-source-line="9" data-uid="ent0004" id="entity_Movie"><rect fill="#F1F1F1" height="80.9766" rx="2.5" ry="2.5" style="stroke:#181818;stroke-width:0.5;" width="145.5742" x="28.26" y="7"/><ellipse cx="76.9216" cy="23" fill="#ADD1B2" rx="11" ry="11" style="stroke:#181818;stroke-width:1;"/><path d="M79.3948,29.1431 Q78.8137,29.4419 78.1746,29.5913 Q77.5354,29.7407 76.8298,29.7407 Q74.323,29.7407 73.0032,28.0889 Q71.6833,26.437 71.6833,23.3159 Q71.6833,20.1865 73.0032,18.5347 Q74.323,16.8828 76.8298,16.8828 Q77.5354,16.8828 78.1829,17.0322 Q78.8303,17.1816 79.3948,17.4805 L79.3948,20.2031 Q78.7639,19.6221 78.1704,19.3523 Q77.5769,19.0825 76.946,19.0825 Q75.6013,19.0825 74.9165,20.1492 Q74.2317,21.2158 74.2317,23.3159 Q74.2317,25.4077 74.9165,26.4744 Q75.6013,27.541 76.946,27.541 Q77.5769,27.541 78.1704,27.2712 Q78.7639,27.0015 79.3948,26.4204 Z " fill="#000000"/><text fill="#000000" font-family="sans-serif" font-size="14" lengthAdjust="spacing" textLength="39.751" x="97.4216" y="28.291">Movie</text><line style="stroke:#181818;stroke-width:0.5;" x1="29.26" x2="172.8342" y1="39" y2="39"/><text fill="#000000" font-family="sans-serif" font-size="14" lengthAdjust="spacing" textLength="74.3818" x="34.26" y="56.5352">String Title</text><text fill="#000000" font-family="sans-serif" font-size="14" lengthAdjust="spacing" textLength="133.5742" x="34.26" y="73.0234">Int durationMinutes</text><line style="stroke:#181818;stroke-width:0.5;" x1="29.26" x2="172.8342" y1="79.9766" y2="79.9766"/></g><!--class MovieCopy--><g class="entity" data-entity="MovieCopy" data-source-line="13" data-uid="ent0005" id="entity_MovieCopy"><rect fill="#F1F1F1" height="64.4883" rx="2.5" ry="2.5" style="stroke:#181818;stroke-width:0.5;" width="106.1631" x="47.96" y="156.22"/><ellipse cx="62.96" cy="172.22" fill="#ADD1B2" rx="11" ry="11" style="stroke:#181818;stroke-width:1;"/><path d="M65.4331,178.3631 Q64.8521,178.6619 64.2129,178.8113 Q63.5738,178.9607 62.8682,178.9607 Q60.3614,178.9607 59.0415,177.3089 Q57.7217,175.657 57.7217,172.5359 Q57.7217,169.4065 59.0415,167.7547 Q60.3614,166.1028 62.8682,166.1028 Q63.5738,166.1028 64.2212,166.2522 Q64.8687,166.4016 65.4331,166.7005 L65.4331,169.4231 Q64.8023,168.8421 64.2088,168.5723 Q63.6153,168.3025 62.9844,168.3025 Q61.6397,168.3025 60.9549,169.3692 Q60.2701,170.4358 60.2701,172.5359 Q60.2701,174.6277 60.9549,175.6944 Q61.6397,176.761 62.9844,176.761 Q63.6153,176.761 64.2088,176.4912 Q64.8023,176.2215 65.4331,175.6404 Z " fill="#000000"/><text fill="#000000" font-family="sans-serif" font-size="14" lengthAdjust="spacing" textLength="74.1631" x="76.96" y="177.511">MovieCopy</text><line style="stroke:#181818;stroke-width:0.5;" x1="48.96" x2="153.1231" y1="188.22" y2="188.22"/><text fill="#000000" font-family="sans-serif" font-size="14" lengthAdjust="spacing" textLength="35.2324" x="53.96" y="205.7552">Int Id</text><line style="stroke:#181818;stroke-width:0.5;" x1="48.96" x2="153.1231" y1="212.7083" y2="212.7083"/></g><!--class CopyLocation--><g class="entity" data-entity="CopyLocation" data-source-line="16" data-uid="ent0006" id="entity_CopyLocation"><rect fill="#F1F1F1" height="80.9766" rx="2.5" ry="2.5" style="stroke:#181818;stroke-width:0.5;" width="144.1797" x="28.95" y="288.96"/><ellipse cx="53.0533" cy="304.96" fill="#ADD1B2" rx="11" ry="11" style="stroke:#181818;stroke-width:1;"/><path d="M55.5264,311.1031 Q54.9454,311.4019 54.3062,311.5513 Q53.667,311.7007 52.9615,311.7007 Q50.4546,311.7007 49.1348,310.0489 Q47.815,308.397 47.815,305.2759 Q47.815,302.1465 49.1348,300.4947 Q50.4546,298.8428 52.9615,298.8428 Q53.667,298.8428 54.3145,298.9922 Q54.962,299.1416 55.5264,299.4405 L55.5264,302.1631 Q54.8956,301.5821 54.3021,301.3123 Q53.7085,301.0425 53.0777,301.0425 Q51.733,301.0425 51.0481,302.1092 Q50.3633,303.1758 50.3633,305.2759 Q50.3633,307.3677 51.0481,308.4344 Q51.733,309.501 53.0777,309.501 Q53.7085,309.501 54.3021,309.2312 Q54.8956,308.9615 55.5264,308.3804 Z " fill="#000000"/><text fill="#000000" font-family="sans-serif" font-size="14" lengthAdjust="spacing" textLength="91.9502" x="69.0762" y="310.251">CopyLocation</text><line style="stroke:#181818;stroke-width:0.5;" x1="29.95" x2="172.1297" y1="320.96" y2="320.96"/><text fill="#000000" font-family="sans-serif" font-size="14" lengthAdjust="spacing" textLength="132.1797" x="34.95" y="338.4952">DateTime StartDate</text><text fill="#000000" font-family="sans-serif" font-size="14" lengthAdjust="spacing" textLength="125.7949" x="34.95" y="354.9834">DateTime EndDate</text><line style="stroke:#181818;stroke-width:0.5;" x1="29.95" x2="172.1297" y1="361.9366" y2="361.9366"/></g><!--class Seat--><g class="entity" data-entity="Seat" data-source-line="20" data-uid="ent0007" id="entity_Seat"><rect fill="#F1F1F1" height="64.4883" rx="2.5" ry="2.5" style="stroke:#181818;stroke-width:0.5;" width="117.1367" x="357.47" y="454.66"/><ellipse cx="398.0431" cy="470.66" fill="#ADD1B2" rx="11" ry="11" style="stroke:#181818;stroke-width:1;"/><path d="M400.5162,476.8031 Q399.9352,477.1019 399.296,477.2513 Q398.6569,477.4007 397.9513,477.4007 Q395.4445,477.4007 394.1246,475.7489 Q392.8048,474.097 392.8048,470.9759 Q392.8048,467.8465 394.1246,466.1947 Q395.4445,464.5428 397.9513,464.5428 Q398.6569,464.5428 399.3043,464.6922 Q399.9518,464.8416 400.5162,465.1405 L400.5162,467.8631 Q399.8854,467.2821 399.2919,467.0123 Q398.6984,466.7425 398.0675,466.7425 Q396.7228,466.7425 396.038,467.8092 Q395.3532,468.8758 395.3532,470.9759 Q395.3532,473.0677 396.038,474.1344 Q396.7228,475.201 398.0675,475.201 Q398.6984,475.201 399.2919,474.9312 Q399.8854,474.6615 400.5162,474.0804 Z " fill="#000000"/><text fill="#000000" font-family="sans-serif" font-size="14" lengthAdjust="spacing" textLength="28.3076" x="417.726" y="475.951">Seat</text><line style="stroke:#181818;stroke-width:0.5;" x1="358.47" x2="473.6067" y1="486.66" y2="486.66"/><text fill="#000000" font-family="sans-serif" font-size="14" lengthAdjust="spacing" textLength="105.1367" x="363.47" y="504.1952">Int SeatNumber</text><line style="stroke:#181818;stroke-width:0.5;" x1="358.47" x2="473.6067" y1="511.1483" y2="511.1483"/></g><!--class Show--><g class="entity" data-entity="Show" data-source-line="23" data-uid="ent0008" id="entity_Show"><rect fill="#F1F1F1" height="113.9531" rx="2.5" ry="2.5" style="stroke:#181818;stroke-width:0.5;" width="146.6953" x="27.7" y="429.93"/><ellipse cx="78.99" cy="445.93" fill="#ADD1B2" rx="11" ry="11" style="stroke:#181818;stroke-width:1;"/><path d="M81.4632,452.0731 Q80.8821,452.3719 80.243,452.5213 Q79.6038,452.6707 78.8982,452.6707 Q76.3914,452.6707 75.0716,451.0189 Q73.7518,449.367 73.7518,446.2459 Q73.7518,443.1165 75.0716,441.4647 Q76.3914,439.8128 78.8982,439.8128 Q79.6038,439.8128 80.2513,439.9622 Q80.8987,440.1116 81.4632,440.4105 L81.4632,443.1331 Q80.8323,442.5521 80.2388,442.2823 Q79.6453,442.0125 79.0145,442.0125 Q77.6697,442.0125 76.9849,443.0792 Q76.3001,444.1458 76.3001,446.2459 Q76.3001,448.3377 76.9849,449.4044 Q77.6697,450.471 79.0145,450.471 Q79.6453,450.471 80.2388,450.2012 Q80.8323,449.9315 81.4632,449.3504 Z " fill="#000000"/><text fill="#000000" font-family="sans-serif" font-size="14" lengthAdjust="spacing" textLength="35.6152" x="99.49" y="451.221">Show</text><line style="stroke:#181818;stroke-width:0.5;" x1="28.7" x2="173.3953" y1="461.93" y2="461.93"/><text fill="#000000" font-family="sans-serif" font-size="14" lengthAdjust="spacing" textLength="134.6953" x="33.7" y="479.4652">DateTime StartTime</text><text fill="#000000" font-family="sans-serif" font-size="14" lengthAdjust="spacing" textLength="128.3105" x="33.7" y="495.9534">DateTime EndTime</text><line style="stroke:#181818;stroke-width:0.5;" x1="28.7" x2="173.3953" y1="502.9066" y2="502.9066"/><text fill="#000000" font-family="sans-serif" font-size="14" lengthAdjust="spacing" textLength="59.3359" x="33.7" y="520.4417">publish()</text><text fill="#000000" font-family="sans-serif" font-size="14" lengthAdjust="spacing" textLength="87.3291" x="33.7" y="536.93">cancelShow()</text></g><!--class Ticket--><g class="entity" data-entity="Ticket" data-source-line="29" data-uid="ent0009" id="entity_Ticket"><rect fill="#F1F1F1" height="80.9766" rx="2.5" ry="2.5" style="stroke:#181818;stroke-width:0.5;" width="88.5215" x="56.78" y="620.37"/><ellipse cx="78.6346" cy="636.37" fill="#ADD1B2" rx="11" ry="11" style="stroke:#181818;stroke-width:1;"/><path d="M81.1077,642.5131 Q80.5267,642.8119 79.8875,642.9613 Q79.2484,643.1107 78.5428,643.1107 Q76.036,643.1107 74.7161,641.4589 Q73.3963,639.807 73.3963,636.6859 Q73.3963,633.5565 74.7161,631.9047 Q76.036,630.2528 78.5428,630.2528 Q79.2484,630.2528 79.8958,630.4022 Q80.5433,630.5516 81.1077,630.8505 L81.1077,633.5731 Q80.4769,632.9921 79.8834,632.7223 Q79.2899,632.4525 78.659,632.4525 Q77.3143,632.4525 76.6295,633.5192 Q75.9446,634.5858 75.9446,636.6859 Q75.9446,638.7777 76.6295,639.8444 Q77.3143,640.911 78.659,640.911 Q79.2899,640.911 79.8834,640.6412 Q80.4769,640.3715 81.1077,639.7904 Z " fill="#000000"/><text fill="#000000" font-family="sans-serif" font-size="14" lengthAdjust="spacing" textLength="41.2891" x="94.1578" y="641.661">Ticket</text><line style="stroke:#181818;stroke-width:0.5;" x1="57.78" x2="144.3015" y1="652.37" y2="652.37"/><text fill="#000000" font-family="sans-serif" font-size="14" lengthAdjust="spacing" textLength="76.5215" x="62.78" y="669.9052">Int TicketId</text><text fill="#000000" font-family="sans-serif" font-size="14" lengthAdjust="spacing" textLength="70.0342" x="62.78" y="686.3934">Float Price</text><line style="stroke:#181818;stroke-width:0.5;" x1="57.78" x2="144.3015" y1="693.3466" y2="693.3466"/></g><!--class Customer--><g class="entity" data-entity="Customer" data-source-line="33" data-uid="ent0010" id="entity_Customer"><rect fill="#F1F1F1" height="80.9766" rx="2.5" ry="2.5" style="stroke:#181818;stroke-width:0.5;" width="113.1787" x="209.45" y="446.42"/><ellipse cx="231.3046" cy="462.42" fill="#ADD1B2" rx="11" ry="11" style="stroke:#181818;stroke-width:1;"/><path d="M233.7777,468.5631 Q233.1967,468.8619 232.5575,469.0113 Q231.9184,469.1607 231.2128,469.1607 Q228.706,469.1607 227.3861,467.5089 Q226.0663,465.857 226.0663,462.7359 Q226.0663,459.6065 227.3861,457.9547 Q228.706,456.3028 231.2128,456.3028 Q231.9184,456.3028 232.5658,456.4522 Q233.2133,456.6016 233.7777,456.9005 L233.7777,459.6231 Q233.1469,459.0421 232.5534,458.7723 Q231.9599,458.5025 231.329,458.5025 Q229.9843,458.5025 229.2995,459.5692 Q228.6146,460.6358 228.6146,462.7359 Q228.6146,464.8277 229.2995,465.8944 Q229.9843,466.961 231.329,466.961 Q231.9599,466.961 232.5534,466.6912 Q233.1469,466.4215 233.7777,465.8404 Z " fill="#000000"/><text fill="#000000" font-family="sans-serif" font-size="14" lengthAdjust="spacing" textLength="65.9463" x="246.8278" y="467.711">Customer</text><line style="stroke:#181818;stroke-width:0.5;" x1="210.45" x2="321.6287" y1="478.42" y2="478.42"/><text fill="#000000" font-family="sans-serif" font-size="14" lengthAdjust="spacing" textLength="83.3438" x="215.45" y="495.9552">String Name</text><text fill="#000000" font-family="sans-serif" font-size="14" lengthAdjust="spacing" textLength="101.1787" x="215.45" y="512.4434">Int CustomerId</text><line style="stroke:#181818;stroke-width:0.5;" x1="210.45" x2="321.6287" y1="519.3966" y2="519.3966"/></g><!--class OnlineTicket--><g class="entity" data-entity="OnlineTicket" data-source-line="37" data-uid="ent0011" id="entity_OnlineTicket"><rect fill="#F1F1F1" height="113.9531" rx="2.5" ry="2.5" style="stroke:#181818;stroke-width:0.5;" width="208.5264" x="180.78" y="603.89"/><ellipse cx="238.0754" cy="619.89" fill="#ADD1B2" rx="11" ry="11" style="stroke:#181818;stroke-width:1;"/><path d="M240.5486,626.0331 Q239.9675,626.3319 239.3283,626.4813 Q238.6892,626.6307 237.9836,626.6307 Q235.4768,626.6307 234.157,624.9789 Q232.8371,623.327 232.8371,620.2059 Q232.8371,617.0765 234.157,615.4247 Q235.4768,613.7728 237.9836,613.7728 Q238.6892,613.7728 239.3366,613.9222 Q239.9841,614.0716 240.5486,614.3705 L240.5486,617.0931 Q239.9177,616.5121 239.3242,616.2423 Q238.7307,615.9725 238.0998,615.9725 Q236.7551,615.9725 236.0703,617.0392 Q235.3855,618.1058 235.3855,620.2059 Q235.3855,622.2977 236.0703,623.3644 Q236.7551,624.431 238.0998,624.431 Q238.7307,624.431 239.3242,624.1612 Q239.9177,623.8915 240.5486,623.3104 Z " fill="#000000"/><text fill="#000000" font-family="sans-serif" font-size="14" lengthAdjust="spacing" textLength="85.4355" x="258.5754" y="625.181">OnlineTicket</text><line style="stroke:#181818;stroke-width:0.5;" x1="181.78" x2="388.3064" y1="635.89" y2="635.89"/><text fill="#000000" font-family="sans-serif" font-size="14" lengthAdjust="spacing" textLength="120.668" x="186.78" y="653.4252">Int OnlineTicketId</text><text fill="#000000" font-family="sans-serif" font-size="14" lengthAdjust="spacing" textLength="70.0342" x="186.78" y="669.9134">Float Price</text><line style="stroke:#181818;stroke-width:0.5;" x1="181.78" x2="388.3064" y1="676.8666" y2="676.8666"/><text fill="#000000" font-family="sans-serif" font-size="14" lengthAdjust="spacing" textLength="196.5264" x="186.78" y="694.4017">cancelReservationCustomer()</text><text fill="#000000" font-family="sans-serif" font-size="14" lengthAdjust="spacing" textLength="192.8965" x="186.78" y="710.89">cancelReservationKinepolis()</text></g><!--class AlternativeOffer--><g class="entity" data-entity="AlternativeOffer" data-source-line="43" data-uid="ent0012" id="entity_AlternativeOffer"><rect fill="#F1F1F1" height="130.4414" rx="2.5" ry="2.5" style="stroke:#181818;stroke-width:0.5;" width="155.1514" x="207.47" y="777.84"/><ellipse cx="229.3246" cy="793.84" fill="#ADD1B2" rx="11" ry="11" style="stroke:#181818;stroke-width:1;"/><path d="M231.7977,799.9831 Q231.2167,800.2819 230.5775,800.4313 Q229.9384,800.5807 229.2328,800.5807 Q226.726,800.5807 225.4061,798.9289 Q224.0863,797.277 224.0863,794.1559 Q224.0863,791.0265 225.4061,789.3747 Q226.726,787.7228 229.2328,787.7228 Q229.9384,787.7228 230.5858,787.8722 Q231.2333,788.0216 231.7977,788.3205 L231.7977,791.0431 Q231.1669,790.4621 230.5734,790.1923 Q229.9799,789.9225 229.349,789.9225 Q228.0043,789.9225 227.3195,790.9892 Q226.6346,792.0558 226.6346,794.1559 Q226.6346,796.2477 227.3195,797.3144 Q228.0043,798.381 229.349,798.381 Q229.9799,798.381 230.5734,798.1112 Q231.1669,797.8415 231.7977,797.2604 Z " fill="#000000"/><text fill="#000000" font-family="sans-serif" font-size="14" lengthAdjust="spacing" textLength="107.9189" x="244.8478" y="799.131">AlternativeOffer</text><line style="stroke:#181818;stroke-width:0.5;" x1="208.47" x2="361.6214" y1="809.84" y2="809.84"/><text fill="#000000" font-family="sans-serif" font-size="14" lengthAdjust="spacing" textLength="143.1514" x="213.47" y="827.3752">Int AlternativeOfferId</text><line style="stroke:#181818;stroke-width:0.5;" x1="208.47" x2="361.6214" y1="834.3283" y2="834.3283"/><text fill="#000000" font-family="sans-serif" font-size="14" lengthAdjust="spacing" textLength="53.0264" x="213.47" y="851.8634">accept()</text><text fill="#000000" font-family="sans-serif" font-size="14" lengthAdjust="spacing" textLength="57.4697" x="213.47" y="868.3517">decline()</text><text fill="#000000" font-family="sans-serif" font-size="14" lengthAdjust="spacing" textLength="51.8779" x="213.47" y="884.84">expire()</text><text fill="#000000" font-family="sans-serif" font-size="14" lengthAdjust="spacing" textLength="53.9697" x="213.47" y="901.3283">refund()</text></g><!--link Cinema to Theatre--><g class="link" data-entity-1="Cinema" data-entity-2="Theatre" data-source-line="52" data-uid="lnk13" id="link_Cinema_Theatre"><path codeLine="52" d="M247.34,229.29 C248.57,250.79 250.08,276.95 251.23,297" fill="none" id="Cinema-Theatre" style="stroke:#181818;stroke-width:1;"/><text fill="#000000" font-family="sans-serif" font-size="13" lengthAdjust="spacing" textLength="24.667" x="221.8469" y="249.5844">1..1</text><text fill="#000000" font-family="sans-serif" font-size="13" lengthAdjust="spacing" textLength="22.7119" x="226.6604" y="286.3619">0..*</text></g><!--link Movie to MovieCopy--><g class="link" data-entity-1="Movie" data-entity-2="MovieCopy" data-source-line="53" data-uid="lnk14" id="link_Movie_MovieCopy"><path codeLine="53" d="M101.04,88.32 C101.04,109.81 101.04,135.97 101.04,156.02" fill="none" id="Movie-MovieCopy" style="stroke:#181818;stroke-width:1;"/><text fill="#000000" font-family="sans-serif" font-size="13" lengthAdjust="spacing" textLength="24.667" x="75.1795" y="108.616">1..1</text><text fill="#000000" font-family="sans-serif" font-size="13" lengthAdjust="spacing" textLength="22.7119" x="76.8443" y="145.3819">0..*</text></g><!--link Cinema to CopyLocation--><g class="link" data-entity-1="Cinema" data-entity-2="CopyLocation" data-source-line="54" data-uid="lnk15" id="link_Cinema_CopyLocation"><path codeLine="54" d="M203.78,229.29 C184.5,247.9 161.6,270 142.31,288.61" fill="none" id="Cinema-CopyLocation" style="stroke:#181818;stroke-width:1;"/><text fill="#000000" font-family="sans-serif" font-size="13" lengthAdjust="spacing" textLength="24.667" x="171.3445" y="249.5844">1..1</text><text fill="#000000" font-family="sans-serif" font-size="13" lengthAdjust="spacing" textLength="22.7119" x="125.3825" y="278.198">0..*</text></g><!--link MovieCopy to CopyLocation--><g class="link" data-entity-1="MovieCopy" data-entity-2="CopyLocation" data-source-line="55" data-uid="lnk16" id="link_MovieCopy_CopyLocation"><path codeLine="55" d="M101.04,221 C101.04,241.02 101.04,267.11 101.04,288.56" fill="none" id="MovieCopy-CopyLocation" style="stroke:#181818;stroke-width:1;"/><text fill="#000000" font-family="sans-serif" font-size="13" lengthAdjust="spacing" textLength="24.667" x="74.8158" y="241.2298">1..1</text><text fill="#000000" font-family="sans-serif" font-size="13" lengthAdjust="spacing" textLength="22.7119" x="77.2771" y="278.1398">0..*</text></g><!--link Theatre to Seat--><g class="link" data-entity-1="Theatre" data-entity-2="Seat" data-source-line="56" data-uid="lnk17" id="link_Theatre_Seat"><path codeLine="56" d="M286.03,361.9 C314.22,388.79 354.57,427.28 382.83,454.23" fill="none" id="Theatre-Seat" style="stroke:#181818;stroke-width:1;"/><text fill="#000000" font-family="sans-serif" font-size="13" lengthAdjust="spacing" textLength="24.667" x="266.2272" y="382.3652">1..1</text><text fill="#000000" font-family="sans-serif" font-size="13" lengthAdjust="spacing" textLength="22.7119" x="352.1966" y="443.9196">0..*</text></g><!--link Theatre to Show--><g class="link" data-entity-1="Theatre" data-entity-2="Show" data-source-line="57" data-uid="lnk18" id="link_Theatre_Show"><path codeLine="57" d="M222.28,361.9 C203.29,381.34 178.36,406.83 156.05,429.65" fill="none" id="Theatre-Show" style="stroke:#181818;stroke-width:1;"/><text fill="#000000" font-family="sans-serif" font-size="13" lengthAdjust="spacing" textLength="24.667" x="189.9264" y="382.3652">1..1</text><text fill="#000000" font-family="sans-serif" font-size="13" lengthAdjust="spacing" textLength="22.7119" x="139.4562" y="419.3451">0..*</text></g><!--link CopyLocation to Show--><g class="link" data-entity-1="CopyLocation" data-entity-2="Show" data-source-line="58" data-uid="lnk19" id="link_CopyLocation_Show"><path codeLine="58" d="M101.04,370.08 C101.04,388.16 101.04,409.9 101.04,429.63" fill="none" id="CopyLocation-Show" style="stroke:#181818;stroke-width:1;"/><text fill="#000000" font-family="sans-serif" font-size="13" lengthAdjust="spacing" textLength="24.667" x="75.1078" y="390.6459">1..1</text><text fill="#000000" font-family="sans-serif" font-size="13" lengthAdjust="spacing" textLength="22.7119" x="77.7418" y="419.3226">0..*</text></g><!--link Seat to Ticket--><g class="link" data-entity-1="Seat" data-entity-2="Ticket" data-source-line="59" data-uid="lnk20" id="link_Seat_Ticket"><path codeLine="59" d="M378.11,519.39 C366.39,528.12 353.12,537.06 340.04,543.89 C266.4,582.3 234.69,561.85 163.04,603.89 C155.29,608.44 147.65,614.06 140.53,619.98" fill="none" id="Seat-Ticket" style="stroke:#181818;stroke-width:1;"/><text fill="#000000" font-family="sans-serif" font-size="13" lengthAdjust="spacing" textLength="24.667" x="344.656" y="539.6103">1..1</text><text fill="#000000" font-family="sans-serif" font-size="13" lengthAdjust="spacing" textLength="22.7119" x="123.3075" y="609.5614">0..*</text></g><!--link Show to Ticket--><g class="link" data-entity-1="Show" data-entity-2="Ticket" data-source-line="60" data-uid="lnk21" id="link_Show_Ticket"><path codeLine="60" d="M101.04,544.21 C101.04,568.99 101.04,597.52 101.04,620.04" fill="none" id="Show-Ticket" style="stroke:#181818;stroke-width:1;"/><text fill="#000000" font-family="sans-serif" font-size="13" lengthAdjust="spacing" textLength="24.667" x="75.6902" y="564.2892">1..1</text><text fill="#000000" font-family="sans-serif" font-size="13" lengthAdjust="spacing" textLength="22.7119" x="77.277" y="609.6314">0..*</text></g><!--link Customer to OnlineTicket--><g class="link" data-entity-1="Customer" data-entity-2="OnlineTicket" data-source-line="61" data-uid="lnk22" id="link_Customer_OnlineTicket"><path codeLine="61" d="M270.45,527.79 C272.94,550.31 276.09,578.82 278.83,603.59" fill="none" id="Customer-OnlineTicket" style="stroke:#181818;stroke-width:1;"/><text fill="#000000" font-family="sans-serif" font-size="13" lengthAdjust="spacing" textLength="24.667" x="245.2936" y="548.0939">1..1</text><text fill="#000000" font-family="sans-serif" font-size="13" lengthAdjust="spacing" textLength="22.7119" x="254.7755" y="593.2826">0..*</text></g><!--link Seat to OnlineTicket--><g class="link" data-entity-1="Seat" data-entity-2="OnlineTicket" data-source-line="62" data-uid="lnk23" id="link_Seat_OnlineTicket"><path codeLine="62" d="M392.02,519.45 C374.14,542.91 349.26,575.56 328,603.48" fill="none" id="Seat-OnlineTicket" style="stroke:#181818;stroke-width:1;"/><text fill="#000000" font-family="sans-serif" font-size="13" lengthAdjust="spacing" textLength="24.667" x="389.7926" y="539.6817">1..1</text><text fill="#000000" font-family="sans-serif" font-size="13" lengthAdjust="spacing" textLength="22.7119" x="309.9381" y="593.1592">0..*</text></g><!--link Show to OnlineTicket--><g class="link" data-entity-1="Show" data-entity-2="OnlineTicket" data-source-line="63" data-uid="lnk24" id="link_Show_OnlineTicket"><path codeLine="63" d="M161.29,544.21 C181.62,563.21 204.32,584.42 224.66,603.43" fill="none" id="Show-OnlineTicket" style="stroke:#181818;stroke-width:1;"/><text fill="#000000" font-family="sans-serif" font-size="13" lengthAdjust="spacing" textLength="24.667" x="142.9066" y="564.2892">1..1</text><text fill="#000000" font-family="sans-serif" font-size="13" lengthAdjust="spacing" textLength="22.7119" x="194.0036" y="593.1031">0..*</text></g><!--link OnlineTicket to AlternativeOffer--><g class="link" data-entity-1="OnlineTicket" data-entity-2="AlternativeOffer" data-source-line="64" data-uid="lnk25" id="link_OnlineTicket_AlternativeOffer"><path codeLine="64" d="M285.04,717.89 C285.04,736.8 285.04,758.05 285.04,777.56" fill="none" id="OnlineTicket-AlternativeOffer" style="stroke:#181818;stroke-width:1;"/><text fill="#000000" font-family="sans-serif" font-size="13" lengthAdjust="spacing" textLength="24.667" x="259.6178" y="738.3411">1..1</text><text fill="#000000" font-family="sans-serif" font-size="13" lengthAdjust="spacing" textLength="24.667" x="259.7634" y="767.1609">0..1</text></g><!--link Seat to AlternativeOffer--><g class="link" data-entity-1="Seat" data-entity-2="AlternativeOffer" data-source-line="65" data-uid="lnk26" id="link_Seat_AlternativeOffer"><path codeLine="65" d="M421.73,519.6 C428.46,565.45 435.48,652.01 407.04,717.84 C397.03,741.01 380.58,762.28 362.94,780.43" fill="none" id="Seat-AlternativeOffer" style="stroke:#181818;stroke-width:1;"/><text fill="#000000" font-family="sans-serif" font-size="13" lengthAdjust="spacing" textLength="24.667" x="425.0534" y="539.6081">1..1</text><text fill="#000000" font-family="sans-serif" font-size="13" lengthAdjust="spacing" textLength="22.7119" x="370.6099" y="771.9848">0..*</text></g><!--link Show to AlternativeOffer--><g class="link" data-entity-1="Show" data-entity-2="AlternativeOffer" data-source-line="66" data-uid="lnk27" id="link_Show_AlternativeOffer"><path codeLine="66" d="M62.63,543.94 C34.33,592.82 6,664.14 39.04,717.84 C75.46,777.03 149.75,809.04 207.2,825.66" fill="none" id="Show-AlternativeOffer" style="stroke:#181818;stroke-width:1;"/><text fill="#000000" font-family="sans-serif" font-size="13" lengthAdjust="spacing" textLength="24.667" x="32.526" y="564.3923">1..1</text><text fill="#000000" font-family="sans-serif" font-size="13" lengthAdjust="spacing" textLength="22.7119" x="176.7658" y="820.8698">0..*</text></g><!--SRC=[XLFHJeCm57rsNz7mf2OZxXCCQhBeDkFs0rsvSusb9QLC5-E_snOAXNQC1-1UJkyvzt8kGWWHXgiAPPH3WT7lx4Qdq5P9oZ_H6XSmI6HKdMSc_hFtvkZk25X9S6UNNA5rNUn11iYLE54OSUoeOj2Vp6k95HLyHNcje8gNo4HvzkcMUO0pa3T1R2q7VS8AThG0JOsbCj4e_ynpcnqNs-e6VJuJNsXnUnJVSJxp5lBPBB9NMUyPhOwtTsrCC2V0JC4sDHWw9LzWH3LOewf9jRD0w8K9hVfTKX8sbDML4WN8xhp_m_kA3XQPxuOpxPY82l_3HIskkG-eG9xiJt9Se_OznAkkMmezeiWu7fa2oJNi19l3mMlCI1f_x6HXGg1K7MCEn6ZlOlWfgUn32OUQvntvp3xRlKaMQRf8q7oEaeSqlK_SKbXCO_i0qbbvif1lvBwQtO3hMBUQ0T8u-0f2-wuHvc_IPPZTaN0CrWSDm6p65A0pPG3oFJL15iAYb05iuEKXNB-DtJCX80wDYWYW_m00]--></g></svg>