<svg xmlns="http://www.w3.org/2000/svg" xmlns:xlink="http://www.w3.org/1999/xlink" contentStyleType="text/css" data-diagram-type="CLASS" height="362px" preserveAspectRatio="none" style="width:500px;height:362px;background:#FFFFFF;" version="1.1" viewBox="0 0 500 362" width="500px" zoomAndPan="magnify"><defs/><g><!--class GameArea--><g class="entity" data-entity="GameArea" data-source-line="1" data-uid="ent0002" id="entity_GameArea"><rect fill="#F1F1F1" height="64.4883" rx="2.5" ry="2.5" style="stroke:#181818;stroke-width:0.5;" width="101.6377" x="240.47" y="7"/><ellipse cx="255.47" cy="23" fill="#ADD1B2" rx="11" ry="11" style="stroke:#181818;stroke-width:1;"/><path d="M257.9431,29.1431 Q257.3621,29.4419 256.7229,29.5913 Q256.0838,29.7407 255.3782,29.7407 Q252.8714,29.7407 251.5515,28.0889 Q250.2317,26.437 250.2317,23.3159 Q250.2317,20.1865 251.5515,18.5347 Q252.8714,16.8828 255.3782,16.8828 Q256.0838,16.8828 256.7312,17.0322 Q257.3787,17.1816 257.9431,17.4805 L257.9431,20.2031 Q257.3123,19.6221 256.7188,19.3523 Q256.1253,19.0825 255.4944,19.0825 Q254.1497,19.0825 253.4649,20.1492 Q252.7801,21.2158 252.7801,23.3159 Q252.7801,25.4077 253.4649,26.4744 Q254.1497,27.541 255.4944,27.541 Q256.1253,27.541 256.7188,27.2712 Q257.3123,27.0015 257.9431,26.4204 Z " fill="#000000"/><text fill="#000000" font-family="sans-serif" font-size="14" lengthAdjust="spacing" textLength="69.6377" x="269.47" y="28.291">GameArea</text><line style="stroke:#181818;stroke-width:0.5;" x1="241.47" x2="341.1077" y1="39" y2="39"/><text fill="#000000" font-family="sans-serif" font-size="14" lengthAdjust="spacing" textLength="81.6895" x="246.47" y="56.5352">String name</text><line style="stroke:#181818;stroke-width:0.5;" x1="241.47" x2="341.1077" y1="63.4883" y2="63.4883"/></g><!--class GameCharacter--><g class="entity" data-entity="GameCharacter" data-source-line="5" data-uid="ent0003" id="entity_GameCharacter"><rect fill="#F1F1F1" height="48" rx="2.5" ry="2.5" style="stroke:#181818;stroke-width:0.5;" width="136.2207" x="57.18" y="148.98"/><ellipse cx="72.18" cy="164.98" fill="#ADD1B2" rx="11" ry="11" style="stroke:#181818;stroke-width:1;"/><path d="M74.6531,171.1231 Q74.0721,171.4219 73.4329,171.5713 Q72.7938,171.7207 72.0882,171.7207 Q69.5814,171.7207 68.2615,170.0689 Q66.9417,168.417 66.9417,165.2959 Q66.9417,162.1665 68.2615,160.5147 Q69.5814,158.8628 72.0882,158.8628 Q72.7938,158.8628 73.4412,159.0122 Q74.0887,159.1616 74.6531,159.4605 L74.6531,162.1831 Q74.0223,161.6021 73.4288,161.3323 Q72.8353,161.0625 72.2044,161.0625 Q70.8597,161.0625 70.1749,162.1292 Q69.4901,163.1958 69.4901,165.2959 Q69.4901,167.3877 70.1749,168.4544 Q70.8597,169.521 72.2044,169.521 Q72.8353,169.521 73.4288,169.2512 Q74.0223,168.9815 74.6531,168.4004 Z " fill="#000000"/><text fill="#000000" font-family="sans-serif" font-size="14" lengthAdjust="spacing" textLength="104.2207" x="86.18" y="170.271">GameCharacter</text><line style="stroke:#181818;stroke-width:0.5;" x1="58.18" x2="192.4007" y1="180.98" y2="180.98"/><line style="stroke:#181818;stroke-width:0.5;" x1="58.18" x2="192.4007" y1="188.98" y2="188.98"/></g><!--class GameElement--><g class="entity" data-entity="GameElement" data-source-line="7" data-uid="ent0004" id="entity_GameElement"><rect fill="#F1F1F1" height="80.9766" rx="2.5" ry="2.5" style="stroke:#181818;stroke-width:0.5;" width="124.9482" x="228.81" y="132.49"/><ellipse cx="243.81" cy="148.49" fill="#ADD1B2" rx="11" ry="11" style="stroke:#181818;stroke-width:1;"/><path d="M246.2831,154.6331 Q245.7021,154.9319 245.0629,155.0813 Q244.4238,155.2307 243.7182,155.2307 Q241.2114,155.2307 239.8915,153.5789 Q238.5717,151.927 238.5717,148.8059 Q238.5717,145.6765 239.8915,144.0247 Q241.2114,142.3728 243.7182,142.3728 Q244.4238,142.3728 245.0712,142.5222 Q245.7187,142.6716 246.2831,142.9705 L246.2831,145.6931 Q245.6523,145.1121 245.0588,144.8423 Q244.4653,144.5725 243.8344,144.5725 Q242.4897,144.5725 241.8049,145.6392 Q241.1201,146.7058 241.1201,148.8059 Q241.1201,150.8977 241.8049,151.9644 Q242.4897,153.031 243.8344,153.031 Q244.4653,153.031 245.0588,152.7612 Q245.6523,152.4915 246.2831,151.9104 Z " fill="#000000"/><text fill="#000000" font-family="sans-serif" font-size="14" lengthAdjust="spacing" textLength="92.9482" x="257.81" y="153.781">GameElement</text><line style="stroke:#181818;stroke-width:0.5;" x1="229.81" x2="352.7582" y1="164.49" y2="164.49"/><text fill="#000000" font-family="sans-serif" font-size="14" lengthAdjust="spacing" textLength="43.0801" x="234.81" y="182.0252">long x</text><text fill="#000000" font-family="sans-serif" font-size="14" lengthAdjust="spacing" textLength="41.8086" x="234.81" y="198.5134">long y</text><line style="stroke:#181818;stroke-width:0.5;" x1="229.81" x2="352.7582" y1="205.4666" y2="205.4666"/></g><!--class Shape--><g class="entity" data-entity="Shape" data-source-line="12" data-uid="ent0005" id="entity_Shape"><rect fill="#F1F1F1" height="48" rx="2.5" ry="2.5" style="stroke:#181818;stroke-width:0.5;" width="72.5713" x="7" y="290.95"/><ellipse cx="22" cy="306.95" fill="#ADD1B2" rx="11" ry="11" style="stroke:#181818;stroke-width:1;"/><path d="M24.4731,313.0931 Q23.8921,313.3919 23.2529,313.5413 Q22.6138,313.6907 21.9082,313.6907 Q19.4014,313.6907 18.0815,312.0389 Q16.7617,310.387 16.7617,307.2659 Q16.7617,304.1365 18.0815,302.4847 Q19.4014,300.8328 21.9082,300.8328 Q22.6138,300.8328 23.2612,300.9822 Q23.9087,301.1316 24.4731,301.4305 L24.4731,304.1531 Q23.8423,303.5721 23.2488,303.3023 Q22.6553,303.0325 22.0244,303.0325 Q20.6797,303.0325 19.9949,304.0992 Q19.3101,305.1658 19.3101,307.2659 Q19.3101,309.3577 19.9949,310.4244 Q20.6797,311.491 22.0244,311.491 Q22.6553,311.491 23.2488,311.2212 Q23.8423,310.9515 24.4731,310.3704 Z " fill="#000000"/><text fill="#000000" font-family="sans-serif" font-size="14" lengthAdjust="spacing" textLength="40.5713" x="36" y="312.241">Shape</text><line style="stroke:#181818;stroke-width:0.5;" x1="8" x2="78.5713" y1="322.95" y2="322.95"/><line style="stroke:#181818;stroke-width:0.5;" x1="8" x2="78.5713" y1="330.95" y2="330.95"/></g><!--class Item--><g class="entity" data-entity="Item" data-source-line="14" data-uid="ent0006" id="entity_Item"><rect fill="#F1F1F1" height="48" rx="2.5" ry="2.5" style="stroke:#181818;stroke-width:0.5;" width="62.1396" x="259.22" y="290.95"/><ellipse cx="274.22" cy="306.95" fill="#ADD1B2" rx="11" ry="11" style="stroke:#181818;stroke-width:1;"/><path d="M276.6931,313.0931 Q276.1121,313.3919 275.4729,313.5413 Q274.8338,313.6907 274.1282,313.6907 Q271.6214,313.6907 270.3015,312.0389 Q268.9817,310.387 268.9817,307.2659 Q268.9817,304.1365 270.3015,302.4847 Q271.6214,300.8328 274.1282,300.8328 Q274.8338,300.8328 275.4812,300.9822 Q276.1287,301.1316 276.6931,301.4305 L276.6931,304.1531 Q276.0623,303.5721 275.4688,303.3023 Q274.8753,303.0325 274.2444,303.0325 Q272.8997,303.0325 272.2149,304.0992 Q271.5301,305.1658 271.5301,307.2659 Q271.5301,309.3577 272.2149,310.4244 Q272.8997,311.491 274.2444,311.491 Q274.8753,311.491 275.4688,311.2212 Q276.0623,310.9515 276.6931,310.3704 Z " fill="#000000"/><text fill="#000000" font-family="sans-serif" font-size="14" lengthAdjust="spacing" textLength="30.1396" x="288.22" y="312.241">Item</text><line style="stroke:#181818;stroke-width:0.5;" x1="260.22" x2="320.3596" y1="322.95" y2="322.95"/><line style="stroke:#181818;stroke-width:0.5;" x1="260.22" x2="320.3596" y1="330.95" y2="330.95"/></g><!--class Enemy--><g class="entity" data-entity="Enemy" data-source-line="16" data-uid="ent0007" id="entity_Enemy"><rect fill="#F1F1F1" height="80.9766" rx="2.5" ry="2.5" style="stroke:#181818;stroke-width:0.5;" width="136.9063" x="356.83" y="274.46"/><ellipse cx="399.0304" cy="290.46" fill="#ADD1B2" rx="11" ry="11" style="stroke:#181818;stroke-width:1;"/><path d="M401.5035,296.6031 Q400.9225,296.9019 400.2833,297.0513 Q399.6442,297.2007 398.9386,297.2007 Q396.4318,297.2007 395.1119,295.5489 Q393.7921,293.897 393.7921,290.7759 Q393.7921,287.6465 395.1119,285.9947 Q396.4318,284.3428 398.9386,284.3428 Q399.6442,284.3428 400.2916,284.4922 Q400.9391,284.6416 401.5035,284.9405 L401.5035,287.6631 Q400.8727,287.0821 400.2792,286.8123 Q399.6857,286.5425 399.0548,286.5425 Q397.7101,286.5425 397.0253,287.6092 Q396.3404,288.6758 396.3404,290.7759 Q396.3404,292.8677 397.0253,293.9344 Q397.7101,295.001 399.0548,295.001 Q399.6857,295.001 400.2792,294.7312 Q400.8727,294.4615 401.5035,293.8804 Z " fill="#000000"/><text fill="#000000" font-family="sans-serif" font-size="14" lengthAdjust="spacing" textLength="44.4609" x="419.0749" y="295.751">Enemy</text><line style="stroke:#181818;stroke-width:0.5;" x1="357.83" x2="492.7363" y1="306.46" y2="306.46"/><text fill="#000000" font-family="sans-serif" font-size="14" lengthAdjust="spacing" textLength="124.9063" x="362.83" y="323.9952">int numberOfLives</text><line style="stroke:#181818;stroke-width:0.5;" x1="357.83" x2="492.7363" y1="330.9483" y2="330.9483"/><text fill="#000000" font-family="sans-serif" font-size="14" lengthAdjust="spacing" textLength="44.2217" x="362.83" y="348.4834">toKill()</text></g><!--reverse link GameArea to GameCharacter--><g class="link" data-entity-1="GameArea" data-entity-2="GameCharacter" data-source-line="21" data-uid="lnk8" id="link_GameArea_GameCharacter"><path codeLine="21" d="M242.1197,79.2589 C212.3897,102.8489 181.78,127.14 154.85,148.52" fill="none" id="GameArea-backto-GameCharacter" style="stroke:#181818;stroke-width:1;"/><polygon fill="none" points="251.52,71.8,244.3336,72.396,242.1197,79.2589,249.3062,78.6629,251.52,71.8" style="stroke:#181818;stroke-width:1;"/><text fill="#000000" font-family="sans-serif" font-size="13" lengthAdjust="spacing" textLength="8.2202" x="235.1976" y="92.0336">1</text><text fill="#000000" font-family="sans-serif" font-size="13" lengthAdjust="spacing" textLength="24.667" x="135.2115" y="138.336">1..2</text></g><!--reverse link GameArea to GameElement--><g class="link" data-entity-1="GameArea" data-entity-2="GameElement" data-source-line="22" data-uid="lnk9" id="link_GameArea_GameElement"><path codeLine="22" d="M291.29,83.8 C291.29,101.91 291.29,112.83 291.29,132.18" fill="none" id="GameArea-backto-GameElement" style="stroke:#181818;stroke-width:1;"/><polygon fill="none" points="291.29,71.8,287.29,77.8,291.29,83.8,295.29,77.8,291.29,71.8" style="stroke:#181818;stroke-width:1;"/><text fill="#000000" font-family="sans-serif" font-size="13" lengthAdjust="spacing" textLength="8.2202" x="282.5487" y="92.0336">1</text><text fill="#000000" font-family="sans-serif" font-size="13" lengthAdjust="spacing" textLength="22.7119" x="267.5281" y="121.7747">1..*</text></g><!--reverse link GameElement to Shape--><g class="link" data-entity-1="GameElement" data-entity-2="Shape" data-source-line="23" data-uid="lnk10" id="link_GameElement_Shape"><path codeLine="23" d="M212.7041,218.3269 C165.7841,244.8069 118.97,271.23 79.94,293.26" fill="none" id="GameElement-backto-Shape" style="stroke:#181818;stroke-width:1;"/><polygon fill="none" points="228.38,209.48,209.7552,213.1016,215.6531,223.5522,228.38,209.48" style="stroke:#181818;stroke-width:1;"/></g><!--reverse link GameElement to Item--><g class="link" data-entity-1="GameElement" data-entity-2="Item" data-source-line="24" data-uid="lnk11" id="link_GameElement_Item"><path codeLine="24" d="M290.8699,231.7095 C290.6899,256.6095 290.6,269.82 290.45,290.75" fill="none" id="GameElement-backto-Item" style="stroke:#181818;stroke-width:1;"/><polygon fill="none" points="291,213.71,284.87,231.6662,296.8697,231.7529,291,213.71" style="stroke:#181818;stroke-width:1;"/></g><!--reverse link GameElement to Enemy--><g class="link" data-entity-1="GameElement" data-entity-2="Enemy" data-source-line="25" data-uid="lnk12" id="link_GameElement_Enemy"><path codeLine="25" d="M341.7729,226.7167 C359.8729,245.6367 369.03,255.19 387.15,274.12" fill="none" id="GameElement-backto-Enemy" style="stroke:#181818;stroke-width:1;"/><polygon fill="none" points="329.33,213.71,337.4374,230.8643,346.1085,222.569,329.33,213.71" style="stroke:#181818;stroke-width:1;"/></g><!--link Shape to Shape--><g class="link" data-entity-1="Shape" data-entity-2="Shape" data-source-line="27" data-uid="lnk13" id="link_Shape_Shape"><path codeLine="27" d="M79.96,302.03 C98.26,300.25 114.57,304.55 114.57,314.95 C114.57,325.35 98.26,329.66 79.96,327.87" fill="none" id="Shape-Shape" style="stroke:#181818;stroke-width:1;"/><text fill="#000000" font-family="sans-serif" font-size="13" lengthAdjust="spacing" textLength="115.0576" x="120.57" y="320.0184">is_connected_with</text><text fill="#000000" font-family="sans-serif" font-size="13" lengthAdjust="spacing" textLength="6.2651" x="87.5482" y="295.7354">*</text><text fill="#000000" font-family="sans-serif" font-size="13" lengthAdjust="spacing" textLength="6.2651" x="87.5482" y="326.5011">*</text></g><!--link GameArea to Enemy--><g class="link" data-entity-1="GameArea" data-entity-2="Enemy" data-source-line="29" data-uid="lnk14" id="link_GameArea_Enemy"><path codeLine="29" d="M324.67,71.8 C340.71,88.52 359.05,110.19 371.29,132.49 C396.19,177.87 409.713,230.2166 417.333,268.3066" fill="none" id="GameArea-to-Enemy" style="stroke:#181818;stroke-width:1;"/><polygon fill="#181818" points="418.51,274.19,420.6668,264.5802,417.5292,269.2871,412.8222,266.1495,418.51,274.19" style="stroke:#181818;stroke-width:1;"/><text fill="#000000" font-family="sans-serif" font-size="13" lengthAdjust="spacing" textLength="56.2593" x="404.28" y="178.0484">finalBoss</text><text fill="#000000" font-family="sans-serif" font-size="13" lengthAdjust="spacing" textLength="8.2202" x="322.2918" y="92.0336">1</text><text fill="#000000" font-family="sans-serif" font-size="13" lengthAdjust="spacing" textLength="8.2202" x="408.7439" y="263.7913">1</text></g><!--SRC=[TL3B2i8m4BptAvQSLAYWnoA2YeWeUEW7b5XN6yX3alWewhyRKwrHQov3TYOpEm40o3ar1cPKu4WZXKi4pvDQpUGEf6Fyx1PvUEid1TKqjwY_YIb7WT86Nbmvf_FdjVnrJGkwnt0mjoZ2-rIYA0DVvbBaGQnHhxPBTaHJCrOj6EUjTXXIboGz0YgE7NQxVV9Lvg-oGy9sjUxLTd1rkgf18-MxD3A-LRMYVm_4HJr27LI319Z9SYKbkXKtsOdPeg5I70yzLh-Km9P9oiVAcEWE]--></g></svg>