<svg xmlns="http://www.w3.org/2000/svg" xmlns:xlink="http://www.w3.org/1999/xlink" contentStyleType="text/css" data-diagram-type="CLASS" height="361px" preserveAspectRatio="none" style="width:710px;height:361px;background:#FFFFFF;" version="1.1" viewBox="0 0 710 361" width="710px" zoomAndPan="magnify"><defs/><g><!--class Person--><g class="entity" data-entity="Person" data-source-line="2" data-uid="ent0002" id="entity_Person"><rect fill="#F1F1F1" height="80.9766" rx="2.5" ry="2.5" style="stroke:#181818;stroke-width:0.5;" width="124.998" x="7" y="148.49"/><ellipse cx="43.288" cy="164.49" fill="#A9DCDF" rx="11" ry="11" style="stroke:#181818;stroke-width:1;"/><path d="M43.1513,159.8381 L41.9975,164.9099 L44.3134,164.9099 Z M41.6571,157.5969 L44.6537,157.5969 L47.9989,169.99 L45.5502,169.99 L44.7865,166.927 L41.5077,166.927 L40.7606,169.99 L38.3119,169.99 Z " fill="#000000"/><text fill="#000000" font-family="sans-serif" font-size="14" font-style="italic" lengthAdjust="spacing" textLength="45.6914" x="62.0187" y="169.781">Person</text><line style="stroke:#181818;stroke-width:0.5;" x1="8" x2="130.998" y1="180.49" y2="180.49"/><text fill="#000000" font-family="sans-serif" font-size="14" lengthAdjust="spacing" textLength="112.998" x="13" y="198.0252">String FirstName</text><text fill="#000000" font-family="sans-serif" font-size="14" lengthAdjust="spacing" textLength="110.9131" x="13" y="214.5134">String LastName</text><line style="stroke:#181818;stroke-width:0.5;" x1="8" x2="130.998" y1="221.4666" y2="221.4666"/></g><!--class Teacher--><g class="entity" data-entity="Teacher" data-source-line="7" data-uid="ent0003" id="entity_Teacher"><rect fill="#F1F1F1" height="64.4883" rx="2.5" ry="2.5" style="stroke:#181818;stroke-width:0.5;" width="92.8828" x="167.06" y="156.73"/><ellipse cx="185.2601" cy="172.73" fill="#ADD1B2" rx="11" ry="11" style="stroke:#181818;stroke-width:1;"/><path d="M187.7332,178.8731 Q187.1522,179.1719 186.513,179.3213 Q185.8739,179.4707 185.1683,179.4707 Q182.6615,179.4707 181.3416,177.8189 Q180.0218,176.167 180.0218,173.0459 Q180.0218,169.9165 181.3416,168.2647 Q182.6615,166.6128 185.1683,166.6128 Q185.8739,166.6128 186.5213,166.7622 Q187.1688,166.9116 187.7332,167.2105 L187.7332,169.9331 Q187.1024,169.3521 186.5089,169.0823 Q185.9154,168.8125 185.2845,168.8125 Q183.9398,168.8125 183.255,169.8792 Q182.5702,170.9458 182.5702,173.0459 Q182.5702,175.1377 183.255,176.2044 Q183.9398,177.271 185.2845,177.271 Q185.9154,177.271 186.5089,177.0012 Q187.1024,176.7315 187.7332,176.1504 Z " fill="#000000"/><text fill="#000000" font-family="sans-serif" font-size="14" lengthAdjust="spacing" textLength="53.7715" x="199.9712" y="178.021">Teacher</text><line style="stroke:#181818;stroke-width:0.5;" x1="168.06" x2="258.9428" y1="188.73" y2="188.73"/><text fill="#000000" font-family="sans-serif" font-size="14" lengthAdjust="spacing" textLength="80.8828" x="173.06" y="206.2652">String Email</text><line style="stroke:#181818;stroke-width:0.5;" x1="168.06" x2="258.9428" y1="213.2183" y2="213.2183"/></g><!--class Student--><g class="entity" data-entity="Student" data-source-line="11" data-uid="ent0004" id="entity_Student"><rect fill="#F1F1F1" height="48" rx="2.5" ry="2.5" style="stroke:#181818;stroke-width:0.5;" width="84.001" x="152.5" y="298.71"/><ellipse cx="167.5" cy="314.71" fill="#ADD1B2" rx="11" ry="11" style="stroke:#181818;stroke-width:1;"/><path d="M169.9731,320.8531 Q169.3921,321.1519 168.7529,321.3013 Q168.1138,321.4507 167.4082,321.4507 Q164.9014,321.4507 163.5815,319.7989 Q162.2617,318.147 162.2617,315.0259 Q162.2617,311.8965 163.5815,310.2447 Q164.9014,308.5928 167.4082,308.5928 Q168.1138,308.5928 168.7612,308.7422 Q169.4087,308.8916 169.9731,309.1905 L169.9731,311.9131 Q169.3423,311.3321 168.7488,311.0623 Q168.1553,310.7925 167.5244,310.7925 Q166.1797,310.7925 165.4949,311.8592 Q164.8101,312.9258 164.8101,315.0259 Q164.8101,317.1177 165.4949,318.1844 Q166.1797,319.251 167.5244,319.251 Q168.1553,319.251 168.7488,318.9812 Q169.3423,318.7115 169.9731,318.1304 Z " fill="#000000"/><text fill="#000000" font-family="sans-serif" font-size="14" lengthAdjust="spacing" textLength="52.001" x="181.5" y="320.001">Student</text><line style="stroke:#181818;stroke-width:0.5;" x1="153.5" x2="235.501" y1="330.71" y2="330.71"/><line style="stroke:#181818;stroke-width:0.5;" x1="153.5" x2="235.501" y1="338.71" y2="338.71"/></g><!--class ClassGroup--><g class="entity" data-entity="ClassGroup" data-source-line="13" data-uid="ent0005" id="entity_ClassGroup"><rect fill="#F1F1F1" height="64.4883" rx="2.5" ry="2.5" style="stroke:#181818;stroke-width:0.5;" width="109.6836" x="292.66" y="290.46"/><ellipse cx="307.66" cy="306.46" fill="#ADD1B2" rx="11" ry="11" style="stroke:#181818;stroke-width:1;"/><path d="M310.1331,312.6031 Q309.5521,312.9019 308.9129,313.0513 Q308.2738,313.2007 307.5682,313.2007 Q305.0614,313.2007 303.7415,311.5489 Q302.4217,309.897 302.4217,306.7759 Q302.4217,303.6465 303.7415,301.9947 Q305.0614,300.3428 307.5682,300.3428 Q308.2738,300.3428 308.9212,300.4922 Q309.5687,300.6416 310.1331,300.9405 L310.1331,303.6631 Q309.5023,303.0821 308.9088,302.8123 Q308.3153,302.5425 307.6844,302.5425 Q306.3397,302.5425 305.6549,303.6092 Q304.9701,304.6758 304.9701,306.7759 Q304.9701,308.8677 305.6549,309.9344 Q306.3397,311.001 307.6844,311.001 Q308.3153,311.001 308.9088,310.7312 Q309.5023,310.4615 310.1331,309.8804 Z " fill="#000000"/><text fill="#000000" font-family="sans-serif" font-size="14" lengthAdjust="spacing" textLength="77.6836" x="321.66" y="311.751">ClassGroup</text><line style="stroke:#181818;stroke-width:0.5;" x1="293.66" x2="401.3436" y1="322.46" y2="322.46"/><text fill="#000000" font-family="sans-serif" font-size="14" lengthAdjust="spacing" textLength="83.3438" x="298.66" y="339.9952">String Name</text><line style="stroke:#181818;stroke-width:0.5;" x1="293.66" x2="401.3436" y1="346.9483" y2="346.9483"/></g><!--class TeacherAssignment--><g class="entity" data-entity="TeacherAssignment" data-source-line="17" data-uid="ent0006" id="entity_TeacherAssignment"><rect fill="#F1F1F1" height="64.4883" rx="2.5" ry="2.5" style="stroke:#181818;stroke-width:0.5;" width="165.9639" x="255.52" y="7"/><ellipse cx="270.52" cy="23" fill="#ADD1B2" rx="11" ry="11" style="stroke:#181818;stroke-width:1;"/><path d="M272.9931,29.1431 Q272.4121,29.4419 271.7729,29.5913 Q271.1338,29.7407 270.4282,29.7407 Q267.9214,29.7407 266.6015,28.0889 Q265.2817,26.437 265.2817,23.3159 Q265.2817,20.1865 266.6015,18.5347 Q267.9214,16.8828 270.4282,16.8828 Q271.1338,16.8828 271.7812,17.0322 Q272.4287,17.1816 272.9931,17.4805 L272.9931,20.2031 Q272.3623,19.6221 271.7688,19.3523 Q271.1753,19.0825 270.5444,19.0825 Q269.1997,19.0825 268.5149,20.1492 Q267.8301,21.2158 267.8301,23.3159 Q267.8301,25.4077 268.5149,26.4744 Q269.1997,27.541 270.5444,27.541 Q271.1753,27.541 271.7688,27.2712 Q272.3623,27.0015 272.9931,26.4204 Z " fill="#000000"/><text fill="#000000" font-family="sans-serif" font-size="14" lengthAdjust="spacing" textLength="133.9639" x="284.52" y="28.291">TeacherAssignment</text><line style="stroke:#181818;stroke-width:0.5;" x1="256.52" x2="420.4839" y1="39" y2="39"/><text fill="#000000" font-family="sans-serif" font-size="14" lengthAdjust="spacing" textLength="62.8291" x="261.52" y="56.5352">Int Hours</text><line style="stroke:#181818;stroke-width:0.5;" x1="256.52" x2="420.4839" y1="63.4883" y2="63.4883"/></g><!--class School--><g class="entity" data-entity="School" data-source-line="21" data-uid="ent0007" id="entity_School"><rect fill="#F1F1F1" height="64.4883" rx="2.5" ry="2.5" style="stroke:#181818;stroke-width:0.5;" width="95.3438" x="333.83" y="156.73"/><ellipse cx="357.2442" cy="172.73" fill="#ADD1B2" rx="11" ry="11" style="stroke:#181818;stroke-width:1;"/><path d="M359.7174,178.8731 Q359.1363,179.1719 358.4971,179.3213 Q357.858,179.4707 357.1524,179.4707 Q354.6456,179.4707 353.3258,177.8189 Q352.0059,176.167 352.0059,173.0459 Q352.0059,169.9165 353.3258,168.2647 Q354.6456,166.6128 357.1524,166.6128 Q357.858,166.6128 358.5054,166.7622 Q359.1529,166.9116 359.7174,167.2105 L359.7174,169.9331 Q359.0865,169.3521 358.493,169.0823 Q357.8995,168.8125 357.2686,168.8125 Q355.9239,168.8125 355.2391,169.8792 Q354.5543,170.9458 354.5543,173.0459 Q354.5543,175.1377 355.2391,176.2044 Q355.9239,177.271 357.2686,177.271 Q357.8995,177.271 358.493,177.0012 Q359.0865,176.7315 359.7174,176.1504 Z " fill="#000000"/><text fill="#000000" font-family="sans-serif" font-size="14" lengthAdjust="spacing" textLength="44.6455" x="373.114" y="178.021">School</text><line style="stroke:#181818;stroke-width:0.5;" x1="334.83" x2="428.1738" y1="188.73" y2="188.73"/><text fill="#000000" font-family="sans-serif" font-size="14" lengthAdjust="spacing" textLength="83.3438" x="339.83" y="206.2652">String Name</text><line style="stroke:#181818;stroke-width:0.5;" x1="334.83" x2="428.1738" y1="213.2183" y2="213.2183"/></g><!--class Room--><g class="entity" data-entity="Room" data-source-line="25" data-uid="ent0008" id="entity_Room"><rect fill="#F1F1F1" height="64.4883" rx="2.5" ry="2.5" style="stroke:#181818;stroke-width:0.5;" width="95.3438" x="463.83" y="156.73"/><ellipse cx="489.7298" cy="172.73" fill="#A9DCDF" rx="11" ry="11" style="stroke:#181818;stroke-width:1;"/><path d="M489.593,168.0781 L488.4392,173.1499 L490.7551,173.1499 Z M488.0989,165.8369 L491.0955,165.8369 L494.4407,178.23 L491.992,178.23 L491.2283,175.167 L487.9495,175.167 L487.2024,178.23 L484.7537,178.23 Z " fill="#000000"/><text fill="#000000" font-family="sans-serif" font-size="14" font-style="italic" lengthAdjust="spacing" textLength="39.1221" x="506.1519" y="178.021">Room</text><line style="stroke:#181818;stroke-width:0.5;" x1="464.83" x2="558.1737" y1="188.73" y2="188.73"/><text fill="#000000" font-family="sans-serif" font-size="14" lengthAdjust="spacing" textLength="83.3438" x="469.83" y="206.2652">String Name</text><line style="stroke:#181818;stroke-width:0.5;" x1="464.83" x2="558.1737" y1="213.2183" y2="213.2183"/></g><!--class ClassRoom--><g class="entity" data-entity="ClassRoom" data-source-line="29" data-uid="ent0009" id="entity_ClassRoom"><rect fill="#F1F1F1" height="64.4883" rx="2.5" ry="2.5" style="stroke:#181818;stroke-width:0.5;" width="106.8604" x="447.07" y="290.46"/><ellipse cx="462.07" cy="306.46" fill="#ADD1B2" rx="11" ry="11" style="stroke:#181818;stroke-width:1;"/><path d="M464.5431,312.6031 Q463.9621,312.9019 463.3229,313.0513 Q462.6838,313.2007 461.9782,313.2007 Q459.4714,313.2007 458.1515,311.5489 Q456.8317,309.897 456.8317,306.7759 Q456.8317,303.6465 458.1515,301.9947 Q459.4714,300.3428 461.9782,300.3428 Q462.6838,300.3428 463.3312,300.4922 Q463.9787,300.6416 464.5431,300.9405 L464.5431,303.6631 Q463.9123,303.0821 463.3188,302.8123 Q462.7253,302.5425 462.0944,302.5425 Q460.7497,302.5425 460.0649,303.6092 Q459.3801,304.6758 459.3801,306.7759 Q459.3801,308.8677 460.0649,309.9344 Q460.7497,311.001 462.0944,311.001 Q462.7253,311.001 463.3188,310.7312 Q463.9123,310.4615 464.5431,309.8804 Z " fill="#000000"/><text fill="#000000" font-family="sans-serif" font-size="14" lengthAdjust="spacing" textLength="74.8604" x="476.07" y="311.751">ClassRoom</text><line style="stroke:#181818;stroke-width:0.5;" x1="448.07" x2="552.9304" y1="322.46" y2="322.46"/><text fill="#000000" font-family="sans-serif" font-size="14" lengthAdjust="spacing" textLength="80.1172" x="453.07" y="339.9952">Int Capacity</text><line style="stroke:#181818;stroke-width:0.5;" x1="448.07" x2="552.9304" y1="346.9483" y2="346.9483"/></g><!--class OtherRoom--><g class="entity" data-entity="OtherRoom" data-source-line="33" data-uid="ent0010" id="entity_OtherRoom"><rect fill="#F1F1F1" height="64.4883" rx="2.5" ry="2.5" style="stroke:#181818;stroke-width:0.5;" width="109.4512" x="593.77" y="156.73"/><ellipse cx="608.77" cy="172.73" fill="#ADD1B2" rx="11" ry="11" style="stroke:#181818;stroke-width:1;"/><path d="M611.2431,178.8731 Q610.6621,179.1719 610.0229,179.3213 Q609.3838,179.4707 608.6782,179.4707 Q606.1714,179.4707 604.8515,177.8189 Q603.5317,176.167 603.5317,173.0459 Q603.5317,169.9165 604.8515,168.2647 Q606.1714,166.6128 608.6782,166.6128 Q609.3838,166.6128 610.0312,166.7622 Q610.6787,166.9116 611.2431,167.2105 L611.2431,169.9331 Q610.6123,169.3521 610.0188,169.0823 Q609.4253,168.8125 608.7944,168.8125 Q607.4497,168.8125 606.7649,169.8792 Q606.0801,170.9458 606.0801,173.0459 Q606.0801,175.1377 606.7649,176.2044 Q607.4497,177.271 608.7944,177.271 Q609.4253,177.271 610.0188,177.0012 Q610.6123,176.7315 611.2431,176.1504 Z " fill="#000000"/><text fill="#000000" font-family="sans-serif" font-size="14" lengthAdjust="spacing" textLength="77.4512" x="622.77" y="178.021">OtherRoom</text><line style="stroke:#181818;stroke-width:0.5;" x1="594.77" x2="702.2212" y1="188.73" y2="188.73"/><text fill="#000000" font-family="sans-serif" font-size="14" lengthAdjust="spacing" textLength="80.2744" x="599.77" y="206.2652">Double Size</text><line style="stroke:#181818;stroke-width:0.5;" x1="594.77" x2="702.2212" y1="213.2183" y2="213.2183"/></g><ellipse cx="296.5" cy="188.97" fill="#181818" rx="2" ry="2" style="stroke:#181818;stroke-width:1;"/><!--reverse link Person to Student--><g class="link" data-entity-1="Person" data-entity-2="Student" data-source-line="37" data-uid="lnk11" id="link_Person_Student"><path codeLine="37" d="M119.7286,242.9084 C140.9986,265.3284 154.42,279.47 172.41,298.42" fill="none" id="Person-backto-Student" style="stroke:#181818;stroke-width:1;"/><polygon fill="none" points="107.34,229.85,115.3758,247.038,124.0814,238.7789,107.34,229.85" style="stroke:#181818;stroke-width:1;"/></g><!--reverse link Person to Teacher--><g class="link" data-entity-1="Person" data-entity-2="Teacher" data-source-line="38" data-uid="lnk12" id="link_Person_Teacher"><path codeLine="38" d="M150.22,188.97 C161.75,188.97 155.29,188.97 166.83,188.97" fill="none" id="Person-backto-Teacher" style="stroke:#181818;stroke-width:1;"/><polygon fill="none" points="132.22,188.97,150.22,194.97,150.22,182.97,132.22,188.97" style="stroke:#181818;stroke-width:1;"/></g><!--link Teacher to apoint14--><g class="link" data-entity-1="Teacher" data-entity-2="apoint14" data-source-line="40" data-uid="lnk16" id="link_Teacher_apoint14"><path d="M260.19,188.97 C271.53,188.97 282.88,188.97 294.23,188.97" fill="none" id="Teacher-apoint14" style="stroke:#181818;stroke-width:1;"/><text fill="#000000" font-family="sans-serif" font-size="13" lengthAdjust="spacing" textLength="6.2651" x="267.8189" y="185.4131">*</text></g><!--link apoint14 to School--><g class="link" data-entity-1="apoint14" data-entity-2="School" data-source-line="40" data-uid="lnk17" id="link_apoint14_School"><path d="M298.82,188.97 C310.34,188.97 321.86,188.97 333.38,188.97" fill="none" id="apoint14-School" style="stroke:#181818;stroke-width:1;"/><text fill="#000000" font-family="sans-serif" font-size="13" lengthAdjust="spacing" textLength="24.667" x="306.6071" y="182.9991">0..3</text></g><!--link TeacherAssignment to apoint14--><g class="link" data-entity-1="TeacherAssignment" data-entity-2="apoint14" data-source-line="40" data-uid="lnk18" id="link_TeacherAssignment_apoint14"><path d="M329.66,71.85 C325.66,86.11 320.86,103.15 316.5,118.49 C308.67,146.02 298.92,179.63 296.88,186.65" fill="none" id="TeacherAssignment-apoint14" style="stroke:#181818;stroke-width:1;stroke-dasharray:7,7;"/></g><!--link Teacher to School--><g class="link" data-entity-1="Teacher" data-entity-2="School" data-source-line="41" data-uid="lnk19" id="link_Teacher_School"><path codeLine="41" d="M225.03,156.6 C232.43,140.95 243.76,123.65 260,114.65 C281.38,102.8 292.68,104.67 315,114.65 C334.28,123.27 350.29,140.56 361.76,156.29" fill="none" id="Teacher-School" style="stroke:#181818;stroke-width:1;"/><text fill="#000000" font-family="sans-serif" font-size="13" lengthAdjust="spacing" textLength="53.8662" x="261" y="115.0584">Principal</text><text fill="#000000" font-family="sans-serif" font-size="13" lengthAdjust="spacing" textLength="8.2202" x="218.6055" y="145.9763">1</text><text fill="#000000" font-family="sans-serif" font-size="13" lengthAdjust="spacing" textLength="24.667" x="331.5765" y="145.9777">0..1</text></g><!--reverse link School to Room--><g class="link" data-entity-1="School" data-entity-2="Room" data-source-line="42" data-uid="lnk20" id="link_School_Room"><path codeLine="42" d="M441.49,188.97 C452.81,188.97 452.13,188.97 463.45,188.97" fill="none" id="School-backto-Room" style="stroke:#181818;stroke-width:1;"/><polygon fill="#181818" points="429.49,188.97,435.49,192.97,441.49,188.97,435.49,184.97,429.49,188.97" style="stroke:#181818;stroke-width:1;"/><text fill="#000000" font-family="sans-serif" font-size="13" lengthAdjust="spacing" textLength="8.2202" x="437.1419" y="185.459">1</text><text fill="#000000" font-family="sans-serif" font-size="13" lengthAdjust="spacing" textLength="6.2651" x="449.653" y="185.4131">*</text></g><!--reverse link Room to OtherRoom--><g class="link" data-entity-1="Room" data-entity-2="OtherRoom" data-source-line="43" data-uid="lnk21" id="link_Room_OtherRoom"><path codeLine="43" d="M577.66,188.97 C588.88,188.97 582.1,188.97 593.32,188.97" fill="none" id="Room-backto-OtherRoom" style="stroke:#181818;stroke-width:1;"/><polygon fill="none" points="559.66,188.97,577.66,194.97,577.66,182.97,559.66,188.97" style="stroke:#181818;stroke-width:1;"/></g><!--reverse link Room to ClassRoom--><g class="link" data-entity-1="Room" data-entity-2="ClassRoom" data-source-line="44" data-uid="lnk22" id="link_Room_ClassRoom"><path codeLine="44" d="M507.363,239.4676 C505.623,260.3176 504.85,269.61 503.11,290.41" fill="none" id="Room-backto-ClassRoom" style="stroke:#181818;stroke-width:1;"/><polygon fill="none" points="508.86,221.53,501.3838,238.9687,513.3423,239.9666,508.86,221.53" style="stroke:#181818;stroke-width:1;"/></g><!--link Student to ClassGroup--><g class="link" data-entity-1="Student" data-entity-2="ClassGroup" data-source-line="45" data-uid="lnk23" id="link_Student_ClassGroup"><path codeLine="45" d="M236.93,322.71 C255.36,322.71 261.79,322.71 280.22,322.71" fill="none" id="Student-to-ClassGroup" style="stroke:#181818;stroke-width:1;"/><polygon fill="none" points="292.22,322.71,286.22,318.71,280.22,322.71,286.22,326.71,292.22,322.71" style="stroke:#181818;stroke-width:1;"/><text fill="#000000" font-family="sans-serif" font-size="13" lengthAdjust="spacing" textLength="41.1074" x="243.4481" y="319.2674">10..31</text><text fill="#000000" font-family="sans-serif" font-size="13" lengthAdjust="spacing" textLength="8.2202" x="276.2688" y="319.2922">1</text></g><!--link ClassGroup to ClassRoom--><g class="link" data-entity-1="ClassGroup" data-entity-2="ClassRoom" data-source-line="46" data-uid="lnk24" id="link_ClassGroup_ClassRoom"><path codeLine="46" d="M402.78,322.71 C417.41,322.71 432.05,322.71 446.68,322.71" fill="none" id="ClassGroup-ClassRoom" style="stroke:#181818;stroke-width:1;"/><text fill="#000000" font-family="sans-serif" font-size="13" lengthAdjust="spacing" textLength="8.2202" x="410.3891" y="319.3381">1</text><text fill="#000000" font-family="sans-serif" font-size="13" lengthAdjust="spacing" textLength="8.2202" x="430.9252" y="319.2922">1</text></g><!--SRC=[VL7BJiCm4BpxArO-qGf7HDmG5rHUbIge23-mDLPhoOaZspcKmh_ZE7RYYAevHD5aPdPc5tVM6UGEk49hOIkCrGsS2FYdSaOsUtYMnheth4KERZ1YluGCqa-1_23CNFjKerGJftBTbsWSd4ParRzVZExQkV2izuErSj_KmI6Gr_xhLNV6PYFuGMjrtWpdPJ-qhYzD3TaoKZzjXIrowOuJwztvP1dhKNSx9Q2Ity4gRlJ-Xx5KFyDICvAsHvUKqPkYkAMn2VdVlIZWAgBN0sanwSj1NoOztC7MT-EoHKKYv4bBvYU53P2GlSyoDXaXDks0fDlHie_dnsXlazsFPASCATBVeFu3]--></g></svg>