<svg xmlns="http://www.w3.org/2000/svg" xmlns:xlink="http://www.w3.org/1999/xlink" contentStyleType="text/css" data-diagram-type="CLASS" height="711px" preserveAspectRatio="none" style="width:553px;height:711px;background:#FFFFFF;" version="1.1" viewBox="0 0 553 711" width="553px" zoomAndPan="magnify"><defs/><g><!--class Employee--><g class="entity" data-entity="Employee" data-source-line="3" data-uid="ent0002" id="entity_Employee"><rect fill="#F1F1F1" height="113.9531" rx="2.5" ry="2.5" style="stroke:#181818;stroke-width:0.5;" width="98.1191" x="338" y="7"/><ellipse cx="353.49" cy="23" fill="#A9DCDF" rx="11" ry="11" style="stroke:#181818;stroke-width:1;"/><path d="M353.3533,18.3481 L352.1995,23.4199 L354.5154,23.4199 Z M351.8591,16.1069 L354.8557,16.1069 L358.2009,28.5 L355.7522,28.5 L354.9885,25.437 L351.7097,25.437 L350.9626,28.5 L348.5139,28.5 Z " fill="#000000"/><text fill="#000000" font-family="sans-serif" font-size="14" font-style="italic" lengthAdjust="spacing" textLength="65.0303" x="367.5989" y="28.291">Employee</text><line style="stroke:#181818;stroke-width:0.5;" x1="339" x2="435.1191" y1="39" y2="39"/><text fill="#000000" font-family="sans-serif" font-size="14" lengthAdjust="spacing" textLength="60.0469" x="344" y="56.5352">ssNo: int</text><text fill="#000000" font-family="sans-serif" font-size="14" lengthAdjust="spacing" textLength="86.1191" x="344" y="73.0234">name: String</text><text fill="#000000" font-family="sans-serif" font-size="14" lengthAdjust="spacing" textLength="85.5244" x="344" y="89.5117">email: String</text><text fill="#000000" font-family="sans-serif" font-size="14" lengthAdjust="spacing" textLength="78.7432" x="344" y="106">counter: int</text><line style="stroke:#181818;stroke-width:0.5;" x1="339" x2="435.1191" y1="112.9531" y2="112.9531"/></g><!--class Faculty--><g class="entity" data-entity="Faculty" data-source-line="10" data-uid="ent0003" id="entity_Faculty"><rect fill="#F1F1F1" height="64.4883" rx="2.5" ry="2.5" style="stroke:#181818;stroke-width:0.5;" width="98.1191" x="7" y="206.2"/><ellipse cx="30.2912" cy="222.2" fill="#ADD1B2" rx="11" ry="11" style="stroke:#181818;stroke-width:1;"/><path d="M32.7643,228.3431 Q32.1833,228.6419 31.5441,228.7913 Q30.9049,228.9407 30.1994,228.9407 Q27.6925,228.9407 26.3727,227.2889 Q25.0529,225.637 25.0529,222.5159 Q25.0529,219.3865 26.3727,217.7347 Q27.6925,216.0828 30.1994,216.0828 Q30.9049,216.0828 31.5524,216.2322 Q32.1999,216.3816 32.7643,216.6805 L32.7643,219.4031 Q32.1334,218.8221 31.5399,218.5523 Q30.9464,218.2825 30.3156,218.2825 Q28.9708,218.2825 28.286,219.3492 Q27.6012,220.4158 27.6012,222.5159 Q27.6012,224.6077 28.286,225.6744 Q28.9708,226.741 30.3156,226.741 Q30.9464,226.741 31.5399,226.4712 Q32.1334,226.2015 32.7643,225.6204 Z " fill="#000000"/><text fill="#000000" font-family="sans-serif" font-size="14" lengthAdjust="spacing" textLength="47.6943" x="46.1336" y="227.491">Faculty</text><line style="stroke:#181818;stroke-width:0.5;" x1="8" x2="104.1191" y1="238.2" y2="238.2"/><text fill="#000000" font-family="sans-serif" font-size="14" lengthAdjust="spacing" textLength="86.1191" x="13" y="255.7352">name: String</text><line style="stroke:#181818;stroke-width:0.5;" x1="8" x2="104.1191" y1="262.6883" y2="262.6883"/></g><!--class AdministrativeEmployee--><g class="entity" data-entity="AdministrativeEmployee" data-source-line="14" data-uid="ent0004" id="entity_AdministrativeEmployee"><rect fill="#F1F1F1" height="48" rx="2.5" ry="2.5" style="stroke:#181818;stroke-width:0.5;" width="195.5156" x="289.3" y="214.44"/><ellipse cx="304.3" cy="230.44" fill="#ADD1B2" rx="11" ry="11" style="stroke:#181818;stroke-width:1;"/><path d="M306.7731,236.5831 Q306.1921,236.8819 305.5529,237.0313 Q304.9138,237.1807 304.2082,237.1807 Q301.7014,237.1807 300.3815,235.5289 Q299.0617,233.877 299.0617,230.7559 Q299.0617,227.6265 300.3815,225.9747 Q301.7014,224.3228 304.2082,224.3228 Q304.9138,224.3228 305.5612,224.4722 Q306.2087,224.6216 306.7731,224.9205 L306.7731,227.6431 Q306.1423,227.0621 305.5488,226.7923 Q304.9553,226.5225 304.3244,226.5225 Q302.9797,226.5225 302.2949,227.5892 Q301.6101,228.6558 301.6101,230.7559 Q301.6101,232.8477 302.2949,233.9144 Q302.9797,234.981 304.3244,234.981 Q304.9553,234.981 305.5488,234.7112 Q306.1423,234.4415 306.7731,233.8604 Z " fill="#000000"/><text fill="#000000" font-family="sans-serif" font-size="14" lengthAdjust="spacing" textLength="163.5156" x="318.3" y="235.731">AdministrativeEmployee</text><line style="stroke:#181818;stroke-width:0.5;" x1="290.3" x2="483.8156" y1="246.44" y2="246.44"/><line style="stroke:#181818;stroke-width:0.5;" x1="290.3" x2="483.8156" y1="254.44" y2="254.44"/></g><!--class ResearchAssociate--><g class="entity" data-entity="ResearchAssociate" data-source-line="16" data-uid="ent0005" id="entity_ResearchAssociate"><rect fill="#F1F1F1" height="64.4883" rx="2.5" ry="2.5" style="stroke:#181818;stroke-width:0.5;" width="157.4258" x="288.35" y="339.93"/><ellipse cx="303.35" cy="355.93" fill="#ADD1B2" rx="11" ry="11" style="stroke:#181818;stroke-width:1;"/><path d="M305.8231,362.0731 Q305.2421,362.3719 304.6029,362.5213 Q303.9638,362.6707 303.2582,362.6707 Q300.7514,362.6707 299.4315,361.0189 Q298.1117,359.367 298.1117,356.2459 Q298.1117,353.1165 299.4315,351.4647 Q300.7514,349.8128 303.2582,349.8128 Q303.9638,349.8128 304.6112,349.9622 Q305.2587,350.1116 305.8231,350.4105 L305.8231,353.1331 Q305.1923,352.5521 304.5988,352.2823 Q304.0053,352.0125 303.3744,352.0125 Q302.0297,352.0125 301.3449,353.0792 Q300.6601,354.1458 300.6601,356.2459 Q300.6601,358.3377 301.3449,359.4044 Q302.0297,360.471 303.3744,360.471 Q304.0053,360.471 304.5988,360.2012 Q305.1923,359.9315 305.8231,359.3504 Z " fill="#000000"/><text fill="#000000" font-family="sans-serif" font-size="14" lengthAdjust="spacing" textLength="125.4258" x="317.35" y="361.221">ResearchAssociate</text><line style="stroke:#181818;stroke-width:0.5;" x1="289.35" x2="444.7758" y1="371.93" y2="371.93"/><text fill="#000000" font-family="sans-serif" font-size="14" lengthAdjust="spacing" textLength="132.2959" x="294.35" y="389.4652">fieldOfStudy: String</text><line style="stroke:#181818;stroke-width:0.5;" x1="289.35" x2="444.7758" y1="396.4183" y2="396.4183"/></g><!--class Institute--><g class="entity" data-entity="Institute" data-source-line="20" data-uid="ent0006" id="entity_Institute"><rect fill="#F1F1F1" height="80.9766" rx="2.5" ry="2.5" style="stroke:#181818;stroke-width:0.5;" width="113.9854" x="140.07" y="197.95"/><ellipse cx="166.7173" cy="213.95" fill="#ADD1B2" rx="11" ry="11" style="stroke:#181818;stroke-width:1;"/><path d="M169.1904,220.0931 Q168.6094,220.3919 167.9702,220.5413 Q167.331,220.6907 166.6255,220.6907 Q164.1186,220.6907 162.7988,219.0389 Q161.479,217.387 161.479,214.2659 Q161.479,211.1365 162.7988,209.4847 Q164.1186,207.8328 166.6255,207.8328 Q167.331,207.8328 167.9785,207.9822 Q168.626,208.1316 169.1904,208.4305 L169.1904,211.1531 Q168.5596,210.5721 167.966,210.3023 Q167.3725,210.0325 166.7417,210.0325 Q165.397,210.0325 164.7121,211.0992 Q164.0273,212.1658 164.0273,214.2659 Q164.0273,216.3577 164.7121,217.4244 Q165.397,218.491 166.7417,218.491 Q167.3725,218.491 167.966,218.2212 Q168.5596,217.9515 169.1904,217.3704 Z " fill="#000000"/><text fill="#000000" font-family="sans-serif" font-size="14" lengthAdjust="spacing" textLength="56.1025" x="183.3055" y="219.241">Institute</text><line style="stroke:#181818;stroke-width:0.5;" x1="141.07" x2="253.0554" y1="229.95" y2="229.95"/><text fill="#000000" font-family="sans-serif" font-size="14" lengthAdjust="spacing" textLength="86.1191" x="146.07" y="247.4852">name: String</text><text fill="#000000" font-family="sans-serif" font-size="14" lengthAdjust="spacing" textLength="101.9854" x="146.07" y="263.9734">address: String</text><line style="stroke:#181818;stroke-width:0.5;" x1="141.07" x2="253.0554" y1="270.9266" y2="270.9266"/></g><!--class Course--><g class="entity" data-entity="Course" data-source-line="25" data-uid="ent0007" id="entity_Course"><rect fill="#F1F1F1" height="97.4648" rx="2.5" ry="2.5" style="stroke:#181818;stroke-width:0.5;" width="98.1191" x="435" y="606.91"/><ellipse cx="458.3158" cy="622.91" fill="#ADD1B2" rx="11" ry="11" style="stroke:#181818;stroke-width:1;"/><path d="M460.7889,629.0531 Q460.2079,629.3519 459.5687,629.5013 Q458.9295,629.6507 458.224,629.6507 Q455.7171,629.6507 454.3973,627.9989 Q453.0775,626.347 453.0775,623.2259 Q453.0775,620.0965 454.3973,618.4447 Q455.7171,616.7928 458.224,616.7928 Q458.9295,616.7928 459.577,616.9422 Q460.2245,617.0916 460.7889,617.3905 L460.7889,620.1131 Q460.1581,619.5321 459.5646,619.2623 Q458.971,618.9925 458.3402,618.9925 Q456.9955,618.9925 456.3106,620.0592 Q455.6258,621.1258 455.6258,623.2259 Q455.6258,625.3177 456.3106,626.3844 Q456.9955,627.451 458.3402,627.451 Q458.971,627.451 459.5646,627.1812 Q460.1581,626.9115 460.7889,626.3304 Z " fill="#000000"/><text fill="#000000" font-family="sans-serif" font-size="14" lengthAdjust="spacing" textLength="47.6396" x="474.1637" y="628.201">Course</text><line style="stroke:#181818;stroke-width:0.5;" x1="436" x2="532.1191" y1="638.91" y2="638.91"/><text fill="#000000" font-family="sans-serif" font-size="14" lengthAdjust="spacing" textLength="86.1191" x="441" y="656.4452">name: String</text><text fill="#000000" font-family="sans-serif" font-size="14" lengthAdjust="spacing" textLength="39.6895" x="441" y="672.9334">id: int</text><text fill="#000000" font-family="sans-serif" font-size="14" lengthAdjust="spacing" textLength="78.4629" x="441" y="689.4217">hours: float</text><line style="stroke:#181818;stroke-width:0.5;" x1="436" x2="532.1191" y1="696.3748" y2="696.3748"/></g><!--class Lecturer--><g class="entity" data-entity="Lecturer" data-source-line="31" data-uid="ent0008" id="entity_Lecturer"><rect fill="#F1F1F1" height="48" rx="2.5" ry="2.5" style="stroke:#181818;stroke-width:0.5;" width="87.6172" x="440.25" y="473.66"/><ellipse cx="455.25" cy="489.66" fill="#ADD1B2" rx="11" ry="11" style="stroke:#181818;stroke-width:1;"/><path d="M457.7231,495.8031 Q457.1421,496.1019 456.5029,496.2513 Q455.8638,496.4007 455.1582,496.4007 Q452.6514,496.4007 451.3315,494.7489 Q450.0117,493.097 450.0117,489.9759 Q450.0117,486.8465 451.3315,485.1947 Q452.6514,483.5428 455.1582,483.5428 Q455.8638,483.5428 456.5112,483.6922 Q457.1587,483.8416 457.7231,484.1405 L457.7231,486.8631 Q457.0923,486.2821 456.4988,486.0123 Q455.9053,485.7425 455.2744,485.7425 Q453.9297,485.7425 453.2449,486.8092 Q452.5601,487.8758 452.5601,489.9759 Q452.5601,492.0677 453.2449,493.1344 Q453.9297,494.201 455.2744,494.201 Q455.9053,494.201 456.4988,493.9312 Q457.0923,493.6615 457.7231,493.0804 Z " fill="#000000"/><text fill="#000000" font-family="sans-serif" font-size="14" lengthAdjust="spacing" textLength="55.6172" x="469.25" y="494.951">Lecturer</text><line style="stroke:#181818;stroke-width:0.5;" x1="441.25" x2="526.8672" y1="505.66" y2="505.66"/><line style="stroke:#181818;stroke-width:0.5;" x1="441.25" x2="526.8672" y1="513.66" y2="513.66"/></g><!--class Project--><g class="entity" data-entity="Project" data-source-line="33" data-uid="ent0009" id="entity_Project"><rect fill="#F1F1F1" height="97.4648" rx="2.5" ry="2.5" style="stroke:#181818;stroke-width:0.5;" width="98.1191" x="203" y="606.91"/><ellipse cx="226.8141" cy="622.91" fill="#ADD1B2" rx="11" ry="11" style="stroke:#181818;stroke-width:1;"/><path d="M229.2873,629.0531 Q228.7062,629.3519 228.067,629.5013 Q227.4279,629.6507 226.7223,629.6507 Q224.2155,629.6507 222.8957,627.9989 Q221.5758,626.347 221.5758,623.2259 Q221.5758,620.0965 222.8957,618.4447 Q224.2155,616.7928 226.7223,616.7928 Q227.4279,616.7928 228.0753,616.9422 Q228.7228,617.0916 229.2873,617.3905 L229.2873,620.1131 Q228.6564,619.5321 228.0629,619.2623 Q227.4694,618.9925 226.8385,618.9925 Q225.4938,618.9925 224.809,620.0592 Q224.1242,621.1258 224.1242,623.2259 Q224.1242,625.3177 224.809,626.3844 Q225.4938,627.451 226.8385,627.451 Q227.4694,627.451 228.0629,627.1812 Q228.6564,626.9115 229.2873,626.3304 Z " fill="#000000"/><text fill="#000000" font-family="sans-serif" font-size="14" lengthAdjust="spacing" textLength="46.5322" x="242.7728" y="628.201">Project</text><line style="stroke:#181818;stroke-width:0.5;" x1="204" x2="300.1191" y1="638.91" y2="638.91"/><text fill="#000000" font-family="sans-serif" font-size="14" lengthAdjust="spacing" textLength="86.1191" x="209" y="656.4452">name: String</text><text fill="#000000" font-family="sans-serif" font-size="14" lengthAdjust="spacing" textLength="71.1826" x="209" y="672.9334">start: Date</text><text fill="#000000" font-family="sans-serif" font-size="14" lengthAdjust="spacing" textLength="65.4131" x="209" y="689.4217">end: Date</text><line style="stroke:#181818;stroke-width:0.5;" x1="204" x2="300.1191" y1="696.3748" y2="696.3748"/></g><!--class Participation--><g class="entity" data-entity="Participation" data-source-line="39" data-uid="ent0010" id="entity_Participation"><rect fill="#F1F1F1" height="64.4883" rx="2.5" ry="2.5" style="stroke:#181818;stroke-width:0.5;" width="116.8135" x="288.65" y="465.42"/><ellipse cx="303.65" cy="481.42" fill="#ADD1B2" rx="11" ry="11" style="stroke:#181818;stroke-width:1;"/><path d="M306.1231,487.5631 Q305.5421,487.8619 304.9029,488.0113 Q304.2638,488.1607 303.5582,488.1607 Q301.0514,488.1607 299.7315,486.5089 Q298.4117,484.857 298.4117,481.7359 Q298.4117,478.6065 299.7315,476.9547 Q301.0514,475.3028 303.5582,475.3028 Q304.2638,475.3028 304.9112,475.4522 Q305.5587,475.6016 306.1231,475.9005 L306.1231,478.6231 Q305.4923,478.0421 304.8988,477.7723 Q304.3053,477.5025 303.6744,477.5025 Q302.3297,477.5025 301.6449,478.5692 Q300.9601,479.6358 300.9601,481.7359 Q300.9601,483.8277 301.6449,484.8944 Q302.3297,485.961 303.6744,485.961 Q304.3053,485.961 304.8988,485.6912 Q305.4923,485.4215 306.1231,484.8404 Z " fill="#000000"/><text fill="#000000" font-family="sans-serif" font-size="14" lengthAdjust="spacing" textLength="84.8135" x="317.65" y="486.711">Participation</text><line style="stroke:#181818;stroke-width:0.5;" x1="289.65" x2="404.4635" y1="497.42" y2="497.42"/><text fill="#000000" font-family="sans-serif" font-size="14" lengthAdjust="spacing" textLength="65.6729" x="294.65" y="514.9552">hours: int</text><line style="stroke:#181818;stroke-width:0.5;" x1="289.65" x2="404.4635" y1="521.9083" y2="521.9083"/></g><ellipse cx="252.06" cy="497.66" fill="#181818" rx="2" ry="2" style="stroke:#181818;stroke-width:1;"/><!--link Employee to Faculty--><g class="link" data-entity-1="Employee" data-entity-2="Faculty" data-source-line="43" data-uid="lnk11" id="link_Employee_Faculty"><path codeLine="43" d="M337.9,88.53 C284.5,114.4 196.94,157.63 123.06,197.95 C117.37,201.06 111.46,204.39 105.61,207.75" fill="none" id="Employee-Faculty" style="stroke:#181818;stroke-width:1;"/><polygon fill="#000000" points="209.8917,161.8883,219.2807,160.3729,216.5968,155.1436,209.8917,161.8883" style="stroke:#000000;stroke-width:1;"/><text fill="#000000" font-family="sans-serif" font-size="13" lengthAdjust="spacing" textLength="32.9888" x="223.34" y="164.5184">leads</text><text fill="#000000" font-family="sans-serif" font-size="13" lengthAdjust="spacing" textLength="8.2202" x="321.7768" y="88.7334">1</text><text fill="#000000" font-family="sans-serif" font-size="13" lengthAdjust="spacing" textLength="24.667" x="107.4483" y="197.2822">0..1</text></g><!--reverse link Employee to AdministrativeEmployee--><g class="link" data-entity-1="Employee" data-entity-2="AdministrativeEmployee" data-source-line="44" data-uid="lnk12" id="link_Employee_AdministrativeEmployee"><path codeLine="44" d="M387.06,139.45 C387.06,170.88 387.06,190.33 387.06,214" fill="none" id="Employee-backto-AdministrativeEmployee" style="stroke:#181818;stroke-width:1;"/><polygon fill="none" points="387.06,121.45,381.06,139.45,393.06,139.45,387.06,121.45" style="stroke:#181818;stroke-width:1;"/></g><!--reverse link Employee to ResearchAssociate--><g class="link" data-entity-1="Employee" data-entity-2="ResearchAssociate" data-source-line="45" data-uid="lnk13" id="link_Employee_ResearchAssociate"><path codeLine="45" d="M449.1988,119.6752 C493.3088,162.7452 533.66,219.07 502.06,278.93 C488.34,304.91 463.65,324.96 439.1,339.63" fill="none" id="Employee-backto-ResearchAssociate" style="stroke:#181818;stroke-width:1;"/><polygon fill="none" points="436.32,107.1,445.0071,123.9681,453.3906,115.3822,436.32,107.1" style="stroke:#181818;stroke-width:1;"/></g><!--reverse link Faculty to Institute--><g class="link" data-entity-1="Faculty" data-entity-2="Institute" data-source-line="46" data-uid="lnk14" id="link_Faculty_Institute"><path codeLine="46" d="M117.35,238.44 C128.82,238.44 128.28,238.44 139.74,238.44" fill="none" id="Faculty-backto-Institute" style="stroke:#181818;stroke-width:1;"/><polygon fill="#181818" points="105.35,238.44,111.35,242.44,117.35,238.44,111.35,234.44,105.35,238.44" style="stroke:#181818;stroke-width:1;"/><text fill="#000000" font-family="sans-serif" font-size="13" lengthAdjust="spacing" textLength="8.2202" x="113.1932" y="234.929">1</text><text fill="#000000" font-family="sans-serif" font-size="13" lengthAdjust="spacing" textLength="22.7119" x="109.4566" y="235.1134">1..*</text></g><!--reverse link Institute to ResearchAssociate--><g class="link" data-entity-1="Institute" data-entity-2="ResearchAssociate" data-source-line="47" data-uid="lnk15" id="link_Institute_ResearchAssociate"><path codeLine="47" d="M258.0155,286.6701 C282.9355,305.9801 302.95,321.49 326.28,339.57" fill="none" id="Institute-backto-ResearchAssociate" style="stroke:#181818;stroke-width:1;"/><polygon fill="none" points="248.53,279.32,250.8227,286.1569,258.0155,286.6701,255.7228,279.8332,248.53,279.32" style="stroke:#181818;stroke-width:1;"/><text fill="#000000" font-family="sans-serif" font-size="13" lengthAdjust="spacing" textLength="22.7119" x="233.0362" y="299.6239">1..*</text><text fill="#000000" font-family="sans-serif" font-size="13" lengthAdjust="spacing" textLength="22.7119" x="294.1553" y="329.2734">1..*</text></g><!--reverse link ResearchAssociate to Lecturer--><g class="link" data-entity-1="ResearchAssociate" data-entity-2="Lecturer" data-source-line="48" data-uid="lnk16" id="link_ResearchAssociate_Lecturer"><path codeLine="48" d="M409.2689,417.7176 C429.5789,439.1576 443.63,453.99 462.05,473.43" fill="none" id="ResearchAssociate-backto-Lecturer" style="stroke:#181818;stroke-width:1;"/><polygon fill="none" points="396.89,404.65,404.913,421.8439,413.6248,413.5913,396.89,404.65" style="stroke:#181818;stroke-width:1;"/></g><!--link Lecturer to Course--><g class="link" data-entity-1="Lecturer" data-entity-2="Course" data-source-line="50" data-uid="lnk18" id="link_Lecturer_Course"><path codeLine="50" d="M484.06,522.01 C484.06,544.28 484.06,578.49 484.06,606.58" fill="none" id="Lecturer-Course" style="stroke:#181818;stroke-width:1;"/><polygon fill="#000000" points="489.06,573.5653,491.9989,564.5202,486.1211,564.5202,489.06,573.5653" style="stroke:#000000;stroke-width:1;"/><text fill="#000000" font-family="sans-serif" font-size="13" lengthAdjust="spacing" textLength="47.8804" x="498.06" y="573.4784">teaches</text><text fill="#000000" font-family="sans-serif" font-size="13" lengthAdjust="spacing" textLength="22.7119" x="459.4659" y="542.3796">1..*</text><text fill="#000000" font-family="sans-serif" font-size="13" lengthAdjust="spacing" textLength="22.7119" x="460.5632" y="596.2161">1..*</text></g><!--link ResearchAssociate to apoint19--><g class="link" data-entity-1="ResearchAssociate" data-entity-2="apoint19" data-source-line="51" data-uid="lnk21" id="link_ResearchAssociate_apoint19"><path d="M329.72,404.87 C310.96,421.8 288.56,443.6 271.06,465.42 C262.48,476.12 254.85,491 252.68,495.39" fill="none" id="ResearchAssociate-apoint19" style="stroke:#181818;stroke-width:1;"/><text fill="#000000" font-family="sans-serif" font-size="13" lengthAdjust="spacing" textLength="22.7119" x="298.8724" y="424.8781">1..*</text></g><!--link apoint19 to Project--><g class="link" data-entity-1="apoint19" data-entity-2="Project" data-source-line="51" data-uid="lnk22" id="link_apoint19_Project"><path d="M252.06,500.01 C252.06,509.3 252.06,564.69 252.06,606.54" fill="none" id="apoint19-Project" style="stroke:#181818;stroke-width:1;"/><text fill="#000000" font-family="sans-serif" font-size="13" lengthAdjust="spacing" textLength="22.7119" x="228.5632" y="596.1705">0..*</text></g><!--link apoint19 to Participation--><g class="link" data-entity-1="apoint19" data-entity-2="Participation" data-source-line="51" data-uid="lnk23" id="link_apoint19_Participation"><path d="M254.29,497.66 C265.64,497.66 277,497.66 288.35,497.66" fill="none" id="apoint19-Participation" style="stroke:#181818;stroke-width:1;stroke-dasharray:7,7;"/></g><!--SRC=[TP7TJiCm38NlynHMhs1Y5Rkj4DB4ZuI4O69F41AF1QN95Bj84_3kf6lIRMIxi-EJO_kpV2SEKZ4eAudWeTrOlqM4Rm50zE8RC8vZx6IB3Imv6FSHKsobiGUvyfrZ38FwLuZ1xL6gpl9sPtPaC2hckZNEz2Em-SBSFLVVa506jPuJUMKa3sEj35hzkbfofxUbuvCZDjmbxR-nfTO1YSfVTxuBTFABqHd1kjSqiB9U7kpuZ8gxW27dY-0_uzCfAs8Pk87xk4YFqEaKZrwBM3VAR28CxtOEgMUYEbwdcbKmdK9rNTSnofWRi2WrmUrUUFCJPMSW7uiArYBRziqciTcihYVLdg_OaqubFnrLfLjvortR4LzPJrPfpnWbj2B_ELGCKJfZ0unIhR57SL4ONsMZIwZhO-RY3m00]--></g></svg>