<svg xmlns="http://www.w3.org/2000/svg" xmlns:xlink="http://www.w3.org/1999/xlink" contentStyleType="text/css" data-diagram-type="CLASS" height="544px" preserveAspectRatio="none" style="width:752px;height:544px;background:#FFFFFF;" version="1.1" viewBox="0 0 752 544" width="752px" zoomAndPan="magnify"><defs/><g><!--class Assignment--><g class="entity" data-entity="Assignment" data-source-line="2" data-uid="ent0002" id="entity_Assignment"><rect fill="#F1F1F1" height="64.4883" rx="2.5" ry="2.5" style="stroke:#181818;stroke-width:0.5;" width="112.1924" x="593.23" y="7"/><ellipse cx="608.23" cy="23" fill="#ADD1B2" rx="11" ry="11" style="stroke:#181818;stroke-width:1;"/><path d="M610.7031,29.1431 Q610.1221,29.4419 609.4829,29.5913 Q608.8438,29.7407 608.1382,29.7407 Q605.6314,29.7407 604.3115,28.0889 Q602.9917,26.437 602.9917,23.3159 Q602.9917,20.1865 604.3115,18.5347 Q605.6314,16.8828 608.1382,16.8828 Q608.8438,16.8828 609.4912,17.0322 Q610.1387,17.1816 610.7031,17.4805 L610.7031,20.2031 Q610.0723,19.6221 609.4788,19.3523 Q608.8853,19.0825 608.2544,19.0825 Q606.9097,19.0825 606.2249,20.1492 Q605.5401,21.2158 605.5401,23.3159 Q605.5401,25.4077 606.2249,26.4744 Q606.9097,27.541 608.2544,27.541 Q608.8853,27.541 609.4788,27.2712 Q610.0723,27.0015 610.7031,26.4204 Z " fill="#000000"/><text fill="#000000" font-family="sans-serif" font-size="14" lengthAdjust="spacing" textLength="80.1924" x="622.23" y="28.291">Assignment</text><line style="stroke:#181818;stroke-width:0.5;" x1="594.23" x2="704.4224" y1="39" y2="39"/><text fill="#000000" font-family="sans-serif" font-size="14" lengthAdjust="spacing" textLength="65.2627" x="599.23" y="56.5352">Date date</text><line style="stroke:#181818;stroke-width:0.5;" x1="594.23" x2="704.4224" y1="63.4883" y2="63.4883"/></g><!--class Location--><g class="entity" data-entity="Location" data-source-line="6" data-uid="ent0003" id="entity_Location"><rect fill="#F1F1F1" height="64.4883" rx="2.5" ry="2.5" style="stroke:#181818;stroke-width:0.5;" width="109.5557" x="522.55" y="148.49"/><ellipse cx="546.5579" cy="164.49" fill="#ADD1B2" rx="11" ry="11" style="stroke:#181818;stroke-width:1;"/><path d="M549.0311,170.6331 Q548.45,170.9319 547.8108,171.0813 Q547.1717,171.2307 546.4661,171.2307 Q543.9593,171.2307 542.6395,169.5789 Q541.3196,167.927 541.3196,164.8059 Q541.3196,161.6765 542.6395,160.0247 Q543.9593,158.3728 546.4661,158.3728 Q547.1717,158.3728 547.8191,158.5222 Q548.4666,158.6716 549.0311,158.9705 L549.0311,161.6931 Q548.4002,161.1121 547.8067,160.8423 Q547.2132,160.5725 546.5823,160.5725 Q545.2376,160.5725 544.5528,161.6392 Q543.868,162.7058 543.868,164.8059 Q543.868,166.8977 544.5528,167.9644 Q545.2376,169.031 546.5823,169.031 Q547.2132,169.031 547.8067,168.7612 Q548.4002,168.4915 549.0311,167.9104 Z " fill="#000000"/><text fill="#000000" font-family="sans-serif" font-size="14" lengthAdjust="spacing" textLength="57.5381" x="562.5597" y="169.781">Location</text><line style="stroke:#181818;stroke-width:0.5;" x1="523.55" x2="631.1057" y1="180.49" y2="180.49"/><text fill="#000000" font-family="sans-serif" font-size="14" lengthAdjust="spacing" textLength="97.5557" x="528.55" y="198.0252">String address</text><line style="stroke:#181818;stroke-width:0.5;" x1="523.55" x2="631.1057" y1="204.9783" y2="204.9783"/></g><!--class Driver--><g class="entity" data-entity="Driver" data-source-line="10" data-uid="ent0004" id="entity_Driver"><rect fill="#F1F1F1" height="80.9766" rx="2.5" ry="2.5" style="stroke:#181818;stroke-width:0.5;" width="122.6396" x="623.01" y="444.02"/><ellipse cx="660.3316" cy="460.02" fill="#ADD1B2" rx="11" ry="11" style="stroke:#181818;stroke-width:1;"/><path d="M662.8047,466.1631 Q662.2237,466.4619 661.5845,466.6113 Q660.9454,466.7607 660.2398,466.7607 Q657.7329,466.7607 656.4131,465.1089 Q655.0933,463.457 655.0933,460.3359 Q655.0933,457.2065 656.4131,455.5547 Q657.7329,453.9028 660.2398,453.9028 Q660.9454,453.9028 661.5928,454.0522 Q662.2403,454.2016 662.8047,454.5005 L662.8047,457.2231 Q662.1739,456.6421 661.5804,456.3723 Q660.9869,456.1025 660.356,456.1025 Q659.0113,456.1025 658.3265,457.1692 Q657.6416,458.2358 657.6416,460.3359 Q657.6416,462.4277 658.3265,463.4944 Q659.0113,464.561 660.356,464.561 Q660.9869,464.561 661.5804,464.2912 Q662.1739,464.0215 662.8047,463.4404 Z " fill="#000000"/><text fill="#000000" font-family="sans-serif" font-size="14" lengthAdjust="spacing" textLength="41.0361" x="679.2919" y="465.311">Driver</text><line style="stroke:#181818;stroke-width:0.5;" x1="624.01" x2="744.6496" y1="476.02" y2="476.02"/><text fill="#000000" font-family="sans-serif" font-size="14" lengthAdjust="spacing" textLength="110.6396" x="629.01" y="493.5552">String firstName</text><text fill="#000000" font-family="sans-serif" font-size="14" lengthAdjust="spacing" textLength="107.4951" x="629.01" y="510.0434">String lastName</text><line style="stroke:#181818;stroke-width:0.5;" x1="624.01" x2="744.6496" y1="516.9966" y2="516.9966"/></g><!--class Vehicle--><g class="entity" data-entity="Vehicle" data-source-line="15" data-uid="ent0005" id="entity_Vehicle"><rect fill="#F1F1F1" height="64.4883" rx="2.5" ry="2.5" style="stroke:#181818;stroke-width:0.5;" width="135.6416" x="427.51" y="289.98"/><ellipse cx="467.231" cy="305.98" fill="#ADD1B2" rx="11" ry="11" style="stroke:#181818;stroke-width:1;"/><path d="M469.7041,312.1231 Q469.1231,312.4219 468.4839,312.5713 Q467.8448,312.7207 467.1392,312.7207 Q464.6324,312.7207 463.3125,311.0689 Q461.9927,309.417 461.9927,306.2959 Q461.9927,303.1665 463.3125,301.5147 Q464.6324,299.8628 467.1392,299.8628 Q467.8448,299.8628 468.4922,300.0122 Q469.1397,300.1616 469.7041,300.4605 L469.7041,303.1831 Q469.0733,302.6021 468.4798,302.3323 Q467.8863,302.0625 467.2554,302.0625 Q465.9107,302.0625 465.2259,303.1292 Q464.5411,304.1958 464.5411,306.2959 Q464.5411,308.3877 465.2259,309.4544 Q465.9107,310.521 467.2554,310.521 Q467.8863,310.521 468.4798,310.2512 Q469.0733,309.9815 469.7041,309.4004 Z " fill="#000000"/><text fill="#000000" font-family="sans-serif" font-size="14" lengthAdjust="spacing" textLength="48.7061" x="486.7246" y="311.271">Vehicle</text><line style="stroke:#181818;stroke-width:0.5;" x1="428.51" x2="562.1516" y1="321.98" y2="321.98"/><text fill="#000000" font-family="sans-serif" font-size="14" lengthAdjust="spacing" textLength="123.6416" x="433.51" y="339.5152">int vehicleNumber</text><line style="stroke:#181818;stroke-width:0.5;" x1="428.51" x2="562.1516" y1="346.4683" y2="346.4683"/></g><!--class Truck--><g class="entity" data-entity="Truck" data-source-line="19" data-uid="ent0006" id="entity_Truck"><rect fill="#F1F1F1" height="64.4883" rx="2.5" ry="2.5" style="stroke:#181818;stroke-width:0.5;" width="118.6611" x="7" y="452.26"/><ellipse cx="43.6171" cy="468.26" fill="#ADD1B2" rx="11" ry="11" style="stroke:#181818;stroke-width:1;"/><path d="M46.0903,474.4031 Q45.5092,474.7019 44.8701,474.8513 Q44.2309,475.0007 43.5253,475.0007 Q41.0185,475.0007 39.6987,473.3489 Q38.3789,471.697 38.3789,468.5759 Q38.3789,465.4465 39.6987,463.7947 Q41.0185,462.1428 43.5253,462.1428 Q44.2309,462.1428 44.8784,462.2922 Q45.5258,462.4416 46.0903,462.7405 L46.0903,465.4631 Q45.4594,464.8821 44.8659,464.6123 Q44.2724,464.3425 43.6416,464.3425 Q42.2968,464.3425 41.612,465.4092 Q40.9272,466.4758 40.9272,468.5759 Q40.9272,470.6677 41.612,471.7344 Q42.2968,472.801 43.6416,472.801 Q44.2724,472.801 44.8659,472.5312 Q45.4594,472.2615 46.0903,471.6804 Z " fill="#000000"/><text fill="#000000" font-family="sans-serif" font-size="14" lengthAdjust="spacing" textLength="38.623" x="62.4209" y="473.551">Truck</text><line style="stroke:#181818;stroke-width:0.5;" x1="8" x2="124.6611" y1="484.26" y2="484.26"/><text fill="#000000" font-family="sans-serif" font-size="14" lengthAdjust="spacing" textLength="106.6611" x="13" y="501.7952">double tonnage</text><line style="stroke:#181818;stroke-width:0.5;" x1="8" x2="124.6611" y1="508.7483" y2="508.7483"/></g><!--class PassengerCar--><g class="entity" data-entity="PassengerCar" data-source-line="23" data-uid="ent0007" id="entity_PassengerCar"><rect fill="#F1F1F1" height="64.4883" rx="2.5" ry="2.5" style="stroke:#181818;stroke-width:0.5;" width="123.6357" x="160.51" y="452.26"/><ellipse cx="175.51" cy="468.26" fill="#ADD1B2" rx="11" ry="11" style="stroke:#181818;stroke-width:1;"/><path d="M177.9831,474.4031 Q177.4021,474.7019 176.7629,474.8513 Q176.1238,475.0007 175.4182,475.0007 Q172.9114,475.0007 171.5915,473.3489 Q170.2717,471.697 170.2717,468.5759 Q170.2717,465.4465 171.5915,463.7947 Q172.9114,462.1428 175.4182,462.1428 Q176.1238,462.1428 176.7712,462.2922 Q177.4187,462.4416 177.9831,462.7405 L177.9831,465.4631 Q177.3523,464.8821 176.7588,464.6123 Q176.1653,464.3425 175.5344,464.3425 Q174.1897,464.3425 173.5049,465.4092 Q172.8201,466.4758 172.8201,468.5759 Q172.8201,470.6677 173.5049,471.7344 Q174.1897,472.801 175.5344,472.801 Q176.1653,472.801 176.7588,472.5312 Q177.3523,472.2615 177.9831,471.6804 Z " fill="#000000"/><text fill="#000000" font-family="sans-serif" font-size="14" lengthAdjust="spacing" textLength="91.6357" x="189.51" y="473.551">PassengerCar</text><line style="stroke:#181818;stroke-width:0.5;" x1="161.51" x2="283.1457" y1="484.26" y2="484.26"/><text fill="#000000" font-family="sans-serif" font-size="14" lengthAdjust="spacing" textLength="57.4424" x="166.51" y="501.7952">int seats</text><line style="stroke:#181818;stroke-width:0.5;" x1="161.51" x2="283.1457" y1="508.7483" y2="508.7483"/></g><!--class Transporter--><g class="entity" data-entity="Transporter" data-source-line="27" data-uid="ent0008" id="entity_Transporter"><rect fill="#F1F1F1" height="48" rx="2.5" ry="2.5" style="stroke:#181818;stroke-width:0.5;" width="112.042" x="319.31" y="460.51"/><ellipse cx="334.31" cy="476.51" fill="#ADD1B2" rx="11" ry="11" style="stroke:#181818;stroke-width:1;"/><path d="M336.7831,482.6531 Q336.2021,482.9519 335.5629,483.1013 Q334.9238,483.2507 334.2182,483.2507 Q331.7114,483.2507 330.3915,481.5989 Q329.0717,479.947 329.0717,476.8259 Q329.0717,473.6965 330.3915,472.0447 Q331.7114,470.3928 334.2182,470.3928 Q334.9238,470.3928 335.5712,470.5422 Q336.2187,470.6916 336.7831,470.9905 L336.7831,473.7131 Q336.1523,473.1321 335.5588,472.8623 Q334.9653,472.5925 334.3344,472.5925 Q332.9897,472.5925 332.3049,473.6592 Q331.6201,474.7258 331.6201,476.8259 Q331.6201,478.9177 332.3049,479.9844 Q332.9897,481.051 334.3344,481.051 Q334.9653,481.051 335.5588,480.7812 Q336.1523,480.5115 336.7831,479.9304 Z " fill="#000000"/><text fill="#000000" font-family="sans-serif" font-size="14" lengthAdjust="spacing" textLength="80.042" x="348.31" y="481.801">Transporter</text><line style="stroke:#181818;stroke-width:0.5;" x1="320.31" x2="430.352" y1="492.51" y2="492.51"/><line style="stroke:#181818;stroke-width:0.5;" x1="320.31" x2="430.352" y1="500.51" y2="500.51"/></g><!--class VehicleStatus--><g class="entity" data-entity="VehicleStatus" data-source-line="29" data-uid="ent0009" id="entity_VehicleStatus"><rect fill="#F1F1F1" height="106.0859" rx="2.5" ry="2.5" style="stroke:#181818;stroke-width:0.5;" width="122.2754" x="466.19" y="431.46"/><ellipse cx="481.19" cy="451.7705" fill="#EB937F" rx="11" ry="11" style="stroke:#181818;stroke-width:1;"/><path d="M484.8043,458.2705 L477.0845,458.2705 L477.0845,445.8775 L484.8043,445.8775 L484.8043,448.0357 L479.5333,448.0357 L479.5333,450.7085 L484.3062,450.7085 L484.3062,452.8667 L479.5333,452.8667 L479.5333,456.1123 L484.8043,456.1123 Z " fill="#000000"/><text fill="#000000" font-family="sans-serif" font-size="12" font-style="italic" lengthAdjust="spacing" textLength="45.3574" x="517.649" y="448.0616">&#171;enum&#187;</text><text fill="#000000" font-family="sans-serif" font-size="14" lengthAdjust="spacing" textLength="90.2754" x="495.19" y="464.128">VehicleStatus</text><line style="stroke:#181818;stroke-width:0.5;" x1="467.19" x2="587.4654" y1="472.0811" y2="472.0811"/><text fill="#000000" font-family="sans-serif" font-size="14" lengthAdjust="spacing" textLength="45.3086" x="472.19" y="489.6162">READY</text><text fill="#000000" font-family="sans-serif" font-size="14" lengthAdjust="spacing" textLength="88.0742" x="472.19" y="506.1045">ASSIGNMENT</text><text fill="#000000" font-family="sans-serif" font-size="14" lengthAdjust="spacing" textLength="100.1533" x="472.19" y="522.5928">MAINTENANCE</text><line style="stroke:#181818;stroke-width:0.5;" x1="467.19" x2="587.4654" y1="529.5459" y2="529.5459"/></g><!--link Assignment to Driver--><g class="link" data-entity-1="Assignment" data-entity-2="Driver" data-source-line="35" data-uid="lnk10" id="link_Assignment_Driver"><path codeLine="35" d="M651.82,71.77 C658.05,150.68 673.8374,350.6686 680.7174,437.7386" fill="none" id="Assignment-to-Driver" style="stroke:#181818;stroke-width:1;"/><polygon fill="#181818" points="681.19,443.72,684.4686,434.4329,680.7961,438.7355,676.4935,435.0631,681.19,443.72" style="stroke:#181818;stroke-width:1;"/><text fill="#000000" font-family="sans-serif" font-size="13" lengthAdjust="spacing" textLength="55.9165" x="667.43" y="256.5484">executes</text><text fill="#000000" font-family="sans-serif" font-size="13" lengthAdjust="spacing" textLength="24.667" x="654.6465" y="91.9979">0..1</text><text fill="#000000" font-family="sans-serif" font-size="13" lengthAdjust="spacing" textLength="6.2651" x="674.195" y="433.3163">*</text></g><!--link Assignment to Location--><g class="link" data-entity-1="Assignment" data-entity-2="Location" data-source-line="36" data-uid="lnk11" id="link_Assignment_Location"><path codeLine="36" d="M597.98,71.71 C588.41,80.12 579.74,90.1 574.33,101.49 C567.51,115.86 566.7256,127.4969 568.7856,142.3469" fill="none" id="Assignment-to-Location" style="stroke:#181818;stroke-width:1;"/><polygon fill="#181818" points="569.61,148.29,572.3354,138.8257,568.923,143.3374,564.4113,139.925,569.61,148.29" style="stroke:#181818;stroke-width:1;"/><text fill="#000000" font-family="sans-serif" font-size="13" lengthAdjust="spacing" textLength="30.2212" x="575.33" y="115.0584">from</text><text fill="#000000" font-family="sans-serif" font-size="13" lengthAdjust="spacing" textLength="6.2651" x="581.3067" y="92.1772">*</text><text fill="#000000" font-family="sans-serif" font-size="13" lengthAdjust="spacing" textLength="8.2202" x="559.2159" y="137.6519">1</text></g><!--link Assignment to Location--><g class="link" data-entity-1="Assignment" data-entity-2="Location" data-source-line="37" data-uid="lnk12" id="link_Assignment_Location"><path codeLine="37" d="M633.81,71.96 C626.75,86.23 618.22,103.26 610.33,118.49 C605.33,128.14 602.6069,133.2884 597.4969,142.7684" fill="none" id="Assignment-to-Location-1" style="stroke:#181818;stroke-width:1;"/><polygon fill="#181818" points="594.65,148.05,602.4414,142.0256,597.0224,143.6487,595.3993,138.2297,594.65,148.05" style="stroke:#181818;stroke-width:1;"/><text fill="#000000" font-family="sans-serif" font-size="13" lengthAdjust="spacing" textLength="12.8477" x="618.97" y="115.0584">to</text><text fill="#000000" font-family="sans-serif" font-size="13" lengthAdjust="spacing" textLength="6.2651" x="624.4205" y="91.9718">*</text><text fill="#000000" font-family="sans-serif" font-size="13" lengthAdjust="spacing" textLength="8.2202" x="589.2945" y="137.7377">1</text></g><!--reverse link Location to Vehicle--><g class="link" data-entity-1="Location" data-entity-2="Vehicle" data-source-line="38" data-uid="lnk13" id="link_Location_Vehicle"><path codeLine="38" d="M552.6389,223.7251 C539.2189,246.5551 527.27,266.89 513.86,289.69" fill="none" id="Location-backto-Vehicle" style="stroke:#181818;stroke-width:1;"/><polygon fill="#181818" points="558.72,213.38,552.2311,216.5255,552.6389,223.7251,559.1278,220.5796,558.72,213.38" style="stroke:#181818;stroke-width:1;"/><text fill="#000000" font-family="sans-serif" font-size="13" lengthAdjust="spacing" textLength="8.2202" x="546.4314" y="233.6308">1</text><text fill="#000000" font-family="sans-serif" font-size="13" lengthAdjust="spacing" textLength="8.2202" x="508.8794" y="279.0333">1</text></g><!--link Driver to Vehicle--><g class="link" data-entity-1="Driver" data-entity-2="Vehicle" data-source-line="40" data-uid="lnk14" id="link_Driver_Vehicle"><path codeLine="40" d="M626.27,443.7 C608.5,430.8 589.2,416.04 572.33,401.46 C555.61,387.01 542.3651,373.9376 528.3551,359.2076" fill="none" id="Driver-to-Vehicle" style="stroke:#181818;stroke-width:1;"/><polygon fill="#181818" points="524.22,354.86,527.5242,364.138,527.6659,358.483,533.321,358.6246,524.22,354.86" style="stroke:#181818;stroke-width:1;"/><text fill="#000000" font-family="sans-serif" font-size="13" lengthAdjust="spacing" textLength="36.5498" x="573.33" y="398.0284">driver</text><text fill="#000000" font-family="sans-serif" font-size="13" lengthAdjust="spacing" textLength="22.7119" x="596.3763" y="430.7499">1..*</text><text fill="#000000" font-family="sans-serif" font-size="13" lengthAdjust="spacing" textLength="6.2651" x="523.1804" y="375.1089">*</text></g><!--link Vehicle to Driver--><g class="link" data-entity-1="Vehicle" data-entity-2="Driver" data-source-line="41" data-uid="lnk15" id="link_Vehicle_Driver"><path codeLine="41" d="M563.42,351.19 C581.08,360.27 599.34,371.43 614.33,384.46 C633.56,401.18 647.074,419.1295 659.334,438.7795" fill="none" id="Vehicle-to-Driver" style="stroke:#181818;stroke-width:1;"/><polygon fill="#181818" points="662.51,443.87,661.1396,434.117,659.8633,439.6279,654.3523,438.3517,662.51,443.87" style="stroke:#181818;stroke-width:1;"/><text fill="#000000" font-family="sans-serif" font-size="13" lengthAdjust="spacing" textLength="36.5498" x="631.7" y="398.0284">driver</text><text fill="#000000" font-family="sans-serif" font-size="13" lengthAdjust="spacing" textLength="24.667" x="571.0853" y="350.8191">0..1</text><text fill="#000000" font-family="sans-serif" font-size="13" lengthAdjust="spacing" textLength="6.2651" x="652.2669" y="433.1913">*</text></g><!--reverse link Vehicle to Truck--><g class="link" data-entity-1="Vehicle" data-entity-2="Truck" data-source-line="43" data-uid="lnk16" id="link_Vehicle_Truck"><path codeLine="43" d="M409.7438,341.9127 C337.1638,358.9027 237.48,386.41 143.33,431.46 C131.4,437.18 119.21,444.57 108.15,451.98" fill="none" id="Vehicle-backto-Truck" style="stroke:#181818;stroke-width:1;"/><polygon fill="none" points="427.27,337.81,408.3762,336.0706,411.1113,347.7547,427.27,337.81" style="stroke:#181818;stroke-width:1;"/></g><!--reverse link Vehicle to PassengerCar--><g class="link" data-entity-1="Vehicle" data-entity-2="PassengerCar" data-source-line="44" data-uid="lnk17" id="link_Vehicle_PassengerCar"><path codeLine="44" d="M420.2887,363.3741 C381.5287,384.4041 345.84,404.44 301.33,431.46 C290.8,437.86 279.66,444.97 269.17,451.84" fill="none" id="Vehicle-backto-PassengerCar" style="stroke:#181818;stroke-width:1;"/><polygon fill="none" points="436.11,354.79,417.4274,358.1004,423.1501,368.6479,436.11,354.79" style="stroke:#181818;stroke-width:1;"/></g><!--reverse link Vehicle to Transporter--><g class="link" data-entity-1="Vehicle" data-entity-2="Transporter" data-source-line="45" data-uid="lnk18" id="link_Vehicle_Transporter"><path codeLine="45" d="M460.8334,369.3 C437.6134,400.32 413.56,432.45 392.77,460.22" fill="none" id="Vehicle-backto-Transporter" style="stroke:#181818;stroke-width:1;"/><polygon fill="none" points="471.62,354.89,456.03,365.7045,465.6367,372.8956,471.62,354.89" style="stroke:#181818;stroke-width:1;"/></g><!--link Vehicle to VehicleStatus--><g class="link" data-entity-1="Vehicle" data-entity-2="VehicleStatus" data-source-line="47" data-uid="lnk19" id="link_Vehicle_VehicleStatus"><path codeLine="47" d="M490.72,354.72 C489.48,369.1 489.23,386.28 492.33,401.46 C494.35,411.33 495.4248,415.8743 499.1548,425.5143" fill="none" id="Vehicle-to-VehicleStatus" style="stroke:#181818;stroke-width:1;"/><polygon fill="#181818" points="501.32,431.11,501.8028,421.273,499.5157,426.4469,494.3418,424.1598,501.32,431.11" style="stroke:#181818;stroke-width:1;"/><text fill="#000000" font-family="sans-serif" font-size="13" lengthAdjust="spacing" textLength="38.2256" x="493.33" y="398.0284">status</text><text fill="#000000" font-family="sans-serif" font-size="13" lengthAdjust="spacing" textLength="8.2202" x="481.0996" y="374.9422">1</text><text fill="#000000" font-family="sans-serif" font-size="13" lengthAdjust="spacing" textLength="8.2202" x="489.4894" y="420.8963">1</text></g><!--SRC=[ZL71QeD04BtdAmQFWj9S9GYII0aqIwbIw76Z4xiqxfQTDHJQ_dit6pMRc40zxEgRz-RD-000gZqdWen8DB95QU1x1lspuWQXjeT3VcVkEl6VLCMDKD9Z5qOBsG2lQur4KybAYmFggM0dD1d6MxmkMDKPlsZrYk-YsgFNIzZ13oUKTUqMzLHKwgxwy2IrwhQsXr5IykQ6oRCzK3QebrnVEH5oGxSSkAHFfOsrTp3AhXs6BGmt7S5YSGJJrEluacUhj_4hAuhr8zlah1oXJRPcPSuojinzKo-pu26Evm54KGf160o_EW7ymgepI1D-s9EjQ8moWPrMxJ-fHZdYY1pBOHIvkz_uD6K_Ip2Fu_0yuP1W0hMhE-e0tjkcfrvm5p_Mr4KxXVq4RuckqXhjv-UDByDBWDpBx0y0]--></g></svg>