<svg xmlns="http://www.w3.org/2000/svg" xmlns:xlink="http://www.w3.org/1999/xlink" contentStyleType="text/css" data-diagram-type="CLASS" height="709px" preserveAspectRatio="none" style="width:641px;height:709px;background:#FFFFFF;" version="1.1" viewBox="0 0 641 709" width="641px" zoomAndPan="magnify"><defs/><g><!--class Game--><g class="entity" data-entity="Game" data-source-line="2" data-uid="ent0002" id="entity_Game"><rect fill="#F1F1F1" height="64.4883" rx="2.5" ry="2.5" style="stroke:#181818;stroke-width:0.5;" width="70.7188" x="308.98" y="7"/><ellipse cx="323.98" cy="23" fill="#ADD1B2" rx="11" ry="11" style="stroke:#181818;stroke-width:1;"/><path d="M326.4531,29.1431 Q325.8721,29.4419 325.2329,29.5913 Q324.5938,29.7407 323.8882,29.7407 Q321.3814,29.7407 320.0615,28.0889 Q318.7417,26.437 318.7417,23.3159 Q318.7417,20.1865 320.0615,18.5347 Q321.3814,16.8828 323.8882,16.8828 Q324.5938,16.8828 325.2412,17.0322 Q325.8887,17.1816 326.4531,17.4805 L326.4531,20.2031 Q325.8223,19.6221 325.2288,19.3523 Q324.6353,19.0825 324.0044,19.0825 Q322.6597,19.0825 321.9749,20.1492 Q321.2901,21.2158 321.2901,23.3159 Q321.2901,25.4077 321.9749,26.4744 Q322.6597,27.541 324.0044,27.541 Q324.6353,27.541 325.2288,27.2712 Q325.8223,27.0015 326.4531,26.4204 Z " fill="#000000"/><text fill="#000000" font-family="sans-serif" font-size="14" lengthAdjust="spacing" textLength="38.7188" x="337.98" y="28.291">Game</text><line style="stroke:#181818;stroke-width:0.5;" x1="309.98" x2="378.6988" y1="39" y2="39"/><text fill="#000000" font-family="sans-serif" font-size="14" lengthAdjust="spacing" textLength="36.9209" x="314.98" y="56.5352">int ID</text><line style="stroke:#181818;stroke-width:0.5;" x1="309.98" x2="378.6988" y1="63.4883" y2="63.4883"/></g><!--class Player--><g class="entity" data-entity="Player" data-source-line="6" data-uid="ent0003" id="entity_Player"><rect fill="#F1F1F1" height="64.4883" rx="2.5" ry="2.5" style="stroke:#181818;stroke-width:0.5;" width="72.3594" x="183.16" y="131.49"/><ellipse cx="198.16" cy="147.49" fill="#ADD1B2" rx="11" ry="11" style="stroke:#181818;stroke-width:1;"/><path d="M200.6331,153.6331 Q200.0521,153.9319 199.4129,154.0813 Q198.7738,154.2307 198.0682,154.2307 Q195.5614,154.2307 194.2415,152.5789 Q192.9217,150.927 192.9217,147.8059 Q192.9217,144.6765 194.2415,143.0247 Q195.5614,141.3728 198.0682,141.3728 Q198.7738,141.3728 199.4212,141.5222 Q200.0687,141.6716 200.6331,141.9705 L200.6331,144.6931 Q200.0023,144.1121 199.4088,143.8423 Q198.8153,143.5725 198.1844,143.5725 Q196.8397,143.5725 196.1549,144.6392 Q195.4701,145.7058 195.4701,147.8059 Q195.4701,149.8977 196.1549,150.9644 Q196.8397,152.031 198.1844,152.031 Q198.8153,152.031 199.4088,151.7612 Q200.0023,151.4915 200.6331,150.9104 Z " fill="#000000"/><text fill="#000000" font-family="sans-serif" font-size="14" lengthAdjust="spacing" textLength="40.3594" x="212.16" y="152.781">Player</text><line style="stroke:#181818;stroke-width:0.5;" x1="184.16" x2="254.5194" y1="163.49" y2="163.49"/><text fill="#000000" font-family="sans-serif" font-size="14" lengthAdjust="spacing" textLength="36.9209" x="189.16" y="181.0252">int ID</text><line style="stroke:#181818;stroke-width:0.5;" x1="184.16" x2="254.5194" y1="187.9783" y2="187.9783"/></g><!--class Deck--><g class="entity" data-entity="Deck" data-source-line="10" data-uid="ent0004" id="entity_Deck"><rect fill="#F1F1F1" height="64.4883" rx="2.5" ry="2.5" style="stroke:#181818;stroke-width:0.5;" width="65.6396" x="453.52" y="131.49"/><ellipse cx="468.52" cy="147.49" fill="#ADD1B2" rx="11" ry="11" style="stroke:#181818;stroke-width:1;"/><path d="M470.9931,153.6331 Q470.4121,153.9319 469.7729,154.0813 Q469.1338,154.2307 468.4282,154.2307 Q465.9214,154.2307 464.6015,152.5789 Q463.2817,150.927 463.2817,147.8059 Q463.2817,144.6765 464.6015,143.0247 Q465.9214,141.3728 468.4282,141.3728 Q469.1338,141.3728 469.7812,141.5222 Q470.4287,141.6716 470.9931,141.9705 L470.9931,144.6931 Q470.3623,144.1121 469.7688,143.8423 Q469.1753,143.5725 468.5444,143.5725 Q467.1997,143.5725 466.5149,144.6392 Q465.8301,145.7058 465.8301,147.8059 Q465.8301,149.8977 466.5149,150.9644 Q467.1997,152.031 468.5444,152.031 Q469.1753,152.031 469.7688,151.7612 Q470.3623,151.4915 470.9931,150.9104 Z " fill="#000000"/><text fill="#000000" font-family="sans-serif" font-size="14" lengthAdjust="spacing" textLength="33.6396" x="482.52" y="152.781">Deck</text><line style="stroke:#181818;stroke-width:0.5;" x1="454.52" x2="518.1596" y1="163.49" y2="163.49"/><text fill="#000000" font-family="sans-serif" font-size="14" lengthAdjust="spacing" textLength="36.9209" x="459.52" y="181.0252">int ID</text><line style="stroke:#181818;stroke-width:0.5;" x1="454.52" x2="518.1596" y1="187.9783" y2="187.9783"/></g><!--class Card--><g class="entity" data-entity="Card" data-source-line="14" data-uid="ent0005" id="entity_Card"><rect fill="#F1F1F1" height="97.4648" rx="2.5" ry="2.5" style="stroke:#181818;stroke-width:0.5;" width="177.833" x="407.43" y="255.97"/><ellipse cx="476.1175" cy="271.97" fill="#ADD1B2" rx="11" ry="11" style="stroke:#181818;stroke-width:1;"/><path d="M478.5906,278.1131 Q478.0096,278.4119 477.3704,278.5613 Q476.7313,278.7107 476.0257,278.7107 Q473.5189,278.7107 472.199,277.0589 Q470.8792,275.407 470.8792,272.2859 Q470.8792,269.1565 472.199,267.5047 Q473.5189,265.8528 476.0257,265.8528 Q476.7313,265.8528 477.3787,266.0022 Q478.0262,266.1516 478.5906,266.4505 L478.5906,269.1731 Q477.9598,268.5921 477.3663,268.3223 Q476.7728,268.0525 476.1419,268.0525 Q474.7972,268.0525 474.1124,269.1192 Q473.4276,270.1858 473.4276,272.2859 Q473.4276,274.3777 474.1124,275.4444 Q474.7972,276.511 476.1419,276.511 Q476.7728,276.511 477.3663,276.2412 Q477.9598,275.9715 478.5906,275.3904 Z " fill="#000000"/><text fill="#000000" font-family="sans-serif" font-size="14" lengthAdjust="spacing" textLength="31.958" x="496.6175" y="277.261">Card</text><line style="stroke:#181818;stroke-width:0.5;" x1="408.43" x2="584.263" y1="287.97" y2="287.97"/><text fill="#000000" font-family="sans-serif" font-size="14" lengthAdjust="spacing" textLength="36.9209" x="413.43" y="305.5052">int ID</text><text fill="#000000" font-family="sans-serif" font-size="14" lengthAdjust="spacing" textLength="55.0498" x="413.43" y="321.9934">Suit suit</text><line style="stroke:#181818;stroke-width:0.5;" x1="408.43" x2="584.263" y1="328.9466" y2="328.9466"/><text fill="#000000" font-family="sans-serif" font-size="14" lengthAdjust="spacing" textLength="165.833" x="413.43" y="346.4817">Compare compare(Card)</text></g><!--class Scoreboard--><g class="entity" data-entity="Scoreboard" data-source-line="20" data-uid="ent0006" id="entity_Scoreboard"><rect fill="#F1F1F1" height="64.4883" rx="2.5" ry="2.5" style="stroke:#181818;stroke-width:0.5;" width="108.5215" x="290.08" y="131.49"/><ellipse cx="305.08" cy="147.49" fill="#ADD1B2" rx="11" ry="11" style="stroke:#181818;stroke-width:1;"/><path d="M307.5531,153.6331 Q306.9721,153.9319 306.3329,154.0813 Q305.6938,154.2307 304.9882,154.2307 Q302.4814,154.2307 301.1615,152.5789 Q299.8417,150.927 299.8417,147.8059 Q299.8417,144.6765 301.1615,143.0247 Q302.4814,141.3728 304.9882,141.3728 Q305.6938,141.3728 306.3412,141.5222 Q306.9887,141.6716 307.5531,141.9705 L307.5531,144.6931 Q306.9223,144.1121 306.3288,143.8423 Q305.7353,143.5725 305.1044,143.5725 Q303.7597,143.5725 303.0749,144.6392 Q302.3901,145.7058 302.3901,147.8059 Q302.3901,149.8977 303.0749,150.9644 Q303.7597,152.031 305.1044,152.031 Q305.7353,152.031 306.3288,151.7612 Q306.9223,151.4915 307.5531,150.9104 Z " fill="#000000"/><text fill="#000000" font-family="sans-serif" font-size="14" lengthAdjust="spacing" textLength="76.5215" x="319.08" y="152.781">Scoreboard</text><line style="stroke:#181818;stroke-width:0.5;" x1="291.08" x2="397.6015" y1="163.49" y2="163.49"/><text fill="#000000" font-family="sans-serif" font-size="14" lengthAdjust="spacing" textLength="36.9209" x="296.08" y="181.0252">int ID</text><line style="stroke:#181818;stroke-width:0.5;" x1="291.08" x2="397.6015" y1="187.9783" y2="187.9783"/></g><!--class Round--><g class="entity" data-entity="Round" data-source-line="24" data-uid="ent0007" id="entity_Round"><rect fill="#F1F1F1" height="80.9766" rx="2.5" ry="2.5" style="stroke:#181818;stroke-width:0.5;" width="76.9209" x="295.88" y="264.22"/><ellipse cx="311.4561" cy="280.22" fill="#ADD1B2" rx="11" ry="11" style="stroke:#181818;stroke-width:1;"/><path d="M313.9293,286.3631 Q313.3482,286.6619 312.7091,286.8113 Q312.0699,286.9607 311.3643,286.9607 Q308.8575,286.9607 307.5377,285.3089 Q306.2178,283.657 306.2178,280.5359 Q306.2178,277.4065 307.5377,275.7547 Q308.8575,274.1028 311.3643,274.1028 Q312.0699,274.1028 312.7174,274.2522 Q313.3648,274.4016 313.9293,274.7005 L313.9293,277.4231 Q313.2984,276.8421 312.7049,276.5723 Q312.1114,276.3025 311.4805,276.3025 Q310.1358,276.3025 309.451,277.3692 Q308.7662,278.4358 308.7662,280.5359 Q308.7662,282.6277 309.451,283.6944 Q310.1358,284.761 311.4805,284.761 Q312.1114,284.761 312.7049,284.4912 Q313.2984,284.2215 313.9293,283.6404 Z " fill="#000000"/><text fill="#000000" font-family="sans-serif" font-size="14" lengthAdjust="spacing" textLength="43.6406" x="325.5842" y="285.511">Round</text><line style="stroke:#181818;stroke-width:0.5;" x1="296.88" x2="371.8009" y1="296.22" y2="296.22"/><text fill="#000000" font-family="sans-serif" font-size="14" lengthAdjust="spacing" textLength="36.9209" x="301.88" y="313.7552">int ID</text><text fill="#000000" font-family="sans-serif" font-size="14" lengthAdjust="spacing" textLength="64.9209" x="301.88" y="330.2434">int points</text><line style="stroke:#181818;stroke-width:0.5;" x1="296.88" x2="371.8009" y1="337.1966" y2="337.1966"/></g><!--class RoundType--><g class="entity" data-entity="RoundType" data-source-line="29" data-uid="ent0008" id="entity_RoundType"><rect fill="#F1F1F1" height="64.4883" rx="2.5" ry="2.5" style="stroke:#181818;stroke-width:0.5;" width="108.4189" x="152.13" y="272.46"/><ellipse cx="167.13" cy="288.46" fill="#A9DCDF" rx="11" ry="11" style="stroke:#181818;stroke-width:1;"/><path d="M166.9933,283.8081 L165.8395,288.8799 L168.1554,288.8799 Z M165.4991,281.5669 L168.4957,281.5669 L171.8409,293.96 L169.3922,293.96 L168.6285,290.897 L165.3497,290.897 L164.6027,293.96 L162.1539,293.96 Z " fill="#000000"/><text fill="#000000" font-family="sans-serif" font-size="14" font-style="italic" lengthAdjust="spacing" textLength="76.4189" x="181.13" y="293.751">RoundType</text><line style="stroke:#181818;stroke-width:0.5;" x1="153.13" x2="259.5489" y1="304.46" y2="304.46"/><text fill="#000000" font-family="sans-serif" font-size="14" lengthAdjust="spacing" textLength="36.9209" x="158.13" y="321.9952">int ID</text><line style="stroke:#181818;stroke-width:0.5;" x1="153.13" x2="259.5489" y1="328.9483" y2="328.9483"/></g><!--class SoloRound--><g class="entity" data-entity="SoloRound" data-source-line="33" data-uid="ent0009" id="entity_SoloRound"><rect fill="#F1F1F1" height="64.4883" rx="2.5" ry="2.5" style="stroke:#181818;stroke-width:0.5;" width="106.377" x="94.15" y="442.48"/><ellipse cx="110.0276" cy="458.48" fill="#ADD1B2" rx="11" ry="11" style="stroke:#181818;stroke-width:1;"/><path d="M112.5007,464.6231 Q111.9197,464.9219 111.2805,465.0713 Q110.6414,465.2207 109.9358,465.2207 Q107.429,465.2207 106.1091,463.5689 Q104.7893,461.917 104.7893,458.7959 Q104.7893,455.6665 106.1091,454.0147 Q107.429,452.3628 109.9358,452.3628 Q110.6414,452.3628 111.2888,452.5122 Q111.9363,452.6616 112.5007,452.9605 L112.5007,455.6831 Q111.8699,455.1021 111.2764,454.8323 Q110.6829,454.5625 110.052,454.5625 Q108.7073,454.5625 108.0225,455.6292 Q107.3376,456.6958 107.3376,458.7959 Q107.3376,460.8877 108.0225,461.9544 Q108.7073,463.021 110.052,463.021 Q110.6829,463.021 111.2764,462.7512 Q111.8699,462.4815 112.5007,461.9004 Z " fill="#000000"/><text fill="#000000" font-family="sans-serif" font-size="14" lengthAdjust="spacing" textLength="72.4268" x="124.2226" y="463.771">SoloRound</text><line style="stroke:#181818;stroke-width:0.5;" x1="95.15" x2="199.527" y1="474.48" y2="474.48"/><text fill="#000000" font-family="sans-serif" font-size="14" lengthAdjust="spacing" textLength="94.377" x="100.15" y="492.0152">SoloType solo</text><line style="stroke:#181818;stroke-width:0.5;" x1="95.15" x2="199.527" y1="498.9683" y2="498.9683"/></g><!--class MandatorySolo--><g class="entity" data-entity="MandatorySolo" data-source-line="37" data-uid="ent0010" id="entity_MandatorySolo"><rect fill="#F1F1F1" height="48" rx="2.5" ry="2.5" style="stroke:#181818;stroke-width:0.5;" width="132.6865" x="7" y="625.06"/><ellipse cx="22" cy="641.06" fill="#ADD1B2" rx="11" ry="11" style="stroke:#181818;stroke-width:1;"/><path d="M24.4731,647.2031 Q23.8921,647.5019 23.2529,647.6513 Q22.6138,647.8007 21.9082,647.8007 Q19.4014,647.8007 18.0815,646.1489 Q16.7617,644.497 16.7617,641.3759 Q16.7617,638.2465 18.0815,636.5947 Q19.4014,634.9428 21.9082,634.9428 Q22.6138,634.9428 23.2612,635.0922 Q23.9087,635.2416 24.4731,635.5405 L24.4731,638.2631 Q23.8423,637.6821 23.2488,637.4123 Q22.6553,637.1425 22.0244,637.1425 Q20.6797,637.1425 19.9949,638.2092 Q19.3101,639.2758 19.3101,641.3759 Q19.3101,643.4677 19.9949,644.5344 Q20.6797,645.601 22.0244,645.601 Q22.6553,645.601 23.2488,645.3312 Q23.8423,645.0615 24.4731,644.4804 Z " fill="#000000"/><text fill="#000000" font-family="sans-serif" font-size="14" lengthAdjust="spacing" textLength="100.6865" x="36" y="646.351">MandatorySolo</text><line style="stroke:#181818;stroke-width:0.5;" x1="8" x2="138.6865" y1="657.06" y2="657.06"/><line style="stroke:#181818;stroke-width:0.5;" x1="8" x2="138.6865" y1="665.06" y2="665.06"/></g><!--class DoubleRound--><g class="entity" data-entity="DoubleRound" data-source-line="39" data-uid="ent0011" id="entity_DoubleRound"><rect fill="#F1F1F1" height="48" rx="2.5" ry="2.5" style="stroke:#181818;stroke-width:0.5;" width="124.0732" x="235.31" y="450.73"/><ellipse cx="250.31" cy="466.73" fill="#ADD1B2" rx="11" ry="11" style="stroke:#181818;stroke-width:1;"/><path d="M252.7831,472.8731 Q252.2021,473.1719 251.5629,473.3213 Q250.9238,473.4707 250.2182,473.4707 Q247.7114,473.4707 246.3915,471.8189 Q245.0717,470.167 245.0717,467.0459 Q245.0717,463.9165 246.3915,462.2647 Q247.7114,460.6128 250.2182,460.6128 Q250.9238,460.6128 251.5712,460.7622 Q252.2187,460.9116 252.7831,461.2105 L252.7831,463.9331 Q252.1523,463.3521 251.5588,463.0823 Q250.9653,462.8125 250.3344,462.8125 Q248.9897,462.8125 248.3049,463.8792 Q247.6201,464.9458 247.6201,467.0459 Q247.6201,469.1377 248.3049,470.2044 Q248.9897,471.271 250.3344,471.271 Q250.9653,471.271 251.5588,471.0012 Q252.1523,470.7315 252.7831,470.1504 Z " fill="#000000"/><text fill="#000000" font-family="sans-serif" font-size="14" lengthAdjust="spacing" textLength="92.0732" x="264.31" y="472.021">DoubleRound</text><line style="stroke:#181818;stroke-width:0.5;" x1="236.31" x2="358.3832" y1="482.73" y2="482.73"/><line style="stroke:#181818;stroke-width:0.5;" x1="236.31" x2="358.3832" y1="490.73" y2="490.73"/></g><!--class Suit--><g class="entity" data-entity="Suit" data-source-line="41" data-uid="ent0012" id="entity_Suit"><rect fill="#F1F1F1" height="122.5742" rx="2.5" ry="2.5" style="stroke:#181818;stroke-width:0.5;" width="80.5713" x="425.06" y="413.44"/><ellipse cx="443.3062" cy="433.7505" fill="#EB937F" rx="11" ry="11" style="stroke:#181818;stroke-width:1;"/><path d="M446.9205,440.2505 L439.2008,440.2505 L439.2008,427.8575 L446.9205,427.8575 L446.9205,430.0157 L441.6495,430.0157 L441.6495,432.6885 L446.4225,432.6885 L446.4225,434.8467 L441.6495,434.8467 L441.6495,438.0923 L446.9205,438.0923 Z " fill="#000000"/><text fill="#000000" font-family="sans-serif" font-size="12" font-style="italic" lengthAdjust="spacing" textLength="45.3574" x="456.0276" y="430.0416">&#171;enum&#187;</text><text fill="#000000" font-family="sans-serif" font-size="14" lengthAdjust="spacing" textLength="25.5117" x="465.9505" y="446.108">Suit</text><line style="stroke:#181818;stroke-width:0.5;" x1="426.06" x2="504.6313" y1="454.0611" y2="454.0611"/><text fill="#000000" font-family="sans-serif" font-size="14" lengthAdjust="spacing" textLength="68.5713" x="431.06" y="471.5963">Diamonds</text><text fill="#000000" font-family="sans-serif" font-size="14" lengthAdjust="spacing" textLength="43.9209" x="431.06" y="488.0845">Hearts</text><text fill="#000000" font-family="sans-serif" font-size="14" lengthAdjust="spacing" textLength="47.8311" x="431.06" y="504.5728">Spades</text><text fill="#000000" font-family="sans-serif" font-size="14" lengthAdjust="spacing" textLength="38.3701" x="431.06" y="521.0611">Clubs</text><line style="stroke:#181818;stroke-width:0.5;" x1="426.06" x2="504.6313" y1="528.0142" y2="528.0142"/></g><!--class Compare--><g class="entity" data-entity="Compare" data-source-line="48" data-uid="ent0013" id="entity_Compare"><rect fill="#F1F1F1" height="106.0859" rx="2.5" ry="2.5" style="stroke:#181818;stroke-width:0.5;" width="93.4277" x="540.63" y="421.68"/><ellipse cx="555.63" cy="441.9905" fill="#EB937F" rx="11" ry="11" style="stroke:#181818;stroke-width:1;"/><path d="M559.2443,448.4905 L551.5245,448.4905 L551.5245,436.0975 L559.2443,436.0975 L559.2443,438.2557 L553.9733,438.2557 L553.9733,440.9285 L558.7462,440.9285 L558.7462,443.0867 L553.9733,443.0867 L553.9733,446.3323 L559.2443,446.3323 Z " fill="#000000"/><text fill="#000000" font-family="sans-serif" font-size="12" font-style="italic" lengthAdjust="spacing" textLength="45.3574" x="577.6652" y="438.2816">&#171;enum&#187;</text><text fill="#000000" font-family="sans-serif" font-size="14" lengthAdjust="spacing" textLength="61.4277" x="569.63" y="454.348">Compare</text><line style="stroke:#181818;stroke-width:0.5;" x1="541.63" x2="633.0577" y1="462.3011" y2="462.3011"/><text fill="#000000" font-family="sans-serif" font-size="14" lengthAdjust="spacing" textLength="40.3799" x="546.63" y="479.8363">Lower</text><text fill="#000000" font-family="sans-serif" font-size="14" lengthAdjust="spacing" textLength="45.2813" x="546.63" y="496.3245">Higher</text><text fill="#000000" font-family="sans-serif" font-size="14" lengthAdjust="spacing" textLength="36.8662" x="546.63" y="512.8128">Equal</text><line style="stroke:#181818;stroke-width:0.5;" x1="541.63" x2="633.0577" y1="519.7659" y2="519.7659"/></g><!--class SoloType--><g class="entity" data-entity="SoloType" data-source-line="54" data-uid="ent0014" id="entity_SoloType"><rect fill="#F1F1F1" height="106.0859" rx="2.5" ry="2.5" style="stroke:#181818;stroke-width:0.5;" width="93.5645" x="174.56" y="596.01"/><ellipse cx="189.56" cy="616.3205" fill="#EB937F" rx="11" ry="11" style="stroke:#181818;stroke-width:1;"/><path d="M193.1743,622.8205 L185.4545,622.8205 L185.4545,610.4275 L193.1743,610.4275 L193.1743,612.5857 L187.9033,612.5857 L187.9033,615.2585 L192.6762,615.2585 L192.6762,617.4167 L187.9033,617.4167 L187.9033,620.6623 L193.1743,620.6623 Z " fill="#000000"/><text fill="#000000" font-family="sans-serif" font-size="12" font-style="italic" lengthAdjust="spacing" textLength="45.3574" x="211.6635" y="612.6116">&#171;enum&#187;</text><text fill="#000000" font-family="sans-serif" font-size="14" lengthAdjust="spacing" textLength="61.5645" x="203.56" y="628.678">SoloType</text><line style="stroke:#181818;stroke-width:0.5;" x1="175.56" x2="267.1245" y1="636.6311" y2="636.6311"/><text fill="#000000" font-family="sans-serif" font-size="14" lengthAdjust="spacing" textLength="45.1514" x="180.56" y="654.1663">Trump</text><text fill="#000000" font-family="sans-serif" font-size="14" lengthAdjust="spacing" textLength="34.5762" x="180.56" y="670.6545">Jacks</text><text fill="#000000" font-family="sans-serif" font-size="14" lengthAdjust="spacing" textLength="50.9893" x="180.56" y="687.1428">Queens</text><line style="stroke:#181818;stroke-width:0.5;" x1="175.56" x2="267.1245" y1="694.0959" y2="694.0959"/></g><!--link Game to Scoreboard--><g class="link" data-entity-1="Game" data-entity-2="Scoreboard" data-source-line="60" data-uid="lnk15" id="link_Game_Scoreboard"><path codeLine="60" d="M344.34,71.79 C344.34,90.07 344.34,107.02 344.34,125.29" fill="none" id="Game-to-Scoreboard" style="stroke:#181818;stroke-width:1;"/><polygon fill="#181818" points="344.34,131.29,348.34,122.29,344.34,126.29,340.34,122.29,344.34,131.29" style="stroke:#181818;stroke-width:1;"/><text fill="#000000" font-family="sans-serif" font-size="13" lengthAdjust="spacing" textLength="8.2202" x="335.5376" y="120.6519">1</text></g><!--link Game to Deck--><g class="link" data-entity-1="Game" data-entity-2="Deck" data-source-line="61" data-uid="lnk16" id="link_Game_Deck"><path codeLine="61" d="M380.18,71.15 C402.69,90.57 426.9671,111.5106 448.8971,130.4306" fill="none" id="Game-to-Deck" style="stroke:#181818;stroke-width:1;"/><polygon fill="#181818" points="453.44,134.35,449.2385,125.4423,449.6542,131.0838,444.0127,131.4995,453.44,134.35" style="stroke:#181818;stroke-width:1;"/><text fill="#000000" font-family="sans-serif" font-size="13" lengthAdjust="spacing" textLength="8.2202" x="437.3922" y="123.8839">1</text></g><!--link Game to Player--><g class="link" data-entity-1="Game" data-entity-2="Player" data-source-line="62" data-uid="lnk17" id="link_Game_Player"><path codeLine="62" d="M312.15,71.79 C293.49,90.07 274.3561,108.8212 255.7061,127.0912" fill="none" id="Game-to-Player" style="stroke:#181818;stroke-width:1;"/><polygon fill="#181818" points="251.42,131.29,260.6483,127.8493,254.9917,127.791,255.05,122.1345,251.42,131.29" style="stroke:#181818;stroke-width:1;"/><text fill="#000000" font-family="sans-serif" font-size="13" lengthAdjust="spacing" textLength="8.2202" x="249.2343" y="120.6519">4</text></g><!--link Deck to Card--><g class="link" data-entity-1="Deck" data-entity-2="Card" data-source-line="64" data-uid="lnk18" id="link_Deck_Card"><path codeLine="64" d="M488.61,196.27 C489.87,213.81 491.0375,230.0156 492.4575,249.6656" fill="none" id="Deck-to-Card" style="stroke:#181818;stroke-width:1;"/><polygon fill="#181818" points="492.89,255.65,496.2309,246.3851,492.5296,250.663,488.2517,246.9617,492.89,255.65" style="stroke:#181818;stroke-width:1;"/><text fill="#000000" font-family="sans-serif" font-size="13" lengthAdjust="spacing" textLength="32.8872" x="458.2163" y="245.2875">0..48</text></g><!--link Scoreboard to Round--><g class="link" data-entity-1="Scoreboard" data-entity-2="Round" data-source-line="66" data-uid="lnk19" id="link_Scoreboard_Round"><path codeLine="66" d="M342.07,196.27 C340.63,216.29 339.1922,236.3856 337.6422,257.8456" fill="none" id="Scoreboard-to-Round" style="stroke:#181818;stroke-width:1;"/><polygon fill="#181818" points="337.21,263.83,341.848,255.1415,337.5702,258.843,333.8688,254.5652,337.21,263.83" style="stroke:#181818;stroke-width:1;"/><text fill="#000000" font-family="sans-serif" font-size="13" lengthAdjust="spacing" textLength="6.2651" x="331.2104" y="253.4114">*</text></g><!--link Player to Round--><g class="link" data-entity-1="Player" data-entity-2="Round" data-source-line="68" data-uid="lnk20" id="link_Player_Round"><path codeLine="68" d="M245.44,196.27 C262.01,216.29 279.7659,237.7466 297.5159,259.2066" fill="none" id="Player-to-Round" style="stroke:#181818;stroke-width:1;"/><polygon fill="#181818" points="301.34,263.83,298.6861,254.3454,298.1532,259.9771,292.5215,259.4443,301.34,263.83" style="stroke:#181818;stroke-width:1;"/><text fill="#000000" font-family="sans-serif" font-size="13" lengthAdjust="spacing" textLength="24.667" x="269.942" y="253.4114">1..3</text></g><!--link Player to RoundType--><g class="link" data-entity-1="Player" data-entity-2="RoundType" data-source-line="69" data-uid="lnk21" id="link_Player_RoundType"><path codeLine="69" d="M216.39,196.27 C214.27,219.01 211.97,243.6062 209.84,266.3262" fill="none" id="Player-to-RoundType" style="stroke:#181818;stroke-width:1;"/><polygon fill="#181818" points="209.28,272.3,214.1026,263.7127,209.7467,267.3218,206.1375,262.9659,209.28,272.3" style="stroke:#181818;stroke-width:1;"/><text fill="#000000" font-family="sans-serif" font-size="13" lengthAdjust="spacing" textLength="24.667" x="183.4803" y="261.6702">1..2</text></g><!--reverse link RoundType to SoloRound--><g class="link" data-entity-1="RoundType" data-entity-2="SoloRound" data-source-line="71" data-uid="lnk22" id="link_RoundType_SoloRound"><path codeLine="71" d="M189.2856,354.2931 C178.7356,384.3331 168.92,412.27 158.39,442.27" fill="none" id="RoundType-backto-SoloRound" style="stroke:#181818;stroke-width:1;"/><polygon fill="none" points="195.25,337.31,183.6245,352.3049,194.9466,356.2812,195.25,337.31" style="stroke:#181818;stroke-width:1;"/></g><!--reverse link RoundType to DoubleRound--><g class="link" data-entity-1="RoundType" data-entity-2="DoubleRound" data-source-line="72" data-uid="lnk23" id="link_RoundType_DoubleRound"><path codeLine="72" d="M232.0311,353.1383 C249.8411,386.0283 268.75,420.94 284.7,450.38" fill="none" id="RoundType-backto-DoubleRound" style="stroke:#181818;stroke-width:1;"/><polygon fill="none" points="223.46,337.31,226.755,355.9954,237.3072,350.2813,223.46,337.31" style="stroke:#181818;stroke-width:1;"/></g><!--reverse link SoloRound to MandatorySolo--><g class="link" data-entity-1="SoloRound" data-entity-2="MandatorySolo" data-source-line="73" data-uid="lnk24" id="link_SoloRound_MandatorySolo"><path codeLine="73" d="M126.67,523.8706 C112.11,557.7906 96.42,594.31 83.39,624.66" fill="none" id="SoloRound-backto-MandatorySolo" style="stroke:#181818;stroke-width:1;"/><polygon fill="none" points="133.77,507.33,121.1565,521.5039,132.1836,526.2372,133.77,507.33" style="stroke:#181818;stroke-width:1;"/></g><!--link Card to Suit--><g class="link" data-entity-1="Card" data-entity-2="Suit" data-source-line="75" data-uid="lnk25" id="link_Card_Suit"><path codeLine="75" d="M487.46,353.86 C484.06,372.28 481.2291,387.6397 477.6391,407.0897" fill="none" id="Card-to-Suit" style="stroke:#181818;stroke-width:1;"/><polygon fill="#181818" points="476.55,412.99,482.1171,404.8655,477.4575,408.0731,474.25,403.4135,476.55,412.99" style="stroke:#181818;stroke-width:1;"/></g><!--link Card to Compare--><g class="link" data-entity-1="Card" data-entity-2="Compare" data-source-line="76" data-uid="lnk26" id="link_Card_Compare"><path codeLine="76" d="M522.42,353.86 C533.87,374.99 544.4832,394.5838 556.1732,416.1738" fill="none" id="Card-to-Compare" style="stroke:#181818;stroke-width:1;"/><polygon fill="#181818" points="559.03,421.45,558.2622,411.6311,556.6493,417.0531,551.2273,415.4402,559.03,421.45" style="stroke:#181818;stroke-width:1;"/></g><!--link SoloRound to SoloType--><g class="link" data-entity-1="SoloRound" data-entity-2="SoloType" data-source-line="77" data-uid="lnk27" id="link_SoloRound_SoloType"><path codeLine="77" d="M160.92,507.33 C171.51,532.02 184.1026,561.3268 196.4826,590.1568" fill="none" id="SoloRound-to-SoloType" style="stroke:#181818;stroke-width:1;"/><polygon fill="#181818" points="198.85,595.67,198.9743,585.8219,196.8771,591.0757,191.6234,588.9785,198.85,595.67" style="stroke:#181818;stroke-width:1;"/></g><!--SRC=[RLBBJiGm3BpxAwAS0AaLZprmgFRIHJm44j3z0JUDeDgsAKaZj0B-dSPz9Atsaamy7iVnH5He3Bl7Mh8VOAniElQuWpy0GSHhXKUfJr8xAGudYHHr4HACPRRicEcN7gUgRb5B9eRzp6MVUt4cb9QvMfMOwNTbcrLn1rhLhyQbOMuwZQ9ZGVx-s9v-NQOgvIkw4wMQ7lYa5smAx9G-Edv-lB9v9GSjW6niFJmoIHpURgdWhiHQDONfuOD4tJcGjLX81zBAvjGnYQUfBFJFwbjg9ou_FWdSVLciPitSxqAqrxPk-_q9nS7TysQbREWYCZcAjenVyM3EoxXpDOXi-FW50CXl2bx6yUQMayy0WM54Nl1Xw03Ztnagn_7DHApYrzox1E0DItwZo3kq9W83mDj8rCgmT6hD6UHFuyG3CUMCC_q7]--></g></svg>