<svg xmlns="http://www.w3.org/2000/svg" xmlns:xlink="http://www.w3.org/1999/xlink" contentStyleType="text/css" data-diagram-type="CLASS" height="651px" preserveAspectRatio="none" style="width:555px;height:651px;background:#FFFFFF;" version="1.1" viewBox="0 0 555 651" width="555px" zoomAndPan="magnify"><defs/><g><!--class Order--><g class="entity" data-entity="Order" data-source-line="2" data-uid="ent0002" id="entity_Order"><rect fill="#F1F1F1" height="113.9531" rx="2.5" ry="2.5" style="stroke:#181818;stroke-width:0.5;" width="133.4063" x="120.96" y="530.4"/><ellipse cx="164.0679" cy="546.4" fill="#ADD1B2" rx="11" ry="11" style="stroke:#181818;stroke-width:1;"/><path d="M166.541,552.5431 Q165.96,552.8419 165.3208,552.9913 Q164.6816,553.1407 163.9761,553.1407 Q161.4692,553.1407 160.1494,551.4889 Q158.8296,549.837 158.8296,546.7159 Q158.8296,543.5865 160.1494,541.9347 Q161.4692,540.2828 163.9761,540.2828 Q164.6816,540.2828 165.3291,540.4322 Q165.9766,540.5816 166.541,540.8805 L166.541,543.6031 Q165.9101,543.0221 165.3166,542.7523 Q164.7231,542.4825 164.0923,542.4825 Q162.7475,542.4825 162.0627,543.5492 Q161.3779,544.6158 161.3779,546.7159 Q161.3779,548.8077 162.0627,549.8744 Q162.7475,550.941 164.0923,550.941 Q164.7231,550.941 165.3166,550.6712 Q165.9101,550.4015 166.541,549.8204 Z " fill="#000000"/><text fill="#000000" font-family="sans-serif" font-size="14" lengthAdjust="spacing" textLength="38.9443" x="184.3141" y="551.691">Order</text><line style="stroke:#181818;stroke-width:0.5;" x1="121.96" x2="253.3662" y1="562.4" y2="562.4"/><text fill="#000000" font-family="sans-serif" font-size="14" lengthAdjust="spacing" textLength="115.7734" x="126.96" y="579.9352">Int OrderNumber</text><text fill="#000000" font-family="sans-serif" font-size="14" lengthAdjust="spacing" textLength="119.1504" x="126.96" y="596.4234">Int OrderQuantity</text><text fill="#000000" font-family="sans-serif" font-size="14" lengthAdjust="spacing" textLength="105.8818" x="126.96" y="612.9117">Date OrderDate</text><text fill="#000000" font-family="sans-serif" font-size="14" lengthAdjust="spacing" textLength="121.4063" x="126.96" y="629.4">Date DeliveryDate</text><line style="stroke:#181818;stroke-width:0.5;" x1="121.96" x2="253.3662" y1="636.3531" y2="636.3531"/></g><!--class Category--><g class="entity" data-entity="Category" data-source-line="9" data-uid="ent0003" id="entity_Category"><rect fill="#F1F1F1" height="64.4883" rx="2.5" ry="2.5" style="stroke:#181818;stroke-width:0.5;" width="95.3438" x="288.99" y="7"/><ellipse cx="305.1229" cy="23" fill="#ADD1B2" rx="11" ry="11" style="stroke:#181818;stroke-width:1;"/><path d="M307.5961,29.1431 Q307.015,29.4419 306.3758,29.5913 Q305.7367,29.7407 305.0311,29.7407 Q302.5243,29.7407 301.2045,28.0889 Q299.8846,26.437 299.8846,23.3159 Q299.8846,20.1865 301.2045,18.5347 Q302.5243,16.8828 305.0311,16.8828 Q305.7367,16.8828 306.3841,17.0322 Q307.0316,17.1816 307.5961,17.4805 L307.5961,20.2031 Q306.9652,19.6221 306.3717,19.3523 Q305.7782,19.0825 305.1473,19.0825 Q303.8026,19.0825 303.1178,20.1492 Q302.433,21.2158 302.433,23.3159 Q302.433,25.4077 303.1178,26.4744 Q303.8026,27.541 305.1473,27.541 Q305.7782,27.541 306.3717,27.2712 Q306.9652,27.0015 307.5961,26.4204 Z " fill="#000000"/><text fill="#000000" font-family="sans-serif" font-size="14" lengthAdjust="spacing" textLength="60.8262" x="319.3747" y="28.291">Category</text><line style="stroke:#181818;stroke-width:0.5;" x1="289.99" x2="383.3338" y1="39" y2="39"/><text fill="#000000" font-family="sans-serif" font-size="14" lengthAdjust="spacing" textLength="83.3438" x="294.99" y="56.5352">String Name</text><line style="stroke:#181818;stroke-width:0.5;" x1="289.99" x2="383.3338" y1="63.4883" y2="63.4883"/></g><!--class Product--><g class="entity" data-entity="Product" data-source-line="13" data-uid="ent0004" id="entity_Product"><rect fill="#F1F1F1" height="97.4648" rx="2.5" ry="2.5" style="stroke:#181818;stroke-width:0.5;" width="134.1514" x="289.59" y="148.49"/><ellipse cx="327.17" cy="164.49" fill="#ADD1B2" rx="11" ry="11" style="stroke:#181818;stroke-width:1;"/><path d="M329.6431,170.6331 Q329.0621,170.9319 328.4229,171.0813 Q327.7838,171.2307 327.0782,171.2307 Q324.5713,171.2307 323.2515,169.5789 Q321.9317,167.927 321.9317,164.8059 Q321.9317,161.6765 323.2515,160.0247 Q324.5713,158.3728 327.0782,158.3728 Q327.7838,158.3728 328.4312,158.5222 Q329.0787,158.6716 329.6431,158.9705 L329.6431,161.6931 Q329.0123,161.1121 328.4188,160.8423 Q327.8253,160.5725 327.1944,160.5725 Q325.8497,160.5725 325.1649,161.6392 Q324.48,162.7058 324.48,164.8059 Q324.48,166.8977 325.1649,167.9644 Q325.8497,169.031 327.1944,169.031 Q327.8253,169.031 328.4188,168.7612 Q329.0123,168.4915 329.6431,167.9104 Z " fill="#000000"/><text fill="#000000" font-family="sans-serif" font-size="14" lengthAdjust="spacing" textLength="51.9736" x="346.1878" y="169.781">Product</text><line style="stroke:#181818;stroke-width:0.5;" x1="290.59" x2="422.7414" y1="180.49" y2="180.49"/><text fill="#000000" font-family="sans-serif" font-size="14" lengthAdjust="spacing" textLength="83.3438" x="295.59" y="198.0252">String Name</text><text fill="#000000" font-family="sans-serif" font-size="14" lengthAdjust="spacing" textLength="122.1514" x="295.59" y="214.5134">String Description</text><text fill="#000000" font-family="sans-serif" font-size="14" lengthAdjust="spacing" textLength="108.7256" x="295.59" y="231.0017">Double NetPrice</text><line style="stroke:#181818;stroke-width:0.5;" x1="290.59" x2="422.7414" y1="237.9548" y2="237.9548"/></g><!--class Representative--><g class="entity" data-entity="Representative" data-source-line="19" data-uid="ent0005" id="entity_Representative"><rect fill="#F1F1F1" height="130.4414" rx="2.5" ry="2.5" style="stroke:#181818;stroke-width:0.5;" width="152.3555" x="111.49" y="322.96"/><ellipse cx="135.6886" cy="338.96" fill="#ADD1B2" rx="11" ry="11" style="stroke:#181818;stroke-width:1;"/><path d="M138.1618,345.1031 Q137.5807,345.4019 136.9416,345.5513 Q136.3024,345.7007 135.5968,345.7007 Q133.09,345.7007 131.7702,344.0489 Q130.4504,342.397 130.4504,339.2759 Q130.4504,336.1465 131.7702,334.4947 Q133.09,332.8428 135.5968,332.8428 Q136.3024,332.8428 136.9499,332.9922 Q137.5973,333.1416 138.1618,333.4405 L138.1618,336.1631 Q137.5309,335.5821 136.9374,335.3123 Q136.3439,335.0425 135.713,335.0425 Q134.3683,335.0425 133.6835,336.1092 Q132.9987,337.1758 132.9987,339.2759 Q132.9987,341.3677 133.6835,342.4344 Q134.3683,343.501 135.713,343.501 Q136.3439,343.501 136.9374,343.2312 Q137.5309,342.9615 138.1618,342.3804 Z " fill="#000000"/><text fill="#000000" font-family="sans-serif" font-size="14" lengthAdjust="spacing" textLength="99.9141" x="151.7328" y="344.251">Representative</text><line style="stroke:#181818;stroke-width:0.5;" x1="112.49" x2="262.8455" y1="354.96" y2="354.96"/><text fill="#000000" font-family="sans-serif" font-size="14" lengthAdjust="spacing" textLength="112.998" x="117.49" y="372.4952">String FirstName</text><text fill="#000000" font-family="sans-serif" font-size="14" lengthAdjust="spacing" textLength="110.9131" x="117.49" y="388.9834">String LastName</text><text fill="#000000" font-family="sans-serif" font-size="14" lengthAdjust="spacing" textLength="45.7529" x="117.49" y="405.4717">Int Ssn</text><text fill="#000000" font-family="sans-serif" font-size="14" lengthAdjust="spacing" textLength="140.3555" x="117.49" y="421.96">String PhoneNumber</text><text fill="#000000" font-family="sans-serif" font-size="14" lengthAdjust="spacing" textLength="80.8828" x="117.49" y="438.4483">String Email</text><line style="stroke:#181818;stroke-width:0.5;" x1="112.49" x2="262.8455" y1="445.4014" y2="445.4014"/></g><!--class Manufacturer--><g class="entity" data-entity="Manufacturer" data-source-line="27" data-uid="ent0006" id="entity_Manufacturer"><rect fill="#F1F1F1" height="64.4883" rx="2.5" ry="2.5" style="stroke:#181818;stroke-width:0.5;" width="122.3984" x="419.47" y="7"/><ellipse cx="434.47" cy="23" fill="#ADD1B2" rx="11" ry="11" style="stroke:#181818;stroke-width:1;"/><path d="M436.9431,29.1431 Q436.3621,29.4419 435.7229,29.5913 Q435.0838,29.7407 434.3782,29.7407 Q431.8714,29.7407 430.5515,28.0889 Q429.2317,26.437 429.2317,23.3159 Q429.2317,20.1865 430.5515,18.5347 Q431.8714,16.8828 434.3782,16.8828 Q435.0838,16.8828 435.7312,17.0322 Q436.3787,17.1816 436.9431,17.4805 L436.9431,20.2031 Q436.3123,19.6221 435.7188,19.3523 Q435.1253,19.0825 434.4944,19.0825 Q433.1497,19.0825 432.4649,20.1492 Q431.7801,21.2158 431.7801,23.3159 Q431.7801,25.4077 432.4649,26.4744 Q433.1497,27.541 434.4944,27.541 Q435.1253,27.541 435.7188,27.2712 Q436.3123,27.0015 436.9431,26.4204 Z " fill="#000000"/><text fill="#000000" font-family="sans-serif" font-size="14" lengthAdjust="spacing" textLength="90.3984" x="448.47" y="28.291">Manufacturer</text><line style="stroke:#181818;stroke-width:0.5;" x1="420.47" x2="540.8684" y1="39" y2="39"/><text fill="#000000" font-family="sans-serif" font-size="14" lengthAdjust="spacing" textLength="83.3438" x="425.47" y="56.5352">String Name</text><line style="stroke:#181818;stroke-width:0.5;" x1="420.47" x2="540.8684" y1="63.4883" y2="63.4883"/></g><!--class Country--><g class="entity" data-entity="Country" data-source-line="31" data-uid="ent0007" id="entity_Country"><rect fill="#F1F1F1" height="113.9531" rx="2.5" ry="2.5" style="stroke:#181818;stroke-width:0.5;" width="155.3906" x="392.97" y="331.2"/><ellipse cx="439.4441" cy="347.2" fill="#ADD1B2" rx="11" ry="11" style="stroke:#181818;stroke-width:1;"/><path d="M441.9173,353.3431 Q441.3362,353.6419 440.6971,353.7913 Q440.0579,353.9407 439.3523,353.9407 Q436.8455,353.9407 435.5257,352.2889 Q434.2058,350.637 434.2058,347.5159 Q434.2058,344.3865 435.5257,342.7347 Q436.8455,341.0828 439.3523,341.0828 Q440.0579,341.0828 440.7054,341.2322 Q441.3528,341.3816 441.9173,341.6805 L441.9173,344.4031 Q441.2864,343.8221 440.6929,343.5523 Q440.0994,343.2825 439.4685,343.2825 Q438.1238,343.2825 437.439,344.3492 Q436.7542,345.4158 436.7542,347.5159 Q436.7542,349.6077 437.439,350.6744 Q438.1238,351.741 439.4685,351.741 Q440.0994,351.741 440.6929,351.4712 Q441.2864,351.2015 441.9173,350.6204 Z " fill="#000000"/><text fill="#000000" font-family="sans-serif" font-size="14" lengthAdjust="spacing" textLength="53.9424" x="459.9441" y="352.491">Country</text><line style="stroke:#181818;stroke-width:0.5;" x1="393.97" x2="547.3606" y1="363.2" y2="363.2"/><text fill="#000000" font-family="sans-serif" font-size="14" lengthAdjust="spacing" textLength="83.3438" x="398.97" y="380.7352">String Name</text><text fill="#000000" font-family="sans-serif" font-size="14" lengthAdjust="spacing" textLength="80.5273" x="398.97" y="397.2234">Double VAT</text><text fill="#000000" font-family="sans-serif" font-size="14" lengthAdjust="spacing" textLength="105.2051" x="398.97" y="413.7117">String Currency</text><text fill="#000000" font-family="sans-serif" font-size="14" lengthAdjust="spacing" textLength="143.3906" x="398.97" y="430.2">Float ConversionRate</text><line style="stroke:#181818;stroke-width:0.5;" x1="393.97" x2="547.3606" y1="437.1531" y2="437.1531"/></g><!--class Customer--><g class="entity" data-entity="Customer" data-source-line="38" data-uid="ent0008" id="entity_Customer"><rect fill="#F1F1F1" height="113.9531" rx="2.5" ry="2.5" style="stroke:#181818;stroke-width:0.5;" width="152.3555" x="362.49" y="530.4"/><ellipse cx="401.9741" cy="546.4" fill="#ADD1B2" rx="11" ry="11" style="stroke:#181818;stroke-width:1;"/><path d="M404.4473,552.5431 Q403.8662,552.8419 403.2271,552.9913 Q402.5879,553.1407 401.8823,553.1407 Q399.3755,553.1407 398.0557,551.4889 Q396.7358,549.837 396.7358,546.7159 Q396.7358,543.5865 398.0557,541.9347 Q399.3755,540.2828 401.8823,540.2828 Q402.5879,540.2828 403.2354,540.4322 Q403.8828,540.5816 404.4473,540.8805 L404.4473,543.6031 Q403.8164,543.0221 403.2229,542.7523 Q402.6294,542.4825 401.9985,542.4825 Q400.6538,542.4825 399.969,543.5492 Q399.2842,544.6158 399.2842,546.7159 Q399.2842,548.8077 399.969,549.8744 Q400.6538,550.941 401.9985,550.941 Q402.6294,550.941 403.2229,550.6712 Q403.8164,550.4015 404.4473,549.8204 Z " fill="#000000"/><text fill="#000000" font-family="sans-serif" font-size="14" lengthAdjust="spacing" textLength="65.9463" x="421.415" y="551.691">Customer</text><line style="stroke:#181818;stroke-width:0.5;" x1="363.49" x2="513.8455" y1="562.4" y2="562.4"/><text fill="#000000" font-family="sans-serif" font-size="14" lengthAdjust="spacing" textLength="83.3438" x="368.49" y="579.9352">String Name</text><text fill="#000000" font-family="sans-serif" font-size="14" lengthAdjust="spacing" textLength="99.4834" x="368.49" y="596.4234">String Address</text><text fill="#000000" font-family="sans-serif" font-size="14" lengthAdjust="spacing" textLength="140.3555" x="368.49" y="612.9117">String PhoneNumber</text><text fill="#000000" font-family="sans-serif" font-size="14" lengthAdjust="spacing" textLength="80.8828" x="368.49" y="629.4">String Email</text><line style="stroke:#181818;stroke-width:0.5;" x1="363.49" x2="513.8455" y1="636.3531" y2="636.3531"/></g><ellipse cx="470.67" cy="197.22" fill="#181818" rx="2" ry="2" style="stroke:#181818;stroke-width:1;"/><!--link Product to Order--><g class="link" data-entity-1="Product" data-entity-2="Order" data-source-line="46" data-uid="lnk9" id="link_Product_Order"><path codeLine="46" d="M289.33,203.17 C213.85,212.73 94.71,240.77 38.67,322.96 C6,370.85 14.97,400.49 38.67,453.4 C55.67,491.37 89.47,522.96 120.59,545.81" fill="none" id="Product-Order" style="stroke:#181818;stroke-width:1;"/><text fill="#000000" font-family="sans-serif" font-size="13" lengthAdjust="spacing" textLength="53.2061" x="39.67" y="393.2484">contains</text><text fill="#000000" font-family="sans-serif" font-size="13" lengthAdjust="spacing" textLength="8.2202" x="273.5397" y="200.5855">1</text><text fill="#000000" font-family="sans-serif" font-size="13" lengthAdjust="spacing" textLength="6.2651" x="106.5031" y="537.723">*</text></g><!--link Category to Product--><g class="link" data-entity-1="Category" data-entity-2="Product" data-source-line="47" data-uid="lnk10" id="link_Category_Product"><path codeLine="47" d="M340.71,71.81 C343.52,93.71 347.31,123.28 350.5,148.11" fill="none" id="Category-Product" style="stroke:#181818;stroke-width:1;"/><text fill="#000000" font-family="sans-serif" font-size="13" lengthAdjust="spacing" textLength="66.1743" x="347.67" y="115.0584">belongsTo</text><text fill="#000000" font-family="sans-serif" font-size="13" lengthAdjust="spacing" textLength="8.2202" x="332.7402" y="92.0455">1</text><text fill="#000000" font-family="sans-serif" font-size="13" lengthAdjust="spacing" textLength="6.2651" x="343.2297" y="137.7391">*</text></g><!--link Representative to Order--><g class="link" data-entity-1="Representative" data-entity-2="Order" data-source-line="48" data-uid="lnk11" id="link_Representative_Order"><path codeLine="48" d="M187.67,453.75 C187.67,478.35 187.67,506.17 187.67,529.95" fill="none" id="Representative-Order" style="stroke:#181818;stroke-width:1;"/><text fill="#000000" font-family="sans-serif" font-size="13" lengthAdjust="spacing" textLength="55.4722" x="188.67" y="496.9684">placedBy</text><text fill="#000000" font-family="sans-serif" font-size="13" lengthAdjust="spacing" textLength="8.2202" x="179.2691" y="473.8696">1</text><text fill="#000000" font-family="sans-serif" font-size="13" lengthAdjust="spacing" textLength="6.2651" x="181.3214" y="519.6244">*</text></g><!--link Manufacturer to apoint13--><g class="link" data-entity-1="Manufacturer" data-entity-2="apoint13" data-source-line="50" data-uid="lnk15" id="link_Manufacturer_apoint13"><path d="M478.64,71.81 C475.95,113.83 471.44,184.11 470.75,194.83" fill="none" id="Manufacturer-apoint13" style="stroke:#181818;stroke-width:1;"/><text fill="#000000" font-family="sans-serif" font-size="13" lengthAdjust="spacing" textLength="6.2651" x="471.7066" y="92.0455">*</text></g><!--link apoint13 to Country--><g class="link" data-entity-1="apoint13" data-entity-2="Country" data-source-line="50" data-uid="lnk16" id="link_apoint13_Country"><path d="M470.67,199.43 C470.67,209.42 470.67,279.43 470.67,331.04" fill="none" id="apoint13-Country" style="stroke:#181818;stroke-width:1;"/><text fill="#000000" font-family="sans-serif" font-size="13" lengthAdjust="spacing" textLength="6.2651" x="464.3032" y="320.3467">*</text></g><!--link Product to apoint13--><g class="link" data-entity-1="Product" data-entity-2="apoint13" data-source-line="50" data-uid="lnk17" id="link_Product_apoint13"><path d="M423.91,197.22 C438.76,197.22 453.62,197.22 468.47,197.22" fill="none" id="Product-apoint13" style="stroke:#181818;stroke-width:1;stroke-dasharray:7,7;"/></g><!--link Product to Country--><g class="link" data-entity-1="Product" data-entity-2="Country" data-source-line="51" data-uid="lnk18" id="link_Product_Country"><path codeLine="51" d="M385.73,246.39 C401.23,272.09 420.39,303.85 436.59,330.71" fill="none" id="Product-Country" style="stroke:#181818;stroke-width:1;"/><text fill="#000000" font-family="sans-serif" font-size="13" lengthAdjust="spacing" textLength="38.3652" x="414.67" y="289.5284">soldIn</text><text fill="#000000" font-family="sans-serif" font-size="13" lengthAdjust="spacing" textLength="6.2651" x="383.2502" y="266.5939">*</text><text fill="#000000" font-family="sans-serif" font-size="13" lengthAdjust="spacing" textLength="6.2651" x="426.0876" y="320.3795">*</text></g><!--link Representative to Country--><g class="link" data-entity-1="Representative" data-entity-2="Country" data-source-line="52" data-uid="lnk19" id="link_Representative_Country"><path codeLine="52" d="M264.25,388.18 C304.03,388.18 352.54,388.18 392.54,388.18" fill="none" id="Representative-Country" style="stroke:#181818;stroke-width:1;"/><text fill="#000000" font-family="sans-serif" font-size="13" lengthAdjust="spacing" textLength="93.2661" x="281.91" y="381.7484">responsibleFor</text><text fill="#000000" font-family="sans-serif" font-size="13" lengthAdjust="spacing" textLength="6.2651" x="271.8478" y="385.0482">*</text><text fill="#000000" font-family="sans-serif" font-size="13" lengthAdjust="spacing" textLength="8.2202" x="376.7229" y="385.0486">1</text></g><!--link Order to Customer--><g class="link" data-entity-1="Order" data-entity-2="Customer" data-source-line="53" data-uid="lnk20" id="link_Order_Customer"><path codeLine="53" d="M254.6,587.37 C287.71,587.37 327.83,587.37 362.16,587.37" fill="none" id="Order-Customer" style="stroke:#181818;stroke-width:1;"/><text fill="#000000" font-family="sans-serif" font-size="13" lengthAdjust="spacing" textLength="40.6758" x="288.43" y="580.9384">orders</text><text fill="#000000" font-family="sans-serif" font-size="13" lengthAdjust="spacing" textLength="6.2651" x="262.2638" y="584.1343">*</text><text fill="#000000" font-family="sans-serif" font-size="13" lengthAdjust="spacing" textLength="8.2202" x="346.2459" y="584.2147">1</text></g><!--link Country to Customer--><g class="link" data-entity-1="Country" data-entity-2="Customer" data-source-line="54" data-uid="lnk21" id="link_Country_Customer"><path codeLine="54" d="M461.54,445.42 C457.23,471.95 452.11,503.52 447.8,530.05" fill="none" id="Country-Customer" style="stroke:#181818;stroke-width:1;"/><text fill="#000000" font-family="sans-serif" font-size="13" lengthAdjust="spacing" textLength="33.9473" x="455.67" y="496.9684">resell</text><text fill="#000000" font-family="sans-serif" font-size="13" lengthAdjust="spacing" textLength="6.2651" x="454.0784" y="465.8979">*</text><text fill="#000000" font-family="sans-serif" font-size="13" lengthAdjust="spacing" textLength="6.2651" x="442.5635" y="519.7365">*</text></g><!--SRC=[bLB1JiCm3BtdAwAU034ahhkDZKcJO8njufwbPaHAdSf9a2h4l-EkNPjklR1J_VpYz_myRPNtyero8FaZ9FzM69fw7Oi3q11xZmg32TK9NQW03Ln_zT02hFa6gaxehn3wf37dwkYeQcLsWGmUvLeL2MT3BeywZ52IUW5Uaoc3STXekdYm8DSGDcHqCcqB9O4732gmd-7GfI4VBYU_g0IhTzvvJFkRBuUGnDB2puKojfTzLHW_bGwHkan7bvsxY64qZsIhZza-RSyZ4Q1kybzQfmAFGGxRSnhROTxH1rUCMaZgMPvpHlu_MuhpbRB7R3B9xhBsxpELsd7M1hteRjrHsZTJUG3hyEZtJboSvsfQQPM6_AaIWq2PqT3Q-3et3_8c9Twt_TlUxiLBbl3EvYkySi94TfFmk5iwz8OlidGa6eSTxHpqLBgwmUkt3tl5db8BMIl47m00]--></g></svg>