<svg xmlns="http://www.w3.org/2000/svg" xmlns:xlink="http://www.w3.org/1999/xlink" contentStyleType="text/css" data-diagram-type="CLASS" height="872px" preserveAspectRatio="none" style="width:647px;height:872px;background:#FFFFFF;" version="1.1" viewBox="0 0 647 872" width="647px" zoomAndPan="magnify"><defs/><g><!--class Genre--><g class="entity" data-entity="Genre" data-source-line="2" data-uid="ent0002" id="entity_Genre"><rect fill="#F1F1F1" height="122.5742" rx="2.5" ry="2.5" style="stroke:#181818;stroke-width:0.5;" width="73.3574" x="567.03" y="7"/><ellipse cx="582.03" cy="27.3105" fill="#EB937F" rx="11" ry="11" style="stroke:#181818;stroke-width:1;"/><path d="M585.6443,33.8105 L577.9245,33.8105 L577.9245,21.4175 L585.6443,21.4175 L585.6443,23.5757 L580.3733,23.5757 L580.3733,26.2485 L585.1462,26.2485 L585.1462,28.4067 L580.3733,28.4067 L580.3733,31.6523 L585.6443,31.6523 Z " fill="#000000"/><text fill="#000000" font-family="sans-serif" font-size="12" font-style="italic" lengthAdjust="spacing" textLength="45.3574" x="594.03" y="23.6016">&#171;enum&#187;</text><text fill="#000000" font-family="sans-serif" font-size="14" lengthAdjust="spacing" textLength="40.1338" x="596.6418" y="39.668">Genre</text><line style="stroke:#181818;stroke-width:0.5;" x1="568.03" x2="639.3874" y1="47.6211" y2="47.6211"/><text fill="#000000" font-family="sans-serif" font-size="14" lengthAdjust="spacing" textLength="48.9385" x="573.03" y="65.1563">Thriller</text><text fill="#000000" font-family="sans-serif" font-size="14" lengthAdjust="spacing" textLength="43.4014" x="573.03" y="81.6445">Action</text><text fill="#000000" font-family="sans-serif" font-size="14" lengthAdjust="spacing" textLength="44.6729" x="573.03" y="98.1328">Horror</text><text fill="#000000" font-family="sans-serif" font-size="14" lengthAdjust="spacing" textLength="55.2822" x="573.03" y="114.6211">Comedy</text><line style="stroke:#181818;stroke-width:0.5;" x1="568.03" x2="639.3874" y1="121.5742" y2="121.5742"/></g><!--class Employee--><g class="entity" data-entity="Employee" data-source-line="9" data-uid="ent0003" id="entity_Employee"><rect fill="#F1F1F1" height="80.9766" rx="2.5" ry="2.5" style="stroke:#181818;stroke-width:0.5;" width="97.0303" x="276.2" y="27.8"/><ellipse cx="291.2" cy="43.8" fill="#A9DCDF" rx="11" ry="11" style="stroke:#181818;stroke-width:1;"/><path d="M291.0633,39.1481 L289.9095,44.2199 L292.2254,44.2199 Z M289.5691,36.9069 L292.5657,36.9069 L295.9109,49.3 L293.4622,49.3 L292.6985,46.237 L289.4197,46.237 L288.6727,49.3 L286.2239,49.3 Z " fill="#000000"/><text fill="#000000" font-family="sans-serif" font-size="14" font-style="italic" lengthAdjust="spacing" textLength="65.0303" x="305.2" y="49.091">Employee</text><line style="stroke:#181818;stroke-width:0.5;" x1="277.2" x2="372.2303" y1="59.8" y2="59.8"/><text fill="#000000" font-family="sans-serif" font-size="14" lengthAdjust="spacing" textLength="83.3438" x="282.2" y="77.3352">String Name</text><text fill="#000000" font-family="sans-serif" font-size="14" lengthAdjust="spacing" textLength="45.7529" x="282.2" y="93.8234">Int Ssn</text><line style="stroke:#181818;stroke-width:0.5;" x1="277.2" x2="372.2303" y1="100.7766" y2="100.7766"/></g><!--class CreativeEmployee--><g class="entity" data-entity="CreativeEmployee" data-source-line="14" data-uid="ent0004" id="entity_CreativeEmployee"><rect fill="#F1F1F1" height="64.4883" rx="2.5" ry="2.5" style="stroke:#181818;stroke-width:0.5;" width="152.3057" x="60.56" y="207.07"/><ellipse cx="75.56" cy="223.07" fill="#A9DCDF" rx="11" ry="11" style="stroke:#181818;stroke-width:1;"/><path d="M75.4233,218.4181 L74.2695,223.4899 L76.5854,223.4899 Z M73.9291,216.1769 L76.9257,216.1769 L80.2709,228.57 L77.8222,228.57 L77.0585,225.507 L73.7797,225.507 L73.0327,228.57 L70.5839,228.57 Z " fill="#000000"/><text fill="#000000" font-family="sans-serif" font-size="14" font-style="italic" lengthAdjust="spacing" textLength="120.3057" x="89.56" y="228.361">CreativeEmployee</text><line style="stroke:#181818;stroke-width:0.5;" x1="61.56" x2="211.8657" y1="239.07" y2="239.07"/><text fill="#000000" font-family="sans-serif" font-size="14" lengthAdjust="spacing" textLength="96.5918" x="66.56" y="256.6052">Boolean Oscar</text><line style="stroke:#181818;stroke-width:0.5;" x1="61.56" x2="211.8657" y1="263.5583" y2="263.5583"/></g><!--class Technician--><g class="entity" data-entity="Technician" data-source-line="18" data-uid="ent0005" id="entity_Technician"><rect fill="#F1F1F1" height="64.4883" rx="2.5" ry="2.5" style="stroke:#181818;stroke-width:0.5;" width="154.5908" x="247.42" y="207.07"/><ellipse cx="284.7877" cy="223.07" fill="#ADD1B2" rx="11" ry="11" style="stroke:#181818;stroke-width:1;"/><path d="M287.2609,229.2131 Q286.6798,229.5119 286.0407,229.6613 Q285.4015,229.8107 284.6959,229.8107 Q282.1891,229.8107 280.8693,228.1589 Q279.5494,226.507 279.5494,223.3859 Q279.5494,220.2565 280.8693,218.6047 Q282.1891,216.9528 284.6959,216.9528 Q285.4015,216.9528 286.049,217.1022 Q286.6964,217.2516 287.2609,217.5505 L287.2609,220.2731 Q286.63,219.6921 286.0365,219.4223 Q285.443,219.1525 284.8121,219.1525 Q283.4674,219.1525 282.7826,220.2192 Q282.0978,221.2858 282.0978,223.3859 Q282.0978,225.4777 282.7826,226.5444 Q283.4674,227.611 284.8121,227.611 Q285.443,227.611 286.0365,227.3412 Q286.63,227.0715 287.2609,226.4904 Z " fill="#000000"/><text fill="#000000" font-family="sans-serif" font-size="14" lengthAdjust="spacing" textLength="72.8848" x="303.7583" y="228.361">Technician</text><line style="stroke:#181818;stroke-width:0.5;" x1="248.42" x2="401.0108" y1="239.07" y2="239.07"/><text fill="#000000" font-family="sans-serif" font-size="14" lengthAdjust="spacing" textLength="142.5908" x="253.42" y="256.6052">String FieldOfActivity</text><line style="stroke:#181818;stroke-width:0.5;" x1="248.42" x2="401.0108" y1="263.5583" y2="263.5583"/></g><!--class Director--><g class="entity" data-entity="Director" data-source-line="22" data-uid="ent0006" id="entity_Director"><rect fill="#F1F1F1" height="64.4883" rx="2.5" ry="2.5" style="stroke:#181818;stroke-width:0.5;" width="157.4209" x="7" y="365.04"/><ellipse cx="54.062" cy="381.04" fill="#ADD1B2" rx="11" ry="11" style="stroke:#181818;stroke-width:1;"/><path d="M56.5352,387.1831 Q55.9541,387.4819 55.3149,387.6313 Q54.6758,387.7807 53.9702,387.7807 Q51.4634,387.7807 50.1436,386.1289 Q48.8237,384.477 48.8237,381.3559 Q48.8237,378.2265 50.1436,376.5747 Q51.4634,374.9228 53.9702,374.9228 Q54.6758,374.9228 55.3232,375.0722 Q55.9707,375.2216 56.5352,375.5205 L56.5352,378.2431 Q55.9043,377.6621 55.3108,377.3923 Q54.7173,377.1225 54.0864,377.1225 Q52.7417,377.1225 52.0569,378.1892 Q51.3721,379.2558 51.3721,381.3559 Q51.3721,383.4477 52.0569,384.5144 Q52.7417,385.581 54.0864,385.581 Q54.7173,385.581 55.3108,385.3112 Q55.9043,385.0415 56.5352,384.4604 Z " fill="#000000"/><text fill="#000000" font-family="sans-serif" font-size="14" lengthAdjust="spacing" textLength="54.7969" x="74.562" y="386.331">Director</text><line style="stroke:#181818;stroke-width:0.5;" x1="8" x2="163.4209" y1="397.04" y2="397.04"/><text fill="#000000" font-family="sans-serif" font-size="14" lengthAdjust="spacing" textLength="145.4209" x="13" y="414.5752">String AssistentName</text><line style="stroke:#181818;stroke-width:0.5;" x1="8" x2="163.4209" y1="421.5283" y2="421.5283"/></g><!--class Actor--><g class="entity" data-entity="Actor" data-source-line="26" data-uid="ent0007" id="entity_Actor"><rect fill="#F1F1F1" height="64.4883" rx="2.5" ry="2.5" style="stroke:#181818;stroke-width:0.5;" width="122.9609" x="199.23" y="365.04"/><ellipse cx="238.7849" cy="381.04" fill="#ADD1B2" rx="11" ry="11" style="stroke:#181818;stroke-width:1;"/><path d="M241.258,387.1831 Q240.677,387.4819 240.0378,387.6313 Q239.3987,387.7807 238.6931,387.7807 Q236.1863,387.7807 234.8664,386.1289 Q233.5466,384.477 233.5466,381.3559 Q233.5466,378.2265 234.8664,376.5747 Q236.1863,374.9228 238.6931,374.9228 Q239.3987,374.9228 240.0461,375.0722 Q240.6936,375.2216 241.258,375.5205 L241.258,378.2431 Q240.6272,377.6621 240.0337,377.3923 Q239.4402,377.1225 238.8093,377.1225 Q237.4646,377.1225 236.7798,378.1892 Q236.0949,379.2558 236.0949,381.3559 Q236.0949,383.4477 236.7798,384.5144 Q237.4646,385.581 238.8093,385.581 Q239.4402,385.581 240.0337,385.3112 Q240.6272,385.0415 241.258,384.4604 Z " fill="#000000"/><text fill="#000000" font-family="sans-serif" font-size="14" lengthAdjust="spacing" textLength="36.3945" x="258.2415" y="386.331">Actor</text><line style="stroke:#181818;stroke-width:0.5;" x1="200.23" x2="321.1909" y1="397.04" y2="397.04"/><text fill="#000000" font-family="sans-serif" font-size="14" lengthAdjust="spacing" textLength="110.9609" x="205.23" y="414.5752">String Education</text><line style="stroke:#181818;stroke-width:0.5;" x1="200.23" x2="321.1909" y1="421.5283" y2="421.5283"/></g><!--class Screenplay--><g class="entity" data-entity="Screenplay" data-source-line="30" data-uid="ent0008" id="entity_Screenplay"><rect fill="#F1F1F1" height="130.4414" rx="2.5" ry="2.5" style="stroke:#181818;stroke-width:0.5;" width="150.9883" x="269.22" y="506.53"/><ellipse cx="305.0804" cy="522.53" fill="#ADD1B2" rx="11" ry="11" style="stroke:#181818;stroke-width:1;"/><path d="M307.5535,528.6731 Q306.9725,528.9719 306.3333,529.1213 Q305.6942,529.2707 304.9886,529.2707 Q302.4818,529.2707 301.1619,527.6189 Q299.8421,525.967 299.8421,522.8459 Q299.8421,519.7165 301.1619,518.0647 Q302.4818,516.4128 304.9886,516.4128 Q305.6942,516.4128 306.3416,516.5622 Q306.9891,516.7116 307.5535,517.0105 L307.5535,519.7331 Q306.9227,519.1521 306.3292,518.8823 Q305.7357,518.6125 305.1048,518.6125 Q303.7601,518.6125 303.0753,519.6792 Q302.3905,520.7458 302.3905,522.8459 Q302.3905,524.9377 303.0753,526.0044 Q303.7601,527.071 305.1048,527.071 Q305.7357,527.071 306.3292,526.8012 Q306.9227,526.5315 307.5535,525.9504 Z " fill="#000000"/><text fill="#000000" font-family="sans-serif" font-size="14" lengthAdjust="spacing" textLength="72.6318" x="323.716" y="527.821">Screenplay</text><line style="stroke:#181818;stroke-width:0.5;" x1="270.22" x2="419.2083" y1="538.53" y2="538.53"/><text fill="#000000" font-family="sans-serif" font-size="14" lengthAdjust="spacing" textLength="74.3818" x="275.22" y="556.0652">String Title</text><text fill="#000000" font-family="sans-serif" font-size="14" lengthAdjust="spacing" textLength="95.5527" x="275.22" y="572.5534">String Version</text><text fill="#000000" font-family="sans-serif" font-size="14" lengthAdjust="spacing" textLength="66.9375" x="275.22" y="589.0417">Date Date</text><text fill="#000000" font-family="sans-serif" font-size="14" lengthAdjust="spacing" textLength="138.9883" x="275.22" y="605.53">Int NumberOfScenes</text><text fill="#000000" font-family="sans-serif" font-size="14" lengthAdjust="spacing" textLength="70.0205" x="275.22" y="622.0183">String Plot</text><line style="stroke:#181818;stroke-width:0.5;" x1="270.22" x2="419.2083" y1="628.9714" y2="628.9714"/></g><!--class FilmSet--><g class="entity" data-entity="FilmSet" data-source-line="38" data-uid="ent0009" id="entity_FilmSet"><rect fill="#F1F1F1" height="64.4883" rx="2.5" ry="2.5" style="stroke:#181818;stroke-width:0.5;" width="113.9375" x="417.74" y="36.05"/><ellipse cx="447.4511" cy="52.05" fill="#ADD1B2" rx="11" ry="11" style="stroke:#181818;stroke-width:1;"/><path d="M449.9243,58.1931 Q449.3432,58.4919 448.7041,58.6413 Q448.0649,58.7907 447.3593,58.7907 Q444.8525,58.7907 443.5327,57.1389 Q442.2129,55.487 442.2129,52.3659 Q442.2129,49.2365 443.5327,47.5847 Q444.8525,45.9328 447.3593,45.9328 Q448.0649,45.9328 448.7124,46.0822 Q449.3598,46.2316 449.9243,46.5305 L449.9243,49.2531 Q449.2934,48.6721 448.6999,48.4023 Q448.1064,48.1325 447.4755,48.1325 Q446.1308,48.1325 445.446,49.1992 Q444.7612,50.2658 444.7612,52.3659 Q444.7612,54.4577 445.446,55.5244 Q446.1308,56.591 447.4755,56.591 Q448.1064,56.591 448.6999,56.3212 Q449.2934,56.0515 449.9243,55.4704 Z " fill="#000000"/><text fill="#000000" font-family="sans-serif" font-size="14" lengthAdjust="spacing" textLength="49.2461" x="464.7203" y="57.341">FilmSet</text><line style="stroke:#181818;stroke-width:0.5;" x1="418.74" x2="530.6775" y1="68.05" y2="68.05"/><text fill="#000000" font-family="sans-serif" font-size="14" lengthAdjust="spacing" textLength="101.9375" x="423.74" y="85.5852">String Location</text><line style="stroke:#181818;stroke-width:0.5;" x1="418.74" x2="530.6775" y1="92.5383" y2="92.5383"/></g><!--class Film--><g class="entity" data-entity="Film" data-source-line="42" data-uid="ent0010" id="entity_Film"><rect fill="#F1F1F1" height="97.4648" rx="2.5" ry="2.5" style="stroke:#181818;stroke-width:0.5;" width="96.6973" x="437.36" y="190.58"/><ellipse cx="468.5723" cy="206.58" fill="#ADD1B2" rx="11" ry="11" style="stroke:#181818;stroke-width:1;"/><path d="M471.0454,212.7231 Q470.4644,213.0219 469.8252,213.1713 Q469.1861,213.3207 468.4805,213.3207 Q465.9737,213.3207 464.6538,211.6689 Q463.334,210.017 463.334,206.8959 Q463.334,203.7665 464.6538,202.1147 Q465.9737,200.4628 468.4805,200.4628 Q469.1861,200.4628 469.8335,200.6122 Q470.481,200.7616 471.0454,201.0605 L471.0454,203.7831 Q470.4146,203.2021 469.8211,202.9323 Q469.2276,202.6625 468.5967,202.6625 Q467.252,202.6625 466.5672,203.7292 Q465.8824,204.7958 465.8824,206.8959 Q465.8824,208.9877 466.5672,210.0544 Q467.252,211.121 468.5967,211.121 Q469.2276,211.121 469.8211,210.8512 Q470.4146,210.5815 471.0454,210.0004 Z " fill="#000000"/><text fill="#000000" font-family="sans-serif" font-size="14" lengthAdjust="spacing" textLength="28.6699" x="486.175" y="211.871">Film</text><line style="stroke:#181818;stroke-width:0.5;" x1="438.36" x2="533.0573" y1="222.58" y2="222.58"/><text fill="#000000" font-family="sans-serif" font-size="14" lengthAdjust="spacing" textLength="74.3818" x="443.36" y="240.1152">String Title</text><text fill="#000000" font-family="sans-serif" font-size="14" lengthAdjust="spacing" textLength="52.3701" x="443.36" y="256.6034">Int Year</text><text fill="#000000" font-family="sans-serif" font-size="14" lengthAdjust="spacing" textLength="84.6973" x="443.36" y="273.0917">Genre Genre</text><line style="stroke:#181818;stroke-width:0.5;" x1="438.36" x2="533.0573" y1="280.0448" y2="280.0448"/></g><!--class ScreenplayAuthor--><g class="entity" data-entity="ScreenplayAuthor" data-source-line="48" data-uid="ent0011" id="entity_ScreenplayAuthor"><rect fill="#F1F1F1" height="64.4883" rx="2.5" ry="2.5" style="stroke:#181818;stroke-width:0.5;" width="151.2324" x="428.09" y="365.04"/><ellipse cx="443.09" cy="381.04" fill="#ADD1B2" rx="11" ry="11" style="stroke:#181818;stroke-width:1;"/><path d="M445.5631,387.1831 Q444.9821,387.4819 444.3429,387.6313 Q443.7038,387.7807 442.9982,387.7807 Q440.4914,387.7807 439.1715,386.1289 Q437.8517,384.477 437.8517,381.3559 Q437.8517,378.2265 439.1715,376.5747 Q440.4914,374.9228 442.9982,374.9228 Q443.7038,374.9228 444.3512,375.0722 Q444.9987,375.2216 445.5631,375.5205 L445.5631,378.2431 Q444.9323,377.6621 444.3388,377.3923 Q443.7453,377.1225 443.1144,377.1225 Q441.7697,377.1225 441.0849,378.1892 Q440.4001,379.2558 440.4001,381.3559 Q440.4001,383.4477 441.0849,384.5144 Q441.7697,385.581 443.1144,385.581 Q443.7453,385.581 444.3388,385.3112 Q444.9323,385.0415 445.5631,384.4604 Z " fill="#000000"/><text fill="#000000" font-family="sans-serif" font-size="14" lengthAdjust="spacing" textLength="119.2324" x="457.09" y="386.331">ScreenplayAuthor</text><line style="stroke:#181818;stroke-width:0.5;" x1="429.09" x2="578.3224" y1="397.04" y2="397.04"/><text fill="#000000" font-family="sans-serif" font-size="14" lengthAdjust="spacing" textLength="83.3438" x="434.09" y="414.5752">String Name</text><line style="stroke:#181818;stroke-width:0.5;" x1="429.09" x2="578.3224" y1="421.5283" y2="421.5283"/></g><!--class Book--><g class="entity" data-entity="Book" data-source-line="52" data-uid="ent0012" id="entity_Book"><rect fill="#F1F1F1" height="80.9766" rx="2.5" ry="2.5" style="stroke:#181818;stroke-width:0.5;" width="103" x="229.21" y="784.28"/><ellipse cx="261.1144" cy="800.28" fill="#ADD1B2" rx="11" ry="11" style="stroke:#181818;stroke-width:1;"/><path d="M263.5876,806.4231 Q263.0065,806.7219 262.3674,806.8713 Q261.7282,807.0207 261.0226,807.0207 Q258.5158,807.0207 257.196,805.3689 Q255.8762,803.717 255.8762,800.5959 Q255.8762,797.4665 257.196,795.8147 Q258.5158,794.1628 261.0226,794.1628 Q261.7282,794.1628 262.3757,794.3122 Q263.0231,794.4616 263.5876,794.7605 L263.5876,797.4831 Q262.9567,796.9021 262.3632,796.6323 Q261.7697,796.3625 261.1389,796.3625 Q259.7941,796.3625 259.1093,797.4292 Q258.4245,798.4958 258.4245,800.5959 Q258.4245,802.6877 259.1093,803.7544 Q259.7941,804.821 261.1389,804.821 Q261.7697,804.821 262.3632,804.5512 Q262.9567,804.2815 263.5876,803.7004 Z " fill="#000000"/><text fill="#000000" font-family="sans-serif" font-size="14" lengthAdjust="spacing" textLength="33.4346" x="278.871" y="805.571">Book</text><line style="stroke:#181818;stroke-width:0.5;" x1="230.21" x2="331.21" y1="816.28" y2="816.28"/><text fill="#000000" font-family="sans-serif" font-size="14" lengthAdjust="spacing" textLength="74.3818" x="235.21" y="833.8152">String Title</text><text fill="#000000" font-family="sans-serif" font-size="14" lengthAdjust="spacing" textLength="91" x="235.21" y="850.3034">String Author</text><line style="stroke:#181818;stroke-width:0.5;" x1="230.21" x2="331.21" y1="857.2566" y2="857.2566"/></g><!--class Concept--><g class="entity" data-entity="Concept" data-source-line="57" data-uid="ent0013" id="entity_Concept"><rect fill="#F1F1F1" height="48" rx="2.5" ry="2.5" style="stroke:#181818;stroke-width:0.5;" width="87.9932" x="366.71" y="800.77"/><ellipse cx="381.71" cy="816.77" fill="#ADD1B2" rx="11" ry="11" style="stroke:#181818;stroke-width:1;"/><path d="M384.1831,822.9131 Q383.6021,823.2119 382.9629,823.3613 Q382.3238,823.5107 381.6182,823.5107 Q379.1114,823.5107 377.7915,821.8589 Q376.4717,820.207 376.4717,817.0859 Q376.4717,813.9565 377.7915,812.3047 Q379.1114,810.6528 381.6182,810.6528 Q382.3238,810.6528 382.9712,810.8022 Q383.6187,810.9516 384.1831,811.2505 L384.1831,813.9731 Q383.5523,813.3921 382.9588,813.1223 Q382.3653,812.8525 381.7344,812.8525 Q380.3897,812.8525 379.7049,813.9192 Q379.0201,814.9858 379.0201,817.0859 Q379.0201,819.1777 379.7049,820.2444 Q380.3897,821.311 381.7344,821.311 Q382.3653,821.311 382.9588,821.0412 Q383.5523,820.7715 384.1831,820.1904 Z " fill="#000000"/><text fill="#000000" font-family="sans-serif" font-size="14" lengthAdjust="spacing" textLength="55.9932" x="395.71" y="822.061">Concept</text><line style="stroke:#181818;stroke-width:0.5;" x1="367.71" x2="453.7032" y1="832.77" y2="832.77"/><line style="stroke:#181818;stroke-width:0.5;" x1="367.71" x2="453.7032" y1="840.77" y2="840.77"/></g><g class="entity" data-entity="N1" data-source-line="73" data-uid="ent0027" id="entity_N1"><path d="M317.75,697.97 L317.75,723.2805 L373.6621,723.2805 L373.6621,707.97 L363.6621,697.97 L317.75,697.97" fill="#FEFFDD" style="stroke:#181818;stroke-width:0.5;"/><path d="M363.6621,697.97 L363.6621,707.97 L373.6621,707.97 L363.6621,697.97" fill="#FEFFDD" style="stroke:#181818;stroke-width:1;"/><text fill="#000000" font-family="sans-serif" font-size="13" lengthAdjust="spacing" textLength="34.9121" x="323.75" y="715.5384">{XOR}</text></g><ellipse cx="280.71" cy="710.63" fill="#181818" rx="2" ry="2" style="stroke:#181818;stroke-width:1;"/><ellipse cx="410.71" cy="710.63" fill="#181818" rx="2" ry="2" style="stroke:#181818;stroke-width:1;"/><!--reverse link Employee to CreativeEmployee--><g class="link" data-entity-1="Employee" data-entity-2="CreativeEmployee" data-source-line="59" data-uid="lnk14" id="link_Employee_CreativeEmployee"><path codeLine="59" d="M267.2449,120.9549 C234.0349,150.8149 202.5,179.16 171.73,206.83" fill="none" id="Employee-backto-CreativeEmployee" style="stroke:#181818;stroke-width:1;"/><polygon fill="none" points="280.63,108.92,263.2333,116.4932,271.2565,125.4166,280.63,108.92" style="stroke:#181818;stroke-width:1;"/></g><!--reverse link Employee to Technician--><g class="link" data-entity-1="Employee" data-entity-2="Technician" data-source-line="60" data-uid="lnk15" id="link_Employee_Technician"><path codeLine="60" d="M324.71,126.92 C324.71,156.78 324.71,179.16 324.71,206.83" fill="none" id="Employee-backto-Technician" style="stroke:#181818;stroke-width:1;"/><polygon fill="none" points="324.71,108.92,318.71,126.92,330.71,126.92,324.71,108.92" style="stroke:#181818;stroke-width:1;"/></g><!--reverse link CreativeEmployee to Director--><g class="link" data-entity-1="CreativeEmployee" data-entity-2="Director" data-source-line="61" data-uid="lnk16" id="link_CreativeEmployee_Director"><path codeLine="61" d="M120.7947,288.9883 C111.9447,316.0483 104.86,337.72 96.02,364.77" fill="none" id="CreativeEmployee-backto-Director" style="stroke:#181818;stroke-width:1;"/><polygon fill="none" points="126.39,271.88,115.092,287.1232,126.4975,290.8534,126.39,271.88" style="stroke:#181818;stroke-width:1;"/></g><!--reverse link CreativeEmployee to Actor--><g class="link" data-entity-1="CreativeEmployee" data-entity-2="Actor" data-source-line="62" data-uid="lnk17" id="link_CreativeEmployee_Actor"><path codeLine="62" d="M173.0038,285.9681 C194.5238,313.0281 214.15,337.72 235.65,364.77" fill="none" id="CreativeEmployee-backto-Actor" style="stroke:#181818;stroke-width:1;"/><polygon fill="none" points="161.8,271.88,168.3078,289.7027,177.6999,282.2335,161.8,271.88" style="stroke:#181818;stroke-width:1;"/></g><!--link Director to Screenplay--><g class="link" data-entity-1="Director" data-entity-2="Screenplay" data-source-line="63" data-uid="lnk18" id="link_Director_Screenplay"><path codeLine="63" d="M133.22,429.92 C171.11,455.16 224.92,490.99 268.78,520.19" fill="none" id="Director-Screenplay" style="stroke:#181818;stroke-width:1;"/><text fill="#000000" font-family="sans-serif" font-size="13" lengthAdjust="spacing" textLength="74.0137" x="200.7" y="473.0984">implements</text><text fill="#000000" font-family="sans-serif" font-size="13" lengthAdjust="spacing" textLength="8.2202" x="133.535" y="450.1689">1</text><text fill="#000000" font-family="sans-serif" font-size="13" lengthAdjust="spacing" textLength="6.2651" x="255.023" y="511.9599">*</text></g><!--link Actor to Screenplay--><g class="link" data-entity-1="Actor" data-entity-2="Screenplay" data-source-line="64" data-uid="lnk19" id="link_Actor_Screenplay"><path codeLine="64" d="M276.12,429.92 C286.49,451.22 300.54,480.06 313.22,506.1" fill="none" id="Actor-Screenplay" style="stroke:#181818;stroke-width:1;"/><text fill="#000000" font-family="sans-serif" font-size="13" lengthAdjust="spacing" textLength="34.5503" x="298.68" y="473.0984">reads</text><text fill="#000000" font-family="sans-serif" font-size="13" lengthAdjust="spacing" textLength="6.2651" x="272.5108" y="450.1689">*</text><text fill="#000000" font-family="sans-serif" font-size="13" lengthAdjust="spacing" textLength="6.2651" x="303.4617" y="495.6845">*</text></g><!--link Employee to FilmSet--><g class="link" data-entity-1="Employee" data-entity-2="FilmSet" data-source-line="65" data-uid="lnk20" id="link_Employee_FilmSet"><path codeLine="65" d="M373.64,68.29 C388.24,68.29 402.85,68.29 417.46,68.29" fill="none" id="Employee-FilmSet" style="stroke:#181818;stroke-width:1;"/><text fill="#000000" font-family="sans-serif" font-size="13" lengthAdjust="spacing" textLength="6.2651" x="381.2859" y="64.7799">*</text><text fill="#000000" font-family="sans-serif" font-size="13" lengthAdjust="spacing" textLength="8.2202" x="401.6266" y="64.9168">1</text></g><!--link FilmSet to Film--><g class="link" data-entity-1="FilmSet" data-entity-2="Film" data-source-line="66" data-uid="lnk21" id="link_FilmSet_Film"><path codeLine="66" d="M476.75,100.69 C478.39,125.79 480.71,161.42 482.58,190.14" fill="none" id="FilmSet-Film" style="stroke:#181818;stroke-width:1;"/><text fill="#000000" font-family="sans-serif" font-size="13" lengthAdjust="spacing" textLength="6.2651" x="470.5873" y="121.1434">*</text><text fill="#000000" font-family="sans-serif" font-size="13" lengthAdjust="spacing" textLength="6.2651" x="475.7368" y="179.7606">*</text></g><!--link Film to ScreenplayAuthor--><g class="link" data-entity-1="Film" data-entity-2="ScreenplayAuthor" data-source-line="67" data-uid="lnk22" id="link_Film_ScreenplayAuthor"><path codeLine="67" d="M491.26,288.38 C494.13,313.27 497.55,342.94 500.08,364.87" fill="none" id="Film-ScreenplayAuthor" style="stroke:#181818;stroke-width:1;"/><text fill="#000000" font-family="sans-serif" font-size="13" lengthAdjust="spacing" textLength="96.1606" x="497.32" y="331.6084">MostSuccessful</text><text fill="#000000" font-family="sans-serif" font-size="13" lengthAdjust="spacing" textLength="8.2202" x="483.4833" y="308.5705">1</text><text fill="#000000" font-family="sans-serif" font-size="13" lengthAdjust="spacing" textLength="24.667" x="472.9259" y="354.2381">0..1</text></g><!--link ScreenplayAuthor to Screenplay--><g class="link" data-entity-1="ScreenplayAuthor" data-entity-2="Screenplay" data-source-line="68" data-uid="lnk23" id="link_ScreenplayAuthor_Screenplay"><path codeLine="68" d="M474.55,429.92 C454.91,451.22 428.32,480.06 404.32,506.1" fill="none" id="ScreenplayAuthor-Screenplay" style="stroke:#181818;stroke-width:1;"/><text fill="#000000" font-family="sans-serif" font-size="13" lengthAdjust="spacing" textLength="45.1318" x="444.13" y="473.0984">creates</text><text fill="#000000" font-family="sans-serif" font-size="13" lengthAdjust="spacing" textLength="8.2202" x="460.2506" y="450.1689">1</text><text fill="#000000" font-family="sans-serif" font-size="13" lengthAdjust="spacing" textLength="6.2651" x="404.5258" y="495.6845">*</text></g><!--link Film to Screenplay--><g class="link" data-entity-1="Film" data-entity-2="Screenplay" data-source-line="69" data-uid="lnk24" id="link_Film_Screenplay"><path codeLine="69" d="M453.26,288.36 C438.93,310.96 422.66,338.7 410.71,365.04 C389.95,410.81 372.84,465.03 361.24,506.31" fill="none" id="Film-Screenplay" style="stroke:#181818;stroke-width:1;"/><text fill="#000000" font-family="sans-serif" font-size="13" lengthAdjust="spacing" textLength="8.2202" x="440.377" y="308.5478">1</text><text fill="#000000" font-family="sans-serif" font-size="13" lengthAdjust="spacing" textLength="8.2202" x="354.6221" y="495.9175">1</text></g><!--link Screenplay to apoint28--><g class="link" data-entity-1="Screenplay" data-entity-2="apoint28" data-source-line="74" data-uid="lnk30" id="link_Screenplay_apoint28"><path d="M314.58,637.18 C299.8,668.8 284.48,701.56 281.31,708.35" fill="none" id="Screenplay-apoint28" style="stroke:#181818;stroke-width:1;"/><text fill="#000000" font-family="sans-serif" font-size="13" lengthAdjust="spacing" textLength="24.667" x="286.0081" y="657.742">0..1</text></g><!--link apoint28 to Book--><g class="link" data-entity-1="apoint28" data-entity-2="Book" data-source-line="74" data-uid="lnk31" id="link_apoint28_Book"><path d="M280.71,712.89 C280.71,719.91 280.71,754.99 280.71,783.84" fill="none" id="apoint28-Book" style="stroke:#181818;stroke-width:1;"/><text fill="#000000" font-family="sans-serif" font-size="13" lengthAdjust="spacing" textLength="24.667" x="254.7777" y="773.4131">0..1</text></g><!--link apoint28 to N1--><g class="link" data-entity-1="apoint28" data-entity-2="N1" data-source-line="74" data-uid="lnk32" id="link_apoint28_N1"><path d="M283,710.63 C294.43,710.63 305.86,710.63 317.29,710.63" fill="none" id="apoint28-N1" style="stroke:#181818;stroke-width:1;stroke-dasharray:7,7;"/></g><!--link Screenplay to apoint33--><g class="link" data-entity-1="Screenplay" data-entity-2="apoint33" data-source-line="75" data-uid="lnk35" id="link_Screenplay_apoint33"><path d="M375.78,637.18 C391.02,668.8 406.82,701.56 410.1,708.35" fill="none" id="Screenplay-apoint33" style="stroke:#181818;stroke-width:1;"/><text fill="#000000" font-family="sans-serif" font-size="13" lengthAdjust="spacing" textLength="24.667" x="353.9018" y="657.742">0..1</text></g><!--link apoint33 to Concept--><g class="link" data-entity-1="apoint33" data-entity-2="Concept" data-source-line="75" data-uid="lnk36" id="link_apoint33_Concept"><path d="M410.71,712.89 C410.71,721.33 410.71,770.31 410.71,800.28" fill="none" id="apoint33-Concept" style="stroke:#181818;stroke-width:1;"/><text fill="#000000" font-family="sans-serif" font-size="13" lengthAdjust="spacing" textLength="24.667" x="383.8671" y="790.0886">0..1</text></g><!--link N1 to apoint33--><g class="link" data-entity-1="N1" data-entity-2="apoint33" data-source-line="75" data-uid="lnk37" id="link_N1_apoint33"><path d="M374.15,710.63 C385.57,710.63 397,710.63 408.43,710.63" fill="none" id="N1-apoint33" style="stroke:#181818;stroke-width:1;stroke-dasharray:7,7;"/></g><!--SRC=[XLBBRi8m4BpxAwoSe2fHkIA4H7cqbLge6bIrH-CinQfZ8zj1GfH_h-sG5mbj3bQydjdPtLaGQO8VG2Z0mo7OosY4ZmZRRxLLZ7DG_ZAcXadXVn-bKZABJcG2yG6T429hRHIX1bDEjCQpPCVb0U2SAZAAYI-y80du-vCmEDAYXJXHG0pRmqM2Uoav486NcXBbQ1bw1NGh66NsfIOqPy3ZvSOLlMVcK1AcJ04rKjNXOwsPDY2CBx00Zvl8MPnIuYTHe2Ag0CIEaqCTkcA6GpNm3ahdCvmI0_uenh58apMevIQY841NUQzScb9kpdWIWQbhFSlBgXpiMZrExXD8Pc5clJ_RUXgdPdivXFgKh3NV_tIU9Iaf4oaex6mFDb8OFVpfzHhsNpoNVgF6edX0xk-LP-yeAfOWw0UzNd0JL3qSO6OfaDXjq2ZR08jeWLc1M9VrEP3Db_k3SfyAiWluw5dsBWpxGNFI0_mYjObIIa7hJSfH0z5UDNKDsyMfADJIL_BWJBkemJdun_FPBOI4j4iR73-MRwS04uqNVTHntDkIsmr36rtqmx1J1c_F6Rhe5m00]--></g></svg>