<svg xmlns="http://www.w3.org/2000/svg" xmlns:xlink="http://www.w3.org/1999/xlink" contentStyleType="text/css" data-diagram-type="CLASS" height="468px" preserveAspectRatio="none" style="width:359px;height:468px;background:#FFFFFF;" version="1.1" viewBox="0 0 359 468" width="359px" zoomAndPan="magnify"><defs/><g><!--class Bank--><g class="entity" data-entity="Bank" data-source-line="1" data-uid="ent0002" id="entity_Bank"><rect fill="#F1F1F1" height="48" rx="2.5" ry="2.5" style="stroke:#181818;stroke-width:0.5;" width="64.6553" x="80.7" y="7"/><ellipse cx="95.7" cy="23" fill="#ADD1B2" rx="11" ry="11" style="stroke:#181818;stroke-width:1;"/><path d="M98.1731,29.1431 Q97.5921,29.4419 96.9529,29.5913 Q96.3138,29.7407 95.6082,29.7407 Q93.1014,29.7407 91.7815,28.0889 Q90.4617,26.437 90.4617,23.3159 Q90.4617,20.1865 91.7815,18.5347 Q93.1014,16.8828 95.6082,16.8828 Q96.3138,16.8828 96.9612,17.0322 Q97.6087,17.1816 98.1731,17.4805 L98.1731,20.2031 Q97.5423,19.6221 96.9488,19.3523 Q96.3553,19.0825 95.7244,19.0825 Q94.3797,19.0825 93.6949,20.1492 Q93.0101,21.2158 93.0101,23.3159 Q93.0101,25.4077 93.6949,26.4744 Q94.3797,27.541 95.7244,27.541 Q96.3553,27.541 96.9488,27.2712 Q97.5423,27.0015 98.1731,26.4204 Z " fill="#000000"/><text fill="#000000" font-family="sans-serif" font-size="14" lengthAdjust="spacing" textLength="32.6553" x="109.7" y="28.291">Bank</text><line style="stroke:#181818;stroke-width:0.5;" x1="81.7" x2="144.3553" y1="39" y2="39"/><line style="stroke:#181818;stroke-width:0.5;" x1="81.7" x2="144.3553" y1="47" y2="47"/></g><!--class Branch--><g class="entity" data-entity="Branch" data-source-line="3" data-uid="ent0003" id="entity_Branch"><rect fill="#F1F1F1" height="48" rx="2.5" ry="2.5" style="stroke:#181818;stroke-width:0.5;" width="78.0605" x="7" y="131.49"/><ellipse cx="22" cy="147.49" fill="#ADD1B2" rx="11" ry="11" style="stroke:#181818;stroke-width:1;"/><path d="M24.4731,153.6331 Q23.8921,153.9319 23.2529,154.0813 Q22.6138,154.2307 21.9082,154.2307 Q19.4014,154.2307 18.0815,152.5789 Q16.7617,150.927 16.7617,147.8059 Q16.7617,144.6765 18.0815,143.0247 Q19.4014,141.3728 21.9082,141.3728 Q22.6138,141.3728 23.2612,141.5222 Q23.9087,141.6716 24.4731,141.9705 L24.4731,144.6931 Q23.8423,144.1121 23.2488,143.8423 Q22.6553,143.5725 22.0244,143.5725 Q20.6797,143.5725 19.9949,144.6392 Q19.3101,145.7058 19.3101,147.8059 Q19.3101,149.8977 19.9949,150.9644 Q20.6797,152.031 22.0244,152.031 Q22.6553,152.031 23.2488,151.7612 Q23.8423,151.4915 24.4731,150.9104 Z " fill="#000000"/><text fill="#000000" font-family="sans-serif" font-size="14" lengthAdjust="spacing" textLength="46.0605" x="36" y="152.781">Branch</text><line style="stroke:#181818;stroke-width:0.5;" x1="8" x2="84.0605" y1="163.49" y2="163.49"/><line style="stroke:#181818;stroke-width:0.5;" x1="8" x2="84.0605" y1="171.49" y2="171.49"/></g><!--class Customer--><g class="entity" data-entity="Customer" data-source-line="5" data-uid="ent0004" id="entity_Customer"><rect fill="#F1F1F1" height="80.9766" rx="2.5" ry="2.5" style="stroke:#181818;stroke-width:0.5;" width="122.6396" x="119.71" y="115"/><ellipse cx="145.822" cy="131" fill="#ADD1B2" rx="11" ry="11" style="stroke:#181818;stroke-width:1;"/><path d="M148.2952,137.1431 Q147.7141,137.4419 147.0749,137.5913 Q146.4358,137.7407 145.7302,137.7407 Q143.2234,137.7407 141.9036,136.0889 Q140.5837,134.437 140.5837,131.3159 Q140.5837,128.1865 141.9036,126.5347 Q143.2234,124.8828 145.7302,124.8828 Q146.4358,124.8828 147.0832,125.0322 Q147.7307,125.1816 148.2952,125.4805 L148.2952,128.2031 Q147.6643,127.6221 147.0708,127.3523 Q146.4773,127.0825 145.8464,127.0825 Q144.5017,127.0825 143.8169,128.1492 Q143.1321,129.2158 143.1321,131.3159 Q143.1321,133.4077 143.8169,134.4744 Q144.5017,135.541 145.8464,135.541 Q146.4773,135.541 147.0708,135.2712 Q147.6643,135.0015 148.2952,134.4204 Z " fill="#000000"/><text fill="#000000" font-family="sans-serif" font-size="14" lengthAdjust="spacing" textLength="65.9463" x="162.2913" y="136.291">Customer</text><line style="stroke:#181818;stroke-width:0.5;" x1="120.71" x2="241.3496" y1="147" y2="147"/><text fill="#000000" font-family="sans-serif" font-size="14" lengthAdjust="spacing" textLength="110.6396" x="125.71" y="164.5352">String firstName</text><text fill="#000000" font-family="sans-serif" font-size="14" lengthAdjust="spacing" textLength="107.4951" x="125.71" y="181.0234">String lastName</text><line style="stroke:#181818;stroke-width:0.5;" x1="120.71" x2="241.3496" y1="187.9766" y2="187.9766"/></g><!--class Account--><g class="entity" data-entity="Account" data-source-line="10" data-uid="ent0005" id="entity_Account"><rect fill="#F1F1F1" height="80.9766" rx="2.5" ry="2.5" style="stroke:#181818;stroke-width:0.5;" width="142.1289" x="109.97" y="255.98"/><ellipse cx="149.6818" cy="271.98" fill="#ADD1B2" rx="11" ry="11" style="stroke:#181818;stroke-width:1;"/><path d="M152.1549,278.1231 Q151.5739,278.4219 150.9347,278.5713 Q150.2955,278.7207 149.59,278.7207 Q147.0831,278.7207 145.7633,277.0689 Q144.4435,275.417 144.4435,272.2959 Q144.4435,269.1665 145.7633,267.5147 Q147.0831,265.8628 149.59,265.8628 Q150.2955,265.8628 150.943,266.0122 Q151.5905,266.1616 152.1549,266.4605 L152.1549,269.1831 Q151.5241,268.6021 150.9305,268.3323 Q150.337,268.0625 149.7062,268.0625 Q148.3615,268.0625 147.6766,269.1292 Q146.9918,270.1958 146.9918,272.2959 Q146.9918,274.3877 147.6766,275.4544 Q148.3615,276.521 149.7062,276.521 Q150.337,276.521 150.9305,276.2512 Q151.5241,275.9815 152.1549,275.4004 Z " fill="#000000"/><text fill="#000000" font-family="sans-serif" font-size="14" lengthAdjust="spacing" textLength="55.2139" x="169.1733" y="277.271">Account</text><line style="stroke:#181818;stroke-width:0.5;" x1="110.97" x2="251.0989" y1="287.98" y2="287.98"/><text fill="#000000" font-family="sans-serif" font-size="14" lengthAdjust="spacing" textLength="130.1289" x="115.97" y="305.5152">int accountNumber</text><text fill="#000000" font-family="sans-serif" font-size="14" lengthAdjust="spacing" textLength="103.168" x="115.97" y="322.0034">double balance</text><line style="stroke:#181818;stroke-width:0.5;" x1="110.97" x2="251.0989" y1="328.9566" y2="328.9566"/></g><!--class SavingsAccount--><g class="entity" data-entity="SavingsAccount" data-source-line="15" data-uid="ent0006" id="entity_SavingsAccount"><rect fill="#F1F1F1" height="48" rx="2.5" ry="2.5" style="stroke:#181818;stroke-width:0.5;" width="138.333" x="19.86" y="405.2"/><ellipse cx="34.86" cy="421.2" fill="#ADD1B2" rx="11" ry="11" style="stroke:#181818;stroke-width:1;"/><path d="M37.3331,427.3431 Q36.7521,427.6419 36.1129,427.7913 Q35.4738,427.9407 34.7682,427.9407 Q32.2614,427.9407 30.9415,426.2889 Q29.6217,424.637 29.6217,421.5159 Q29.6217,418.3865 30.9415,416.7347 Q32.2614,415.0828 34.7682,415.0828 Q35.4738,415.0828 36.1212,415.2322 Q36.7687,415.3816 37.3331,415.6805 L37.3331,418.4031 Q36.7023,417.8221 36.1088,417.5523 Q35.5153,417.2825 34.8844,417.2825 Q33.5397,417.2825 32.8549,418.3492 Q32.1701,419.4158 32.1701,421.5159 Q32.1701,423.6077 32.8549,424.6744 Q33.5397,425.741 34.8844,425.741 Q35.5153,425.741 36.1088,425.4712 Q36.7023,425.2015 37.3331,424.6204 Z " fill="#000000"/><text fill="#000000" font-family="sans-serif" font-size="14" lengthAdjust="spacing" textLength="106.333" x="48.86" y="426.491">SavingsAccount</text><line style="stroke:#181818;stroke-width:0.5;" x1="20.86" x2="157.193" y1="437.2" y2="437.2"/><line style="stroke:#181818;stroke-width:0.5;" x1="20.86" x2="157.193" y1="445.2" y2="445.2"/></g><!--class CheckingAccount--><g class="entity" data-entity="CheckingAccount" data-source-line="17" data-uid="ent0007" id="entity_CheckingAccount"><rect fill="#F1F1F1" height="64.4883" rx="2.5" ry="2.5" style="stroke:#181818;stroke-width:0.5;" width="159.082" x="193.49" y="396.95"/><ellipse cx="212.4838" cy="412.95" fill="#ADD1B2" rx="11" ry="11" style="stroke:#181818;stroke-width:1;"/><path d="M214.9569,419.0931 Q214.3758,419.3919 213.7367,419.5413 Q213.0975,419.6907 212.392,419.6907 Q209.8851,419.6907 208.5653,418.0389 Q207.2455,416.387 207.2455,413.2659 Q207.2455,410.1365 208.5653,408.4847 Q209.8851,406.8328 212.392,406.8328 Q213.0975,406.8328 213.745,406.9822 Q214.3924,407.1316 214.9569,407.4305 L214.9569,410.1531 Q214.326,409.5721 213.7325,409.3023 Q213.139,409.0325 212.5082,409.0325 Q211.1634,409.0325 210.4786,410.0992 Q209.7938,411.1658 209.7938,413.2659 Q209.7938,415.3577 210.4786,416.4244 Q211.1634,417.491 212.5082,417.491 Q213.139,417.491 213.7325,417.2212 Q214.326,416.9515 214.9569,416.3704 Z " fill="#000000"/><text fill="#000000" font-family="sans-serif" font-size="14" lengthAdjust="spacing" textLength="118.207" x="227.3713" y="418.241">CheckingAccount</text><line style="stroke:#181818;stroke-width:0.5;" x1="194.49" x2="351.572" y1="428.95" y2="428.95"/><text fill="#000000" font-family="sans-serif" font-size="14" lengthAdjust="spacing" textLength="147.082" x="199.49" y="446.4852">double overdraftLimit</text><line style="stroke:#181818;stroke-width:0.5;" x1="194.49" x2="351.572" y1="453.4383" y2="453.4383"/></g><!--reverse link Bank to Branch--><g class="link" data-entity-1="Bank" data-entity-2="Branch" data-source-line="21" data-uid="lnk8" id="link_Bank_Branch"><path codeLine="21" d="M94.5109,65.8577 C82.5909,87.6477 70.65,109.48 58.74,131.25" fill="none" id="Bank-backto-Branch" style="stroke:#181818;stroke-width:1;"/><polygon fill="none" points="100.27,55.33,93.8812,58.6742,94.5109,65.8577,100.8997,62.5136,100.27,55.33" style="stroke:#181818;stroke-width:1;"/><text fill="#000000" font-family="sans-serif" font-size="13" lengthAdjust="spacing" textLength="8.2202" x="88.2122" y="75.6948">1</text><text fill="#000000" font-family="sans-serif" font-size="13" lengthAdjust="spacing" textLength="6.2651" x="55.2621" y="120.7248">*</text></g><!--link Bank to Customer--><g class="link" data-entity-1="Bank" data-entity-2="Customer" data-source-line="22" data-uid="lnk9" id="link_Bank_Customer"><path codeLine="22" d="M125.98,55.33 C135.31,72.12 148.11,95.2 159.03,114.86" fill="none" id="Bank-Customer" style="stroke:#181818;stroke-width:1;"/><text fill="#000000" font-family="sans-serif" font-size="13" lengthAdjust="spacing" textLength="6.2651" x="122.4382" y="75.6948">*</text><text fill="#000000" font-family="sans-serif" font-size="13" lengthAdjust="spacing" textLength="6.2651" x="148.7559" y="104.183">*</text></g><!--link Customer to Account--><g class="link" data-entity-1="Customer" data-entity-2="Account" data-source-line="23" data-uid="lnk10" id="link_Customer_Account"><path codeLine="23" d="M181.03,196.31 C181.03,214.92 181.03,231.02 181.03,249.63" fill="none" id="Customer-to-Account" style="stroke:#181818;stroke-width:1;"/><polygon fill="#181818" points="181.03,255.63,185.03,246.63,181.03,250.63,177.03,246.63,181.03,255.63" style="stroke:#181818;stroke-width:1;"/><text fill="#000000" font-family="sans-serif" font-size="13" lengthAdjust="spacing" textLength="8.2202" x="172.4101" y="216.6044">1</text><text fill="#000000" font-family="sans-serif" font-size="13" lengthAdjust="spacing" textLength="24.667" x="155.097" y="245.218">1..5</text></g><!--reverse link Account to SavingsAccount--><g class="link" data-entity-1="Account" data-entity-2="SavingsAccount" data-source-line="24" data-uid="lnk11" id="link_Account_SavingsAccount"><path codeLine="24" d="M142.567,352.1176 C127.027,374.1876 118.63,386.14 105.47,404.84" fill="none" id="Account-backto-SavingsAccount" style="stroke:#181818;stroke-width:1;"/><polygon fill="none" points="152.93,337.4,137.6611,348.6633,147.4729,355.5719,152.93,337.4" style="stroke:#181818;stroke-width:1;"/></g><!--reverse link Account to CheckingAccount--><g class="link" data-entity-1="Account" data-entity-2="CheckingAccount" data-source-line="25" data-uid="lnk12" id="link_Account_CheckingAccount"><path codeLine="25" d="M219.4942,352.1167 C232.9242,371.1867 238.39,378.97 250.93,396.79" fill="none" id="Account-backto-CheckingAccount" style="stroke:#181818;stroke-width:1;"/><polygon fill="none" points="209.13,337.4,214.5887,355.5715,224.3998,348.662,209.13,337.4" style="stroke:#181818;stroke-width:1;"/></g><!--SRC=[RL3B3e8m4Bpx5PiUJKhYmPinKQ-62r-mb28Dj4twuAB-kmKfLB2NpSvqPsS7081rQ2rSKRMx7IozGSMQ5BbvwxJa1fuZEBp26Q4UK0jZNOwIhuamj-3lLEp2cFRA9LeYTFX5SozBRcQcqhxiE9JO1Kj_j0himp8xIVvORZXh0xVTDcdgdflAOEtkGWgNIWzv03aGq9G2sPCOoC85RA9YCYCvnpGCKteEDSkE95uy_eb-Jg-WiBA_uLT7V000]--></g></svg>