<svg xmlns="http://www.w3.org/2000/svg" xmlns:xlink="http://www.w3.org/1999/xlink" contentStyleType="text/css" data-diagram-type="CLASS" height="376px" preserveAspectRatio="none" style="width:343px;height:376px;background:#FFFFFF;" version="1.1" viewBox="0 0 343 376" width="343px" zoomAndPan="magnify"><defs/><g><!--class GasStation--><g class="entity" data-entity="GasStation" data-source-line="2" data-uid="ent0002" id="entity_GasStation"><rect fill="#F1F1F1" height="80.9766" rx="2.5" ry="2.5" style="stroke:#181818;stroke-width:0.5;" width="111.4834" x="7" y="7"/><ellipse cx="25.3385" cy="23" fill="#ADD1B2" rx="11" ry="11" style="stroke:#181818;stroke-width:1;"/><path d="M27.8117,29.1431 Q27.2306,29.4419 26.5915,29.5913 Q25.9523,29.7407 25.2467,29.7407 Q22.7399,29.7407 21.4201,28.0889 Q20.1002,26.437 20.1002,23.3159 Q20.1002,20.1865 21.4201,18.5347 Q22.7399,16.8828 25.2467,16.8828 Q25.9523,16.8828 26.5998,17.0322 Q27.2472,17.1816 27.8117,17.4805 L27.8117,20.2031 Q27.1808,19.6221 26.5873,19.3523 Q25.9938,19.0825 25.3629,19.0825 Q24.0182,19.0825 23.3334,20.1492 Q22.6486,21.2158 22.6486,23.3159 Q22.6486,25.4077 23.3334,26.4744 Q24.0182,27.541 25.3629,27.541 Q25.9938,27.541 26.5873,27.2712 Q27.1808,27.0015 27.8117,26.4204 Z " fill="#000000"/><text fill="#000000" font-family="sans-serif" font-size="14" lengthAdjust="spacing" textLength="72.0645" x="40.0804" y="28.291">GasStation</text><line style="stroke:#181818;stroke-width:0.5;" x1="8" x2="117.4834" y1="39" y2="39"/><text fill="#000000" font-family="sans-serif" font-size="14" lengthAdjust="spacing" textLength="35.2324" x="13" y="56.5352">Int Id</text><text fill="#000000" font-family="sans-serif" font-size="14" lengthAdjust="spacing" textLength="99.4834" x="13" y="73.0234">String Address</text><line style="stroke:#181818;stroke-width:0.5;" x1="8" x2="117.4834" y1="79.9766" y2="79.9766"/></g><!--class DailyPrice--><g class="entity" data-entity="DailyPrice" data-source-line="7" data-uid="ent0003" id="entity_DailyPrice"><rect fill="#F1F1F1" height="80.9766" rx="2.5" ry="2.5" style="stroke:#181818;stroke-width:0.5;" width="98.1104" x="107.69" y="288.95"/><ellipse cx="122.69" cy="304.95" fill="#ADD1B2" rx="11" ry="11" style="stroke:#181818;stroke-width:1;"/><path d="M125.1631,311.0931 Q124.5821,311.3919 123.9429,311.5413 Q123.3038,311.6907 122.5982,311.6907 Q120.0914,311.6907 118.7715,310.0389 Q117.4517,308.387 117.4517,305.2659 Q117.4517,302.1365 118.7715,300.4847 Q120.0914,298.8328 122.5982,298.8328 Q123.3038,298.8328 123.9512,298.9822 Q124.5987,299.1316 125.1631,299.4305 L125.1631,302.1531 Q124.5323,301.5721 123.9388,301.3023 Q123.3453,301.0325 122.7144,301.0325 Q121.3697,301.0325 120.6849,302.0992 Q120.0001,303.1658 120.0001,305.2659 Q120.0001,307.3577 120.6849,308.4244 Q121.3697,309.491 122.7144,309.491 Q123.3453,309.491 123.9388,309.2212 Q124.5323,308.9515 125.1631,308.3704 Z " fill="#000000"/><text fill="#000000" font-family="sans-serif" font-size="14" lengthAdjust="spacing" textLength="66.1104" x="136.69" y="310.241">DailyPrice</text><line style="stroke:#181818;stroke-width:0.5;" x1="108.69" x2="204.8004" y1="320.95" y2="320.95"/><text fill="#000000" font-family="sans-serif" font-size="14" lengthAdjust="spacing" textLength="66.9375" x="113.69" y="338.4852">Date Date</text><text fill="#000000" font-family="sans-serif" font-size="14" lengthAdjust="spacing" textLength="85.3467" x="113.69" y="354.9734">Double Price</text><line style="stroke:#181818;stroke-width:0.5;" x1="108.69" x2="204.8004" y1="361.9266" y2="361.9266"/></g><!--class FuelPurchase--><g class="entity" data-entity="FuelPurchase" data-source-line="12" data-uid="ent0004" id="entity_FuelPurchase"><rect fill="#F1F1F1" height="80.9766" rx="2.5" ry="2.5" style="stroke:#181818;stroke-width:0.5;" width="120.7236" x="115.38" y="147.98"/><ellipse cx="130.38" cy="163.98" fill="#ADD1B2" rx="11" ry="11" style="stroke:#181818;stroke-width:1;"/><path d="M132.8531,170.1231 Q132.2721,170.4219 131.6329,170.5713 Q130.9938,170.7207 130.2882,170.7207 Q127.7814,170.7207 126.4615,169.0689 Q125.1417,167.417 125.1417,164.2959 Q125.1417,161.1665 126.4615,159.5147 Q127.7814,157.8628 130.2882,157.8628 Q130.9938,157.8628 131.6412,158.0122 Q132.2887,158.1616 132.8531,158.4605 L132.8531,161.1831 Q132.2223,160.6021 131.6288,160.3323 Q131.0353,160.0625 130.4044,160.0625 Q129.0597,160.0625 128.3749,161.1292 Q127.6901,162.1958 127.6901,164.2959 Q127.6901,166.3877 128.3749,167.4544 Q129.0597,168.521 130.4044,168.521 Q131.0353,168.521 131.6288,168.2512 Q132.2223,167.9815 132.8531,167.4004 Z " fill="#000000"/><text fill="#000000" font-family="sans-serif" font-size="14" lengthAdjust="spacing" textLength="88.7236" x="144.38" y="169.271">FuelPurchase</text><line style="stroke:#181818;stroke-width:0.5;" x1="116.38" x2="235.1036" y1="179.98" y2="179.98"/><text fill="#000000" font-family="sans-serif" font-size="14" lengthAdjust="spacing" textLength="35.2324" x="121.38" y="197.5152">Int Id</text><text fill="#000000" font-family="sans-serif" font-size="14" lengthAdjust="spacing" textLength="52.6641" x="121.38" y="214.0034">Int Liter</text><line style="stroke:#181818;stroke-width:0.5;" x1="116.38" x2="235.1036" y1="220.9566" y2="220.9566"/></g><!--class FuelPump--><g class="entity" data-entity="FuelPump" data-source-line="17" data-uid="ent0005" id="entity_FuelPump"><rect fill="#F1F1F1" height="80.9766" rx="2.5" ry="2.5" style="stroke:#181818;stroke-width:0.5;" width="141.8145" x="153.83" y="7"/><ellipse cx="188.3892" cy="23" fill="#ADD1B2" rx="11" ry="11" style="stroke:#181818;stroke-width:1;"/><path d="M190.8623,29.1431 Q190.2813,29.4419 189.6421,29.5913 Q189.0029,29.7407 188.2974,29.7407 Q185.7905,29.7407 184.4707,28.0889 Q183.1509,26.437 183.1509,23.3159 Q183.1509,20.1865 184.4707,18.5347 Q185.7905,16.8828 188.2974,16.8828 Q189.0029,16.8828 189.6504,17.0322 Q190.2979,17.1816 190.8623,17.4805 L190.8623,20.2031 Q190.2315,19.6221 189.638,19.3523 Q189.0445,19.0825 188.4136,19.0825 Q187.0689,19.0825 186.3841,20.1492 Q185.6992,21.2158 185.6992,23.3159 Q185.6992,25.4077 186.3841,26.4744 Q187.0689,27.541 188.4136,27.541 Q189.0445,27.541 189.638,27.2712 Q190.2315,27.0015 190.8623,26.4204 Z " fill="#000000"/><text fill="#000000" font-family="sans-serif" font-size="14" lengthAdjust="spacing" textLength="66.3496" x="206.7357" y="28.291">FuelPump</text><line style="stroke:#181818;stroke-width:0.5;" x1="154.83" x2="294.6445" y1="39" y2="39"/><text fill="#000000" font-family="sans-serif" font-size="14" lengthAdjust="spacing" textLength="115.1377" x="159.83" y="56.5352">Int PumpNumber</text><text fill="#000000" font-family="sans-serif" font-size="14" lengthAdjust="spacing" textLength="129.8145" x="159.83" y="73.0234">Boolean SelfService</text><line style="stroke:#181818;stroke-width:0.5;" x1="154.83" x2="294.6445" y1="79.9766" y2="79.9766"/></g><!--class Fuel--><g class="entity" data-entity="Fuel" data-source-line="22" data-uid="ent0006" id="entity_Fuel"><rect fill="#F1F1F1" height="80.9766" rx="2.5" ry="2.5" style="stroke:#181818;stroke-width:0.5;" width="95.3438" x="241.07" y="288.95"/><ellipse cx="271.9562" cy="304.95" fill="#ADD1B2" rx="11" ry="11" style="stroke:#181818;stroke-width:1;"/><path d="M274.4294,311.0931 Q273.8483,311.3919 273.2092,311.5413 Q272.57,311.6907 271.8644,311.6907 Q269.3576,311.6907 268.0378,310.0389 Q266.7179,308.387 266.7179,305.2659 Q266.7179,302.1365 268.0378,300.4847 Q269.3576,298.8328 271.8644,298.8328 Q272.57,298.8328 273.2175,298.9822 Q273.8649,299.1316 274.4294,299.4305 L274.4294,302.1531 Q273.7985,301.5721 273.205,301.3023 Q272.6115,301.0325 271.9806,301.0325 Q270.6359,301.0325 269.9511,302.0992 Q269.2663,303.1658 269.2663,305.2659 Q269.2663,307.3577 269.9511,308.4244 Q270.6359,309.491 271.9806,309.491 Q272.6115,309.491 273.205,309.2212 Q273.7985,308.9515 274.4294,308.3704 Z " fill="#000000"/><text fill="#000000" font-family="sans-serif" font-size="14" lengthAdjust="spacing" textLength="28.041" x="289.4865" y="310.241">Fuel</text><line style="stroke:#181818;stroke-width:0.5;" x1="242.07" x2="335.4138" y1="320.95" y2="320.95"/><text fill="#000000" font-family="sans-serif" font-size="14" lengthAdjust="spacing" textLength="83.3438" x="247.07" y="338.4852">String Name</text><text fill="#000000" font-family="sans-serif" font-size="14" lengthAdjust="spacing" textLength="69.8906" x="247.07" y="354.9734">Int Octane</text><line style="stroke:#181818;stroke-width:0.5;" x1="242.07" x2="335.4138" y1="361.9266" y2="361.9266"/></g><!--link GasStation to DailyPrice--><g class="link" data-entity-1="GasStation" data-entity-2="DailyPrice" data-source-line="28" data-uid="lnk7" id="link_GasStation_DailyPrice"><path codeLine="28" d="M66.49,88.28 C70.92,125.58 80.04,182.42 97.74,228.95 C105.67,249.79 117.81,271.26 129.03,288.9" fill="none" id="GasStation-DailyPrice" style="stroke:#181818;stroke-width:1;"/><text fill="#000000" font-family="sans-serif" font-size="13" lengthAdjust="spacing" textLength="8.2202" x="58.4674" y="108.5696">1</text><text fill="#000000" font-family="sans-serif" font-size="13" lengthAdjust="spacing" textLength="6.2651" x="117.7736" y="278.2385">*</text></g><!--reverse link GasStation to FuelPump--><g class="link" data-entity-1="GasStation" data-entity-2="FuelPump" data-source-line="29" data-uid="lnk8" id="link_GasStation_FuelPump"><path codeLine="29" d="M130.75,47.49 C142.34,47.49 141.93,47.49 153.53,47.49" fill="none" id="GasStation-backto-FuelPump" style="stroke:#181818;stroke-width:1;"/><polygon fill="#181818" points="118.75,47.49,124.75,51.49,130.75,47.49,124.75,43.49,118.75,47.49" style="stroke:#181818;stroke-width:1;"/><text fill="#000000" font-family="sans-serif" font-size="13" lengthAdjust="spacing" textLength="8.2202" x="126.4527" y="44.1175">1</text><text fill="#000000" font-family="sans-serif" font-size="13" lengthAdjust="spacing" textLength="32.8872" x="113.0516" y="61.9262">1..12</text></g><!--link DailyPrice to Fuel--><g class="link" data-entity-1="DailyPrice" data-entity-2="Fuel" data-source-line="30" data-uid="lnk9" id="link_DailyPrice_Fuel"><path codeLine="30" d="M206.24,329.44 C217.74,329.44 229.23,329.44 240.72,329.44" fill="none" id="DailyPrice-Fuel" style="stroke:#181818;stroke-width:1;"/><text fill="#000000" font-family="sans-serif" font-size="13" lengthAdjust="spacing" textLength="6.2651" x="213.6407" y="325.9757">*</text><text fill="#000000" font-family="sans-serif" font-size="13" lengthAdjust="spacing" textLength="8.2202" x="224.771" y="325.884">1</text></g><!--link FuelPump to FuelPurchase--><g class="link" data-entity-1="FuelPump" data-entity-2="FuelPurchase" data-source-line="31" data-uid="lnk10" id="link_FuelPump_FuelPurchase"><path codeLine="31" d="M210.7,88.31 C204.14,106.92 196.35,129.02 189.79,147.63" fill="none" id="FuelPump-FuelPurchase" style="stroke:#181818;stroke-width:1;"/><text fill="#000000" font-family="sans-serif" font-size="13" lengthAdjust="spacing" textLength="8.2202" x="199.8429" y="108.6044">1</text><text fill="#000000" font-family="sans-serif" font-size="13" lengthAdjust="spacing" textLength="6.2651" x="185.6418" y="137.218">*</text></g><!--link FuelPurchase to DailyPrice--><g class="link" data-entity-1="FuelPurchase" data-entity-2="DailyPrice" data-source-line="32" data-uid="lnk11" id="link_FuelPurchase_DailyPrice"><path codeLine="32" d="M170.3,229.29 C167.75,247.9 164.73,270 162.19,288.61" fill="none" id="FuelPurchase-DailyPrice" style="stroke:#181818;stroke-width:1;"/><text fill="#000000" font-family="sans-serif" font-size="13" lengthAdjust="spacing" textLength="6.2651" x="162.9757" y="249.5844">*</text><text fill="#000000" font-family="sans-serif" font-size="13" lengthAdjust="spacing" textLength="8.2202" x="154.4475" y="278.1997">1</text></g><!--link FuelPump to Fuel--><g class="link" data-entity-1="FuelPump" data-entity-2="Fuel" data-source-line="33" data-uid="lnk12" id="link_FuelPump_Fuel"><path codeLine="33" d="M237.3,88.44 C242.75,106.52 248.96,128.22 253.74,147.98 C265.38,196.05 275.76,252.07 282.13,288.79" fill="none" id="FuelPump-Fuel" style="stroke:#181818;stroke-width:1;"/><text fill="#000000" font-family="sans-serif" font-size="13" lengthAdjust="spacing" textLength="6.2651" x="232.7846" y="108.4513">*</text><text fill="#000000" font-family="sans-serif" font-size="13" lengthAdjust="spacing" textLength="6.2651" x="274.5007" y="278.1096">*</text></g><!--SRC=[PP1H2eCm38RVSuhIHq71tM13DWR32PuWrcmhr3hQEXXZTvzMqKxxK9Bc_vBc5mgjPIUqfKCdMyq-mFfprewTQn-MpaXzP_kwDcGjV064PpAKwbqOAMXYCdJahp5hkqeHyu85EdQaYiw81rhQZXh2YtHara3p3CH3cdTDrSk6fqFRAaBDIbAtainhCsz2fproR6XkTHKEjPT3O05FUHppY0ShhifHpDCaINTy_Xy4TlHeNnzhC2ymTmqzW3z31j2JmU25Zm8Uu0S0]--></g></svg>