<svg xmlns="http://www.w3.org/2000/svg" xmlns:xlink="http://www.w3.org/1999/xlink" contentStyleType="text/css" data-diagram-type="CLASS" height="671px" preserveAspectRatio="none" style="width:667px;height:671px;background:#FFFFFF;" version="1.1" viewBox="0 0 667 671" width="667px" zoomAndPan="magnify"><defs/><g><!--class SensorController--><g class="entity" data-entity="SensorController" data-source-line="2" data-uid="ent0002" id="entity_SensorController"><rect fill="#F1F1F1" height="64.4883" rx="2.5" ry="2.5" style="stroke:#181818;stroke-width:0.5;" width="145.6543" x="195.04" y="7"/><ellipse cx="210.04" cy="23" fill="#ADD1B2" rx="11" ry="11" style="stroke:#181818;stroke-width:1;"/><path d="M212.5131,29.1431 Q211.9321,29.4419 211.2929,29.5913 Q210.6538,29.7407 209.9482,29.7407 Q207.4414,29.7407 206.1215,28.0889 Q204.8017,26.437 204.8017,23.3159 Q204.8017,20.1865 206.1215,18.5347 Q207.4414,16.8828 209.9482,16.8828 Q210.6538,16.8828 211.3012,17.0322 Q211.9487,17.1816 212.5131,17.4805 L212.5131,20.2031 Q211.8823,19.6221 211.2888,19.3523 Q210.6953,19.0825 210.0644,19.0825 Q208.7197,19.0825 208.0349,20.1492 Q207.3501,21.2158 207.3501,23.3159 Q207.3501,25.4077 208.0349,26.4744 Q208.7197,27.541 210.0644,27.541 Q210.6953,27.541 211.2888,27.2712 Q211.8823,27.0015 212.5131,26.4204 Z " fill="#000000"/><text fill="#000000" font-family="sans-serif" font-size="14" lengthAdjust="spacing" textLength="113.6543" x="224.04" y="28.291">SensorController</text><line style="stroke:#181818;stroke-width:0.5;" x1="196.04" x2="339.6943" y1="39" y2="39"/><text fill="#000000" font-family="sans-serif" font-size="14" lengthAdjust="spacing" textLength="12.8584" x="201.04" y="56.5352">id</text><line style="stroke:#181818;stroke-width:0.5;" x1="196.04" x2="339.6943" y1="63.4883" y2="63.4883"/></g><!--class Sensor--><g class="entity" data-entity="Sensor" data-source-line="6" data-uid="ent0003" id="entity_Sensor"><rect fill="#F1F1F1" height="97.4648" rx="2.5" ry="2.5" style="stroke:#181818;stroke-width:0.5;" width="132.4766" x="181.63" y="399.96"/><ellipse cx="221.3725" cy="415.96" fill="#ADD1B2" rx="11" ry="11" style="stroke:#181818;stroke-width:1;"/><path d="M223.8457,422.1031 Q223.2646,422.4019 222.6255,422.5513 Q221.9863,422.7007 221.2807,422.7007 Q218.7739,422.7007 217.4541,421.0489 Q216.1342,419.397 216.1342,416.2759 Q216.1342,413.1465 217.4541,411.4947 Q218.7739,409.8428 221.2807,409.8428 Q221.9863,409.8428 222.6338,409.9922 Q223.2812,410.1416 223.8457,410.4405 L223.8457,413.1631 Q223.2148,412.5821 222.6213,412.3123 Q222.0278,412.0425 221.3969,412.0425 Q220.0522,412.0425 219.3674,413.1092 Q218.6826,414.1758 218.6826,416.2759 Q218.6826,418.3677 219.3674,419.4344 Q220.0522,420.501 221.3969,420.501 Q222.0278,420.501 222.6213,420.2312 Q223.2148,419.9615 223.8457,419.3804 Z " fill="#000000"/><text fill="#000000" font-family="sans-serif" font-size="14" lengthAdjust="spacing" textLength="45.4932" x="240.8709" y="421.251">Sensor</text><line style="stroke:#181818;stroke-width:0.5;" x1="182.63" x2="313.1066" y1="431.96" y2="431.96"/><text fill="#000000" font-family="sans-serif" font-size="14" lengthAdjust="spacing" textLength="65.3037" x="187.63" y="449.4952">Integer id</text><text fill="#000000" font-family="sans-serif" font-size="14" lengthAdjust="spacing" textLength="120.4766" x="187.63" y="465.9834">String description</text><text fill="#000000" font-family="sans-serif" font-size="14" lengthAdjust="spacing" textLength="117.5986" x="187.63" y="482.4717">Double threshold</text><line style="stroke:#181818;stroke-width:0.5;" x1="182.63" x2="313.1066" y1="489.4248" y2="489.4248"/></g><!--class Measurement--><g class="entity" data-entity="Measurement" data-source-line="12" data-uid="ent0004" id="entity_Measurement"><rect fill="#F1F1F1" height="80.9766" rx="2.5" ry="2.5" style="stroke:#181818;stroke-width:0.5;" width="123.7383" x="7" y="578.73"/><ellipse cx="22" cy="594.73" fill="#ADD1B2" rx="11" ry="11" style="stroke:#181818;stroke-width:1;"/><path d="M24.4731,600.8731 Q23.8921,601.1719 23.2529,601.3213 Q22.6138,601.4707 21.9082,601.4707 Q19.4014,601.4707 18.0815,599.8189 Q16.7617,598.167 16.7617,595.0459 Q16.7617,591.9165 18.0815,590.2647 Q19.4014,588.6128 21.9082,588.6128 Q22.6138,588.6128 23.2612,588.7622 Q23.9087,588.9116 24.4731,589.2105 L24.4731,591.9331 Q23.8423,591.3521 23.2488,591.0823 Q22.6553,590.8125 22.0244,590.8125 Q20.6797,590.8125 19.9949,591.8792 Q19.3101,592.9458 19.3101,595.0459 Q19.3101,597.1377 19.9949,598.2044 Q20.6797,599.271 22.0244,599.271 Q22.6553,599.271 23.2488,599.0012 Q23.8423,598.7315 24.4731,598.1504 Z " fill="#000000"/><text fill="#000000" font-family="sans-serif" font-size="14" lengthAdjust="spacing" textLength="91.7383" x="36" y="600.021">Measurement</text><line style="stroke:#181818;stroke-width:0.5;" x1="8" x2="129.7383" y1="610.73" y2="610.73"/><text fill="#000000" font-family="sans-serif" font-size="14" lengthAdjust="spacing" textLength="88.375" x="13" y="628.2652">Double value</text><text fill="#000000" font-family="sans-serif" font-size="14" lengthAdjust="spacing" textLength="110.0518" x="13" y="644.7534">Long timestamp</text><line style="stroke:#181818;stroke-width:0.5;" x1="8" x2="129.7383" y1="651.7066" y2="651.7066"/></g><!--class TemperatureSensor--><g class="entity" data-entity="TemperatureSensor" data-source-line="17" data-uid="ent0005" id="entity_TemperatureSensor"><rect fill="#F1F1F1" height="80.9766" rx="2.5" ry="2.5" style="stroke:#181818;stroke-width:0.5;" width="164.7402" x="165.5" y="578.73"/><ellipse cx="180.5" cy="594.73" fill="#ADD1B2" rx="11" ry="11" style="stroke:#181818;stroke-width:1;"/><path d="M182.9731,600.8731 Q182.3921,601.1719 181.7529,601.3213 Q181.1138,601.4707 180.4082,601.4707 Q177.9014,601.4707 176.5815,599.8189 Q175.2617,598.167 175.2617,595.0459 Q175.2617,591.9165 176.5815,590.2647 Q177.9014,588.6128 180.4082,588.6128 Q181.1138,588.6128 181.7612,588.7622 Q182.4087,588.9116 182.9731,589.2105 L182.9731,591.9331 Q182.3423,591.3521 181.7488,591.0823 Q181.1553,590.8125 180.5244,590.8125 Q179.1797,590.8125 178.4949,591.8792 Q177.8101,592.9458 177.8101,595.0459 Q177.8101,597.1377 178.4949,598.2044 Q179.1797,599.271 180.5244,599.271 Q181.1553,599.271 181.7488,599.0012 Q182.3423,598.7315 182.9731,598.1504 Z " fill="#000000"/><text fill="#000000" font-family="sans-serif" font-size="14" lengthAdjust="spacing" textLength="132.7402" x="194.5" y="600.021">TemperatureSensor</text><line style="stroke:#181818;stroke-width:0.5;" x1="166.5" x2="329.2402" y1="610.73" y2="610.73"/><text fill="#000000" font-family="sans-serif" font-size="14" lengthAdjust="spacing" textLength="78.668" x="171.5" y="628.2652">Double min</text><text fill="#000000" font-family="sans-serif" font-size="14" lengthAdjust="spacing" textLength="82.25" x="171.5" y="644.7534">Double max</text><line style="stroke:#181818;stroke-width:0.5;" x1="166.5" x2="329.2402" y1="651.7066" y2="651.7066"/></g><!--class PowerMeter--><g class="entity" data-entity="PowerMeter" data-source-line="22" data-uid="ent0006" id="entity_PowerMeter"><rect fill="#F1F1F1" height="64.4883" rx="2.5" ry="2.5" style="stroke:#181818;stroke-width:0.5;" width="186.9658" x="365.39" y="586.98"/><ellipse cx="414.9847" cy="602.98" fill="#ADD1B2" rx="11" ry="11" style="stroke:#181818;stroke-width:1;"/><path d="M417.4579,609.1231 Q416.8768,609.4219 416.2377,609.5713 Q415.5985,609.7207 414.8929,609.7207 Q412.3861,609.7207 411.0663,608.0689 Q409.7464,606.417 409.7464,603.2959 Q409.7464,600.1665 411.0663,598.5147 Q412.3861,596.8628 414.8929,596.8628 Q415.5985,596.8628 416.246,597.0122 Q416.8934,597.1616 417.4579,597.4605 L417.4579,600.1831 Q416.827,599.6021 416.2335,599.3323 Q415.64,599.0625 415.0091,599.0625 Q413.6644,599.0625 412.9796,600.1292 Q412.2948,601.1958 412.2948,603.2959 Q412.2948,605.3877 412.9796,606.4544 Q413.6644,607.521 415.0091,607.521 Q415.64,607.521 416.2335,607.2512 Q416.827,606.9815 417.4579,606.4004 Z " fill="#000000"/><text fill="#000000" font-family="sans-serif" font-size="14" lengthAdjust="spacing" textLength="79.2764" x="435.4847" y="608.271">PowerMeter</text><line style="stroke:#181818;stroke-width:0.5;" x1="366.39" x2="551.3558" y1="618.98" y2="618.98"/><text fill="#000000" font-family="sans-serif" font-size="14" lengthAdjust="spacing" textLength="174.9658" x="371.39" y="636.5152">Double totalConsumption</text><line style="stroke:#181818;stroke-width:0.5;" x1="366.39" x2="551.3558" y1="643.4683" y2="643.4683"/></g><!--class Unit--><g class="entity" data-entity="Unit" data-source-line="26" data-uid="ent0007" id="entity_Unit"><rect fill="#F1F1F1" height="89.5977" rx="2.5" ry="2.5" style="stroke:#181818;stroke-width:0.5;" width="73.3574" x="587.19" y="574.42"/><ellipse cx="602.19" cy="594.7305" fill="#EB937F" rx="11" ry="11" style="stroke:#181818;stroke-width:1;"/><path d="M605.8043,601.2305 L598.0845,601.2305 L598.0845,588.8375 L605.8043,588.8375 L605.8043,590.9957 L600.5333,590.9957 L600.5333,593.6685 L605.3062,593.6685 L605.3062,595.8267 L600.5333,595.8267 L600.5333,599.0723 L605.8043,599.0723 Z " fill="#000000"/><text fill="#000000" font-family="sans-serif" font-size="12" font-style="italic" lengthAdjust="spacing" textLength="45.3574" x="614.19" y="591.0216">&#171;enum&#187;</text><text fill="#000000" font-family="sans-serif" font-size="14" lengthAdjust="spacing" textLength="27.6719" x="623.0328" y="607.088">Unit</text><line style="stroke:#181818;stroke-width:0.5;" x1="588.19" x2="659.5474" y1="615.0411" y2="615.0411"/><text fill="#000000" font-family="sans-serif" font-size="14" lengthAdjust="spacing" textLength="53.5527" x="593.19" y="632.5763">CELSIUS</text><text fill="#000000" font-family="sans-serif" font-size="14" lengthAdjust="spacing" textLength="39.3408" x="593.19" y="649.0645">WATT</text><line style="stroke:#181818;stroke-width:0.5;" x1="588.19" x2="659.5474" y1="656.0177" y2="656.0177"/></g><!--class Room--><g class="entity" data-entity="Room" data-source-line="31" data-uid="ent0008" id="entity_Room"><rect fill="#F1F1F1" height="64.4883" rx="2.5" ry="2.5" style="stroke:#181818;stroke-width:0.5;" width="88.8359" x="305.45" y="132.49"/><ellipse cx="328.4212" cy="148.49" fill="#ADD1B2" rx="11" ry="11" style="stroke:#181818;stroke-width:1;"/><path d="M330.8944,154.6331 Q330.3133,154.9319 329.6742,155.0813 Q329.035,155.2307 328.3294,155.2307 Q325.8226,155.2307 324.5028,153.5789 Q323.183,151.927 323.183,148.8059 Q323.183,145.6765 324.5028,144.0247 Q325.8226,142.3728 328.3294,142.3728 Q329.035,142.3728 329.6825,142.5222 Q330.3299,142.6716 330.8944,142.9705 L330.8944,145.6931 Q330.2635,145.1121 329.67,144.8423 Q329.0765,144.5725 328.4457,144.5725 Q327.1009,144.5725 326.4161,145.6392 Q325.7313,146.7058 325.7313,148.8059 Q325.7313,150.8977 326.4161,151.9644 Q327.1009,153.031 328.4457,153.031 Q329.0765,153.031 329.67,152.7612 Q330.2635,152.4915 330.8944,151.9104 Z " fill="#000000"/><text fill="#000000" font-family="sans-serif" font-size="14" lengthAdjust="spacing" textLength="39.1221" x="344.1926" y="153.781">Room</text><line style="stroke:#181818;stroke-width:0.5;" x1="306.45" x2="393.2859" y1="164.49" y2="164.49"/><text fill="#000000" font-family="sans-serif" font-size="14" lengthAdjust="spacing" textLength="76.8359" x="311.45" y="182.0252">String label</text><line style="stroke:#181818;stroke-width:0.5;" x1="306.45" x2="393.2859" y1="188.9783" y2="188.9783"/></g><!--class Apartment--><g class="entity" data-entity="Apartment" data-source-line="35" data-uid="ent0009" id="entity_Apartment"><rect fill="#F1F1F1" height="80.9766" rx="2.5" ry="2.5" style="stroke:#181818;stroke-width:0.5;" width="109.5557" x="301.09" y="257.98"/><ellipse cx="318.6072" cy="273.98" fill="#ADD1B2" rx="11" ry="11" style="stroke:#181818;stroke-width:1;"/><path d="M321.0803,280.1231 Q320.4993,280.4219 319.8601,280.5713 Q319.221,280.7207 318.5154,280.7207 Q316.0086,280.7207 314.6887,279.0689 Q313.3689,277.417 313.3689,274.2959 Q313.3689,271.1665 314.6887,269.5147 Q316.0086,267.8628 318.5154,267.8628 Q319.221,267.8628 319.8684,268.0122 Q320.5159,268.1616 321.0803,268.4605 L321.0803,271.1831 Q320.4495,270.6021 319.856,270.3323 Q319.2625,270.0625 318.6316,270.0625 Q317.2869,270.0625 316.6021,271.1292 Q315.9172,272.1958 315.9172,274.2959 Q315.9172,276.3877 316.6021,277.4544 Q317.2869,278.521 318.6316,278.521 Q319.2625,278.521 319.856,278.2512 Q320.4495,277.9815 321.0803,277.4004 Z " fill="#000000"/><text fill="#000000" font-family="sans-serif" font-size="14" lengthAdjust="spacing" textLength="71.9619" x="333.1666" y="279.271">Apartment</text><line style="stroke:#181818;stroke-width:0.5;" x1="302.09" x2="409.6457" y1="289.98" y2="289.98"/><text fill="#000000" font-family="sans-serif" font-size="14" lengthAdjust="spacing" textLength="97.5557" x="307.09" y="307.5152">String address</text><text fill="#000000" font-family="sans-serif" font-size="14" lengthAdjust="spacing" textLength="81.0947" x="307.09" y="324.0034">String email</text><line style="stroke:#181818;stroke-width:0.5;" x1="302.09" x2="409.6457" y1="330.9566" y2="330.9566"/></g><!--class Resident--><g class="entity" data-entity="Resident" data-source-line="40" data-uid="ent0010" id="entity_Resident"><rect fill="#F1F1F1" height="97.4648" rx="2.5" ry="2.5" style="stroke:#181818;stroke-width:0.5;" width="125.4082" x="349.17" y="399.96"/><ellipse cx="379.9363" cy="415.96" fill="#ADD1B2" rx="11" ry="11" style="stroke:#181818;stroke-width:1;"/><path d="M382.4094,422.1031 Q381.8283,422.4019 381.1892,422.5513 Q380.55,422.7007 379.8445,422.7007 Q377.3376,422.7007 376.0178,421.0489 Q374.698,419.397 374.698,416.2759 Q374.698,413.1465 376.0178,411.4947 Q377.3376,409.8428 379.8445,409.8428 Q380.55,409.8428 381.1975,409.9922 Q381.845,410.1416 382.4094,410.4405 L382.4094,413.1631 Q381.7785,412.5821 381.185,412.3123 Q380.5915,412.0425 379.9607,412.0425 Q378.6159,412.0425 377.9311,413.1092 Q377.2463,414.1758 377.2463,416.2759 Q377.2463,418.3677 377.9311,419.4344 Q378.6159,420.501 379.9607,420.501 Q380.5915,420.501 381.185,420.2312 Q381.7785,419.9615 382.4094,419.3804 Z " fill="#000000"/><text fill="#000000" font-family="sans-serif" font-size="14" lengthAdjust="spacing" textLength="58.3721" x="397.4399" y="421.251">Resident</text><line style="stroke:#181818;stroke-width:0.5;" x1="350.17" x2="473.5782" y1="431.96" y2="431.96"/><text fill="#000000" font-family="sans-serif" font-size="14" lengthAdjust="spacing" textLength="111.043" x="355.17" y="449.4952">String username</text><text fill="#000000" font-family="sans-serif" font-size="14" lengthAdjust="spacing" textLength="109.1426" x="355.17" y="465.9834">String password</text><text fill="#000000" font-family="sans-serif" font-size="14" lengthAdjust="spacing" textLength="113.4082" x="355.17" y="482.4717">Boolean isAdmin</text><line style="stroke:#181818;stroke-width:0.5;" x1="350.17" x2="473.5782" y1="489.4248" y2="489.4248"/></g><!--link SensorController to Sensor--><g class="link" data-entity-1="SensorController" data-entity-2="Sensor" data-source-line="46" data-uid="lnk11" id="link_SensorController_Sensor"><path codeLine="46" d="M266.32,71.88 C262.83,142.84 254.674,309.0772 250.534,393.4772" fill="none" id="SensorController-to-Sensor" style="stroke:#181818;stroke-width:1;"/><polygon fill="#181818" points="250.24,399.47,254.6761,390.6768,250.485,394.476,246.6857,390.2848,250.24,399.47" style="stroke:#181818;stroke-width:1;"/><text fill="#000000" font-family="sans-serif" font-size="13" lengthAdjust="spacing" textLength="8.2202" x="257.2836" y="92.1289">1</text><text fill="#000000" font-family="sans-serif" font-size="13" lengthAdjust="spacing" textLength="24.667" x="224.9329" y="389.0836">0..1</text></g><!--link Sensor to Measurement--><g class="link" data-entity-1="Sensor" data-entity-2="Measurement" data-source-line="47" data-uid="lnk12" id="link_Sensor_Measurement"><path codeLine="47" d="M181.19,477.95 C157.41,490.47 131.85,507.04 112.87,527.42 C99.38,541.91 91.5372,555.7613 84.3972,572.9013" fill="none" id="Sensor-to-Measurement" style="stroke:#181818;stroke-width:1;"/><polygon fill="#181818" points="82.09,578.44,89.2433,571.6702,84.0127,573.8245,81.8584,568.5939,82.09,578.44" style="stroke:#181818;stroke-width:1;"/><text fill="#000000" font-family="sans-serif" font-size="13" lengthAdjust="spacing" textLength="8.2202" x="165.4716" y="477.9151">1</text><text fill="#000000" font-family="sans-serif" font-size="13" lengthAdjust="spacing" textLength="6.2651" x="77.8048" y="568.038">*</text></g><!--link Sensor to Measurement--><g class="link" data-entity-1="Sensor" data-entity-2="Measurement" data-source-line="48" data-uid="lnk13" id="link_Sensor_Measurement"><path codeLine="48" d="M197.05,497.53 C169.97,523.03 141.4091,549.9277 115.7091,574.1177" fill="none" id="Sensor-to-Measurement-1" style="stroke:#181818;stroke-width:1;"/><polygon fill="#181818" points="111.34,578.23,120.6351,574.9742,114.9809,574.803,115.152,569.1488,111.34,578.23" style="stroke:#181818;stroke-width:1;"/><text fill="#000000" font-family="sans-serif" font-size="13" lengthAdjust="spacing" textLength="57.1733" x="164.74" y="540.9884">lastValue</text><text fill="#000000" font-family="sans-serif" font-size="13" lengthAdjust="spacing" textLength="8.2202" x="181.3567" y="518.0427">1</text><text fill="#000000" font-family="sans-serif" font-size="13" lengthAdjust="spacing" textLength="8.2202" x="109.4888" y="568.0953">1</text></g><!--reverse link Sensor to TemperatureSensor--><g class="link" data-entity-1="Sensor" data-entity-2="TemperatureSensor" data-source-line="49" data-uid="lnk14" id="link_Sensor_TemperatureSensor"><path codeLine="49" d="M247.87,515.53 C247.87,541.03 247.87,554.04 247.87,578.23" fill="none" id="Sensor-backto-TemperatureSensor" style="stroke:#181818;stroke-width:1;"/><polygon fill="none" points="247.87,497.53,241.87,515.53,253.87,515.53,247.87,497.53" style="stroke:#181818;stroke-width:1;"/></g><!--reverse link Sensor to PowerMeter--><g class="link" data-entity-1="Sensor" data-entity-2="PowerMeter" data-source-line="50" data-uid="lnk15" id="link_Sensor_PowerMeter"><path codeLine="50" d="M322.1137,508.9944 C357.8037,537.5044 387.97,561.6 419.28,586.6" fill="none" id="Sensor-backto-PowerMeter" style="stroke:#181818;stroke-width:1;"/><polygon fill="none" points="308.05,497.76,318.3689,513.6823,325.8585,504.3065,308.05,497.76" style="stroke:#181818;stroke-width:1;"/></g><!--link Sensor to Unit--><g class="link" data-entity-1="Sensor" data-entity-2="Unit" data-source-line="51" data-uid="lnk16" id="link_Sensor_Unit"><path codeLine="51" d="M314.18,488.99 C320.08,492 326.04,494.85 331.87,497.42 C433.62,542.23 472.15,521.4 569.87,574.42 C575.6,577.53 576.4603,577.7473 581.9103,581.7173" fill="none" id="Sensor-to-Unit" style="stroke:#181818;stroke-width:1;"/><polygon fill="#181818" points="586.76,585.25,581.8406,576.7178,582.7186,582.3061,577.1303,583.184,586.76,585.25" style="stroke:#181818;stroke-width:1;"/><text fill="#000000" font-family="sans-serif" font-size="13" lengthAdjust="spacing" textLength="8.2202" x="322.3225" y="490.3685">1</text><text fill="#000000" font-family="sans-serif" font-size="13" lengthAdjust="spacing" textLength="8.2202" x="570.9446" y="574.943">1</text></g><!--link SensorController to Room--><g class="link" data-entity-1="SensorController" data-entity-2="Room" data-source-line="52" data-uid="lnk17" id="link_SensorController_Room"><path codeLine="52" d="M288.77,71.73 C301.11,90.31 313.3511,108.7415 325.6811,127.3115" fill="none" id="SensorController-to-Room" style="stroke:#181818;stroke-width:1;"/><polygon fill="#181818" points="329,132.31,327.354,122.5997,326.2343,128.1446,320.6893,127.0248,329,132.31" style="stroke:#181818;stroke-width:1;"/><text fill="#000000" font-family="sans-serif" font-size="13" lengthAdjust="spacing" textLength="8.2202" x="284.0131" y="91.9503">1</text><text fill="#000000" font-family="sans-serif" font-size="13" lengthAdjust="spacing" textLength="8.2202" x="315.8937" y="121.676">1</text></g><!--reverse link Room to Apartment--><g class="link" data-entity-1="Room" data-entity-2="Apartment" data-source-line="53" data-uid="lnk18" id="link_Room_Apartment"><path codeLine="53" d="M351.8525,209.2777 C352.6725,227.3977 353.18,238.33 354.06,257.67" fill="none" id="Room-backto-Apartment" style="stroke:#181818;stroke-width:1;"/><polygon fill="#181818" points="351.31,197.29,347.5853,203.4647,351.8525,209.2777,355.5772,203.103,351.31,197.29" style="stroke:#181818;stroke-width:1;"/><text fill="#000000" font-family="sans-serif" font-size="13" lengthAdjust="spacing" textLength="22.7119" x="327.5559" y="217.5236">2..*</text><text fill="#000000" font-family="sans-serif" font-size="13" lengthAdjust="spacing" textLength="8.2202" x="345.1163" y="247.2647">1</text></g><!--link Apartment to Resident--><g class="link" data-entity-1="Apartment" data-entity-2="Resident" data-source-line="54" data-uid="lnk19" id="link_Apartment_Resident"><path codeLine="54" d="M370.88,339.19 C377.91,357.8 384.2185,374.5076 391.6085,394.0576" fill="none" id="Apartment-to-Resident" style="stroke:#181818;stroke-width:1;"/><polygon fill="#181818" points="393.73,399.67,394.2893,389.837,391.9621,394.993,386.8061,392.6657,393.73,399.67" style="stroke:#181818;stroke-width:1;"/><text fill="#000000" font-family="sans-serif" font-size="13" lengthAdjust="spacing" textLength="8.2202" x="364.6526" y="359.4684">1</text><text fill="#000000" font-family="sans-serif" font-size="13" lengthAdjust="spacing" textLength="6.2651" x="384.7753" y="389.3117">*</text></g><!--link Apartment to Sensor--><g class="link" data-entity-1="Apartment" data-entity-2="Sensor" data-source-line="55" data-uid="lnk20" id="link_Apartment_Sensor"><path codeLine="55" d="M326.93,339.19 C313.37,357.8 300.6326,375.2702 286.3926,394.8202" fill="none" id="Apartment-to-Sensor" style="stroke:#181818;stroke-width:1;"/><polygon fill="#181818" points="282.86,399.67,291.3921,394.7503,285.8038,395.6285,284.9256,390.0402,282.86,399.67" style="stroke:#181818;stroke-width:1;"/><text fill="#000000" font-family="sans-serif" font-size="13" lengthAdjust="spacing" textLength="8.2202" x="313.6981" y="359.4684">1</text><text fill="#000000" font-family="sans-serif" font-size="13" lengthAdjust="spacing" textLength="6.2651" x="281.3775" y="389.3117">*</text></g><!--SRC=[XL9RIyCm57xVhpZqST3YV9HHgDE7mGQoRlgShOSja4j9JfsW_dVJchLngTgNfCbtoJdV0G0u26OjbAYiDWkjo6WXqC3x1Fp7gsxxEUcM41w0behmw6WUt7ub6QwEKA4z65uJrwg_Uj3DNY3GoQ0zQJ5Yi4Pc6uCI5GKkdlVAH8FzuKex5-8IBJ5Pnr9Rb3KQHaukUhONb3nwcsHliTIJFgDP8-681cbYmZNGDd8erhDHDH9sYXFCv-q-pmF-ud5LBdTb__zIRBUnzKPh6P1ySmNReuZ1HSqCNVNECrXLkQRRwsEKZ8y8RT3oQbIdiMWKatXzNZlQMPjX3Ewr5iWKS5jKbpvxZsZeaba2QPf3SfDbRljz7q07m3G9HsGKCli1WJlNB4lF_UXu-FmZJUCHYH13yhzvjV7-KvLRsnWxL9TdSfjbhfAfCsWl-zWwn11YMFKbaJyWleGl]--></g></svg>