<svg xmlns="http://www.w3.org/2000/svg" xmlns:xlink="http://www.w3.org/1999/xlink" contentStyleType="text/css" data-diagram-type="CLASS" height="485px" preserveAspectRatio="none" style="width:980px;height:485px;background:#FFFFFF;" version="1.1" viewBox="0 0 980 485" width="980px" zoomAndPan="magnify"><defs/><g><!--class EBike--><g class="entity" data-entity="EBike" data-source-line="2" data-uid="ent0002" id="entity_EBike"><rect fill="#F1F1F1" height="113.9531" rx="2.5" ry="2.5" style="stroke:#181818;stroke-width:0.5;" width="190.4248" x="185.71" y="7"/><ellipse cx="258.8374" cy="23" fill="#ADD1B2" rx="11" ry="11" style="stroke:#181818;stroke-width:1;"/><path d="M261.3106,29.1431 Q260.7295,29.4419 260.0904,29.5913 Q259.4512,29.7407 258.7456,29.7407 Q256.2388,29.7407 254.919,28.0889 Q253.5992,26.437 253.5992,23.3159 Q253.5992,20.1865 254.919,18.5347 Q256.2388,16.8828 258.7456,16.8828 Q259.4512,16.8828 260.0987,17.0322 Q260.7461,17.1816 261.3106,17.4805 L261.3106,20.2031 Q260.6797,19.6221 260.0862,19.3523 Q259.4927,19.0825 258.8619,19.0825 Q257.5171,19.0825 256.8323,20.1492 Q256.1475,21.2158 256.1475,23.3159 Q256.1475,25.4077 256.8323,26.4744 Q257.5171,27.541 258.8619,27.541 Q259.4927,27.541 260.0862,27.2712 Q260.6797,27.0015 261.3106,26.4204 Z " fill="#000000"/><text fill="#000000" font-family="sans-serif" font-size="14" lengthAdjust="spacing" textLength="35.6699" x="279.3374" y="28.291">EBike</text><line style="stroke:#181818;stroke-width:0.5;" x1="186.71" x2="375.1348" y1="39" y2="39"/><text fill="#000000" font-family="sans-serif" font-size="14" lengthAdjust="spacing" textLength="94.6025" x="191.71" y="56.5352">frame : Frame</text><text fill="#000000" font-family="sans-serif" font-size="14" lengthAdjust="spacing" textLength="178.4248" x="191.71" y="73.0234">driveSystem : DriveSystem</text><text fill="#000000" font-family="sans-serif" font-size="14" lengthAdjust="spacing" textLength="147.0957" x="191.71" y="89.5117">controller : Controller</text><text fill="#000000" font-family="sans-serif" font-size="14" lengthAdjust="spacing" textLength="108.2471" x="191.71" y="106">battery : Battery</text><line style="stroke:#181818;stroke-width:0.5;" x1="186.71" x2="375.1348" y1="112.9531" y2="112.9531"/></g><!--class Frame--><g class="entity" data-entity="Frame" data-source-line="9" data-uid="ent0003" id="entity_Frame"><rect fill="#F1F1F1" height="64.4883" rx="2.5" ry="2.5" style="stroke:#181818;stroke-width:0.5;" width="73.8359" x="7" y="214.44"/><ellipse cx="22" cy="230.44" fill="#ADD1B2" rx="11" ry="11" style="stroke:#181818;stroke-width:1;"/><path d="M24.4731,236.5831 Q23.8921,236.8819 23.2529,237.0313 Q22.6138,237.1807 21.9082,237.1807 Q19.4014,237.1807 18.0815,235.5289 Q16.7617,233.877 16.7617,230.7559 Q16.7617,227.6265 18.0815,225.9747 Q19.4014,224.3228 21.9082,224.3228 Q22.6138,224.3228 23.2612,224.4722 Q23.9087,224.6216 24.4731,224.9205 L24.4731,227.6431 Q23.8423,227.0621 23.2488,226.7923 Q22.6553,226.5225 22.0244,226.5225 Q20.6797,226.5225 19.9949,227.5892 Q19.3101,228.6558 19.3101,230.7559 Q19.3101,232.8477 19.9949,233.9144 Q20.6797,234.981 22.0244,234.981 Q22.6553,234.981 23.2488,234.7112 Q23.8423,234.4415 24.4731,233.8604 Z " fill="#000000"/><text fill="#000000" font-family="sans-serif" font-size="14" lengthAdjust="spacing" textLength="41.8359" x="36" y="235.731">Frame</text><line style="stroke:#181818;stroke-width:0.5;" x1="8" x2="79.8359" y1="246.44" y2="246.44"/><text fill="#000000" font-family="sans-serif" font-size="14" lengthAdjust="spacing" textLength="32.0195" x="13" y="263.9752">steel</text><line style="stroke:#181818;stroke-width:0.5;" x1="8" x2="79.8359" y1="270.9283" y2="270.9283"/></g><!--class Wheel--><g class="entity" data-entity="Wheel" data-source-line="13" data-uid="ent0004" id="entity_Wheel"><rect fill="#F1F1F1" height="48" rx="2.5" ry="2.5" style="stroke:#181818;stroke-width:0.5;" width="72.3115" x="115.76" y="222.68"/><ellipse cx="130.76" cy="238.68" fill="#ADD1B2" rx="11" ry="11" style="stroke:#181818;stroke-width:1;"/><path d="M133.2331,244.8231 Q132.6521,245.1219 132.0129,245.2713 Q131.3738,245.4207 130.6682,245.4207 Q128.1614,245.4207 126.8415,243.7689 Q125.5217,242.117 125.5217,238.9959 Q125.5217,235.8665 126.8415,234.2147 Q128.1614,232.5628 130.6682,232.5628 Q131.3738,232.5628 132.0212,232.7122 Q132.6687,232.8616 133.2331,233.1605 L133.2331,235.8831 Q132.6023,235.3021 132.0088,235.0323 Q131.4153,234.7625 130.7844,234.7625 Q129.4397,234.7625 128.7549,235.8292 Q128.0701,236.8958 128.0701,238.9959 Q128.0701,241.0877 128.7549,242.1544 Q129.4397,243.221 130.7844,243.221 Q131.4153,243.221 132.0088,242.9512 Q132.6023,242.6815 133.2331,242.1004 Z " fill="#000000"/><text fill="#000000" font-family="sans-serif" font-size="14" lengthAdjust="spacing" textLength="40.3115" x="144.76" y="243.971">Wheel</text><line style="stroke:#181818;stroke-width:0.5;" x1="116.76" x2="187.0715" y1="254.68" y2="254.68"/><line style="stroke:#181818;stroke-width:0.5;" x1="116.76" x2="187.0715" y1="262.68" y2="262.68"/></g><!--class DriveSystem--><g class="entity" data-entity="DriveSystem" data-source-line="15" data-uid="ent0005" id="entity_DriveSystem"><rect fill="#F1F1F1" height="64.4883" rx="2.5" ry="2.5" style="stroke:#181818;stroke-width:0.5;" width="115.4053" x="223.22" y="214.44"/><ellipse cx="238.22" cy="230.44" fill="#ADD1B2" rx="11" ry="11" style="stroke:#181818;stroke-width:1;"/><path d="M240.6931,236.5831 Q240.1121,236.8819 239.4729,237.0313 Q238.8338,237.1807 238.1282,237.1807 Q235.6214,237.1807 234.3015,235.5289 Q232.9817,233.877 232.9817,230.7559 Q232.9817,227.6265 234.3015,225.9747 Q235.6214,224.3228 238.1282,224.3228 Q238.8338,224.3228 239.4812,224.4722 Q240.1287,224.6216 240.6931,224.9205 L240.6931,227.6431 Q240.0623,227.0621 239.4688,226.7923 Q238.8753,226.5225 238.2444,226.5225 Q236.8997,226.5225 236.2149,227.5892 Q235.5301,228.6558 235.5301,230.7559 Q235.5301,232.8477 236.2149,233.9144 Q236.8997,234.981 238.2444,234.981 Q238.8753,234.981 239.4688,234.7112 Q240.0623,234.4415 240.6931,233.8604 Z " fill="#000000"/><text fill="#000000" font-family="sans-serif" font-size="14" lengthAdjust="spacing" textLength="83.4053" x="252.22" y="235.731">DriveSystem</text><line style="stroke:#181818;stroke-width:0.5;" x1="224.22" x2="337.6253" y1="246.44" y2="246.44"/><text fill="#000000" font-family="sans-serif" font-size="14" lengthAdjust="spacing" textLength="94.7461" x="229.22" y="263.9752">motor : Motor</text><line style="stroke:#181818;stroke-width:0.5;" x1="224.22" x2="337.6253" y1="270.9283" y2="270.9283"/></g><!--class Motor--><g class="entity" data-entity="Motor" data-source-line="19" data-uid="ent0006" id="entity_Motor"><rect fill="#F1F1F1" height="48" rx="2.5" ry="2.5" style="stroke:#181818;stroke-width:0.5;" width="72.2227" x="240.81" y="401.46"/><ellipse cx="255.81" cy="417.46" fill="#ADD1B2" rx="11" ry="11" style="stroke:#181818;stroke-width:1;"/><path d="M258.2831,423.6031 Q257.7021,423.9019 257.0629,424.0513 Q256.4238,424.2007 255.7182,424.2007 Q253.2114,424.2007 251.8915,422.5489 Q250.5717,420.897 250.5717,417.7759 Q250.5717,414.6465 251.8915,412.9947 Q253.2114,411.3428 255.7182,411.3428 Q256.4238,411.3428 257.0712,411.4922 Q257.7187,411.6416 258.2831,411.9405 L258.2831,414.6631 Q257.6523,414.0821 257.0588,413.8123 Q256.4653,413.5425 255.8344,413.5425 Q254.4897,413.5425 253.8049,414.6092 Q253.1201,415.6758 253.1201,417.7759 Q253.1201,419.8677 253.8049,420.9344 Q254.4897,422.001 255.8344,422.001 Q256.4653,422.001 257.0588,421.7312 Q257.6523,421.4615 258.2831,420.8804 Z " fill="#000000"/><text fill="#000000" font-family="sans-serif" font-size="14" lengthAdjust="spacing" textLength="40.2227" x="269.81" y="422.751">Motor</text><line style="stroke:#181818;stroke-width:0.5;" x1="241.81" x2="312.0327" y1="433.46" y2="433.46"/><line style="stroke:#181818;stroke-width:0.5;" x1="241.81" x2="312.0327" y1="441.46" y2="441.46"/></g><!--class Controller--><g class="entity" data-entity="Controller" data-source-line="21" data-uid="ent0007" id="entity_Controller"><rect fill="#F1F1F1" height="97.4648" rx="2.5" ry="2.5" style="stroke:#181818;stroke-width:0.5;" width="171.6533" x="490.09" y="197.95"/><ellipse cx="537.5861" cy="213.95" fill="#ADD1B2" rx="11" ry="11" style="stroke:#181818;stroke-width:1;"/><path d="M540.0592,220.0931 Q539.4782,220.3919 538.839,220.5413 Q538.1999,220.6907 537.4943,220.6907 Q534.9875,220.6907 533.6676,219.0389 Q532.3478,217.387 532.3478,214.2659 Q532.3478,211.1365 533.6676,209.4847 Q534.9875,207.8328 537.4943,207.8328 Q538.1999,207.8328 538.8473,207.9822 Q539.4948,208.1316 540.0592,208.4305 L540.0592,211.1531 Q539.4284,210.5721 538.8349,210.3023 Q538.2414,210.0325 537.6105,210.0325 Q536.2658,210.0325 535.581,211.0992 Q534.8962,212.1658 534.8962,214.2659 Q534.8962,216.3577 535.581,217.4244 Q536.2658,218.491 537.6105,218.491 Q538.2414,218.491 538.8349,218.2212 Q539.4284,217.9515 540.0592,217.3704 Z " fill="#000000"/><text fill="#000000" font-family="sans-serif" font-size="14" lengthAdjust="spacing" textLength="68.1611" x="558.0861" y="219.241">Controller</text><line style="stroke:#181818;stroke-width:0.5;" x1="491.09" x2="660.7433" y1="229.95" y2="229.95"/><text fill="#000000" font-family="sans-serif" font-size="14" lengthAdjust="spacing" textLength="129.418" x="496.09" y="247.4852">currentState : State</text><text fill="#000000" font-family="sans-serif" font-size="14" lengthAdjust="spacing" textLength="108.2471" x="496.09" y="263.9734">battery : Battery</text><line style="stroke:#181818;stroke-width:0.5;" x1="491.09" x2="660.7433" y1="270.9266" y2="270.9266"/><text fill="#000000" font-family="sans-serif" font-size="14" lengthAdjust="spacing" textLength="159.6533" x="496.09" y="288.4617">commandDriveSystem()</text></g><!--class BasicController--><g class="entity" data-entity="BasicController" data-source-line="27" data-uid="ent0008" id="entity_BasicController"><rect fill="#F1F1F1" height="48" rx="2.5" ry="2.5" style="stroke:#181818;stroke-width:0.5;" width="134.2998" x="637.77" y="401.46"/><ellipse cx="652.77" cy="417.46" fill="#ADD1B2" rx="11" ry="11" style="stroke:#181818;stroke-width:1;"/><path d="M655.2431,423.6031 Q654.6621,423.9019 654.0229,424.0513 Q653.3838,424.2007 652.6782,424.2007 Q650.1714,424.2007 648.8515,422.5489 Q647.5317,420.897 647.5317,417.7759 Q647.5317,414.6465 648.8515,412.9947 Q650.1714,411.3428 652.6782,411.3428 Q653.3838,411.3428 654.0312,411.4922 Q654.6787,411.6416 655.2431,411.9405 L655.2431,414.6631 Q654.6123,414.0821 654.0188,413.8123 Q653.4253,413.5425 652.7944,413.5425 Q651.4497,413.5425 650.7649,414.6092 Q650.0801,415.6758 650.0801,417.7759 Q650.0801,419.8677 650.7649,420.9344 Q651.4497,422.001 652.7944,422.001 Q653.4253,422.001 654.0188,421.7312 Q654.6123,421.4615 655.2431,420.8804 Z " fill="#000000"/><text fill="#000000" font-family="sans-serif" font-size="14" lengthAdjust="spacing" textLength="102.2998" x="666.77" y="422.751">BasicController</text><line style="stroke:#181818;stroke-width:0.5;" x1="638.77" x2="771.0698" y1="433.46" y2="433.46"/><line style="stroke:#181818;stroke-width:0.5;" x1="638.77" x2="771.0698" y1="441.46" y2="441.46"/></g><!--class AdvancedController--><g class="entity" data-entity="AdvancedController" data-source-line="29" data-uid="ent0009" id="entity_AdvancedController"><rect fill="#F1F1F1" height="64.4883" rx="2.5" ry="2.5" style="stroke:#181818;stroke-width:0.5;" width="166.1709" x="806.83" y="393.21"/><ellipse cx="821.8709" cy="409.21" fill="#ADD1B2" rx="11" ry="11" style="stroke:#181818;stroke-width:1;"/><path d="M824.344,415.3531 Q823.763,415.6519 823.1238,415.8013 Q822.4846,415.9507 821.7791,415.9507 Q819.2722,415.9507 817.9524,414.2989 Q816.6326,412.647 816.6326,409.5259 Q816.6326,406.3965 817.9524,404.7447 Q819.2722,403.0928 821.7791,403.0928 Q822.4846,403.0928 823.1321,403.2422 Q823.7796,403.3916 824.344,403.6905 L824.344,406.4131 Q823.7132,405.8321 823.1196,405.5623 Q822.5261,405.2925 821.8953,405.2925 Q820.5506,405.2925 819.8657,406.3592 Q819.1809,407.4258 819.1809,409.5259 Q819.1809,411.6177 819.8657,412.6844 Q820.5506,413.751 821.8953,413.751 Q822.5261,413.751 823.1196,413.4812 Q823.7132,413.2115 824.344,412.6304 Z " fill="#000000"/><text fill="#000000" font-family="sans-serif" font-size="14" lengthAdjust="spacing" textLength="134.0801" x="835.88" y="414.501">AdvancedController</text><line style="stroke:#181818;stroke-width:0.5;" x1="807.83" x2="972.0009" y1="425.21" y2="425.21"/><line style="stroke:#181818;stroke-width:0.5;" x1="807.83" x2="972.0009" y1="433.21" y2="433.21"/><text fill="#000000" font-family="sans-serif" font-size="14" lengthAdjust="spacing" textLength="154.1709" x="812.83" y="450.7452">nextInspection() : Date</text></g><!--class Battery--><g class="entity" data-entity="Battery" data-source-line="33" data-uid="ent0010" id="entity_Battery"><rect fill="#F1F1F1" height="64.4883" rx="2.5" ry="2.5" style="stroke:#181818;stroke-width:0.5;" width="145.2119" x="348.31" y="393.21"/><ellipse cx="393.1162" cy="409.21" fill="#ADD1B2" rx="11" ry="11" style="stroke:#181818;stroke-width:1;"/><path d="M395.5893,415.3531 Q395.0082,415.6519 394.3691,415.8013 Q393.7299,415.9507 393.0244,415.9507 Q390.5175,415.9507 389.1977,414.2989 Q387.8779,412.647 387.8779,409.5259 Q387.8779,406.3965 389.1977,404.7447 Q390.5175,403.0928 393.0244,403.0928 Q393.7299,403.0928 394.3774,403.2422 Q395.0248,403.3916 395.5893,403.6905 L395.5893,406.4131 Q394.9584,405.8321 394.3649,405.5623 Q393.7714,405.2925 393.1406,405.2925 Q391.7958,405.2925 391.111,406.3592 Q390.4262,407.4258 390.4262,409.5259 Q390.4262,411.6177 391.111,412.6844 Q391.7958,413.751 393.1406,413.751 Q393.7714,413.751 394.3649,413.4812 Q394.9584,413.2115 395.5893,412.6304 Z " fill="#000000"/><text fill="#000000" font-family="sans-serif" font-size="14" lengthAdjust="spacing" textLength="47.0996" x="413.6162" y="414.501">Battery</text><line style="stroke:#181818;stroke-width:0.5;" x1="349.31" x2="492.5219" y1="425.21" y2="425.21"/><text fill="#000000" font-family="sans-serif" font-size="14" lengthAdjust="spacing" textLength="133.2119" x="354.31" y="442.7452">storedEnergy : float</text><line style="stroke:#181818;stroke-width:0.5;" x1="349.31" x2="492.5219" y1="449.6983" y2="449.6983"/></g><!--class State--><g class="entity" data-entity="State" data-source-line="37" data-uid="ent0011" id="entity_State"><rect fill="#F1F1F1" height="106.0859" rx="2.5" ry="2.5" style="stroke:#181818;stroke-width:0.5;" width="74.0293" x="528.9" y="372.41"/><ellipse cx="544.2023" cy="392.7205" fill="#EB937F" rx="11" ry="11" style="stroke:#181818;stroke-width:1;"/><path d="M547.8166,399.2205 L540.0969,399.2205 L540.0969,386.8275 L547.8166,386.8275 L547.8166,388.9857 L542.5456,388.9857 L542.5456,391.6585 L547.3186,391.6585 L547.3186,393.8167 L542.5456,393.8167 L542.5456,397.0623 L547.8166,397.0623 Z " fill="#000000"/><text fill="#000000" font-family="sans-serif" font-size="12" font-style="italic" lengthAdjust="spacing" textLength="45.3574" x="556.2695" y="389.0116">&#171;enum&#187;</text><text fill="#000000" font-family="sans-serif" font-size="14" lengthAdjust="spacing" textLength="33.5439" x="562.1763" y="405.078">State</text><line style="stroke:#181818;stroke-width:0.5;" x1="529.9" x2="601.9293" y1="413.0311" y2="413.0311"/><text fill="#000000" font-family="sans-serif" font-size="14" lengthAdjust="spacing" textLength="19.5645" x="534.9" y="430.5662">On</text><text fill="#000000" font-family="sans-serif" font-size="14" lengthAdjust="spacing" textLength="21.1709" x="534.9" y="447.0545">Off</text><text fill="#000000" font-family="sans-serif" font-size="14" lengthAdjust="spacing" textLength="62.0293" x="534.9" y="463.5428">Charging</text><line style="stroke:#181818;stroke-width:0.5;" x1="529.9" x2="601.9293" y1="470.4959" y2="470.4959"/></g><!--link EBike to Wheel--><g class="link" data-entity-1="EBike" data-entity-2="Wheel" data-source-line="43" data-uid="lnk12" id="link_EBike_Wheel"><path codeLine="43" d="M240.81,121.16 C216.4,155.35 190.0156,192.3163 171.8656,217.7463" fill="none" id="EBike-to-Wheel" style="stroke:#181818;stroke-width:1;"/><polygon fill="#181818" points="168.38,222.63,176.8642,217.6282,171.2847,218.5603,170.3526,212.9807,168.38,222.63" style="stroke:#181818;stroke-width:1;"/><text fill="#000000" font-family="sans-serif" font-size="13" lengthAdjust="spacing" textLength="36.3276" x="217.42" y="164.5184">wheel</text></g><!--link EBike to Battery--><g class="link" data-entity-1="EBike" data-entity-2="Battery" data-source-line="44" data-uid="lnk13" id="link_EBike_Battery"><path codeLine="44" d="M345.38,121.41 C353.22,130.62 360.4,140.57 365.92,150.95 C408.47,230.9 417.9556,333.995 420.1156,386.985" fill="none" id="EBike-to-Battery" style="stroke:#181818;stroke-width:1;"/><polygon fill="#181818" points="420.36,392.98,423.9901,383.8246,420.1564,387.9841,415.9968,384.1504,420.36,392.98" style="stroke:#181818;stroke-width:1;"/><text fill="#000000" font-family="sans-serif" font-size="13" lengthAdjust="spacing" textLength="44.4399" x="411.44" y="251.7484">battery</text></g><!--link EBike to Frame--><g class="link" data-entity-1="EBike" data-entity-2="Frame" data-source-line="45" data-uid="lnk14" id="link_EBike_Frame"><path codeLine="45" d="M199.96,121.28 C167.69,144.37 130.54,171.78 97.92,197.95 C91.57,203.04 89.4961,204.6812 83.1761,210.1812" fill="none" id="EBike-to-Frame" style="stroke:#181818;stroke-width:1;"/><polygon fill="#181818" points="78.65,214.12,88.065,211.2291,82.4217,210.8376,82.8132,205.1943,78.65,214.12" style="stroke:#181818;stroke-width:1;"/><text fill="#000000" font-family="sans-serif" font-size="13" lengthAdjust="spacing" textLength="36.6577" x="158.09" y="164.5184">frame</text></g><!--link EBike to DriveSystem--><g class="link" data-entity-1="EBike" data-entity-2="DriveSystem" data-source-line="46" data-uid="lnk15" id="link_EBike_DriveSystem"><path codeLine="46" d="M280.92,121.16 C280.92,151.72 280.92,182.41 280.92,208.01" fill="none" id="EBike-to-DriveSystem" style="stroke:#181818;stroke-width:1;"/><polygon fill="#181818" points="280.92,214.01,284.92,205.01,280.92,209.01,276.92,205.01,280.92,214.01" style="stroke:#181818;stroke-width:1;"/><text fill="#000000" font-family="sans-serif" font-size="13" lengthAdjust="spacing" textLength="75.8926" x="281.92" y="164.5184">driveSystem</text></g><!--link EBike to Controller--><g class="link" data-entity-1="EBike" data-entity-2="Controller" data-source-line="47" data-uid="lnk16" id="link_EBike_Controller"><path codeLine="47" d="M376.51,116.73 C396.01,127.74 416.26,139.5 434.92,150.95 C458.67,165.53 479.1294,178.8894 501.7594,194.1894" fill="none" id="EBike-to-Controller" style="stroke:#181818;stroke-width:1;"/><polygon fill="#181818" points="506.73,197.55,501.5145,189.1954,502.5879,194.7495,497.0338,195.8229,506.73,197.55" style="stroke:#181818;stroke-width:1;"/><text fill="#000000" font-family="sans-serif" font-size="13" lengthAdjust="spacing" textLength="60.9565" x="459.46" y="164.5184">controller</text></g><!--link DriveSystem to Motor--><g class="link" data-entity-1="DriveSystem" data-entity-2="Motor" data-source-line="49" data-uid="lnk17" id="link_DriveSystem_Motor"><path codeLine="49" d="M280.2,279.29 C279.41,314.24 278.2962,363.7515 277.5862,395.0315" fill="none" id="DriveSystem-to-Motor" style="stroke:#181818;stroke-width:1;"/><polygon fill="#181818" points="277.45,401.03,281.6532,392.1231,277.5635,396.0313,273.6553,391.9415,277.45,401.03" style="stroke:#181818;stroke-width:1;"/><text fill="#000000" font-family="sans-serif" font-size="13" lengthAdjust="spacing" textLength="38.2891" x="280.16" y="338.9784">motor</text></g><!--link Controller to Battery--><g class="link" data-entity-1="Controller" data-entity-2="Battery" data-source-line="51" data-uid="lnk18" id="link_Controller_Battery"><path codeLine="51" d="M533.97,295.52 C506.9,326.4 476.3859,361.1988 452.6659,388.2488" fill="none" id="Controller-to-Battery" style="stroke:#181818;stroke-width:1;"/><polygon fill="#181818" points="448.71,392.76,457.6513,388.6304,452.0066,389.0006,451.6363,383.3559,448.71,392.76" style="stroke:#181818;stroke-width:1;"/><text fill="#000000" font-family="sans-serif" font-size="13" lengthAdjust="spacing" textLength="44.4399" x="508.7" y="338.9784">battery</text></g><!--link Controller to State--><g class="link" data-entity-1="Controller" data-entity-2="State" data-source-line="52" data-uid="lnk19" id="link_Controller_State"><path codeLine="52" d="M573.21,295.52 C571.88,319.14 570.5987,341.6996 569.2287,365.9296" fill="none" id="Controller-to-State" style="stroke:#181818;stroke-width:1;"/><polygon fill="#181818" points="568.89,371.92,573.3917,363.1602,569.1723,366.928,565.4044,362.7085,568.89,371.92" style="stroke:#181818;stroke-width:1;"/><text fill="#000000" font-family="sans-serif" font-size="13" lengthAdjust="spacing" textLength="76.686" x="572.52" y="338.9784">currentState</text></g><!--reverse link Controller to BasicController--><g class="link" data-entity-1="Controller" data-entity-2="BasicController" data-source-line="53" data-uid="lnk20" id="link_Controller_BasicController"><path codeLine="53" d="M644.906,308.4796 C654.126,317.7896 650.43,315.09 657.92,325.41 C675.13,349.14 688.64,380.16 696.68,401.12" fill="none" id="Controller-backto-BasicController" style="stroke:#181818;stroke-width:1;"/><polygon fill="none" points="632.24,295.69,640.6428,312.7016,649.1692,304.2576,632.24,295.69" style="stroke:#181818;stroke-width:1;"/></g><!--reverse link Controller to AdvancedController--><g class="link" data-entity-1="Controller" data-entity-2="AdvancedController" data-source-line="54" data-uid="lnk21" id="link_Controller_AdvancedController"><path codeLine="54" d="M676.9944,304.5818 C731.8344,335.4618 785.83,365.86 833.77,392.85" fill="none" id="Controller-backto-AdvancedController" style="stroke:#181818;stroke-width:1;"/><polygon fill="none" points="661.31,295.75,674.0505,309.8099,679.9383,299.3536,661.31,295.75" style="stroke:#181818;stroke-width:1;"/></g><!--SRC=[XLBBRiCW4BpxApWc1_z0PLcgdKJg8UeXXvu9h1-gWGflqaPj_xt6sB2rKvNBmixiCYp366EYuttFzaNx2kmpOTEgB5V07jZ1nP2Ljht2wTOZg07RnLDW2AFHcgu3En3AS0ZucIE2lGrWuNSZyfsCmKiPhoHIXlxGhMalZKkJ1953gfL1uxGSNLntyMcIY9f94t6n5ZIUaACRoXZ_UP8VXb9SIo9iirrBA7ZV2Z8g0ZtAAzS2v5rH6ZxmIVTl8B0rUhDrFpBhMbpW1TAH6Wjohy7MJdVL6Owq3lH5-LUoB7E7F2VLppfkgohiouRRkjKrRUHjbQQv_wxXhlTc_is85M62PpB1Y1ycCrR1Z17R_RAaN5WoyafgJB6ODctYoCV9D2gwWzJ_BNb1clr2xRFaPLzfkhB0FSxQ2yaF]--></g></svg>