<svg xmlns="http://www.w3.org/2000/svg" xmlns:xlink="http://www.w3.org/1999/xlink" contentStyleType="text/css" data-diagram-type="CLASS" height="659px" preserveAspectRatio="none" style="width:661px;height:659px;background:#FFFFFF;" version="1.1" viewBox="0 0 661 659" width="661px" zoomAndPan="magnify"><defs/><g><!--class User--><g class="entity" data-entity="User" data-source-line="1" data-uid="ent0002" id="entity_User"><rect fill="#F1F1F1" height="97.4648" rx="2.5" ry="2.5" style="stroke:#181818;stroke-width:0.5;" width="123.043" x="149.31" y="164.98"/><ellipse cx="191.615" cy="180.98" fill="#ADD1B2" rx="11" ry="11" style="stroke:#181818;stroke-width:1;"/><path d="M194.0881,187.1231 Q193.5071,187.4219 192.8679,187.5713 Q192.2288,187.7207 191.5232,187.7207 Q189.0163,187.7207 187.6965,186.0689 Q186.3767,184.417 186.3767,181.2959 Q186.3767,178.1665 187.6965,176.5147 Q189.0163,174.8628 191.5232,174.8628 Q192.2288,174.8628 192.8762,175.0122 Q193.5237,175.1616 194.0881,175.4605 L194.0881,178.1831 Q193.4573,177.6021 192.8638,177.3323 Q192.2703,177.0625 191.6394,177.0625 Q190.2947,177.0625 189.6099,178.1292 Q188.925,179.1958 188.925,181.2959 Q188.925,183.3877 189.6099,184.4544 Q190.2947,185.521 191.6394,185.521 Q192.2703,185.521 192.8638,185.2512 Q193.4573,184.9815 194.0881,184.4004 Z " fill="#000000"/><text fill="#000000" font-family="sans-serif" font-size="14" lengthAdjust="spacing" textLength="30.3652" x="211.6828" y="186.271">User</text><line style="stroke:#181818;stroke-width:0.5;" x1="150.31" x2="271.353" y1="196.98" y2="196.98"/><text fill="#000000" font-family="sans-serif" font-size="14" lengthAdjust="spacing" textLength="111.043" x="155.31" y="214.5152">String username</text><text fill="#000000" font-family="sans-serif" font-size="14" lengthAdjust="spacing" textLength="109.1426" x="155.31" y="231.0034">String password</text><text fill="#000000" font-family="sans-serif" font-size="14" lengthAdjust="spacing" textLength="81.0947" x="155.31" y="247.4917">String email</text><line style="stroke:#181818;stroke-width:0.5;" x1="150.31" x2="271.353" y1="254.4448" y2="254.4448"/></g><!--class Administrator--><g class="entity" data-entity="Administrator" data-source-line="7" data-uid="ent0003" id="entity_Administrator"><rect fill="#F1F1F1" height="64.4883" rx="2.5" ry="2.5" style="stroke:#181818;stroke-width:0.5;" width="155.6572" x="7" y="364.18"/><ellipse cx="35.4714" cy="380.18" fill="#ADD1B2" rx="11" ry="11" style="stroke:#181818;stroke-width:1;"/><path d="M37.9446,386.3231 Q37.3635,386.6219 36.7244,386.7713 Q36.0852,386.9207 35.3796,386.9207 Q32.8728,386.9207 31.553,385.2689 Q30.2332,383.617 30.2332,380.4959 Q30.2332,377.3665 31.553,375.7147 Q32.8728,374.0628 35.3796,374.0628 Q36.0852,374.0628 36.7327,374.2122 Q37.3801,374.3616 37.9446,374.6605 L37.9446,377.3831 Q37.3137,376.8021 36.7202,376.5323 Q36.1267,376.2625 35.4958,376.2625 Q34.1511,376.2625 33.4663,377.3292 Q32.7815,378.3958 32.7815,380.4959 Q32.7815,382.5877 33.4663,383.6544 Q34.1511,384.721 35.4958,384.721 Q36.1267,384.721 36.7202,384.4512 Q37.3137,384.1815 37.9446,383.6004 Z " fill="#000000"/><text fill="#000000" font-family="sans-serif" font-size="14" lengthAdjust="spacing" textLength="93.7207" x="52.4651" y="385.471">Administrator</text><line style="stroke:#181818;stroke-width:0.5;" x1="8" x2="161.6572" y1="396.18" y2="396.18"/><text fill="#000000" font-family="sans-serif" font-size="14" lengthAdjust="spacing" textLength="143.6572" x="13" y="413.7152">String idCardNumber</text><line style="stroke:#181818;stroke-width:0.5;" x1="8" x2="161.6572" y1="420.6683" y2="420.6683"/></g><!--class WebPortal--><g class="entity" data-entity="WebPortal" data-source-line="11" data-uid="ent0004" id="entity_WebPortal"><rect fill="#F1F1F1" height="80.9766" rx="2.5" ry="2.5" style="stroke:#181818;stroke-width:0.5;" width="160.0869" x="188.79" y="7"/><ellipse cx="230.9781" cy="23" fill="#ADD1B2" rx="11" ry="11" style="stroke:#181818;stroke-width:1;"/><path d="M233.4512,29.1431 Q232.8702,29.4419 232.231,29.5913 Q231.5919,29.7407 230.8863,29.7407 Q228.3795,29.7407 227.0596,28.0889 Q225.7398,26.437 225.7398,23.3159 Q225.7398,20.1865 227.0596,18.5347 Q228.3795,16.8828 230.8863,16.8828 Q231.5919,16.8828 232.2393,17.0322 Q232.8868,17.1816 233.4512,17.4805 L233.4512,20.2031 Q232.8204,19.6221 232.2269,19.3523 Q231.6334,19.0825 231.0025,19.0825 Q229.6578,19.0825 228.973,20.1492 Q228.2881,21.2158 228.2881,23.3159 Q228.2881,25.4077 228.973,26.4744 Q229.6578,27.541 231.0025,27.541 Q231.6334,27.541 232.2269,27.2712 Q232.8204,27.0015 233.4512,26.4204 Z " fill="#000000"/><text fill="#000000" font-family="sans-serif" font-size="14" lengthAdjust="spacing" textLength="67.6689" x="251.0199" y="28.291">WebPortal</text><line style="stroke:#181818;stroke-width:0.5;" x1="189.79" x2="347.8769" y1="39" y2="39"/><text fill="#000000" font-family="sans-serif" font-size="14" lengthAdjust="spacing" textLength="148.0869" x="194.79" y="56.5352">String versionNumber</text><text fill="#000000" font-family="sans-serif" font-size="14" lengthAdjust="spacing" textLength="62.8633" x="194.79" y="73.0234">String url</text><line style="stroke:#181818;stroke-width:0.5;" x1="189.79" x2="347.8769" y1="79.9766" y2="79.9766"/></g><!--class Building--><g class="entity" data-entity="Building" data-source-line="16" data-uid="ent0005" id="entity_Building"><rect fill="#F1F1F1" height="113.9531" rx="2.5" ry="2.5" style="stroke:#181818;stroke-width:0.5;" width="166.5059" x="197.58" y="339.44"/><ellipse cx="249.0273" cy="355.44" fill="#ADD1B2" rx="11" ry="11" style="stroke:#181818;stroke-width:1;"/><path d="M251.5004,361.5831 Q250.9194,361.8819 250.2802,362.0313 Q249.641,362.1807 248.9355,362.1807 Q246.4286,362.1807 245.1088,360.5289 Q243.789,358.877 243.789,355.7559 Q243.789,352.6265 245.1088,350.9747 Q246.4286,349.3228 248.9355,349.3228 Q249.641,349.3228 250.2885,349.4722 Q250.936,349.6216 251.5004,349.9205 L251.5004,352.6431 Q250.8696,352.0621 250.276,351.7923 Q249.6825,351.5225 249.0517,351.5225 Q247.707,351.5225 247.0221,352.5892 Q246.3373,353.6558 246.3373,355.7559 Q246.3373,357.8477 247.0221,358.9144 Q247.707,359.981 249.0517,359.981 Q249.6825,359.981 250.276,359.7112 Q250.8696,359.4415 251.5004,358.8604 Z " fill="#000000"/><text fill="#000000" font-family="sans-serif" font-size="14" lengthAdjust="spacing" textLength="55.1113" x="269.5273" y="360.731">Building</text><line style="stroke:#181818;stroke-width:0.5;" x1="198.58" x2="363.0859" y1="371.44" y2="371.44"/><text fill="#000000" font-family="sans-serif" font-size="14" lengthAdjust="spacing" textLength="57.2578" x="203.58" y="388.9752">String id</text><text fill="#000000" font-family="sans-serif" font-size="14" lengthAdjust="spacing" textLength="76.8359" x="203.58" y="405.4634">String label</text><text fill="#000000" font-family="sans-serif" font-size="14" lengthAdjust="spacing" textLength="97.5557" x="203.58" y="421.9517">String address</text><text fill="#000000" font-family="sans-serif" font-size="14" lengthAdjust="spacing" textLength="154.5059" x="203.58" y="438.44">int yearOfConstruction</text><line style="stroke:#181818;stroke-width:0.5;" x1="198.58" x2="363.0859" y1="445.3931" y2="445.3931"/></g><!--class Entry--><g class="entity" data-entity="Entry" data-source-line="23" data-uid="ent0006" id="entity_Entry"><rect fill="#F1F1F1" height="80.9766" rx="2.5" ry="2.5" style="stroke:#181818;stroke-width:0.5;" width="112.2832" x="391.69" y="173.22"/><ellipse cx="427.2674" cy="189.22" fill="#ADD1B2" rx="11" ry="11" style="stroke:#181818;stroke-width:1;"/><path d="M429.7405,195.3631 Q429.1595,195.6619 428.5203,195.8113 Q427.8812,195.9607 427.1756,195.9607 Q424.6688,195.9607 423.3489,194.3089 Q422.0291,192.657 422.0291,189.5359 Q422.0291,186.4065 423.3489,184.7547 Q424.6688,183.1028 427.1756,183.1028 Q427.8812,183.1028 428.5286,183.2522 Q429.1761,183.4016 429.7405,183.7005 L429.7405,186.4231 Q429.1097,185.8421 428.5162,185.5723 Q427.9227,185.3025 427.2918,185.3025 Q425.9471,185.3025 425.2623,186.3692 Q424.5775,187.4358 424.5775,189.5359 Q424.5775,191.6277 425.2623,192.6944 Q425.9471,193.761 427.2918,193.761 Q427.9227,193.761 428.5162,193.4912 Q429.1097,193.2215 429.7405,192.6404 Z " fill="#000000"/><text fill="#000000" font-family="sans-serif" font-size="14" lengthAdjust="spacing" textLength="34.5557" x="445.8401" y="194.511">Entry</text><line style="stroke:#181818;stroke-width:0.5;" x1="392.69" x2="502.9732" y1="205.22" y2="205.22"/><text fill="#000000" font-family="sans-serif" font-size="14" lengthAdjust="spacing" textLength="81.6895" x="397.69" y="222.7552">String name</text><text fill="#000000" font-family="sans-serif" font-size="14" lengthAdjust="spacing" textLength="100.2832" x="397.69" y="239.2434">boolean public</text><line style="stroke:#181818;stroke-width:0.5;" x1="392.69" x2="502.9732" y1="246.1966" y2="246.1966"/></g><!--class TextEntry--><g class="entity" data-entity="TextEntry" data-source-line="28" data-uid="ent0007" id="entity_TextEntry"><rect fill="#F1F1F1" height="64.4883" rx="2.5" ry="2.5" style="stroke:#181818;stroke-width:0.5;" width="97.0303" x="399.31" y="364.18"/><ellipse cx="414.31" cy="380.18" fill="#ADD1B2" rx="11" ry="11" style="stroke:#181818;stroke-width:1;"/><path d="M416.7831,386.3231 Q416.2021,386.6219 415.5629,386.7713 Q414.9238,386.9207 414.2182,386.9207 Q411.7114,386.9207 410.3915,385.2689 Q409.0717,383.617 409.0717,380.4959 Q409.0717,377.3665 410.3915,375.7147 Q411.7114,374.0628 414.2182,374.0628 Q414.9238,374.0628 415.5712,374.2122 Q416.2187,374.3616 416.7831,374.6605 L416.7831,377.3831 Q416.1523,376.8021 415.5588,376.5323 Q414.9653,376.2625 414.3344,376.2625 Q412.9897,376.2625 412.3049,377.3292 Q411.6201,378.3958 411.6201,380.4959 Q411.6201,382.5877 412.3049,383.6544 Q412.9897,384.721 414.3344,384.721 Q414.9653,384.721 415.5588,384.4512 Q416.1523,384.1815 416.7831,383.6004 Z " fill="#000000"/><text fill="#000000" font-family="sans-serif" font-size="14" lengthAdjust="spacing" textLength="65.0303" x="428.31" y="385.471">TextEntry</text><line style="stroke:#181818;stroke-width:0.5;" x1="400.31" x2="495.3403" y1="396.18" y2="396.18"/><text fill="#000000" font-family="sans-serif" font-size="14" lengthAdjust="spacing" textLength="71.2578" x="405.31" y="413.7152">String text</text><line style="stroke:#181818;stroke-width:0.5;" x1="400.31" x2="495.3403" y1="420.6683" y2="420.6683"/></g><!--class NumericEntry--><g class="entity" data-entity="NumericEntry" data-source-line="32" data-uid="ent0008" id="entity_NumericEntry"><rect fill="#F1F1F1" height="80.9766" rx="2.5" ry="2.5" style="stroke:#181818;stroke-width:0.5;" width="123.4033" x="531.13" y="355.93"/><ellipse cx="546.13" cy="371.93" fill="#ADD1B2" rx="11" ry="11" style="stroke:#181818;stroke-width:1;"/><path d="M548.6031,378.0731 Q548.0221,378.3719 547.3829,378.5213 Q546.7438,378.6707 546.0382,378.6707 Q543.5314,378.6707 542.2115,377.0189 Q540.8917,375.367 540.8917,372.2459 Q540.8917,369.1165 542.2115,367.4647 Q543.5314,365.8128 546.0382,365.8128 Q546.7438,365.8128 547.3912,365.9622 Q548.0387,366.1116 548.6031,366.4105 L548.6031,369.1331 Q547.9723,368.5521 547.3788,368.2823 Q546.7853,368.0125 546.1544,368.0125 Q544.8097,368.0125 544.1249,369.0792 Q543.4401,370.1458 543.4401,372.2459 Q543.4401,374.3377 544.1249,375.4044 Q544.8097,376.471 546.1544,376.471 Q546.7853,376.471 547.3788,376.2012 Q547.9723,375.9315 548.6031,375.3504 Z " fill="#000000"/><text fill="#000000" font-family="sans-serif" font-size="14" lengthAdjust="spacing" textLength="91.4033" x="560.13" y="377.221">NumericEntry</text><line style="stroke:#181818;stroke-width:0.5;" x1="532.13" x2="653.5333" y1="387.93" y2="387.93"/><text fill="#000000" font-family="sans-serif" font-size="14" lengthAdjust="spacing" textLength="86.7002" x="537.13" y="405.4652">double value</text><text fill="#000000" font-family="sans-serif" font-size="14" lengthAdjust="spacing" textLength="71.0596" x="537.13" y="421.9534">String unit</text><line style="stroke:#181818;stroke-width:0.5;" x1="532.13" x2="653.5333" y1="428.9066" y2="428.9066"/></g><!--class EntryGroup--><g class="entity" data-entity="EntryGroup" data-source-line="37" data-uid="ent0009" id="entity_EntryGroup"><rect fill="#F1F1F1" height="48" rx="2.5" ry="2.5" style="stroke:#181818;stroke-width:0.5;" width="108.501" x="393.58" y="23.49"/><ellipse cx="408.58" cy="39.49" fill="#ADD1B2" rx="11" ry="11" style="stroke:#181818;stroke-width:1;"/><path d="M411.0531,45.6331 Q410.4721,45.9319 409.8329,46.0813 Q409.1938,46.2307 408.4882,46.2307 Q405.9814,46.2307 404.6615,44.5789 Q403.3417,42.927 403.3417,39.8059 Q403.3417,36.6765 404.6615,35.0247 Q405.9814,33.3728 408.4882,33.3728 Q409.1938,33.3728 409.8412,33.5222 Q410.4887,33.6716 411.0531,33.9705 L411.0531,36.6931 Q410.4223,36.1121 409.8288,35.8423 Q409.2353,35.5725 408.6044,35.5725 Q407.2597,35.5725 406.5749,36.6392 Q405.8901,37.7058 405.8901,39.8059 Q405.8901,41.8977 406.5749,42.9644 Q407.2597,44.031 408.6044,44.031 Q409.2353,44.031 409.8288,43.7612 Q410.4223,43.4915 411.0531,42.9104 Z " fill="#000000"/><text fill="#000000" font-family="sans-serif" font-size="14" lengthAdjust="spacing" textLength="76.501" x="422.58" y="44.781">EntryGroup</text><line style="stroke:#181818;stroke-width:0.5;" x1="394.58" x2="501.081" y1="55.49" y2="55.49"/><line style="stroke:#181818;stroke-width:0.5;" x1="394.58" x2="501.081" y1="63.49" y2="63.49"/></g><!--class EnergyClass--><g class="entity" data-entity="EnergyClass" data-source-line="39" data-uid="ent0010" id="entity_EnergyClass"><rect fill="#F1F1F1" height="122.5742" rx="2.5" ry="2.5" style="stroke:#181818;stroke-width:0.5;" width="113.5869" x="83.04" y="530.4"/><ellipse cx="98.04" cy="550.7105" fill="#EB937F" rx="11" ry="11" style="stroke:#181818;stroke-width:1;"/><path d="M101.6543,557.2105 L93.9345,557.2105 L93.9345,544.8175 L101.6543,544.8175 L101.6543,546.9757 L96.3833,546.9757 L96.3833,549.6485 L101.1562,549.6485 L101.1562,551.8067 L96.3833,551.8067 L96.3833,555.0523 L101.6543,555.0523 Z " fill="#000000"/><text fill="#000000" font-family="sans-serif" font-size="12" font-style="italic" lengthAdjust="spacing" textLength="45.3574" x="130.1547" y="547.0016">&#171;enum&#187;</text><text fill="#000000" font-family="sans-serif" font-size="14" lengthAdjust="spacing" textLength="81.5869" x="112.04" y="563.068">EnergyClass</text><line style="stroke:#181818;stroke-width:0.5;" x1="84.04" x2="195.6269" y1="571.0211" y2="571.0211"/><text fill="#000000" font-family="sans-serif" font-size="14" lengthAdjust="spacing" textLength="9.6592" x="89.04" y="588.5563">A</text><text fill="#000000" font-family="sans-serif" font-size="14" lengthAdjust="spacing" textLength="8.0527" x="89.04" y="605.0445">B</text><text fill="#000000" font-family="sans-serif" font-size="14" lengthAdjust="spacing" textLength="9.6865" x="89.04" y="621.5328">C</text><text fill="#000000" font-family="sans-serif" font-size="14" lengthAdjust="spacing" textLength="10.4863" x="89.04" y="638.0211">D</text><line style="stroke:#181818;stroke-width:0.5;" x1="84.04" x2="195.6269" y1="644.9742" y2="644.9742"/></g><!--class Comment--><g class="entity" data-entity="Comment" data-source-line="46" data-uid="ent0011" id="entity_Comment"><rect fill="#F1F1F1" height="64.4883" rx="2.5" ry="2.5" style="stroke:#181818;stroke-width:0.5;" width="98.1514" x="231.75" y="559.44"/><ellipse cx="246.75" cy="575.44" fill="#ADD1B2" rx="11" ry="11" style="stroke:#181818;stroke-width:1;"/><path d="M249.2231,581.5831 Q248.6421,581.8819 248.0029,582.0313 Q247.3638,582.1807 246.6582,582.1807 Q244.1514,582.1807 242.8315,580.5289 Q241.5117,578.877 241.5117,575.7559 Q241.5117,572.6265 242.8315,570.9747 Q244.1514,569.3228 246.6582,569.3228 Q247.3638,569.3228 248.0112,569.4722 Q248.6587,569.6216 249.2231,569.9205 L249.2231,572.6431 Q248.5923,572.0621 247.9988,571.7923 Q247.4053,571.5225 246.7744,571.5225 Q245.4297,571.5225 244.7449,572.5892 Q244.0601,573.6558 244.0601,575.7559 Q244.0601,577.8477 244.7449,578.9144 Q245.4297,579.981 246.7744,579.981 Q247.4053,579.981 247.9988,579.7112 Q248.5923,579.4415 249.2231,578.8604 Z " fill="#000000"/><text fill="#000000" font-family="sans-serif" font-size="14" lengthAdjust="spacing" textLength="66.1514" x="260.75" y="580.731">Comment</text><line style="stroke:#181818;stroke-width:0.5;" x1="232.75" x2="328.9014" y1="591.44" y2="591.44"/><text fill="#000000" font-family="sans-serif" font-size="14" lengthAdjust="spacing" textLength="71.2578" x="237.75" y="608.9752">String text</text><line style="stroke:#181818;stroke-width:0.5;" x1="232.75" x2="328.9014" y1="615.9283" y2="615.9283"/></g><!--class Image--><g class="entity" data-entity="Image" data-source-line="50" data-uid="ent0012" id="entity_Image"><rect fill="#F1F1F1" height="64.4883" rx="2.5" ry="2.5" style="stroke:#181818;stroke-width:0.5;" width="116.3848" x="364.64" y="559.44"/><ellipse cx="398.9992" cy="575.44" fill="#ADD1B2" rx="11" ry="11" style="stroke:#181818;stroke-width:1;"/><path d="M401.4724,581.5831 Q400.8913,581.8819 400.2522,582.0313 Q399.613,582.1807 398.9074,582.1807 Q396.4006,582.1807 395.0808,580.5289 Q393.7609,578.877 393.7609,575.7559 Q393.7609,572.6265 395.0808,570.9747 Q396.4006,569.3228 398.9074,569.3228 Q399.613,569.3228 400.2605,569.4722 Q400.9079,569.6216 401.4724,569.9205 L401.4724,572.6431 Q400.8415,572.0621 400.248,571.7923 Q399.6545,571.5225 399.0236,571.5225 Q397.6789,571.5225 396.9941,572.5892 Q396.3093,573.6558 396.3093,575.7559 Q396.3093,577.8477 396.9941,578.9144 Q397.6789,579.981 399.0236,579.981 Q399.6545,579.981 400.248,579.7112 Q400.8415,579.4415 401.4724,578.8604 Z " fill="#000000"/><text fill="#000000" font-family="sans-serif" font-size="14" lengthAdjust="spacing" textLength="41.3643" x="417.3013" y="580.731">Image</text><line style="stroke:#181818;stroke-width:0.5;" x1="365.64" x2="480.0248" y1="591.44" y2="591.44"/><text fill="#000000" font-family="sans-serif" font-size="14" lengthAdjust="spacing" textLength="104.3848" x="370.64" y="608.9752">String fileName</text><line style="stroke:#181818;stroke-width:0.5;" x1="365.64" x2="480.0248" y1="615.9283" y2="615.9283"/></g><!--link WebPortal to Entry--><g class="link" data-entity-1="WebPortal" data-entity-2="Entry" data-source-line="54" data-uid="lnk13" id="link_WebPortal_Entry"><path codeLine="54" d="M312.16,88.24 C340.1,113.87 371.8788,143.0238 399.8588,168.6938" fill="none" id="WebPortal-to-Entry" style="stroke:#181818;stroke-width:1;"/><polygon fill="#181818" points="404.28,172.75,400.3523,163.7182,400.5957,169.3698,394.944,169.6132,404.28,172.75" style="stroke:#181818;stroke-width:1;"/><text fill="#000000" font-family="sans-serif" font-size="13" lengthAdjust="spacing" textLength="11.9399" x="359.33" y="131.5484">id</text><text fill="#000000" font-family="sans-serif" font-size="13" lengthAdjust="spacing" textLength="8.2202" x="310.4452" y="108.5232">1</text><text fill="#000000" font-family="sans-serif" font-size="13" lengthAdjust="spacing" textLength="6.2651" x="390.882" y="162.6201">*</text></g><!--link WebPortal to User--><g class="link" data-entity-1="WebPortal" data-entity-2="User" data-source-line="55" data-uid="lnk14" id="link_WebPortal_User"><path codeLine="55" d="M254.79,88.24 C246.68,111.21 238.4085,134.6226 229.8385,158.8826" fill="none" id="WebPortal-to-User" style="stroke:#181818;stroke-width:1;"/><polygon fill="#181818" points="227.84,164.54,234.6093,157.3863,229.5054,159.8255,227.0662,154.7216,227.84,164.54" style="stroke:#181818;stroke-width:1;"/><text fill="#000000" font-family="sans-serif" font-size="13" lengthAdjust="spacing" textLength="61.8833" x="244.3" y="131.5484">username</text><text fill="#000000" font-family="sans-serif" font-size="13" lengthAdjust="spacing" textLength="24.667" x="226.6925" y="108.5232">0..1</text><text fill="#000000" font-family="sans-serif" font-size="13" lengthAdjust="spacing" textLength="8.2202" x="221.6848" y="154.1606">1</text></g><!--reverse link EntryGroup to Entry--><g class="link" data-entity-1="EntryGroup" data-entity-2="Entry" data-source-line="56" data-uid="lnk15" id="link_EntryGroup_Entry"><path codeLine="56" d="M447.83,83.67 C447.83,109.93 447.83,141.18 447.83,172.88" fill="none" id="EntryGroup-backto-Entry" style="stroke:#181818;stroke-width:1;"/><polygon fill="#181818" points="447.83,71.67,443.83,77.67,447.83,83.67,451.83,77.67,447.83,71.67" style="stroke:#181818;stroke-width:1;"/><text fill="#000000" font-family="sans-serif" font-size="13" lengthAdjust="spacing" textLength="8.2202" x="438.8817" y="91.9982">1</text><text fill="#000000" font-family="sans-serif" font-size="13" lengthAdjust="spacing" textLength="6.2651" x="441.3548" y="162.4697">*</text></g><!--reverse link Entry to TextEntry--><g class="link" data-entity-1="Entry" data-entity-2="TextEntry" data-source-line="58" data-uid="lnk16" id="link_Entry_TextEntry"><path codeLine="58" d="M447.83,272.37 C447.83,305.3 447.83,333.52 447.83,363.96" fill="none" id="Entry-backto-TextEntry" style="stroke:#181818;stroke-width:1;"/><polygon fill="none" points="447.83,254.37,441.83,272.37,453.83,272.37,447.83,254.37" style="stroke:#181818;stroke-width:1;"/></g><!--reverse link Entry to NumericEntry--><g class="link" data-entity-1="Entry" data-entity-2="NumericEntry" data-source-line="59" data-uid="lnk17" id="link_Entry_NumericEntry"><path codeLine="59" d="M490.9156,268.4087 C515.0056,298.4287 536.7,325.46 560.83,355.54" fill="none" id="Entry-backto-NumericEntry" style="stroke:#181818;stroke-width:1;"/><polygon fill="none" points="479.65,254.37,486.236,272.1639,495.5952,264.6535,479.65,254.37" style="stroke:#181818;stroke-width:1;"/></g><!--reverse link User to Administrator--><g class="link" data-entity-1="User" data-entity-2="Administrator" data-source-line="61" data-uid="lnk18" id="link_User_Administrator"><path codeLine="61" d="M167.0956,277.4257 C144.7856,309.4257 126.38,335.83 106.89,363.78" fill="none" id="User-backto-Administrator" style="stroke:#181818;stroke-width:1;"/><polygon fill="none" points="177.39,262.66,162.1737,273.9942,172.0175,280.8571,177.39,262.66" style="stroke:#181818;stroke-width:1;"/></g><!--link User to Building--><g class="link" data-entity-1="User" data-entity-2="Building" data-source-line="63" data-uid="lnk19" id="link_User_Building"><path codeLine="63" d="M198.62,262.63 C196.83,278 197.18,294.81 202.83,309.44 C206.89,319.97 209.3125,325.2081 216.2425,334.4581" fill="none" id="User-to-Building" style="stroke:#181818;stroke-width:1;"/><polygon fill="#181818" points="219.84,339.26,217.645,329.6589,216.8421,335.2584,211.2425,334.4555,219.84,339.26" style="stroke:#181818;stroke-width:1;"/><text fill="#000000" font-family="sans-serif" font-size="13" lengthAdjust="spacing" textLength="38.6318" x="203.83" y="306.0084">owner</text><text fill="#000000" font-family="sans-serif" font-size="13" lengthAdjust="spacing" textLength="8.2202" x="188.3557" y="283.1539">1</text><text fill="#000000" font-family="sans-serif" font-size="13" lengthAdjust="spacing" textLength="6.2651" x="205.6579" y="328.5641">*</text></g><!--link User to Building--><g class="link" data-entity-1="User" data-entity-2="Building" data-source-line="64" data-uid="lnk20" id="link_User_Building"><path codeLine="64" d="M234.17,262.85 C238.58,272.56 243,282.76 246.83,292.44 C252.74,307.41 256.6205,318.172 261.6605,333.452" fill="none" id="User-to-Building-1" style="stroke:#181818;stroke-width:1;"/><polygon fill="#181818" points="263.54,339.15,264.5195,329.35,261.9738,334.4016,256.9221,331.8559,263.54,339.15" style="stroke:#181818;stroke-width:1;"/><text fill="#000000" font-family="sans-serif" font-size="13" lengthAdjust="spacing" textLength="41.4819" x="254.12" y="306.0084">author</text><text fill="#000000" font-family="sans-serif" font-size="13" lengthAdjust="spacing" textLength="8.2202" x="228.7834" y="283.0499">1</text><text fill="#000000" font-family="sans-serif" font-size="13" lengthAdjust="spacing" textLength="6.2651" x="255.083" y="328.8439">*</text></g><!--link Building to Comment--><g class="link" data-entity-1="Building" data-entity-2="Comment" data-source-line="65" data-uid="lnk21" id="link_Building_Comment"><path codeLine="65" d="M280.83,453.84 C280.83,488.15 280.83,524.7 280.83,553.16" fill="none" id="Building-to-Comment" style="stroke:#181818;stroke-width:1;"/><polygon fill="#181818" points="280.83,559.16,284.83,550.16,280.83,554.16,276.83,550.16,280.83,559.16" style="stroke:#181818;stroke-width:1;"/><text fill="#000000" font-family="sans-serif" font-size="13" lengthAdjust="spacing" textLength="8.2202" x="272.3799" y="473.9331">1</text><text fill="#000000" font-family="sans-serif" font-size="13" lengthAdjust="spacing" textLength="6.2651" x="274.2395" y="548.5054">*</text></g><!--link Building to Image--><g class="link" data-entity-1="Building" data-entity-2="Image" data-source-line="66" data-uid="lnk22" id="link_Building_Image"><path codeLine="66" d="M322.28,453.84 C347.5,488.15 375.2075,525.8648 396.1175,554.3248" fill="none" id="Building-to-Image" style="stroke:#181818;stroke-width:1;"/><polygon fill="#181818" points="399.67,559.16,397.5647,549.5388,396.7096,555.1306,391.1177,554.2755,399.67,559.16" style="stroke:#181818;stroke-width:1;"/><text fill="#000000" font-family="sans-serif" font-size="13" lengthAdjust="spacing" textLength="84.1191" x="357.09" y="496.9684">profilePicture</text><text fill="#000000" font-family="sans-serif" font-size="13" lengthAdjust="spacing" textLength="8.2202" x="318.6225" y="473.9331">1</text><text fill="#000000" font-family="sans-serif" font-size="13" lengthAdjust="spacing" textLength="8.2202" x="386.0905" y="548.5054">1</text></g><!--link Building to EnergyClass--><g class="link" data-entity-1="Building" data-entity-2="EnergyClass" data-source-line="67" data-uid="lnk23" id="link_Building_EnergyClass"><path codeLine="67" d="M239.67,453.84 C222.19,477.79 205.3258,500.9125 187.5358,525.3025" fill="none" id="Building-to-EnergyClass" style="stroke:#181818;stroke-width:1;"/><polygon fill="#181818" points="184,530.15,192.5353,525.2359,186.9465,526.1104,186.072,520.5216,184,530.15" style="stroke:#181818;stroke-width:1;"/><text fill="#000000" font-family="sans-serif" font-size="13" lengthAdjust="spacing" textLength="8.2202" x="226.4608" y="473.9331">1</text><text fill="#000000" font-family="sans-serif" font-size="13" lengthAdjust="spacing" textLength="8.2202" x="180.657" y="519.7539">1</text></g><!--SRC=[ZLFBJiCm4BptArOzLae5rwYgr0Q4k9HAW3WxyL8i-H5jx9OA-7VS94tSk47uOcjsPfzU0812igg2rme9lYRGdcTBGk_0ULGpXKEyz9A38Jx4KJ4XQ_1dKb-DynLNGelA4hFcIXJ1CqPyurIE58lVCDyQiap6mZrI9OmEb67kT2MJjHEIdwnNaXWYakKeXo3ZdB2gEbXe2qTazFIU6UqhT8Nr6SM1xxMbOnprehcvCHAPXjBbKXInZnVyj2D-h3V50jyO954CDTpu00Xx9bqqMQU57Sd-WOmh6nIrKnv4sXspch1OdA3bCeYowbxhxfLrhxiuI6QKGj_EVnRtgDWEO_AxaBWvTxKLz5zeUZk595d2T3PjHvAU9n-GRkRpCy_VzMgabxlGDwIcp9AaTpdf6R3uzfPkRaD3E9z6LSUgRHSx4nZ32hhVd88vw7O5_c8nPpzCG-lGaDgEO8JWxwRfAPHaJetUYi8wmd5-y4T-0G00]--></g></svg>