<svg xmlns="http://www.w3.org/2000/svg" xmlns:xlink="http://www.w3.org/1999/xlink" contentStyleType="text/css" data-diagram-type="CLASS" height="442px" preserveAspectRatio="none" style="width:750px;height:442px;background:#FFFFFF;" version="1.1" viewBox="0 0 750 442" width="750px" zoomAndPan="magnify"><defs/><g><!--class TravelAgency--><g class="entity" data-entity="TravelAgency" data-source-line="1" data-uid="ent0002" id="entity_TravelAgency"><rect fill="#F1F1F1" height="80.9766" rx="2.5" ry="2.5" style="stroke:#181818;stroke-width:0.5;" width="122.7676" x="32.13" y="7"/><ellipse cx="47.13" cy="23" fill="#ADD1B2" rx="11" ry="11" style="stroke:#181818;stroke-width:1;"/><path d="M49.6031,29.1431 Q49.0221,29.4419 48.3829,29.5913 Q47.7438,29.7407 47.0382,29.7407 Q44.5314,29.7407 43.2115,28.0889 Q41.8917,26.437 41.8917,23.3159 Q41.8917,20.1865 43.2115,18.5347 Q44.5314,16.8828 47.0382,16.8828 Q47.7438,16.8828 48.3912,17.0322 Q49.0387,17.1816 49.6031,17.4805 L49.6031,20.2031 Q48.9723,19.6221 48.3788,19.3523 Q47.7853,19.0825 47.1544,19.0825 Q45.8097,19.0825 45.1249,20.1492 Q44.4401,21.2158 44.4401,23.3159 Q44.4401,25.4077 45.1249,26.4744 Q45.8097,27.541 47.1544,27.541 Q47.7853,27.541 48.3788,27.2712 Q48.9723,27.0015 49.6031,26.4204 Z " fill="#000000"/><text fill="#000000" font-family="sans-serif" font-size="14" lengthAdjust="spacing" textLength="90.7676" x="61.13" y="28.291">TravelAgency</text><line style="stroke:#181818;stroke-width:0.5;" x1="33.13" x2="153.8976" y1="39" y2="39"/><text fill="#000000" font-family="sans-serif" font-size="14" lengthAdjust="spacing" textLength="83.3438" x="38.13" y="56.5352">String Name</text><text fill="#000000" font-family="sans-serif" font-size="14" lengthAdjust="spacing" textLength="99.4834" x="38.13" y="73.0234">String Address</text><line style="stroke:#181818;stroke-width:0.5;" x1="33.13" x2="153.8976" y1="79.9766" y2="79.9766"/></g><!--class Ticket--><g class="entity" data-entity="Ticket" data-source-line="6" data-uid="ent0003" id="entity_Ticket"><rect fill="#F1F1F1" height="80.9766" rx="2.5" ry="2.5" style="stroke:#181818;stroke-width:0.5;" width="143.7285" x="21.65" y="164.46"/><ellipse cx="68.6197" cy="180.46" fill="#ADD1B2" rx="11" ry="11" style="stroke:#181818;stroke-width:1;"/><path d="M71.0929,186.6031 Q70.5118,186.9019 69.8727,187.0513 Q69.2335,187.2007 68.5279,187.2007 Q66.0211,187.2007 64.7013,185.5489 Q63.3814,183.897 63.3814,180.7759 Q63.3814,177.6465 64.7013,175.9947 Q66.0211,174.3428 68.5279,174.3428 Q69.2335,174.3428 69.881,174.4922 Q70.5284,174.6416 71.0929,174.9405 L71.0929,177.6631 Q70.462,177.0821 69.8685,176.8123 Q69.275,176.5425 68.6441,176.5425 Q67.2994,176.5425 66.6146,177.6092 Q65.9298,178.6758 65.9298,180.7759 Q65.9298,182.8677 66.6146,183.9344 Q67.2994,185.001 68.6441,185.001 Q69.275,185.001 69.8685,184.7312 Q70.462,184.4615 71.0929,183.8804 Z " fill="#000000"/><text fill="#000000" font-family="sans-serif" font-size="14" lengthAdjust="spacing" textLength="41.2891" x="89.1197" y="185.751">Ticket</text><line style="stroke:#181818;stroke-width:0.5;" x1="22.65" x2="164.3785" y1="196.46" y2="196.46"/><text fill="#000000" font-family="sans-serif" font-size="14" lengthAdjust="spacing" textLength="131.7285" x="27.65" y="213.9952">Int BookingNumber</text><text fill="#000000" font-family="sans-serif" font-size="14" lengthAdjust="spacing" textLength="121.8369" x="27.65" y="230.4834">Date BookingDate</text><line style="stroke:#181818;stroke-width:0.5;" x1="22.65" x2="164.3785" y1="237.4366" y2="237.4366"/></g><!--class Guest--><g class="entity" data-entity="Guest" data-source-line="11" data-uid="ent0004" id="entity_Guest"><rect fill="#F1F1F1" height="80.9766" rx="2.5" ry="2.5" style="stroke:#181818;stroke-width:0.5;" width="95.3438" x="200.84" y="164.46"/><ellipse cx="226.8044" cy="180.46" fill="#ADD1B2" rx="11" ry="11" style="stroke:#181818;stroke-width:1;"/><path d="M229.2775,186.6031 Q228.6964,186.9019 228.0573,187.0513 Q227.4181,187.2007 226.7126,187.2007 Q224.2057,187.2007 222.8859,185.5489 Q221.5661,183.897 221.5661,180.7759 Q221.5661,177.6465 222.8859,175.9947 Q224.2057,174.3428 226.7126,174.3428 Q227.4181,174.3428 228.0656,174.4922 Q228.713,174.6416 229.2775,174.9405 L229.2775,177.6631 Q228.6466,177.0821 228.0531,176.8123 Q227.4596,176.5425 226.8288,176.5425 Q225.484,176.5425 224.7992,177.6092 Q224.1144,178.6758 224.1144,180.7759 Q224.1144,182.8677 224.7992,183.9344 Q225.484,185.001 226.8288,185.001 Q227.4596,185.001 228.0531,184.7312 Q228.6466,184.4615 229.2775,183.8804 Z " fill="#000000"/><text fill="#000000" font-family="sans-serif" font-size="14" lengthAdjust="spacing" textLength="38.9785" x="243.2409" y="185.751">Guest</text><line style="stroke:#181818;stroke-width:0.5;" x1="201.84" x2="295.1838" y1="196.46" y2="196.46"/><text fill="#000000" font-family="sans-serif" font-size="14" lengthAdjust="spacing" textLength="83.3438" x="206.84" y="213.9952">String Name</text><text fill="#000000" font-family="sans-serif" font-size="14" lengthAdjust="spacing" textLength="78.873" x="206.84" y="230.4834">Boolean VIP</text><line style="stroke:#181818;stroke-width:0.5;" x1="201.84" x2="295.1838" y1="237.4366" y2="237.4366"/></g><!--class Employee--><g class="entity" data-entity="Employee" data-source-line="16" data-uid="ent0005" id="entity_Employee"><rect fill="#F1F1F1" height="80.9766" rx="2.5" ry="2.5" style="stroke:#181818;stroke-width:0.5;" width="97.0303" x="7" y="338.42"/><ellipse cx="22" cy="354.42" fill="#ADD1B2" rx="11" ry="11" style="stroke:#181818;stroke-width:1;"/><path d="M24.4731,360.5631 Q23.8921,360.8619 23.2529,361.0113 Q22.6138,361.1607 21.9082,361.1607 Q19.4014,361.1607 18.0815,359.5089 Q16.7617,357.857 16.7617,354.7359 Q16.7617,351.6065 18.0815,349.9547 Q19.4014,348.3028 21.9082,348.3028 Q22.6138,348.3028 23.2612,348.4522 Q23.9087,348.6016 24.4731,348.9005 L24.4731,351.6231 Q23.8423,351.0421 23.2488,350.7723 Q22.6553,350.5025 22.0244,350.5025 Q20.6797,350.5025 19.9949,351.5692 Q19.3101,352.6358 19.3101,354.7359 Q19.3101,356.8277 19.9949,357.8944 Q20.6797,358.961 22.0244,358.961 Q22.6553,358.961 23.2488,358.6912 Q23.8423,358.4215 24.4731,357.8404 Z " fill="#000000"/><text fill="#000000" font-family="sans-serif" font-size="14" lengthAdjust="spacing" textLength="65.0303" x="36" y="359.711">Employee</text><line style="stroke:#181818;stroke-width:0.5;" x1="8" x2="103.0303" y1="370.42" y2="370.42"/><text fill="#000000" font-family="sans-serif" font-size="14" lengthAdjust="spacing" textLength="83.3438" x="13" y="387.9552">String Name</text><text fill="#000000" font-family="sans-serif" font-size="14" lengthAdjust="spacing" textLength="45.7529" x="13" y="404.4434">Int Ssn</text><line style="stroke:#181818;stroke-width:0.5;" x1="8" x2="103.0303" y1="411.3966" y2="411.3966"/></g><!--class Cruise--><g class="entity" data-entity="Cruise" data-source-line="21" data-uid="ent0006" id="entity_Cruise"><rect fill="#F1F1F1" height="113.9531" rx="2.5" ry="2.5" style="stroke:#181818;stroke-width:0.5;" width="131.916" x="331.56" y="147.97"/><ellipse cx="372.1331" cy="163.97" fill="#ADD1B2" rx="11" ry="11" style="stroke:#181818;stroke-width:1;"/><path d="M374.6062,170.1131 Q374.0252,170.4119 373.386,170.5613 Q372.7469,170.7107 372.0413,170.7107 Q369.5345,170.7107 368.2146,169.0589 Q366.8948,167.407 366.8948,164.2859 Q366.8948,161.1565 368.2146,159.5047 Q369.5345,157.8528 372.0413,157.8528 Q372.7469,157.8528 373.3943,158.0022 Q374.0418,158.1516 374.6062,158.4505 L374.6062,161.1731 Q373.9754,160.5921 373.3819,160.3223 Q372.7884,160.0525 372.1575,160.0525 Q370.8128,160.0525 370.128,161.1192 Q369.4432,162.1858 369.4432,164.2859 Q369.4432,166.3777 370.128,167.4444 Q370.8128,168.511 372.1575,168.511 Q372.7884,168.511 373.3819,168.2412 Q373.9754,167.9715 374.6062,167.3904 Z " fill="#000000"/><text fill="#000000" font-family="sans-serif" font-size="14" lengthAdjust="spacing" textLength="43.0869" x="391.816" y="169.261">Cruise</text><line style="stroke:#181818;stroke-width:0.5;" x1="332.56" x2="462.476" y1="179.97" y2="179.97"/><text fill="#000000" font-family="sans-serif" font-size="14" lengthAdjust="spacing" textLength="119.916" x="337.56" y="197.5052">Int CruiseNumber</text><text fill="#000000" font-family="sans-serif" font-size="14" lengthAdjust="spacing" textLength="83.3438" x="337.56" y="213.9934">String Name</text><text fill="#000000" font-family="sans-serif" font-size="14" lengthAdjust="spacing" textLength="98.4102" x="337.56" y="230.4817">Date StartDate</text><text fill="#000000" font-family="sans-serif" font-size="14" lengthAdjust="spacing" textLength="92.0254" x="337.56" y="246.97">Date EndDate</text><line style="stroke:#181818;stroke-width:0.5;" x1="332.56" x2="462.476" y1="253.9231" y2="253.9231"/></g><!--class ProviderCompany--><g class="entity" data-entity="ProviderCompany" data-source-line="28" data-uid="ent0007" id="entity_ProviderCompany"><rect fill="#F1F1F1" height="80.9766" rx="2.5" ry="2.5" style="stroke:#181818;stroke-width:0.5;" width="151.6016" x="138.71" y="338.42"/><ellipse cx="153.71" cy="354.42" fill="#ADD1B2" rx="11" ry="11" style="stroke:#181818;stroke-width:1;"/><path d="M156.1831,360.5631 Q155.6021,360.8619 154.9629,361.0113 Q154.3238,361.1607 153.6182,361.1607 Q151.1114,361.1607 149.7915,359.5089 Q148.4717,357.857 148.4717,354.7359 Q148.4717,351.6065 149.7915,349.9547 Q151.1114,348.3028 153.6182,348.3028 Q154.3238,348.3028 154.9712,348.4522 Q155.6187,348.6016 156.1831,348.9005 L156.1831,351.6231 Q155.5523,351.0421 154.9588,350.7723 Q154.3653,350.5025 153.7344,350.5025 Q152.3897,350.5025 151.7049,351.5692 Q151.0201,352.6358 151.0201,354.7359 Q151.0201,356.8277 151.7049,357.8944 Q152.3897,358.961 153.7344,358.961 Q154.3653,358.961 154.9588,358.6912 Q155.5523,358.4215 156.1831,357.8404 Z " fill="#000000"/><text fill="#000000" font-family="sans-serif" font-size="14" lengthAdjust="spacing" textLength="119.6016" x="167.71" y="359.711">ProviderCompany</text><line style="stroke:#181818;stroke-width:0.5;" x1="139.71" x2="289.3116" y1="370.42" y2="370.42"/><text fill="#000000" font-family="sans-serif" font-size="14" lengthAdjust="spacing" textLength="83.3438" x="144.71" y="387.9552">String Name</text><text fill="#000000" font-family="sans-serif" font-size="14" lengthAdjust="spacing" textLength="101.9375" x="144.71" y="404.4434">String Location</text><line style="stroke:#181818;stroke-width:0.5;" x1="139.71" x2="289.3116" y1="411.3966" y2="411.3966"/></g><!--class Ship--><g class="entity" data-entity="Ship" data-source-line="33" data-uid="ent0008" id="entity_Ship"><rect fill="#F1F1F1" height="113.9531" rx="2.5" ry="2.5" style="stroke:#181818;stroke-width:0.5;" width="143.7764" x="325.63" y="321.93"/><ellipse cx="378.7247" cy="337.93" fill="#ADD1B2" rx="11" ry="11" style="stroke:#181818;stroke-width:1;"/><path d="M381.1979,344.0731 Q380.6168,344.3719 379.9777,344.5213 Q379.3385,344.6707 378.6329,344.6707 Q376.1261,344.6707 374.8063,343.0189 Q373.4864,341.367 373.4864,338.2459 Q373.4864,335.1165 374.8063,333.4647 Q376.1261,331.8128 378.6329,331.8128 Q379.3385,331.8128 379.986,331.9622 Q380.6334,332.1116 381.1979,332.4105 L381.1979,335.1331 Q380.567,334.5521 379.9735,334.2823 Q379.38,334.0125 378.7491,334.0125 Q377.4044,334.0125 376.7196,335.0792 Q376.0348,336.1458 376.0348,338.2459 Q376.0348,340.3377 376.7196,341.4044 Q377.4044,342.471 378.7491,342.471 Q379.38,342.471 379.9735,342.2012 Q380.567,341.9315 381.1979,341.3504 Z " fill="#000000"/><text fill="#000000" font-family="sans-serif" font-size="14" lengthAdjust="spacing" textLength="29.0869" x="399.2247" y="343.221">Ship</text><line style="stroke:#181818;stroke-width:0.5;" x1="326.63" x2="468.4064" y1="353.93" y2="353.93"/><text fill="#000000" font-family="sans-serif" font-size="14" lengthAdjust="spacing" textLength="83.3438" x="331.63" y="371.4652">String Name</text><text fill="#000000" font-family="sans-serif" font-size="14" lengthAdjust="spacing" textLength="96.9268" x="331.63" y="387.9534">Int DeckCount</text><text fill="#000000" font-family="sans-serif" font-size="14" lengthAdjust="spacing" textLength="80.7393" x="331.63" y="404.4417">Float lenght</text><text fill="#000000" font-family="sans-serif" font-size="14" lengthAdjust="spacing" textLength="131.7764" x="331.63" y="420.93">Int PassengerCount</text><line style="stroke:#181818;stroke-width:0.5;" x1="326.63" x2="468.4064" y1="427.8831" y2="427.8831"/></g><!--class Show--><g class="entity" data-entity="Show" data-source-line="40" data-uid="ent0009" id="entity_Show"><rect fill="#F1F1F1" height="80.9766" rx="2.5" ry="2.5" style="stroke:#181818;stroke-width:0.5;" width="93.5938" x="504.72" y="338.42"/><ellipse cx="531.4103" cy="354.42" fill="#ADD1B2" rx="11" ry="11" style="stroke:#181818;stroke-width:1;"/><path d="M533.8835,360.5631 Q533.3024,360.8619 532.6633,361.0113 Q532.0241,361.1607 531.3185,361.1607 Q528.8117,361.1607 527.4919,359.5089 Q526.1721,357.857 526.1721,354.7359 Q526.1721,351.6065 527.4919,349.9547 Q528.8117,348.3028 531.3185,348.3028 Q532.0241,348.3028 532.6716,348.4522 Q533.319,348.6016 533.8835,348.9005 L533.8835,351.6231 Q533.2526,351.0421 532.6591,350.7723 Q532.0656,350.5025 531.4347,350.5025 Q530.09,350.5025 529.4052,351.5692 Q528.7204,352.6358 528.7204,354.7359 Q528.7204,356.8277 529.4052,357.8944 Q530.09,358.961 531.4347,358.961 Q532.0656,358.961 532.6591,358.6912 Q533.2526,358.4215 533.8835,357.8404 Z " fill="#000000"/><text fill="#000000" font-family="sans-serif" font-size="14" lengthAdjust="spacing" textLength="35.6152" x="548.0082" y="359.711">Show</text><line style="stroke:#181818;stroke-width:0.5;" x1="505.72" x2="597.3138" y1="370.42" y2="370.42"/><text fill="#000000" font-family="sans-serif" font-size="14" lengthAdjust="spacing" textLength="74.3818" x="510.72" y="387.9552">String Title</text><text fill="#000000" font-family="sans-serif" font-size="14" lengthAdjust="spacing" textLength="81.5938" x="510.72" y="404.4434">Int Duration</text><line style="stroke:#181818;stroke-width:0.5;" x1="505.72" x2="597.3138" y1="411.3966" y2="411.3966"/></g><!--class Destination--><g class="entity" data-entity="Destination" data-source-line="45" data-uid="ent0010" id="entity_Destination"><rect fill="#F1F1F1" height="80.9766" rx="2.5" ry="2.5" style="stroke:#181818;stroke-width:0.5;" width="109.6973" x="633.67" y="338.42"/><ellipse cx="648.67" cy="354.42" fill="#ADD1B2" rx="11" ry="11" style="stroke:#181818;stroke-width:1;"/><path d="M651.1431,360.5631 Q650.5621,360.8619 649.9229,361.0113 Q649.2838,361.1607 648.5782,361.1607 Q646.0714,361.1607 644.7515,359.5089 Q643.4317,357.857 643.4317,354.7359 Q643.4317,351.6065 644.7515,349.9547 Q646.0714,348.3028 648.5782,348.3028 Q649.2838,348.3028 649.9312,348.4522 Q650.5787,348.6016 651.1431,348.9005 L651.1431,351.6231 Q650.5123,351.0421 649.9188,350.7723 Q649.3253,350.5025 648.6944,350.5025 Q647.3497,350.5025 646.6649,351.5692 Q645.9801,352.6358 645.9801,354.7359 Q645.9801,356.8277 646.6649,357.8944 Q647.3497,358.961 648.6944,358.961 Q649.3253,358.961 649.9188,358.6912 Q650.5123,358.4215 651.1431,357.8404 Z " fill="#000000"/><text fill="#000000" font-family="sans-serif" font-size="14" lengthAdjust="spacing" textLength="77.6973" x="662.67" y="359.711">Destination</text><line style="stroke:#181818;stroke-width:0.5;" x1="634.67" x2="742.3673" y1="370.42" y2="370.42"/><text fill="#000000" font-family="sans-serif" font-size="14" lengthAdjust="spacing" textLength="83.3438" x="639.67" y="387.9552">String Name</text><text fill="#000000" font-family="sans-serif" font-size="14" lengthAdjust="spacing" textLength="67.4707" x="639.67" y="404.4434">String Sea</text><line style="stroke:#181818;stroke-width:0.5;" x1="634.67" x2="742.3673" y1="411.3966" y2="411.3966"/></g><polygon fill="#F1F1F1" points="248.52,35.49,260.52,47.49,248.52,59.49,236.52,47.49,248.52,35.49" style="stroke:#181818;stroke-width:0.5;"/><!--link Cruise to ProviderCompany--><g class="link" data-entity-1="Cruise" data-entity-2="ProviderCompany" data-source-line="52" data-uid="lnk12" id="link_Cruise_ProviderCompany"><path codeLine="52" d="M337.59,262.25 C311.22,287.03 280.86,315.56 256.89,338.09" fill="none" id="Cruise-ProviderCompany" style="stroke:#181818;stroke-width:1;"/><text fill="#000000" font-family="sans-serif" font-size="13" lengthAdjust="spacing" textLength="22.7119" x="307.4301" y="282.3292">0..*</text><text fill="#000000" font-family="sans-serif" font-size="13" lengthAdjust="spacing" textLength="24.667" x="237.9768" y="327.6814">0..1</text></g><!--link Cruise to Employee--><g class="link" data-entity-1="Cruise" data-entity-2="Employee" data-source-line="53" data-uid="lnk13" id="link_Cruise_Employee"><path codeLine="53" d="M331.12,252.62 C325.28,255.98 319.37,259.13 313.52,261.93 C232.83,300.44 199.84,278.82 121.52,321.93 C113.35,326.42 105.28,332.02 97.72,337.92" fill="none" id="Cruise-Employee" style="stroke:#181818;stroke-width:1;"/><text fill="#000000" font-family="sans-serif" font-size="13" lengthAdjust="spacing" textLength="22.7119" x="300.6935" y="254.5993">0..*</text><text fill="#000000" font-family="sans-serif" font-size="13" lengthAdjust="spacing" textLength="22.7119" x="80.75" y="327.7853">0..*</text></g><!--link Cruise to Ship--><g class="link" data-entity-1="Cruise" data-entity-2="Ship" data-source-line="54" data-uid="lnk14" id="link_Cruise_Ship"><path codeLine="54" d="M397.52,262.25 C397.52,281.26 397.52,302.46 397.52,321.47" fill="none" id="Cruise-Ship" style="stroke:#181818;stroke-width:1;"/><text fill="#000000" font-family="sans-serif" font-size="13" lengthAdjust="spacing" textLength="22.7119" x="374.2895" y="282.3292">0..*</text><text fill="#000000" font-family="sans-serif" font-size="13" lengthAdjust="spacing" textLength="24.667" x="372.0984" y="311.1431">0..1</text></g><!--link TravelAgency to Ticket--><g class="link" data-entity-1="TravelAgency" data-entity-2="Ticket" data-source-line="55" data-uid="lnk15" id="link_TravelAgency_Ticket"><path codeLine="55" d="M93.52,88.12 C93.52,111.42 93.52,140.79 93.52,164.12" fill="none" id="TravelAgency-Ticket" style="stroke:#181818;stroke-width:1;"/><text fill="#000000" font-family="sans-serif" font-size="13" lengthAdjust="spacing" textLength="24.667" x="67.5888" y="108.6859">1..1</text><text fill="#000000" font-family="sans-serif" font-size="13" lengthAdjust="spacing" textLength="22.7119" x="69.758" y="153.7097">0..*</text></g><!--link Cruise to Destination--><g class="link" data-entity-1="Cruise" data-entity-2="Destination" data-source-line="56" data-uid="lnk16" id="link_Cruise_Destination"><path codeLine="56" d="M463.5,237.48 C507.59,259.4 566.3,290.27 615.52,321.93 C623.17,326.85 631.04,332.36 638.64,337.94" fill="none" id="Cruise-Destination" style="stroke:#181818;stroke-width:1;"/><text fill="#000000" font-family="sans-serif" font-size="13" lengthAdjust="spacing" textLength="22.7119" x="471.4755" y="237.6459">0..*</text><text fill="#000000" font-family="sans-serif" font-size="13" lengthAdjust="spacing" textLength="24.667" x="604.8312" y="327.8085">0..1</text></g><!--link Cruise to Show--><g class="link" data-entity-1="Cruise" data-entity-2="Show" data-source-line="57" data-uid="lnk17" id="link_Cruise_Show"><path codeLine="57" d="M447.94,262.25 C470.13,287.03 495.68,315.56 515.85,338.09" fill="none" id="Cruise-Show" style="stroke:#181818;stroke-width:1;"/><text fill="#000000" font-family="sans-serif" font-size="13" lengthAdjust="spacing" textLength="22.7119" x="430.5393" y="282.3292">0..*</text><text fill="#000000" font-family="sans-serif" font-size="13" lengthAdjust="spacing" textLength="22.7119" x="486.1798" y="327.6814">0..*</text></g><!--link diamond to Guest--><g class="link" data-entity-1="diamond" data-entity-2="Guest" data-source-line="59" data-uid="lnk18" id="link_diamond_Guest"><path codeLine="59" d="M248.52,60.17 C248.52,81.92 248.52,129.53 248.52,164.02" fill="none" id="diamond-Guest" style="stroke:#181818;stroke-width:1;"/><text fill="#000000" font-family="sans-serif" font-size="13" lengthAdjust="spacing" textLength="24.667" x="222.5891" y="153.5931">0..1</text></g><!--link diamond to Ticket--><g class="link" data-entity-1="diamond" data-entity-2="Ticket" data-source-line="60" data-uid="lnk19" id="link_diamond_Ticket"><path codeLine="60" d="M243,54.02 C225.69,71.38 171.33,125.91 133.18,164.17" fill="none" id="diamond-Ticket" style="stroke:#181818;stroke-width:1;"/><text fill="#000000" font-family="sans-serif" font-size="13" lengthAdjust="spacing" textLength="24.667" x="113.8174" y="153.768">0..1</text></g><!--link diamond to Cruise--><g class="link" data-entity-1="diamond" data-entity-2="Cruise" data-source-line="61" data-uid="lnk20" id="link_diamond_Cruise"><path codeLine="61" d="M254.17,54.39 C268.85,69.7 309.35,111.96 343.58,147.67" fill="none" id="diamond-Cruise" style="stroke:#181818;stroke-width:1;"/><text fill="#000000" font-family="sans-serif" font-size="13" lengthAdjust="spacing" textLength="24.667" x="311.5845" y="137.3626">0..1</text></g><!--SRC=[TL9DQyCm3BthLvWS2othVGowj1s5KG8fktksI4qSEzXEHndxxulZV3RDoPRydjwJB2QfjUHYw0tbBaF5xkGNIEgCK1avqmBxOCUvGMlX3u05ac0vEWy_AKVUjSvhsBaglj40sLE7NSxV1zf7XTRDH6geHAh8roaPe8UYbFgEE4DxmTIg0HcRIbZil8Ieip9XDhvIHurhN8NueFZKOsBqJN0qiIvAgXP7ygaPTKAFVAHNKJvrkqUMnxfI3iXHQkg8H9LTNNXCQceTUZsF65NJFwDg5-5aLwuo3yhxUgf2DSabkobIZtzz8rpGGYiEqCujUjbiLj5wxSzjzDZ-CzGgwdzdeOWV1KmMAzhwXvuVzcU1FMfdGTuF1w3jXFJ4PhtcwLPibW-ruHy0]--></g></svg>