<svg xmlns="http://www.w3.org/2000/svg" xmlns:xlink="http://www.w3.org/1999/xlink" contentStyleType="text/css" data-diagram-type="CLASS" height="678px" preserveAspectRatio="none" style="width:299px;height:678px;background:#FFFFFF;" version="1.1" viewBox="0 0 299 678" width="299px" zoomAndPan="magnify"><defs/><g><!--class AirplaneModel--><g class="entity" data-entity="AirplaneModel" data-source-line="2" data-uid="ent0002" id="entity_AirplaneModel"><rect fill="#F1F1F1" height="64.4883" rx="2.5" ry="2.5" style="stroke:#181818;stroke-width:0.5;" width="129.8291" x="25.67" y="7"/><ellipse cx="40.67" cy="23" fill="#ADD1B2" rx="11" ry="11" style="stroke:#181818;stroke-width:1;"/><path d="M43.1431,29.1431 Q42.5621,29.4419 41.9229,29.5913 Q41.2838,29.7407 40.5782,29.7407 Q38.0714,29.7407 36.7515,28.0889 Q35.4317,26.437 35.4317,23.3159 Q35.4317,20.1865 36.7515,18.5347 Q38.0714,16.8828 40.5782,16.8828 Q41.2838,16.8828 41.9312,17.0322 Q42.5787,17.1816 43.1431,17.4805 L43.1431,20.2031 Q42.5123,19.6221 41.9188,19.3523 Q41.3253,19.0825 40.6944,19.0825 Q39.3497,19.0825 38.6649,20.1492 Q37.9801,21.2158 37.9801,23.3159 Q37.9801,25.4077 38.6649,26.4744 Q39.3497,27.541 40.6944,27.541 Q41.3253,27.541 41.9188,27.2712 Q42.5123,27.0015 43.1431,26.4204 Z " fill="#000000"/><text fill="#000000" font-family="sans-serif" font-size="14" lengthAdjust="spacing" textLength="97.8291" x="54.67" y="28.291">AirplaneModel</text><line style="stroke:#181818;stroke-width:0.5;" x1="26.67" x2="154.4991" y1="39" y2="39"/><text fill="#000000" font-family="sans-serif" font-size="14" lengthAdjust="spacing" textLength="76.5488" x="31.67" y="56.5352">Int ModelId</text><line style="stroke:#181818;stroke-width:0.5;" x1="26.67" x2="154.4991" y1="63.4883" y2="63.4883"/></g><!--class Airplane--><g class="entity" data-entity="Airplane" data-source-line="6" data-uid="ent0003" id="entity_Airplane"><rect fill="#F1F1F1" height="64.4883" rx="2.5" ry="2.5" style="stroke:#181818;stroke-width:0.5;" width="102.6719" x="39.25" y="132.48"/><ellipse cx="60.6216" cy="148.48" fill="#ADD1B2" rx="11" ry="11" style="stroke:#181818;stroke-width:1;"/><path d="M63.0948,154.6231 Q62.5137,154.9219 61.8746,155.0713 Q61.2354,155.2207 60.5298,155.2207 Q58.023,155.2207 56.7032,153.5689 Q55.3833,151.917 55.3833,148.7959 Q55.3833,145.6665 56.7032,144.0147 Q58.023,142.3628 60.5298,142.3628 Q61.2354,142.3628 61.8829,142.5122 Q62.5303,142.6616 63.0948,142.9605 L63.0948,145.6831 Q62.4639,145.1021 61.8704,144.8323 Q61.2769,144.5625 60.646,144.5625 Q59.3013,144.5625 58.6165,145.6292 Q57.9317,146.6958 57.9317,148.7959 Q57.9317,150.8877 58.6165,151.9544 Q59.3013,153.021 60.646,153.021 Q61.2769,153.021 61.8704,152.7512 Q62.4639,152.4815 63.0948,151.9004 Z " fill="#000000"/><text fill="#000000" font-family="sans-serif" font-size="14" lengthAdjust="spacing" textLength="56.5127" x="76.0375" y="153.771">Airplane</text><line style="stroke:#181818;stroke-width:0.5;" x1="40.25" x2="140.9219" y1="164.48" y2="164.48"/><text fill="#000000" font-family="sans-serif" font-size="14" lengthAdjust="spacing" textLength="90.6719" x="45.25" y="182.0152">Int AirPlaneId</text><line style="stroke:#181818;stroke-width:0.5;" x1="40.25" x2="140.9219" y1="188.9683" y2="188.9683"/></g><!--class Acquisition--><g class="entity" data-entity="Acquisition" data-source-line="10" data-uid="ent0004" id="entity_Acquisition"><rect fill="#F1F1F1" height="113.9531" rx="2.5" ry="2.5" style="stroke:#181818;stroke-width:0.5;" width="167.1758" x="7" y="273.97"/><ellipse cx="48.5698" cy="289.97" fill="#ADD1B2" rx="11" ry="11" style="stroke:#181818;stroke-width:1;"/><path d="M51.0429,296.1131 Q50.4619,296.4119 49.8227,296.5613 Q49.1835,296.7107 48.478,296.7107 Q45.9711,296.7107 44.6513,295.0589 Q43.3315,293.407 43.3315,290.2859 Q43.3315,287.1565 44.6513,285.5047 Q45.9711,283.8528 48.478,283.8528 Q49.1835,283.8528 49.831,284.0022 Q50.4785,284.1516 51.0429,284.4505 L51.0429,287.1731 Q50.4121,286.5921 49.8186,286.3223 Q49.225,286.0525 48.5942,286.0525 Q47.2495,286.0525 46.5646,287.1192 Q45.8798,288.1858 45.8798,290.2859 Q45.8798,292.3777 46.5646,293.4444 Q47.2495,294.511 48.5942,294.511 Q49.225,294.511 49.8186,294.2412 Q50.4121,293.9715 51.0429,293.3904 Z " fill="#000000"/><text fill="#000000" font-family="sans-serif" font-size="14" lengthAdjust="spacing" textLength="76.1318" x="68.4742" y="295.261">Acquisition</text><line style="stroke:#181818;stroke-width:0.5;" x1="8" x2="173.1758" y1="305.97" y2="305.97"/><text fill="#000000" font-family="sans-serif" font-size="14" lengthAdjust="spacing" textLength="111.3643" x="13" y="323.5052">Int AcquisitionId</text><text fill="#000000" font-family="sans-serif" font-size="14" lengthAdjust="spacing" textLength="138.6396" x="13" y="339.9934">Float NegotiatedPice</text><text fill="#000000" font-family="sans-serif" font-size="14" lengthAdjust="spacing" textLength="97.7949" x="13" y="356.4817">String Options</text><text fill="#000000" font-family="sans-serif" font-size="14" lengthAdjust="spacing" textLength="155.1758" x="13" y="372.97">DateTime DeliveryDate</text><line style="stroke:#181818;stroke-width:0.5;" x1="8" x2="173.1758" y1="379.9231" y2="379.9231"/></g><!--class Contract--><g class="entity" data-entity="Contract" data-source-line="17" data-uid="ent0005" id="entity_Contract"><rect fill="#F1F1F1" height="80.9766" rx="2.5" ry="2.5" style="stroke:#181818;stroke-width:0.5;" width="105.3105" x="37.93" y="464.93"/><ellipse cx="59.7846" cy="480.93" fill="#ADD1B2" rx="11" ry="11" style="stroke:#181818;stroke-width:1;"/><path d="M62.2577,487.0731 Q61.6767,487.3719 61.0375,487.5213 Q60.3984,487.6707 59.6928,487.6707 Q57.186,487.6707 55.8661,486.0189 Q54.5463,484.367 54.5463,481.2459 Q54.5463,478.1165 55.8661,476.4647 Q57.186,474.8128 59.6928,474.8128 Q60.3984,474.8128 61.0458,474.9622 Q61.6933,475.1116 62.2577,475.4105 L62.2577,478.1331 Q61.6269,477.5521 61.0334,477.2823 Q60.4399,477.0125 59.809,477.0125 Q58.4643,477.0125 57.7795,478.0792 Q57.0946,479.1458 57.0946,481.2459 Q57.0946,483.3377 57.7795,484.4044 Q58.4643,485.471 59.809,485.471 Q60.4399,485.471 61.0334,485.2012 Q61.6269,484.9315 62.2577,484.3504 Z " fill="#000000"/><text fill="#000000" font-family="sans-serif" font-size="14" lengthAdjust="spacing" textLength="58.0781" x="75.3078" y="486.221">Contract</text><line style="stroke:#181818;stroke-width:0.5;" x1="38.93" x2="142.2405" y1="496.93" y2="496.93"/><text fill="#000000" font-family="sans-serif" font-size="14" lengthAdjust="spacing" textLength="93.3105" x="43.93" y="514.4652">Int ContractId</text><text fill="#000000" font-family="sans-serif" font-size="14" lengthAdjust="spacing" textLength="74.874" x="43.93" y="530.9534">String Text</text><line style="stroke:#181818;stroke-width:0.5;" x1="38.93" x2="142.2405" y1="537.9066" y2="537.9066"/></g><!--class Employee--><g class="entity" data-entity="Employee" data-source-line="22" data-uid="ent0006" id="entity_Employee"><rect fill="#F1F1F1" height="64.4883" rx="2.5" ry="2.5" style="stroke:#181818;stroke-width:0.5;" width="112.2627" x="14.46" y="606.9"/><ellipse cx="36.3146" cy="622.9" fill="#ADD1B2" rx="11" ry="11" style="stroke:#181818;stroke-width:1;"/><path d="M38.7877,629.0431 Q38.2067,629.3419 37.5675,629.4913 Q36.9284,629.6407 36.2228,629.6407 Q33.716,629.6407 32.3961,627.9889 Q31.0763,626.337 31.0763,623.2159 Q31.0763,620.0865 32.3961,618.4347 Q33.716,616.7828 36.2228,616.7828 Q36.9284,616.7828 37.5758,616.9322 Q38.2233,617.0816 38.7877,617.3805 L38.7877,620.1031 Q38.1569,619.5221 37.5634,619.2523 Q36.9699,618.9825 36.339,618.9825 Q34.9943,618.9825 34.3095,620.0492 Q33.6246,621.1158 33.6246,623.2159 Q33.6246,625.3077 34.3095,626.3744 Q34.9943,627.441 36.339,627.441 Q36.9699,627.441 37.5634,627.1712 Q38.1569,626.9015 38.7877,626.3204 Z " fill="#000000"/><text fill="#000000" font-family="sans-serif" font-size="14" lengthAdjust="spacing" textLength="65.0303" x="51.8378" y="628.191">Employee</text><line style="stroke:#181818;stroke-width:0.5;" x1="15.46" x2="125.7227" y1="638.9" y2="638.9"/><text fill="#000000" font-family="sans-serif" font-size="14" lengthAdjust="spacing" textLength="100.2627" x="20.46" y="656.4352">Int EmployeeId</text><line style="stroke:#181818;stroke-width:0.5;" x1="15.46" x2="125.7227" y1="663.3883" y2="663.3883"/></g><!--class Airline--><g class="entity" data-entity="Airline" data-source-line="26" data-uid="ent0007" id="entity_Airline"><rect fill="#F1F1F1" height="64.4883" rx="2.5" ry="2.5" style="stroke:#181818;stroke-width:0.5;" width="95.3438" x="161.92" y="606.9"/><ellipse cx="185.6172" cy="622.9" fill="#ADD1B2" rx="11" ry="11" style="stroke:#181818;stroke-width:1;"/><path d="M188.0904,629.0431 Q187.5093,629.3419 186.8701,629.4913 Q186.231,629.6407 185.5254,629.6407 Q183.0186,629.6407 181.6988,627.9889 Q180.3789,626.337 180.3789,623.2159 Q180.3789,620.0865 181.6988,618.4347 Q183.0186,616.7828 185.5254,616.7828 Q186.231,616.7828 186.8784,616.9322 Q187.5259,617.0816 188.0904,617.3805 L188.0904,620.1031 Q187.4595,619.5221 186.866,619.2523 Q186.2725,618.9825 185.6416,618.9825 Q184.2969,618.9825 183.6121,620.0492 Q182.9273,621.1158 182.9273,623.2159 Q182.9273,625.3077 183.6121,626.3744 Q184.2969,627.441 185.6416,627.441 Q186.2725,627.441 186.866,627.1712 Q187.4595,626.9015 188.0904,626.3204 Z " fill="#000000"/><text fill="#000000" font-family="sans-serif" font-size="14" lengthAdjust="spacing" textLength="44.0166" x="201.5499" y="628.191">Airline</text><line style="stroke:#181818;stroke-width:0.5;" x1="162.92" x2="256.2637" y1="638.9" y2="638.9"/><text fill="#000000" font-family="sans-serif" font-size="14" lengthAdjust="spacing" textLength="83.3438" x="167.92" y="656.4352">String Name</text><line style="stroke:#181818;stroke-width:0.5;" x1="162.92" x2="256.2637" y1="663.3883" y2="663.3883"/></g><!--link AirplaneModel to Airplane--><g class="link" data-entity-1="AirplaneModel" data-entity-2="Airplane" data-source-line="31" data-uid="lnk8" id="link_AirplaneModel_Airplane"><path codeLine="31" d="M90.59,71.72 C90.59,90.3 90.59,113.74 90.59,132.3" fill="none" id="AirplaneModel-Airplane" style="stroke:#181818;stroke-width:1;"/><text fill="#000000" font-family="sans-serif" font-size="13" lengthAdjust="spacing" textLength="8.2202" x="81.8495" y="91.9384">1</text><text fill="#000000" font-family="sans-serif" font-size="13" lengthAdjust="spacing" textLength="22.7119" x="66.3955" y="121.666">0..*</text></g><!--link Airplane to Acquisition--><g class="link" data-entity-1="Airplane" data-entity-2="Acquisition" data-source-line="32" data-uid="lnk9" id="link_Airplane_Acquisition"><path codeLine="32" d="M90.59,197.39 C90.59,219.01 90.59,248.26 90.59,273.78" fill="none" id="Airplane-Acquisition" style="stroke:#181818;stroke-width:1;"/><text fill="#000000" font-family="sans-serif" font-size="13" lengthAdjust="spacing" textLength="42.4214" x="91.59" y="240.5384">part of</text><text fill="#000000" font-family="sans-serif" font-size="13" lengthAdjust="spacing" textLength="24.667" x="64.3668" y="217.6446">0..1</text><text fill="#000000" font-family="sans-serif" font-size="13" lengthAdjust="spacing" textLength="24.667" x="65.0955" y="263.0829">0..1</text></g><!--link Acquisition to Contract--><g class="link" data-entity-1="Acquisition" data-entity-2="Contract" data-source-line="33" data-uid="lnk10" id="link_Acquisition_Contract"><path codeLine="33" d="M90.59,388.42 C90.59,413.27 90.59,441.89 90.59,464.48" fill="none" id="Acquisition-Contract" style="stroke:#181818;stroke-width:1;"/><text fill="#000000" font-family="sans-serif" font-size="13" lengthAdjust="spacing" textLength="42.4214" x="91.59" y="431.4984">part of</text><text fill="#000000" font-family="sans-serif" font-size="13" lengthAdjust="spacing" textLength="22.7119" x="67.3595" y="408.5189">0..*</text><text fill="#000000" font-family="sans-serif" font-size="13" lengthAdjust="spacing" textLength="8.2202" x="81.9465" y="454.0515">1</text></g><!--link Contract to Airline--><g class="link" data-entity-1="Contract" data-entity-2="Airline" data-source-line="34" data-uid="lnk11" id="link_Contract_Airline"><path codeLine="34" d="M126.61,546.29 C144.13,565.68 164.87,588.64 181.24,606.76" fill="none" id="Contract-Airline" style="stroke:#181818;stroke-width:1;"/><text fill="#000000" font-family="sans-serif" font-size="13" lengthAdjust="spacing" textLength="22.7119" x="108.655" y="566.5923">0..*</text><text fill="#000000" font-family="sans-serif" font-size="13" lengthAdjust="spacing" textLength="8.2202" x="166.5901" y="596.1343">1</text></g><!--link Contract to Employee--><g class="link" data-entity-1="Contract" data-entity-2="Employee" data-source-line="35" data-uid="lnk12" id="link_Contract_Employee"><path codeLine="35" d="M84.53,546.29 C81.59,565.68 78.1,588.64 75.35,606.76" fill="none" id="Contract-Employee" style="stroke:#181818;stroke-width:1;"/><text fill="#000000" font-family="sans-serif" font-size="13" lengthAdjust="spacing" textLength="22.7119" x="59.8685" y="566.5923">0..*</text><text fill="#000000" font-family="sans-serif" font-size="13" lengthAdjust="spacing" textLength="8.2202" x="67.5292" y="596.1343">1</text></g><!--link Airline to Airline--><g class="link" data-entity-1="Airline" data-entity-2="Airline" data-source-line="36" data-uid="lnk13" id="link_Airline_Airline"><path codeLine="36" d="M257.58,627.44 C276.48,626.85 292.26,630.75 292.26,639.15 C292.26,647.54 276.48,651.44 257.58,650.85" fill="none" id="Airline-Airline" style="stroke:#181818;stroke-width:1;"/><text fill="#000000" font-family="sans-serif" font-size="13" lengthAdjust="spacing" textLength="24.667" x="265.3087" y="622.5677">0..1</text><text fill="#000000" font-family="sans-serif" font-size="13" lengthAdjust="spacing" textLength="22.7119" x="265.1835" y="648.9771">0..*</text></g><!--SRC=[TP3FQW8n48VlUOfXZu9YhzwaLl1GAzGN2Dcf36IJRNOKfVZkJK8sVmhTK_QRBpFpYz9occ1BRjJIuBljKSEF0FyT34FyF_JYAOHgnChnw1HGewdlAqt4P4rj5khbGFVQIeOZNYoJPEnFf30MFjcHkS376EGfefqNpZGWx53J3TqZW3BorHfsKd4rRqPfMEfvnZkNQs_3gEq3wq0p-fDRKuwTEXtb41SGxVDrBnqibz2jLwj5bryiIx5G57-gNsi3etGCzalKDFKALxoVenOvezPCQ_zNdfEAELwxsg8q-0K0]--></g></svg>