<svg xmlns="http://www.w3.org/2000/svg" xmlns:xlink="http://www.w3.org/1999/xlink" contentStyleType="text/css" data-diagram-type="CLASS" height="870px" preserveAspectRatio="none" style="width:615px;height:870px;background:#FFFFFF;" version="1.1" viewBox="0 0 615 870" width="615px" zoomAndPan="magnify"><defs/><g><!--class Airline--><g class="entity" data-entity="Airline" data-source-line="2" data-uid="ent0002" id="entity_Airline"><rect fill="#F1F1F1" height="64.4883" rx="2.5" ry="2.5" style="stroke:#181818;stroke-width:0.5;" width="95.3438" x="306.45" y="7"/><ellipse cx="330.1472" cy="23" fill="#ADD1B2" rx="11" ry="11" style="stroke:#181818;stroke-width:1;"/><path d="M332.6204,29.1431 Q332.0393,29.4419 331.4001,29.5913 Q330.761,29.7407 330.0554,29.7407 Q327.5486,29.7407 326.2288,28.0889 Q324.9089,26.437 324.9089,23.3159 Q324.9089,20.1865 326.2288,18.5347 Q327.5486,16.8828 330.0554,16.8828 Q330.761,16.8828 331.4084,17.0322 Q332.0559,17.1816 332.6204,17.4805 L332.6204,20.2031 Q331.9895,19.6221 331.396,19.3523 Q330.8025,19.0825 330.1716,19.0825 Q328.8269,19.0825 328.1421,20.1492 Q327.4573,21.2158 327.4573,23.3159 Q327.4573,25.4077 328.1421,26.4744 Q328.8269,27.541 330.1716,27.541 Q330.8025,27.541 331.396,27.2712 Q331.9895,27.0015 332.6204,26.4204 Z " fill="#000000"/><text fill="#000000" font-family="sans-serif" font-size="14" lengthAdjust="spacing" textLength="44.0166" x="346.0799" y="28.291">Airline</text><line style="stroke:#181818;stroke-width:0.5;" x1="307.45" x2="400.7938" y1="39" y2="39"/><text fill="#000000" font-family="sans-serif" font-size="14" lengthAdjust="spacing" textLength="83.3438" x="312.45" y="56.5352">String Name</text><line style="stroke:#181818;stroke-width:0.5;" x1="307.45" x2="400.7938" y1="63.4883" y2="63.4883"/></g><!--class Employee--><g class="entity" data-entity="Employee" data-source-line="6" data-uid="ent0003" id="entity_Employee"><rect fill="#F1F1F1" height="80.9766" rx="2.5" ry="2.5" style="stroke:#181818;stroke-width:0.5;" width="110.4102" x="447.92" y="323.44"/><ellipse cx="468.9409" cy="339.44" fill="#ADD1B2" rx="11" ry="11" style="stroke:#181818;stroke-width:1;"/><path d="M471.4141,345.5831 Q470.833,345.8819 470.1939,346.0313 Q469.5547,346.1807 468.8492,346.1807 Q466.3423,346.1807 465.0225,344.5289 Q463.7027,342.877 463.7027,339.7559 Q463.7027,336.6265 465.0225,334.9747 Q466.3423,333.3228 468.8492,333.3228 Q469.5547,333.3228 470.2022,333.4722 Q470.8496,333.6216 471.4141,333.9205 L471.4141,336.6431 Q470.7832,336.0621 470.1897,335.7923 Q469.5962,335.5225 468.9654,335.5225 Q467.6206,335.5225 466.9358,336.5892 Q466.251,337.6558 466.251,339.7559 Q466.251,341.8477 466.9358,342.9144 Q467.6206,343.981 468.9654,343.981 Q469.5962,343.981 470.1897,343.7112 Q470.7832,343.4415 471.4141,342.8604 Z " fill="#000000"/><text fill="#000000" font-family="sans-serif" font-size="14" lengthAdjust="spacing" textLength="65.0303" x="484.2789" y="344.731">Employee</text><line style="stroke:#181818;stroke-width:0.5;" x1="448.92" x2="557.3302" y1="355.44" y2="355.44"/><text fill="#000000" font-family="sans-serif" font-size="14" lengthAdjust="spacing" textLength="83.3438" x="453.92" y="372.9752">String Nmae</text><text fill="#000000" font-family="sans-serif" font-size="14" lengthAdjust="spacing" textLength="98.4102" x="453.92" y="389.4634">Date StartDate</text><line style="stroke:#181818;stroke-width:0.5;" x1="448.92" x2="557.3302" y1="396.4166" y2="396.4166"/></g><!--class Airport--><g class="entity" data-entity="Airport" data-source-line="11" data-uid="ent0004" id="entity_Airport"><rect fill="#F1F1F1" height="97.4648" rx="2.5" ry="2.5" style="stroke:#181818;stroke-width:0.5;" width="127.3496" x="322.45" y="140.73"/><ellipse cx="358.8426" cy="156.73" fill="#ADD1B2" rx="11" ry="11" style="stroke:#181818;stroke-width:1;"/><path d="M361.3157,162.8731 Q360.7347,163.1719 360.0955,163.3213 Q359.4563,163.4707 358.7508,163.4707 Q356.2439,163.4707 354.9241,161.8189 Q353.6043,160.167 353.6043,157.0459 Q353.6043,153.9165 354.9241,152.2647 Q356.2439,150.6128 358.7508,150.6128 Q359.4563,150.6128 360.1038,150.7622 Q360.7513,150.9116 361.3157,151.2105 L361.3157,153.9331 Q360.6849,153.3521 360.0914,153.0823 Q359.4979,152.8125 358.867,152.8125 Q357.5223,152.8125 356.8375,153.8792 Q356.1526,154.9458 356.1526,157.0459 Q356.1526,159.1377 356.8375,160.2044 Q357.5223,161.271 358.867,161.271 Q359.4979,161.271 360.0914,161.0012 Q360.6849,160.7315 361.3157,160.1504 Z " fill="#000000"/><text fill="#000000" font-family="sans-serif" font-size="14" lengthAdjust="spacing" textLength="47.8105" x="377.5965" y="162.021">Airport</text><line style="stroke:#181818;stroke-width:0.5;" x1="323.45" x2="448.7996" y1="172.73" y2="172.73"/><text fill="#000000" font-family="sans-serif" font-size="14" lengthAdjust="spacing" textLength="83.3438" x="328.45" y="190.2652">String Name</text><text fill="#000000" font-family="sans-serif" font-size="14" lengthAdjust="spacing" textLength="99.4834" x="328.45" y="206.7534">String Address</text><text fill="#000000" font-family="sans-serif" font-size="14" lengthAdjust="spacing" textLength="115.3496" x="328.45" y="223.2417">Int RunwayCount</text><line style="stroke:#181818;stroke-width:0.5;" x1="323.45" x2="448.7996" y1="230.1948" y2="230.1948"/></g><!--class FlightAttendant--><g class="entity" data-entity="FlightAttendant" data-source-line="17" data-uid="ent0005" id="entity_FlightAttendant"><rect fill="#F1F1F1" height="64.4883" rx="2.5" ry="2.5" style="stroke:#181818;stroke-width:0.5;" width="137.3418" x="471.45" y="640.37"/><ellipse cx="486.45" cy="656.37" fill="#ADD1B2" rx="11" ry="11" style="stroke:#181818;stroke-width:1;"/><path d="M488.9231,662.5131 Q488.3421,662.8119 487.7029,662.9613 Q487.0638,663.1107 486.3582,663.1107 Q483.8514,663.1107 482.5315,661.4589 Q481.2117,659.807 481.2117,656.6859 Q481.2117,653.5565 482.5315,651.9047 Q483.8514,650.2528 486.3582,650.2528 Q487.0638,650.2528 487.7112,650.4022 Q488.3587,650.5516 488.9231,650.8505 L488.9231,653.5731 Q488.2923,652.9921 487.6988,652.7223 Q487.1053,652.4525 486.4744,652.4525 Q485.1297,652.4525 484.4449,653.5192 Q483.7601,654.5858 483.7601,656.6859 Q483.7601,658.7777 484.4449,659.8444 Q485.1297,660.911 486.4744,660.911 Q487.1053,660.911 487.6988,660.6412 Q488.2923,660.3715 488.9231,659.7904 Z " fill="#000000"/><text fill="#000000" font-family="sans-serif" font-size="14" lengthAdjust="spacing" textLength="105.3418" x="500.45" y="661.661">FlightAttendant</text><line style="stroke:#181818;stroke-width:0.5;" x1="472.45" x2="607.7918" y1="672.37" y2="672.37"/><text fill="#000000" font-family="sans-serif" font-size="14" lengthAdjust="spacing" textLength="100.7686" x="477.45" y="689.9052">Boolean Purser</text><line style="stroke:#181818;stroke-width:0.5;" x1="472.45" x2="607.7918" y1="696.8583" y2="696.8583"/></g><!--class Airplane--><g class="entity" data-entity="Airplane" data-source-line="21" data-uid="ent0006" id="entity_Airplane"><rect fill="#F1F1F1" height="113.9531" rx="2.5" ry="2.5" style="stroke:#181818;stroke-width:0.5;" width="165.1729" x="122.54" y="132.48"/><ellipse cx="172.6201" cy="148.48" fill="#ADD1B2" rx="11" ry="11" style="stroke:#181818;stroke-width:1;"/><path d="M175.0932,154.6231 Q174.5122,154.9219 173.873,155.0713 Q173.2338,155.2207 172.5283,155.2207 Q170.0214,155.2207 168.7016,153.5689 Q167.3818,151.917 167.3818,148.7959 Q167.3818,145.6665 168.7016,144.0147 Q170.0214,142.3628 172.5283,142.3628 Q173.2338,142.3628 173.8813,142.5122 Q174.5288,142.6616 175.0932,142.9605 L175.0932,145.6831 Q174.4624,145.1021 173.8689,144.8323 Q173.2754,144.5625 172.6445,144.5625 Q171.2998,144.5625 170.615,145.6292 Q169.9301,146.6958 169.9301,148.7959 Q169.9301,150.8877 170.615,151.9544 Q171.2998,153.021 172.6445,153.021 Q173.2754,153.021 173.8689,152.7512 Q174.4624,152.4815 175.0932,151.9004 Z " fill="#000000"/><text fill="#000000" font-family="sans-serif" font-size="14" lengthAdjust="spacing" textLength="56.5127" x="193.1201" y="153.771">Airplane</text><line style="stroke:#181818;stroke-width:0.5;" x1="123.54" x2="286.7129" y1="164.48" y2="164.48"/><text fill="#000000" font-family="sans-serif" font-size="14" lengthAdjust="spacing" textLength="83.3438" x="128.54" y="182.0152">String Name</text><text fill="#000000" font-family="sans-serif" font-size="14" lengthAdjust="spacing" textLength="77.1777" x="128.54" y="198.5034">String Type</text><text fill="#000000" font-family="sans-serif" font-size="14" lengthAdjust="spacing" textLength="153.1729" x="128.54" y="214.9917">Date ConstructionYear</text><text fill="#000000" font-family="sans-serif" font-size="14" lengthAdjust="spacing" textLength="137.8604" x="128.54" y="231.48">Date NextInspection</text><line style="stroke:#181818;stroke-width:0.5;" x1="123.54" x2="286.7129" y1="238.4331" y2="238.4331"/></g><!--class Flight--><g class="entity" data-entity="Flight" data-source-line="28" data-uid="ent0007" id="entity_Flight"><rect fill="#F1F1F1" height="64.4883" rx="2.5" ry="2.5" style="stroke:#181818;stroke-width:0.5;" width="149.0947" x="261.58" y="331.68"/><ellipse cx="312.7504" cy="347.68" fill="#ADD1B2" rx="11" ry="11" style="stroke:#181818;stroke-width:1;"/><path d="M315.2236,353.8231 Q314.6425,354.1219 314.0033,354.2713 Q313.3642,354.4207 312.6586,354.4207 Q310.1518,354.4207 308.832,352.7689 Q307.5121,351.117 307.5121,347.9959 Q307.5121,344.8665 308.832,343.2147 Q310.1518,341.5628 312.6586,341.5628 Q313.3642,341.5628 314.0116,341.7122 Q314.6591,341.8616 315.2236,342.1605 L315.2236,344.8831 Q314.5927,344.3021 313.9992,344.0323 Q313.4057,343.7625 312.7748,343.7625 Q311.4301,343.7625 310.7453,344.8292 Q310.0605,345.8958 310.0605,347.9959 Q310.0605,350.0877 310.7453,351.1544 Q311.4301,352.221 312.7748,352.221 Q313.4057,352.221 313.9992,351.9512 Q314.5927,351.6815 315.2236,351.1004 Z " fill="#000000"/><text fill="#000000" font-family="sans-serif" font-size="14" lengthAdjust="spacing" textLength="38.2539" x="333.2504" y="352.971">Flight</text><line style="stroke:#181818;stroke-width:0.5;" x1="262.58" x2="409.6747" y1="363.68" y2="363.68"/><text fill="#000000" font-family="sans-serif" font-size="14" lengthAdjust="spacing" textLength="137.0947" x="267.58" y="381.2152">String FlightNumber</text><line style="stroke:#181818;stroke-width:0.5;" x1="262.58" x2="409.6747" y1="388.1683" y2="388.1683"/></g><!--class Pilot--><g class="entity" data-entity="Pilot" data-source-line="32" data-uid="ent0008" id="entity_Pilot"><rect fill="#F1F1F1" height="64.4883" rx="2.5" ry="2.5" style="stroke:#181818;stroke-width:0.5;" width="106.5068" x="427.87" y="481.9"/><ellipse cx="463.0475" cy="497.9" fill="#ADD1B2" rx="11" ry="11" style="stroke:#181818;stroke-width:1;"/><path d="M465.5206,504.0431 Q464.9396,504.3419 464.3004,504.4913 Q463.6613,504.6407 462.9557,504.6407 Q460.4489,504.6407 459.129,502.9889 Q457.8092,501.337 457.8092,498.2159 Q457.8092,495.0865 459.129,493.4347 Q460.4489,491.7828 462.9557,491.7828 Q463.6613,491.7828 464.3087,491.9322 Q464.9562,492.0816 465.5206,492.3805 L465.5206,495.1031 Q464.8898,494.5221 464.2963,494.2523 Q463.7028,493.9825 463.0719,493.9825 Q461.7272,493.9825 461.0424,495.0492 Q460.3575,496.1158 460.3575,498.2159 Q460.3575,500.3077 461.0424,501.3744 Q461.7272,502.441 463.0719,502.441 Q463.7028,502.441 464.2963,502.1712 Q464.8898,501.9015 465.5206,501.3204 Z " fill="#000000"/><text fill="#000000" font-family="sans-serif" font-size="14" lengthAdjust="spacing" textLength="29.668" x="481.5314" y="503.191">Pilot</text><line style="stroke:#181818;stroke-width:0.5;" x1="428.87" x2="533.3768" y1="513.9" y2="513.9"/><text fill="#000000" font-family="sans-serif" font-size="14" lengthAdjust="spacing" textLength="94.5068" x="433.87" y="531.4352">String License</text><line style="stroke:#181818;stroke-width:0.5;" x1="428.87" x2="533.3768" y1="538.3883" y2="538.3883"/></g><!--class PassengerPlane--><g class="entity" data-entity="PassengerPlane" data-source-line="36" data-uid="ent0009" id="entity_PassengerPlane"><rect fill="#F1F1F1" height="64.4883" rx="2.5" ry="2.5" style="stroke:#181818;stroke-width:0.5;" width="136.4941" x="18.88" y="331.68"/><ellipse cx="33.88" cy="347.68" fill="#ADD1B2" rx="11" ry="11" style="stroke:#181818;stroke-width:1;"/><path d="M36.3531,353.8231 Q35.7721,354.1219 35.1329,354.2713 Q34.4938,354.4207 33.7882,354.4207 Q31.2814,354.4207 29.9615,352.7689 Q28.6417,351.117 28.6417,347.9959 Q28.6417,344.8665 29.9615,343.2147 Q31.2814,341.5628 33.7882,341.5628 Q34.4938,341.5628 35.1412,341.7122 Q35.7887,341.8616 36.3531,342.1605 L36.3531,344.8831 Q35.7223,344.3021 35.1288,344.0323 Q34.5353,343.7625 33.9044,343.7625 Q32.5597,343.7625 31.8749,344.8292 Q31.1901,345.8958 31.1901,347.9959 Q31.1901,350.0877 31.8749,351.1544 Q32.5597,352.221 33.9044,352.221 Q34.5353,352.221 35.1288,351.9512 Q35.7223,351.6815 36.3531,351.1004 Z " fill="#000000"/><text fill="#000000" font-family="sans-serif" font-size="14" lengthAdjust="spacing" textLength="104.4941" x="47.88" y="352.971">PassengerPlane</text><line style="stroke:#181818;stroke-width:0.5;" x1="19.88" x2="154.3741" y1="363.68" y2="363.68"/><text fill="#000000" font-family="sans-serif" font-size="14" lengthAdjust="spacing" textLength="57.832" x="24.88" y="381.2152">Int Seats</text><line style="stroke:#181818;stroke-width:0.5;" x1="19.88" x2="154.3741" y1="388.1683" y2="388.1683"/></g><!--class FlightExecution--><g class="entity" data-entity="FlightExecution" data-source-line="40" data-uid="ent0010" id="entity_FlightExecution"><rect fill="#F1F1F1" height="64.4883" rx="2.5" ry="2.5" style="stroke:#181818;stroke-width:0.5;" width="136.6582" x="201.8" y="481.9"/><ellipse cx="216.8" cy="497.9" fill="#ADD1B2" rx="11" ry="11" style="stroke:#181818;stroke-width:1;"/><path d="M219.2731,504.0431 Q218.6921,504.3419 218.0529,504.4913 Q217.4138,504.6407 216.7082,504.6407 Q214.2014,504.6407 212.8815,502.9889 Q211.5617,501.337 211.5617,498.2159 Q211.5617,495.0865 212.8815,493.4347 Q214.2014,491.7828 216.7082,491.7828 Q217.4138,491.7828 218.0612,491.9322 Q218.7087,492.0816 219.2731,492.3805 L219.2731,495.1031 Q218.6423,494.5221 218.0488,494.2523 Q217.4553,493.9825 216.8244,493.9825 Q215.4797,493.9825 214.7949,495.0492 Q214.1101,496.1158 214.1101,498.2159 Q214.1101,500.3077 214.7949,501.3744 Q215.4797,502.441 216.8244,502.441 Q217.4553,502.441 218.0488,502.1712 Q218.6423,501.9015 219.2731,501.3204 Z " fill="#000000"/><text fill="#000000" font-family="sans-serif" font-size="14" lengthAdjust="spacing" textLength="104.6582" x="230.8" y="503.191">FlightExecution</text><line style="stroke:#181818;stroke-width:0.5;" x1="202.8" x2="337.4582" y1="513.9" y2="513.9"/><text fill="#000000" font-family="sans-serif" font-size="14" lengthAdjust="spacing" textLength="66.9375" x="207.8" y="531.4352">Date Date</text><line style="stroke:#181818;stroke-width:0.5;" x1="202.8" x2="337.4582" y1="538.3883" y2="538.3883"/></g><!--class SeatCategory--><g class="entity" data-entity="SeatCategory" data-source-line="44" data-uid="ent0011" id="entity_SeatCategory"><rect fill="#F1F1F1" height="97.4648" rx="2.5" ry="2.5" style="stroke:#181818;stroke-width:0.5;" width="160.251" x="7" y="465.41"/><ellipse cx="39.6027" cy="481.41" fill="#ADD1B2" rx="11" ry="11" style="stroke:#181818;stroke-width:1;"/><path d="M42.0759,487.5531 Q41.4948,487.8519 40.8557,488.0013 Q40.2165,488.1507 39.5109,488.1507 Q37.0041,488.1507 35.6843,486.4989 Q34.3645,484.847 34.3645,481.7259 Q34.3645,478.5965 35.6843,476.9447 Q37.0041,475.2928 39.5109,475.2928 Q40.2165,475.2928 40.864,475.4422 Q41.5114,475.5916 42.0759,475.8905 L42.0759,478.6131 Q41.445,478.0321 40.8515,477.7623 Q40.258,477.4925 39.6271,477.4925 Q38.2824,477.4925 37.5976,478.5592 Q36.9128,479.6258 36.9128,481.7259 Q36.9128,483.8177 37.5976,484.8844 Q38.2824,485.951 39.6271,485.951 Q40.258,485.951 40.8515,485.6812 Q41.445,485.4115 42.0759,484.8304 Z " fill="#000000"/><text fill="#000000" font-family="sans-serif" font-size="14" lengthAdjust="spacing" textLength="89.1338" x="57.5145" y="486.701">SeatCategory</text><line style="stroke:#181818;stroke-width:0.5;" x1="8" x2="166.251" y1="497.41" y2="497.41"/><text fill="#000000" font-family="sans-serif" font-size="14" lengthAdjust="spacing" textLength="122.1514" x="13" y="514.9452">String Description</text><text fill="#000000" font-family="sans-serif" font-size="14" lengthAdjust="spacing" textLength="148.251" x="13" y="531.4334">Boolean Enterainment</text><text fill="#000000" font-family="sans-serif" font-size="14" lengthAdjust="spacing" textLength="91.5947" x="13" y="547.9217">Int SeatCount</text><line style="stroke:#181818;stroke-width:0.5;" x1="8" x2="166.251" y1="554.8748" y2="554.8748"/></g><!--class Passenger--><g class="entity" data-entity="Passenger" data-source-line="50" data-uid="ent0012" id="entity_Passenger"><rect fill="#F1F1F1" height="80.9766" rx="2.5" ry="2.5" style="stroke:#181818;stroke-width:0.5;" width="168.96" x="56.65" y="782.34"/><ellipse cx="102.6354" cy="798.34" fill="#ADD1B2" rx="11" ry="11" style="stroke:#181818;stroke-width:1;"/><path d="M105.1085,804.4831 Q104.5274,804.7819 103.8883,804.9313 Q103.2491,805.0807 102.5436,805.0807 Q100.0367,805.0807 98.7169,803.4289 Q97.3971,801.777 97.3971,798.6559 Q97.3971,795.5265 98.7169,793.8747 Q100.0367,792.2228 102.5436,792.2228 Q103.2491,792.2228 103.8966,792.3722 Q104.544,792.5216 105.1085,792.8205 L105.1085,795.5431 Q104.4776,794.9621 103.8841,794.6923 Q103.2906,794.4225 102.6598,794.4225 Q101.315,794.4225 100.6302,795.4892 Q99.9454,796.5558 99.9454,798.6559 Q99.9454,800.7477 100.6302,801.8144 Q101.315,802.881 102.6598,802.881 Q103.2906,802.881 103.8841,802.6112 Q104.4776,802.3415 105.1085,801.7604 Z " fill="#000000"/><text fill="#000000" font-family="sans-serif" font-size="14" lengthAdjust="spacing" textLength="68.4893" x="123.1354" y="803.631">Passenger</text><line style="stroke:#181818;stroke-width:0.5;" x1="57.65" x2="224.61" y1="814.34" y2="814.34"/><text fill="#000000" font-family="sans-serif" font-size="14" lengthAdjust="spacing" textLength="83.3438" x="62.65" y="831.8752">String Name</text><text fill="#000000" font-family="sans-serif" font-size="14" lengthAdjust="spacing" textLength="156.96" x="62.65" y="848.3634">String PassportNumber</text><line style="stroke:#181818;stroke-width:0.5;" x1="57.65" x2="224.61" y1="855.3166" y2="855.3166"/></g><!--class Ticket--><g class="entity" data-entity="Ticket" data-source-line="55" data-uid="ent0013" id="entity_Ticket"><rect fill="#F1F1F1" height="97.4648" rx="2.5" ry="2.5" style="stroke:#181818;stroke-width:0.5;" width="127.2607" x="178.5" y="623.88"/><ellipse cx="217.7873" cy="639.88" fill="#ADD1B2" rx="11" ry="11" style="stroke:#181818;stroke-width:1;"/><path d="M220.2604,646.0231 Q219.6793,646.3219 219.0402,646.4713 Q218.401,646.6207 217.6955,646.6207 Q215.1886,646.6207 213.8688,644.9689 Q212.549,643.317 212.549,640.1959 Q212.549,637.0665 213.8688,635.4147 Q215.1886,633.7628 217.6955,633.7628 Q218.401,633.7628 219.0485,633.9122 Q219.6959,634.0616 220.2604,634.3605 L220.2604,637.0831 Q219.6295,636.5021 219.036,636.2323 Q218.4425,635.9625 217.8117,635.9625 Q216.4669,635.9625 215.7821,637.0292 Q215.0973,638.0958 215.0973,640.1959 Q215.0973,642.2877 215.7821,643.3544 Q216.4669,644.421 217.8117,644.421 Q218.4425,644.421 219.036,644.1512 Q219.6295,643.8815 220.2604,643.3004 Z " fill="#000000"/><text fill="#000000" font-family="sans-serif" font-size="14" lengthAdjust="spacing" textLength="41.2891" x="237.1844" y="645.171">Ticket</text><line style="stroke:#181818;stroke-width:0.5;" x1="179.5" x2="304.7607" y1="655.88" y2="655.88"/><text fill="#000000" font-family="sans-serif" font-size="14" lengthAdjust="spacing" textLength="98.5332" x="184.5" y="673.4152">String TicketId</text><text fill="#000000" font-family="sans-serif" font-size="14" lengthAdjust="spacing" textLength="70.0342" x="184.5" y="689.9034">Float Price</text><text fill="#000000" font-family="sans-serif" font-size="14" lengthAdjust="spacing" textLength="115.2607" x="184.5" y="706.3917">Boolean Upgrade</text><line style="stroke:#181818;stroke-width:0.5;" x1="179.5" x2="304.7607" y1="713.3448" y2="713.3448"/></g><ellipse cx="141.13" cy="672.61" fill="#181818" rx="2" ry="2" style="stroke:#181818;stroke-width:1;"/><!--link Airline to Employee--><g class="link" data-entity-1="Airline" data-entity-2="Employee" data-source-line="63" data-uid="lnk14" id="link_Airline_Employee"><path codeLine="63" d="M402.25,67.77 C425.59,83.66 451.82,105.79 467.13,132.48 C501.46,192.38 506.03,274.71 505.25,323.02" fill="none" id="Airline-Employee" style="stroke:#181818;stroke-width:1;"/><text fill="#000000" font-family="sans-serif" font-size="13" lengthAdjust="spacing" textLength="24.667" x="409.6188" y="67.9198">0..1</text><text fill="#000000" font-family="sans-serif" font-size="13" lengthAdjust="spacing" textLength="22.7119" x="481.839" y="312.5965">0..*</text></g><!--reverse link Airline to Airplane--><g class="link" data-entity-1="Airline" data-entity-2="Airplane" data-source-line="64" data-uid="lnk15" id="link_Airline_Airplane"><path codeLine="64" d="M314.0207,80.1312 C296.3307,97.7212 282.27,111.72 261.65,132.23" fill="none" id="Airline-backto-Airplane" style="stroke:#181818;stroke-width:1;"/><polygon fill="none" points="322.53,71.67,315.455,73.0642,314.0207,80.1312,321.0957,78.737,322.53,71.67" style="stroke:#181818;stroke-width:1;"/><text fill="#000000" font-family="sans-serif" font-size="13" lengthAdjust="spacing" textLength="24.667" x="290.0135" y="92.1293">0..1</text><text fill="#000000" font-family="sans-serif" font-size="13" lengthAdjust="spacing" textLength="22.7119" x="245.2416" y="121.9287">0..*</text></g><!--link Airplane to Airport--><g class="link" data-entity-1="Airplane" data-entity-2="Airport" data-source-line="65" data-uid="lnk16" id="link_Airplane_Airport"><path codeLine="65" d="M288.2,189.46 C299.55,189.46 310.9,189.46 322.25,189.46" fill="none" id="Airplane-Airport" style="stroke:#181818;stroke-width:1;"/><text fill="#000000" font-family="sans-serif" font-size="13" lengthAdjust="spacing" textLength="22.7119" x="295.7249" y="186.4434">0..*</text><text fill="#000000" font-family="sans-serif" font-size="13" lengthAdjust="spacing" textLength="24.667" x="295.6067" y="203.3566">0..1</text></g><!--link Airplane to FlightExecution--><g class="link" data-entity-1="Airplane" data-entity-2="FlightExecution" data-source-line="66" data-uid="lnk17" id="link_Airplane_FlightExecution"><path codeLine="66" d="M214.56,246.93 C221.98,290.16 232.92,351.21 244.13,404.41 C249.64,430.62 256.77,460.17 262.16,481.84" fill="none" id="Airplane-FlightExecution" style="stroke:#181818;stroke-width:1;"/><text fill="#000000" font-family="sans-serif" font-size="13" lengthAdjust="spacing" textLength="24.667" x="190.3018" y="267.0289">0..1</text><text fill="#000000" font-family="sans-serif" font-size="13" lengthAdjust="spacing" textLength="22.7119" x="236.321" y="471.2308">0..*</text></g><!--link Airport to Flight--><g class="link" data-entity-1="Airport" data-entity-2="Flight" data-source-line="67" data-uid="lnk18" id="link_Airport_Flight"><path codeLine="67" d="M332.35,238.51 C322.86,249.91 314.35,262.77 309.13,276.44 C302.27,294.36 308.08,314.85 316.04,331.38" fill="none" id="Airport-Flight" style="stroke:#181818;stroke-width:1;"/><text fill="#000000" font-family="sans-serif" font-size="13" lengthAdjust="spacing" textLength="42.2754" x="310.13" y="290.0084">Source</text><text fill="#000000" font-family="sans-serif" font-size="13" lengthAdjust="spacing" textLength="24.667" x="299.5563" y="258.6978">0..1</text><text fill="#000000" font-family="sans-serif" font-size="13" lengthAdjust="spacing" textLength="22.7119" x="287.7016" y="320.7213">0..*</text></g><!--link Airport to Flight--><g class="link" data-entity-1="Airport" data-entity-2="Flight" data-source-line="68" data-uid="lnk19" id="link_Airport_Flight"><path codeLine="68" d="M372.81,238.45 C367.95,255.8 362.36,275.52 357.13,293.44 C353.49,305.9 349.38,319.58 345.77,331.48" fill="none" id="Airport-Flight-1" style="stroke:#181818;stroke-width:1;"/><text fill="#000000" font-family="sans-serif" font-size="13" lengthAdjust="spacing" textLength="72.1475" x="362.99" y="290.0084">Destination</text><text fill="#000000" font-family="sans-serif" font-size="13" lengthAdjust="spacing" textLength="24.667" x="345.4531" y="258.6297">0..1</text><text fill="#000000" font-family="sans-serif" font-size="13" lengthAdjust="spacing" textLength="22.7119" x="323.5635" y="320.8419">0..*</text></g><!--link Flight to FlightExecution--><g class="link" data-entity-1="Flight" data-entity-2="FlightExecution" data-source-line="69" data-uid="lnk20" id="link_Flight_FlightExecution"><path codeLine="69" d="M322.13,396.36 C310.97,421.43 295.4,456.38 284.22,481.5" fill="none" id="Flight-FlightExecution" style="stroke:#181818;stroke-width:1;"/><text fill="#000000" font-family="sans-serif" font-size="13" lengthAdjust="spacing" textLength="24.667" x="293.0774" y="416.8213">0..1</text><text fill="#000000" font-family="sans-serif" font-size="13" lengthAdjust="spacing" textLength="22.7119" x="262.8986" y="471.1956">0..*</text></g><!--link FlightExecution to FlightAttendant--><g class="link" data-entity-1="FlightExecution" data-entity-2="FlightAttendant" data-source-line="70" data-uid="lnk21" id="link_FlightExecution_FlightAttendant"><path codeLine="70" d="M324.76,546.81 C371.61,573.96 438.75,612.86 485.57,640" fill="none" id="FlightExecution-FlightAttendant" style="stroke:#181818;stroke-width:1;"/><text fill="#000000" font-family="sans-serif" font-size="13" lengthAdjust="spacing" textLength="22.7119" x="311.145" y="567.0646">0..*</text><text fill="#000000" font-family="sans-serif" font-size="13" lengthAdjust="spacing" textLength="22.7119" x="450.7347" y="629.7015">0..*</text></g><!--link FlightExecution to Pilot--><g class="link" data-entity-1="FlightExecution" data-entity-2="Pilot" data-source-line="71" data-uid="lnk22" id="link_FlightExecution_Pilot"><path codeLine="71" d="M338.9,531.68 C361,535.29 385.6,537.18 408.16,534.15 C414.54,533.29 421.15,532.03 427.67,530.54" fill="none" id="FlightExecution-Pilot" style="stroke:#181818;stroke-width:1;"/><text fill="#000000" font-family="sans-serif" font-size="13" lengthAdjust="spacing" textLength="48.2231" x="359.16" y="530.7184">Captain</text><text fill="#000000" font-family="sans-serif" font-size="13" lengthAdjust="spacing" textLength="22.7119" x="346.5371" y="546.6494">0..*</text><text fill="#000000" font-family="sans-serif" font-size="13" lengthAdjust="spacing" textLength="24.667" x="395.3265" y="546.1899">0..1</text></g><!--link FlightExecution to Pilot--><g class="link" data-entity-1="FlightExecution" data-entity-2="Pilot" data-source-line="72" data-uid="lnk23" id="link_FlightExecution_Pilot"><path codeLine="72" d="M338.92,514.15 C367.67,514.15 400.56,514.15 427.47,514.15" fill="none" id="FlightExecution-Pilot-1" style="stroke:#181818;stroke-width:1;"/><text fill="#000000" font-family="sans-serif" font-size="13" lengthAdjust="spacing" textLength="53.0474" x="356.66" y="507.7184">Co-pilot</text><text fill="#000000" font-family="sans-serif" font-size="13" lengthAdjust="spacing" textLength="22.7119" x="346.559" y="527.4486">0..*</text><text fill="#000000" font-family="sans-serif" font-size="13" lengthAdjust="spacing" textLength="24.667" x="395.1009" y="527.6999">0..2</text></g><!--reverse link Employee to FlightAttendant--><g class="link" data-entity-1="Employee" data-entity-2="FlightAttendant" data-source-line="74" data-uid="lnk25" id="link_Employee_FlightAttendant"><path codeLine="74" d="M536.1222,420.2677 C545.8222,438.1777 547.24,444.23 552.13,465.41 C566.12,526.03 555.63,599.2 547.42,640.06" fill="none" id="Employee-backto-FlightAttendant" style="stroke:#181818;stroke-width:1;"/><polygon fill="none" points="527.55,404.44,530.8463,423.1251,541.3981,417.4103,527.55,404.44" style="stroke:#181818;stroke-width:1;"/></g><!--reverse link Employee to Pilot--><g class="link" data-entity-1="Employee" data-entity-2="Pilot" data-source-line="75" data-uid="lnk26" id="link_Employee_Pilot"><path codeLine="75" d="M494.5865,422.4548 C490.9965,446.6348 489.12,459.29 485.78,481.77" fill="none" id="Employee-backto-Pilot" style="stroke:#181818;stroke-width:1;"/><polygon fill="none" points="497.23,404.65,488.6516,421.5737,500.5215,423.336,497.23,404.65" style="stroke:#181818;stroke-width:1;"/></g><!--reverse link Airplane to PassengerPlane--><g class="link" data-entity-1="Airplane" data-entity-2="PassengerPlane" data-source-line="76" data-uid="lnk27" id="link_Airplane_PassengerPlane"><path codeLine="76" d="M156.3244,261.7846 C137.0944,289.8846 124.75,307.93 108.63,331.5" fill="none" id="Airplane-backto-PassengerPlane" style="stroke:#181818;stroke-width:1;"/><polygon fill="none" points="166.49,246.93,151.3728,258.3961,161.2759,265.1732,166.49,246.93" style="stroke:#181818;stroke-width:1;"/></g><!--reverse link PassengerPlane to SeatCategory--><g class="link" data-entity-1="PassengerPlane" data-entity-2="SeatCategory" data-source-line="77" data-uid="lnk28" id="link_PassengerPlane_SeatCategory"><path codeLine="77" d="M87.13,408.36 C87.13,428.33 87.13,442.57 87.13,465.12" fill="none" id="PassengerPlane-backto-SeatCategory" style="stroke:#181818;stroke-width:1;"/><polygon fill="#181818" points="87.13,396.36,83.13,402.36,87.13,408.36,91.13,402.36,87.13,396.36" style="stroke:#181818;stroke-width:1;"/><text fill="#000000" font-family="sans-serif" font-size="13" lengthAdjust="spacing" textLength="24.667" x="60.8337" y="416.8213">0..1</text><text fill="#000000" font-family="sans-serif" font-size="13" lengthAdjust="spacing" textLength="22.7119" x="63.6338" y="454.7617">0..*</text></g><!--link SeatCategory to Ticket--><g class="link" data-entity-1="SeatCategory" data-entity-2="Ticket" data-source-line="78" data-uid="lnk29" id="link_SeatCategory_Ticket"><path codeLine="78" d="M134.9,563.37 C153.84,582.49 175.58,604.44 194.51,623.55" fill="none" id="SeatCategory-Ticket" style="stroke:#181818;stroke-width:1;"/><text fill="#000000" font-family="sans-serif" font-size="13" lengthAdjust="spacing" textLength="24.667" x="115.752" y="583.582">0..1</text><text fill="#000000" font-family="sans-serif" font-size="13" lengthAdjust="spacing" textLength="22.7119" x="164.3166" y="613.1861">0..*</text></g><!--link FlightExecution to apoint30--><g class="link" data-entity-1="FlightExecution" data-entity-2="apoint30" data-source-line="79" data-uid="lnk32" id="link_FlightExecution_apoint30"><path d="M231.51,546.81 C208.74,567.03 180.66,594.82 161.13,623.88 C149.9,640.58 143.01,664.6 141.46,670.34" fill="none" id="FlightExecution-apoint30" style="stroke:#181818;stroke-width:1;"/><text fill="#000000" font-family="sans-serif" font-size="13" lengthAdjust="spacing" textLength="22.7119" x="200.1192" y="567.0646">0..*</text></g><!--link apoint30 to Passenger--><g class="link" data-entity-1="apoint30" data-entity-2="Passenger" data-source-line="79" data-uid="lnk33" id="link_apoint30_Passenger"><path d="M141.13,674.89 C141.13,684.17 141.13,741.87 141.13,782.14" fill="none" id="apoint30-Passenger" style="stroke:#181818;stroke-width:1;"/><text fill="#000000" font-family="sans-serif" font-size="13" lengthAdjust="spacing" textLength="22.7119" x="117.3006" y="771.4527">0..*</text></g><!--link apoint30 to Ticket--><g class="link" data-entity-1="apoint30" data-entity-2="Ticket" data-source-line="79" data-uid="lnk34" id="link_apoint30_Ticket"><path d="M143.49,672.61 C155.05,672.61 166.61,672.61 178.17,672.61" fill="none" id="apoint30-Ticket" style="stroke:#181818;stroke-width:1;stroke-dasharray:7,7;"/></g><!--SRC=[XLHDJyCm3BtdLqGxmKGdu8YuZ6r8az1KiN7W65ghHBH9bRXY4_3VITecRJB6BlsmN-tdvvTc9TEQphagkG3wHUWM5HS5tR0Ao0yXMPjVLNKf3n00AWQ4BXc2YJ25zcdum1IifSAue7kPvxa2hGbT2wJFZVXaXuLi10u57ajUlECS4KJEH5leGSeIcA1fepIei5V9ZjcxbzsXTamNKcXKJOPSYbTWgWzlO8zheMje4p69KTqki6cgjp61b9ToZ7hY6GWzKYCr5n05gDJnj7DlWQ6Ecwtsa3MMXKMrv49XxKSB4ocaEenQBa5dYjSjVI_KIY0enaK5HbdVCXBQSpibdmNONSPJxtZs0UEnky0w9sOKoP2cokWmi7cf2yNoTXH2dE4crxFPpIInj-d4sonAoyG1tAg9ttcNI3gWirsO7kf74XFdqXuLmkWTtSf6PN0MPiH7BbXRiW_-2HqQnxlkfmZXtloduFtGdVtkw8BLQBRz7_fsX9P9RH_FSV7-8FudSF-T94SSmspRPLX35mjE0OaEHJVCrFST6vq4he-qxMn7Bg8vheP-btJcKBy0]--></g></svg>