<svg xmlns="http://www.w3.org/2000/svg" xmlns:xlink="http://www.w3.org/1999/xlink" contentStyleType="text/css" data-diagram-type="CLASS" height="526px" preserveAspectRatio="none" style="width:860px;height:526px;background:#FFFFFF;" version="1.1" viewBox="0 0 860 526" width="860px" zoomAndPan="magnify"><defs/><g><!--class ConcreteBasement--><g class="entity" data-entity="ConcreteBasement" data-source-line="2" data-uid="ent0002" id="entity_ConcreteBasement"><rect fill="#F1F1F1" height="64.4883" rx="2.5" ry="2.5" style="stroke:#181818;stroke-width:0.5;" width="158.2256" x="7" y="27.8"/><ellipse cx="22" cy="43.8" fill="#ADD1B2" rx="11" ry="11" style="stroke:#181818;stroke-width:1;"/><path d="M24.4731,49.9431 Q23.8921,50.2419 23.2529,50.3913 Q22.6138,50.5407 21.9082,50.5407 Q19.4014,50.5407 18.0815,48.8889 Q16.7617,47.237 16.7617,44.1159 Q16.7617,40.9865 18.0815,39.3347 Q19.4014,37.6828 21.9082,37.6828 Q22.6138,37.6828 23.2612,37.8322 Q23.9087,37.9816 24.4731,38.2805 L24.4731,41.0031 Q23.8423,40.4221 23.2488,40.1523 Q22.6553,39.8825 22.0244,39.8825 Q20.6797,39.8825 19.9949,40.9492 Q19.3101,42.0158 19.3101,44.1159 Q19.3101,46.2077 19.9949,47.2744 Q20.6797,48.341 22.0244,48.341 Q22.6553,48.341 23.2488,48.0712 Q23.8423,47.8015 24.4731,47.2204 Z " fill="#000000"/><text fill="#000000" font-family="sans-serif" font-size="14" lengthAdjust="spacing" textLength="126.2256" x="36" y="49.091">ConcreteBasement</text><line style="stroke:#181818;stroke-width:0.5;" x1="8" x2="164.2256" y1="59.8" y2="59.8"/><text fill="#000000" font-family="sans-serif" font-size="14" lengthAdjust="spacing" textLength="100.8027" x="13" y="77.3352">Double Quality</text><line style="stroke:#181818;stroke-width:0.5;" x1="8" x2="164.2256" y1="84.2883" y2="84.2883"/></g><!--class Basement--><g class="entity" data-entity="Basement" data-source-line="6" data-uid="ent0003" id="entity_Basement"><rect fill="#F1F1F1" height="80.9766" rx="2.5" ry="2.5" style="stroke:#181818;stroke-width:0.5;" width="97.5156" x="142.35" y="173.09"/><ellipse cx="157.35" cy="189.09" fill="#A9DCDF" rx="11" ry="11" style="stroke:#181818;stroke-width:1;"/><path d="M157.2133,184.4381 L156.0595,189.5099 L158.3754,189.5099 Z M155.7191,182.1969 L158.7157,182.1969 L162.0609,194.59 L159.6122,194.59 L158.8485,191.527 L155.5697,191.527 L154.8227,194.59 L152.3739,194.59 Z " fill="#000000"/><text fill="#000000" font-family="sans-serif" font-size="14" font-style="italic" lengthAdjust="spacing" textLength="65.5156" x="171.35" y="194.381">Basement</text><line style="stroke:#181818;stroke-width:0.5;" x1="143.35" x2="238.8656" y1="205.09" y2="205.09"/><text fill="#000000" font-family="sans-serif" font-size="14" lengthAdjust="spacing" textLength="80.2744" x="148.35" y="222.6252">Double Size</text><text fill="#000000" font-family="sans-serif" font-size="14" lengthAdjust="spacing" textLength="83.3438" x="148.35" y="239.1134">String Name</text><line style="stroke:#181818;stroke-width:0.5;" x1="143.35" x2="238.8656" y1="246.0666" y2="246.0666"/></g><!--class BMType--><g class="entity" data-entity="BMType" data-source-line="11" data-uid="ent0004" id="entity_BMType"><rect fill="#F1F1F1" height="106.0859" rx="2.5" ry="2.5" style="stroke:#181818;stroke-width:0.5;" width="84.8896" x="573.67" y="7"/><ellipse cx="588.67" cy="27.3105" fill="#EB937F" rx="11" ry="11" style="stroke:#181818;stroke-width:1;"/><path d="M592.2843,33.8105 L584.5645,33.8105 L584.5645,21.4175 L592.2843,21.4175 L592.2843,23.5757 L587.0133,23.5757 L587.0133,26.2485 L591.7862,26.2485 L591.7862,28.4067 L587.0133,28.4067 L587.0133,31.6523 L592.2843,31.6523 Z " fill="#000000"/><text fill="#000000" font-family="sans-serif" font-size="12" font-style="italic" lengthAdjust="spacing" textLength="45.3574" x="606.4361" y="23.6016">&#171;enum&#187;</text><text fill="#000000" font-family="sans-serif" font-size="14" lengthAdjust="spacing" textLength="52.8896" x="602.67" y="39.668">BMType</text><line style="stroke:#181818;stroke-width:0.5;" x1="574.67" x2="657.5596" y1="47.6211" y2="47.6211"/><text fill="#000000" font-family="sans-serif" font-size="14" lengthAdjust="spacing" textLength="36.7979" x="579.67" y="65.1563">wood</text><text fill="#000000" font-family="sans-serif" font-size="14" lengthAdjust="spacing" textLength="33.9404" x="579.67" y="81.6445">brick</text><text fill="#000000" font-family="sans-serif" font-size="14" lengthAdjust="spacing" textLength="58.1943" x="579.67" y="98.1328">concrete</text><line style="stroke:#181818;stroke-width:0.5;" x1="574.67" x2="657.5596" y1="105.0859" y2="105.0859"/></g><!--class EarthBasement--><g class="entity" data-entity="EarthBasement" data-source-line="17" data-uid="ent0005" id="entity_EarthBasement"><rect fill="#F1F1F1" height="64.4883" rx="2.5" ry="2.5" style="stroke:#181818;stroke-width:0.5;" width="132.4883" x="199.87" y="27.8"/><ellipse cx="214.87" cy="43.8" fill="#ADD1B2" rx="11" ry="11" style="stroke:#181818;stroke-width:1;"/><path d="M217.3431,49.9431 Q216.7621,50.2419 216.1229,50.3913 Q215.4838,50.5407 214.7782,50.5407 Q212.2714,50.5407 210.9515,48.8889 Q209.6317,47.237 209.6317,44.1159 Q209.6317,40.9865 210.9515,39.3347 Q212.2714,37.6828 214.7782,37.6828 Q215.4838,37.6828 216.1312,37.8322 Q216.7787,37.9816 217.3431,38.2805 L217.3431,41.0031 Q216.7123,40.4221 216.1188,40.1523 Q215.5253,39.8825 214.8944,39.8825 Q213.5497,39.8825 212.8649,40.9492 Q212.1801,42.0158 212.1801,44.1159 Q212.1801,46.2077 212.8649,47.2744 Q213.5497,48.341 214.8944,48.341 Q215.5253,48.341 216.1188,48.0712 Q216.7123,47.8015 217.3431,47.2204 Z " fill="#000000"/><text fill="#000000" font-family="sans-serif" font-size="14" lengthAdjust="spacing" textLength="100.4883" x="228.87" y="49.091">EarthBasement</text><line style="stroke:#181818;stroke-width:0.5;" x1="200.87" x2="331.3583" y1="59.8" y2="59.8"/><text fill="#000000" font-family="sans-serif" font-size="14" lengthAdjust="spacing" textLength="114.3652" x="205.87" y="77.3352">Double Humidity</text><line style="stroke:#181818;stroke-width:0.5;" x1="200.87" x2="331.3583" y1="84.2883" y2="84.2883"/></g><!--class SemiDetached--><g class="entity" data-entity="SemiDetached" data-source-line="21" data-uid="ent0006" id="entity_SemiDetached"><rect fill="#F1F1F1" height="80.9766" rx="2.5" ry="2.5" style="stroke:#181818;stroke-width:0.5;" width="128.1816" x="300.02" y="314.07"/><ellipse cx="315.02" cy="330.07" fill="#A9DCDF" rx="11" ry="11" style="stroke:#181818;stroke-width:1;"/><path d="M314.8833,325.4181 L313.7295,330.4899 L316.0454,330.4899 Z M313.3891,323.1769 L316.3857,323.1769 L319.7309,335.57 L317.2822,335.57 L316.5185,332.507 L313.2397,332.507 L312.4927,335.57 L310.0439,335.57 Z " fill="#000000"/><text fill="#000000" font-family="sans-serif" font-size="14" font-style="italic" lengthAdjust="spacing" textLength="96.1816" x="329.02" y="335.361">SemiDetached</text><line style="stroke:#181818;stroke-width:0.5;" x1="301.02" x2="427.2016" y1="346.07" y2="346.07"/><text fill="#000000" font-family="sans-serif" font-size="14" lengthAdjust="spacing" textLength="106.8252" x="306.02" y="363.6052">Boolean Garden</text><text fill="#000000" font-family="sans-serif" font-size="14" lengthAdjust="spacing" textLength="82.4346" x="306.02" y="380.0934">Int Windows</text><line style="stroke:#181818;stroke-width:0.5;" x1="301.02" x2="427.2016" y1="387.0466" y2="387.0466"/></g><!--class House--><g class="entity" data-entity="House" data-source-line="26" data-uid="ent0007" id="entity_House"><rect fill="#F1F1F1" height="80.9766" rx="2.5" ry="2.5" style="stroke:#181818;stroke-width:0.5;" width="178.8105" x="274.71" y="173.09"/><ellipse cx="338.6089" cy="189.09" fill="#ADD1B2" rx="11" ry="11" style="stroke:#181818;stroke-width:1;"/><path d="M341.0821,195.2331 Q340.501,195.5319 339.8619,195.6813 Q339.2227,195.8307 338.5171,195.8307 Q336.0103,195.8307 334.6905,194.1789 Q333.3706,192.527 333.3706,189.4059 Q333.3706,186.2765 334.6905,184.6247 Q336.0103,182.9728 338.5171,182.9728 Q339.2227,182.9728 339.8702,183.1222 Q340.5176,183.2716 341.0821,183.5705 L341.0821,186.2931 Q340.4512,185.7121 339.8577,185.4423 Q339.2642,185.1725 338.6333,185.1725 Q337.2886,185.1725 336.6038,186.2392 Q335.919,187.3058 335.919,189.4059 Q335.919,191.4977 336.6038,192.5644 Q337.2886,193.631 338.6333,193.631 Q339.2642,193.631 339.8577,193.3612 Q340.4512,193.0915 341.0821,192.5104 Z " fill="#000000"/><text fill="#000000" font-family="sans-serif" font-size="14" lengthAdjust="spacing" textLength="42.5127" x="359.1089" y="194.381">House</text><line style="stroke:#181818;stroke-width:0.5;" x1="275.71" x2="452.5205" y1="205.09" y2="205.09"/><text fill="#000000" font-family="sans-serif" font-size="14" lengthAdjust="spacing" textLength="99.4834" x="280.71" y="222.6252">String Address</text><text fill="#000000" font-family="sans-serif" font-size="14" lengthAdjust="spacing" textLength="166.8105" x="280.71" y="239.1134">BMType BuildingMaterial</text><line style="stroke:#181818;stroke-width:0.5;" x1="275.71" x2="452.5205" y1="246.0666" y2="246.0666"/></g><!--class JobLog--><g class="entity" data-entity="JobLog" data-source-line="31" data-uid="ent0008" id="entity_JobLog"><rect fill="#F1F1F1" height="80.9766" rx="2.5" ry="2.5" style="stroke:#181818;stroke-width:0.5;" width="97.3467" x="441.44" y="19.56"/><ellipse cx="464.8942" cy="35.56" fill="#ADD1B2" rx="11" ry="11" style="stroke:#181818;stroke-width:1;"/><path d="M467.3673,41.7031 Q466.7863,42.0019 466.1471,42.1513 Q465.508,42.3007 464.8024,42.3007 Q462.2956,42.3007 460.9757,40.6489 Q459.6559,38.997 459.6559,35.8759 Q459.6559,32.7465 460.9757,31.0947 Q462.2956,29.4428 464.8024,29.4428 Q465.508,29.4428 466.1554,29.5922 Q466.8029,29.7416 467.3673,30.0405 L467.3673,32.7631 Q466.7365,32.1821 466.143,31.9123 Q465.5495,31.6425 464.9186,31.6425 Q463.5739,31.6425 462.8891,32.7092 Q462.2043,33.7758 462.2043,35.8759 Q462.2043,37.9677 462.8891,39.0344 Q463.5739,40.101 464.9186,40.101 Q465.5495,40.101 466.143,39.8312 Q466.7365,39.5615 467.3673,38.9804 Z " fill="#000000"/><text fill="#000000" font-family="sans-serif" font-size="14" lengthAdjust="spacing" textLength="46.5596" x="480.7729" y="40.851">JobLog</text><line style="stroke:#181818;stroke-width:0.5;" x1="442.44" x2="537.7867" y1="51.56" y2="51.56"/><text fill="#000000" font-family="sans-serif" font-size="14" lengthAdjust="spacing" textLength="62.8291" x="447.44" y="69.0952">Int Hours</text><text fill="#000000" font-family="sans-serif" font-size="14" lengthAdjust="spacing" textLength="85.3467" x="447.44" y="85.5834">Double Price</text><line style="stroke:#181818;stroke-width:0.5;" x1="442.44" x2="537.7867" y1="92.5366" y2="92.5366"/></g><!--class SemiDetachedWithCarport--><g class="entity" data-entity="SemiDetachedWithCarport" data-source-line="36" data-uid="ent0009" id="entity_SemiDetachedWithCarport"><rect fill="#F1F1F1" height="48" rx="2.5" ry="2.5" style="stroke:#181818;stroke-width:0.5;" width="209.6523" x="463.29" y="330.55"/><ellipse cx="478.29" cy="346.55" fill="#ADD1B2" rx="11" ry="11" style="stroke:#181818;stroke-width:1;"/><path d="M480.7631,352.6931 Q480.1821,352.9919 479.5429,353.1413 Q478.9038,353.2907 478.1982,353.2907 Q475.6914,353.2907 474.3715,351.6389 Q473.0517,349.987 473.0517,346.8659 Q473.0517,343.7365 474.3715,342.0847 Q475.6914,340.4328 478.1982,340.4328 Q478.9038,340.4328 479.5512,340.5822 Q480.1987,340.7316 480.7631,341.0305 L480.7631,343.7531 Q480.1323,343.1721 479.5388,342.9023 Q478.9453,342.6325 478.3144,342.6325 Q476.9697,342.6325 476.2849,343.6992 Q475.6001,344.7658 475.6001,346.8659 Q475.6001,348.9577 476.2849,350.0244 Q476.9697,351.091 478.3144,351.091 Q478.9453,351.091 479.5388,350.8212 Q480.1323,350.5515 480.7631,349.9704 Z " fill="#000000"/><text fill="#000000" font-family="sans-serif" font-size="14" lengthAdjust="spacing" textLength="177.6523" x="492.29" y="351.841">SemiDetachedWithCarport</text><line style="stroke:#181818;stroke-width:0.5;" x1="464.29" x2="671.9423" y1="362.55" y2="362.55"/><line style="stroke:#181818;stroke-width:0.5;" x1="464.29" x2="671.9423" y1="370.55" y2="370.55"/></g><!--class SemiDetachedWithGarage--><g class="entity" data-entity="SemiDetachedWithGarage" data-source-line="38" data-uid="ent0010" id="entity_SemiDetachedWithGarage"><rect fill="#F1F1F1" height="48" rx="2.5" ry="2.5" style="stroke:#181818;stroke-width:0.5;" width="205.9678" x="261.13" y="463.29"/><ellipse cx="276.13" cy="479.29" fill="#ADD1B2" rx="11" ry="11" style="stroke:#181818;stroke-width:1;"/><path d="M278.6031,485.4331 Q278.0221,485.7319 277.3829,485.8813 Q276.7438,486.0307 276.0382,486.0307 Q273.5314,486.0307 272.2115,484.3789 Q270.8917,482.727 270.8917,479.6059 Q270.8917,476.4765 272.2115,474.8247 Q273.5314,473.1728 276.0382,473.1728 Q276.7438,473.1728 277.3912,473.3222 Q278.0387,473.4716 278.6031,473.7705 L278.6031,476.4931 Q277.9723,475.9121 277.3788,475.6423 Q276.7853,475.3725 276.1544,475.3725 Q274.8097,475.3725 274.1249,476.4392 Q273.4401,477.5058 273.4401,479.6059 Q273.4401,481.6977 274.1249,482.7644 Q274.8097,483.831 276.1544,483.831 Q276.7853,483.831 277.3788,483.5612 Q277.9723,483.2915 278.6031,482.7104 Z " fill="#000000"/><text fill="#000000" font-family="sans-serif" font-size="14" lengthAdjust="spacing" textLength="173.9678" x="290.13" y="484.581">SemiDetachedWithGarage</text><line style="stroke:#181818;stroke-width:0.5;" x1="262.13" x2="466.0978" y1="495.29" y2="495.29"/><line style="stroke:#181818;stroke-width:0.5;" x1="262.13" x2="466.0978" y1="503.29" y2="503.29"/></g><!--class Company--><g class="entity" data-entity="Company" data-source-line="40" data-uid="ent0011" id="entity_Company"><rect fill="#F1F1F1" height="80.9766" rx="2.5" ry="2.5" style="stroke:#181818;stroke-width:0.5;" width="111.4834" x="527.37" y="173.09"/><ellipse cx="549.3815" cy="189.09" fill="#ADD1B2" rx="11" ry="11" style="stroke:#181818;stroke-width:1;"/><path d="M551.8546,195.2331 Q551.2736,195.5319 550.6344,195.6813 Q549.9952,195.8307 549.2897,195.8307 Q546.7828,195.8307 545.463,194.1789 Q544.1432,192.527 544.1432,189.4059 Q544.1432,186.2765 545.463,184.6247 Q546.7828,182.9728 549.2897,182.9728 Q549.9952,182.9728 550.6427,183.1222 Q551.2902,183.2716 551.8546,183.5705 L551.8546,186.2931 Q551.2238,185.7121 550.6303,185.4423 Q550.0367,185.1725 549.4059,185.1725 Q548.0612,185.1725 547.3763,186.2392 Q546.6915,187.3058 546.6915,189.4059 Q546.6915,191.4977 547.3763,192.5644 Q548.0612,193.631 549.4059,193.631 Q550.0367,193.631 550.6303,193.3612 Q551.2238,193.0915 551.8546,192.5104 Z " fill="#000000"/><text fill="#000000" font-family="sans-serif" font-size="14" lengthAdjust="spacing" textLength="63.9023" x="564.9396" y="194.381">Company</text><line style="stroke:#181818;stroke-width:0.5;" x1="528.37" x2="637.8534" y1="205.09" y2="205.09"/><text fill="#000000" font-family="sans-serif" font-size="14" lengthAdjust="spacing" textLength="83.3438" x="533.37" y="222.6252">String Name</text><text fill="#000000" font-family="sans-serif" font-size="14" lengthAdjust="spacing" textLength="99.4834" x="533.37" y="239.1134">String Address</text><line style="stroke:#181818;stroke-width:0.5;" x1="528.37" x2="637.8534" y1="246.0666" y2="246.0666"/></g><!--class Carport--><g class="entity" data-entity="Carport" data-source-line="45" data-uid="ent0012" id="entity_Carport"><rect fill="#F1F1F1" height="80.9766" rx="2.5" ry="2.5" style="stroke:#181818;stroke-width:0.5;" width="145.6836" x="708.27" y="314.07"/><ellipse cx="751.2425" cy="330.07" fill="#ADD1B2" rx="11" ry="11" style="stroke:#181818;stroke-width:1;"/><path d="M753.7157,336.2131 Q753.1346,336.5119 752.4954,336.6613 Q751.8563,336.8107 751.1507,336.8107 Q748.6439,336.8107 747.3241,335.1589 Q746.0042,333.507 746.0042,330.3859 Q746.0042,327.2565 747.3241,325.6047 Q748.6439,323.9528 751.1507,323.9528 Q751.8563,323.9528 752.5037,324.1022 Q753.1512,324.2516 753.7157,324.5505 L753.7157,327.2731 Q753.0848,326.6921 752.4913,326.4223 Q751.8978,326.1525 751.2669,326.1525 Q749.9222,326.1525 749.2374,327.2192 Q748.5526,328.2858 748.5526,330.3859 Q748.5526,332.4777 749.2374,333.5444 Q749.9222,334.611 751.2669,334.611 Q751.8978,334.611 752.4913,334.3412 Q753.0848,334.0715 753.7157,333.4904 Z " fill="#000000"/><text fill="#000000" font-family="sans-serif" font-size="14" lengthAdjust="spacing" textLength="51.5225" x="771.4586" y="335.361">Carport</text><line style="stroke:#181818;stroke-width:0.5;" x1="709.27" x2="852.9536" y1="346.07" y2="346.07"/><text fill="#000000" font-family="sans-serif" font-size="14" lengthAdjust="spacing" textLength="133.6836" x="714.27" y="363.6052">Boolean DoublePort</text><text fill="#000000" font-family="sans-serif" font-size="14" lengthAdjust="spacing" textLength="111.3096" x="714.27" y="380.0934">Boolean flatRoof</text><line style="stroke:#181818;stroke-width:0.5;" x1="709.27" x2="852.9536" y1="387.0466" y2="387.0466"/></g><!--class Garage--><g class="entity" data-entity="Garage" data-source-line="50" data-uid="ent0013" id="entity_Garage"><rect fill="#F1F1F1" height="64.4883" rx="2.5" ry="2.5" style="stroke:#181818;stroke-width:0.5;" width="139.3877" x="502.42" y="455.04"/><ellipse cx="544.2174" cy="471.04" fill="#ADD1B2" rx="11" ry="11" style="stroke:#181818;stroke-width:1;"/><path d="M546.6906,477.1831 Q546.1095,477.4819 545.4703,477.6313 Q544.8312,477.7807 544.1256,477.7807 Q541.6188,477.7807 540.299,476.1289 Q538.9791,474.477 538.9791,471.3559 Q538.9791,468.2265 540.299,466.5747 Q541.6188,464.9228 544.1256,464.9228 Q544.8312,464.9228 545.4786,465.0722 Q546.1261,465.2216 546.6906,465.5205 L546.6906,468.2431 Q546.0597,467.6621 545.4662,467.3923 Q544.8727,467.1225 544.2418,467.1225 Q542.8971,467.1225 542.2123,468.1892 Q541.5275,469.2558 541.5275,471.3559 Q541.5275,473.4477 542.2123,474.5144 Q542.8971,475.581 544.2418,475.581 Q544.8727,475.581 545.4662,475.3112 Q546.0597,475.0415 546.6906,474.4604 Z " fill="#000000"/><text fill="#000000" font-family="sans-serif" font-size="14" lengthAdjust="spacing" textLength="47.8379" x="564.1724" y="476.331">Garage</text><line style="stroke:#181818;stroke-width:0.5;" x1="503.42" x2="640.8077" y1="487.04" y2="487.04"/><text fill="#000000" font-family="sans-serif" font-size="14" lengthAdjust="spacing" textLength="127.3877" x="508.42" y="504.5752">Boolean Automatic</text><line style="stroke:#181818;stroke-width:0.5;" x1="503.42" x2="640.8077" y1="511.5283" y2="511.5283"/></g><ellipse cx="490.11" cy="213.58" fill="#181818" rx="2" ry="2" style="stroke:#181818;stroke-width:1;"/><!--link ConcreteBasement to Basement--><g class="link" data-entity-1="ConcreteBasement" data-entity-2="Basement" data-source-line="55" data-uid="lnk14" id="link_ConcreteBasement_Basement"><path codeLine="55" d="M107.87,92.44 C124.03,115.76 135.939,132.9441 153.329,158.0441" fill="none" id="ConcreteBasement-to-Basement" style="stroke:#181818;stroke-width:1;"/><polygon fill="none" points="163.58,172.84,158.261,154.6272,148.3971,161.4611,163.58,172.84" style="stroke:#181818;stroke-width:1;"/></g><!--link EarthBasement to Basement--><g class="link" data-entity-1="EarthBasement" data-entity-2="Basement" data-source-line="56" data-uid="lnk15" id="link_EarthBasement_Basement"><path codeLine="56" d="M250.57,92.44 C239.03,115.76 231.1829,131.607 218.7629,156.707" fill="none" id="EarthBasement-to-Basement" style="stroke:#181818;stroke-width:1;"/><polygon fill="none" points="210.78,172.84,224.1406,159.368,213.3853,154.046,210.78,172.84" style="stroke:#181818;stroke-width:1;"/></g><!--link Basement to House--><g class="link" data-entity-1="Basement" data-entity-2="House" data-source-line="57" data-uid="lnk16" id="link_Basement_House"><path codeLine="57" d="M240.11,213.58 C251.57,213.58 251.04,213.58 262.5,213.58" fill="none" id="Basement-to-House" style="stroke:#181818;stroke-width:1;"/><polygon fill="#181818" points="274.5,213.58,268.5,209.58,262.5,213.58,268.5,217.58,274.5,213.58" style="stroke:#181818;stroke-width:1;"/><text fill="#000000" font-family="sans-serif" font-size="13" lengthAdjust="spacing" textLength="24.667" x="241.9669" y="209.7286">0..1</text><text fill="#000000" font-family="sans-serif" font-size="13" lengthAdjust="spacing" textLength="8.2202" x="258.4644" y="210.5173">1</text></g><!--link House to apoint18--><g class="link" data-entity-1="House" data-entity-2="apoint18" data-source-line="59" data-uid="lnk20" id="link_House_apoint18"><path d="M453.69,213.58 C465.07,213.58 476.45,213.58 487.84,213.58" fill="none" id="House-apoint18" style="stroke:#181818;stroke-width:1;"/><text fill="#000000" font-family="sans-serif" font-size="13" lengthAdjust="spacing" textLength="6.2651" x="461.657" y="210.5173">*</text></g><!--link apoint18 to Company--><g class="link" data-entity-1="apoint18" data-entity-2="Company" data-source-line="59" data-uid="lnk21" id="link_apoint18_Company"><path d="M492.29,213.58 C503.88,213.58 515.47,213.58 527.06,213.58" fill="none" id="apoint18-Company" style="stroke:#181818;stroke-width:1;"/><text fill="#000000" font-family="sans-serif" font-size="13" lengthAdjust="spacing" textLength="6.2651" x="513.1427" y="210.1616">*</text></g><!--link JobLog to apoint18--><g class="link" data-entity-1="JobLog" data-entity-2="apoint18" data-source-line="59" data-uid="lnk22" id="link_JobLog_apoint18"><path d="M490.11,100.86 C490.11,141.9 490.11,201.25 490.11,211.15" fill="none" id="JobLog-apoint18" style="stroke:#181818;stroke-width:1;stroke-dasharray:7,7;"/></g><!--reverse link House to SemiDetached--><g class="link" data-entity-1="House" data-entity-2="SemiDetached" data-source-line="60" data-uid="lnk23" id="link_House_SemiDetached"><path codeLine="60" d="M364.11,272.4 C364.11,291.01 364.11,295.11 364.11,313.72" fill="none" id="House-backto-SemiDetached" style="stroke:#181818;stroke-width:1;"/><polygon fill="none" points="364.11,254.4,358.11,272.4,370.11,272.4,364.11,254.4" style="stroke:#181818;stroke-width:1;"/></g><!--reverse link SemiDetached to SemiDetachedWithCarport--><g class="link" data-entity-1="SemiDetached" data-entity-2="SemiDetachedWithCarport" data-source-line="61" data-uid="lnk24" id="link_SemiDetached_SemiDetachedWithCarport"><path codeLine="61" d="M446.66,354.55 C458.1,354.55 451.54,354.55 462.98,354.55" fill="none" id="SemiDetached-backto-SemiDetachedWithCarport" style="stroke:#181818;stroke-width:1;"/><polygon fill="none" points="428.66,354.55,446.66,360.55,446.66,348.55,428.66,354.55" style="stroke:#181818;stroke-width:1;"/></g><!--reverse link SemiDetached to SemiDetachedWithGarage--><g class="link" data-entity-1="SemiDetached" data-entity-2="SemiDetachedWithGarage" data-source-line="62" data-uid="lnk25" id="link_SemiDetached_SemiDetachedWithGarage"><path codeLine="62" d="M364.11,413.49 C364.11,435.56 364.11,444.23 364.11,462.93" fill="none" id="SemiDetached-backto-SemiDetachedWithGarage" style="stroke:#181818;stroke-width:1;"/><polygon fill="none" points="364.11,395.49,358.11,413.49,370.11,413.49,364.11,395.49" style="stroke:#181818;stroke-width:1;"/></g><!--link SemiDetachedWithCarport to Carport--><g class="link" data-entity-1="SemiDetachedWithCarport" data-entity-2="Carport" data-source-line="63" data-uid="lnk26" id="link_SemiDetachedWithCarport_Carport"><path codeLine="63" d="M673.36,354.55 C684.87,354.55 696.37,354.55 707.88,354.55" fill="none" id="SemiDetachedWithCarport-Carport" style="stroke:#181818;stroke-width:1;"/><text fill="#000000" font-family="sans-serif" font-size="13" lengthAdjust="spacing" textLength="8.2202" x="681.0489" y="351.6019">1</text><text fill="#000000" font-family="sans-serif" font-size="13" lengthAdjust="spacing" textLength="8.2202" x="691.9268" y="351.3601">2</text></g><!--link SemiDetachedWithGarage to Garage--><g class="link" data-entity-1="SemiDetachedWithGarage" data-entity-2="Garage" data-source-line="64" data-uid="lnk27" id="link_SemiDetachedWithGarage_Garage"><path codeLine="64" d="M467.3,487.29 C478.9,487.29 490.5,487.29 502.1,487.29" fill="none" id="SemiDetachedWithGarage-Garage" style="stroke:#181818;stroke-width:1;"/><text fill="#000000" font-family="sans-serif" font-size="13" lengthAdjust="spacing" textLength="8.2202" x="475.1796" y="484.319">1</text><text fill="#000000" font-family="sans-serif" font-size="13" lengthAdjust="spacing" textLength="8.2202" x="486.0168" y="484.0557">1</text></g><!--SRC=[TL9TIyCm57tFhmXzqc6A-Zm6-n2dE9bEsFDjUxS5ssGaAMCw_xjfcgqDQmkbQUuvzvwJapG7hUbKYbIXmGbeB50O-akeVMQoJ7Aa7oNat1p97o6GQACWDJHrl6xyYl-W-ryPnSMMlaE15Hb5MT39ukkuHpeSLd-ZaMSUfCpS8b4y_NQhr6kgcFMq9r1crproNXOywzQumeBFq42wmyoJ9bBc288-WyfGkAqNst7DHIOFkXaubwL6p_5UnbccKEkwJMrbKl8yixK565GSyeR_AfCtkVKDgWcseT9jtKjhj-MmhNNDpMuAQY-LzTgBi1PWYot0L1Px4CTGjKkWmqN3EWyApgSMkRI5O7kJW_cKSjFGpoe2sBWqiW33qmf7hguOOwVHvGAHCDkmTjcExkFu8Q9iG2FxSUcGEgDe437xdjqJV_9nJ6ySuCuNRZr-U68iE4iIN1DRxilY2iXwCY5zOLhjB7gCQ5V3LgGEPctwRly0]--></g></svg>